G04 #@! TF.GenerationSoftware,KiCad,Pcbnew,5.0.1*
G04 #@! TF.CreationDate,2018-10-18T13:45:59+02:00*
G04 #@! TF.ProjectId,MicroFlux,4D6963726F466C75782E6B696361645F,rev?*
G04 #@! TF.SameCoordinates,Original*
G04 #@! TF.FileFunction,Soldermask,Bot*
G04 #@! TF.FilePolarity,Negative*
%FSLAX46Y46*%
G04 Gerber Fmt 4.6, Leading zero omitted, Abs format (unit mm)*
G04 Created by KiCad (PCBNEW 5.0.1) date Thu 18 Oct 2018 01:45:59 PM CEST*
%MOMM*%
%LPD*%
G01*
G04 APERTURE LIST*
%ADD10C,0.100000*%
G04 APERTURE END LIST*
D10*
G36*
X190886393Y-112643553D02*
X190995872Y-112665330D01*
X191305252Y-112793479D01*
X191583687Y-112979523D01*
X191820477Y-113216313D01*
X192006521Y-113494748D01*
X192134670Y-113804128D01*
X192200000Y-114132565D01*
X192200000Y-114467435D01*
X192134670Y-114795872D01*
X192006521Y-115105252D01*
X191820477Y-115383687D01*
X191583687Y-115620477D01*
X191305252Y-115806521D01*
X190995872Y-115934670D01*
X190886393Y-115956447D01*
X190667437Y-116000000D01*
X190332563Y-116000000D01*
X190113607Y-115956447D01*
X190004128Y-115934670D01*
X189694748Y-115806521D01*
X189416313Y-115620477D01*
X189179523Y-115383687D01*
X188993479Y-115105252D01*
X188865330Y-114795872D01*
X188800000Y-114467435D01*
X188800000Y-114132565D01*
X188865330Y-113804128D01*
X188993479Y-113494748D01*
X189179523Y-113216313D01*
X189416313Y-112979523D01*
X189694748Y-112793479D01*
X190004128Y-112665330D01*
X190113607Y-112643553D01*
X190332563Y-112600000D01*
X190667437Y-112600000D01*
X190886393Y-112643553D01*
X190886393Y-112643553D01*
G37*
G36*
X178186393Y-112643553D02*
X178295872Y-112665330D01*
X178605252Y-112793479D01*
X178883687Y-112979523D01*
X179120477Y-113216313D01*
X179306521Y-113494748D01*
X179434670Y-113804128D01*
X179500000Y-114132565D01*
X179500000Y-114467435D01*
X179434670Y-114795872D01*
X179306521Y-115105252D01*
X179120477Y-115383687D01*
X178883687Y-115620477D01*
X178605252Y-115806521D01*
X178295872Y-115934670D01*
X178186393Y-115956447D01*
X177967437Y-116000000D01*
X177632563Y-116000000D01*
X177413607Y-115956447D01*
X177304128Y-115934670D01*
X176994748Y-115806521D01*
X176716313Y-115620477D01*
X176479523Y-115383687D01*
X176293479Y-115105252D01*
X176165330Y-114795872D01*
X176100000Y-114467435D01*
X176100000Y-114132565D01*
X176165330Y-113804128D01*
X176293479Y-113494748D01*
X176479523Y-113216313D01*
X176716313Y-112979523D01*
X176994748Y-112793479D01*
X177304128Y-112665330D01*
X177413607Y-112643553D01*
X177632563Y-112600000D01*
X177967437Y-112600000D01*
X178186393Y-112643553D01*
X178186393Y-112643553D01*
G37*
G36*
X191240026Y-106756115D02*
X191458412Y-106846573D01*
X191654958Y-106977901D01*
X191822099Y-107145042D01*
X191953427Y-107341588D01*
X192043885Y-107559974D01*
X192090000Y-107791809D01*
X192090000Y-108028191D01*
X192043885Y-108260026D01*
X191953427Y-108478412D01*
X191822099Y-108674958D01*
X191654958Y-108842099D01*
X191458412Y-108973427D01*
X191286790Y-109044515D01*
X191265179Y-109056066D01*
X191246237Y-109071612D01*
X191230691Y-109090554D01*
X191219140Y-109112164D01*
X191212027Y-109135614D01*
X191209625Y-109160000D01*
X191212027Y-109184386D01*
X191219140Y-109207835D01*
X191230691Y-109229446D01*
X191246237Y-109248388D01*
X191265179Y-109263934D01*
X191286790Y-109275485D01*
X191458412Y-109346573D01*
X191654958Y-109477901D01*
X191822099Y-109645042D01*
X191953427Y-109841588D01*
X192043885Y-110059974D01*
X192090000Y-110291809D01*
X192090000Y-110528191D01*
X192043885Y-110760026D01*
X191953427Y-110978412D01*
X191822099Y-111174958D01*
X191654958Y-111342099D01*
X191458412Y-111473427D01*
X191240026Y-111563885D01*
X191008191Y-111610000D01*
X190771809Y-111610000D01*
X190539974Y-111563885D01*
X190321588Y-111473427D01*
X190125042Y-111342099D01*
X189957901Y-111174958D01*
X189826573Y-110978412D01*
X189736115Y-110760026D01*
X189690000Y-110528191D01*
X189690000Y-110291809D01*
X189736115Y-110059974D01*
X189826573Y-109841588D01*
X189957901Y-109645042D01*
X190125042Y-109477901D01*
X190321588Y-109346573D01*
X190493210Y-109275485D01*
X190514821Y-109263934D01*
X190533763Y-109248388D01*
X190549309Y-109229446D01*
X190560860Y-109207836D01*
X190567973Y-109184386D01*
X190570375Y-109160000D01*
X190567973Y-109135614D01*
X190560860Y-109112165D01*
X190549309Y-109090554D01*
X190533763Y-109071612D01*
X190514821Y-109056066D01*
X190493210Y-109044515D01*
X190321588Y-108973427D01*
X190125042Y-108842099D01*
X189957901Y-108674958D01*
X189826573Y-108478412D01*
X189736115Y-108260026D01*
X189690000Y-108028191D01*
X189690000Y-107791809D01*
X189736115Y-107559974D01*
X189826573Y-107341588D01*
X189957901Y-107145042D01*
X190125042Y-106977901D01*
X190321588Y-106846573D01*
X190539974Y-106756115D01*
X190771809Y-106710000D01*
X191008191Y-106710000D01*
X191240026Y-106756115D01*
X191240026Y-106756115D01*
G37*
G36*
X176890857Y-109352272D02*
X177091042Y-109435191D01*
X177271213Y-109555578D01*
X177424422Y-109708787D01*
X177544809Y-109888958D01*
X177627728Y-110089143D01*
X177670000Y-110301658D01*
X177670000Y-110518342D01*
X177627728Y-110730857D01*
X177544809Y-110931042D01*
X177424422Y-111111213D01*
X177271213Y-111264422D01*
X177091042Y-111384809D01*
X176890857Y-111467728D01*
X176678342Y-111510000D01*
X176461658Y-111510000D01*
X176249143Y-111467728D01*
X176048958Y-111384809D01*
X175868787Y-111264422D01*
X175715578Y-111111213D01*
X175595191Y-110931042D01*
X175512272Y-110730857D01*
X175470000Y-110518342D01*
X175470000Y-110301658D01*
X175512272Y-110089143D01*
X175595191Y-109888958D01*
X175715578Y-109708787D01*
X175868787Y-109555578D01*
X176048958Y-109435191D01*
X176249143Y-109352272D01*
X176461658Y-109310000D01*
X176678342Y-109310000D01*
X176890857Y-109352272D01*
X176890857Y-109352272D01*
G37*
G36*
X185640857Y-109352272D02*
X185841042Y-109435191D01*
X186021213Y-109555578D01*
X186174422Y-109708787D01*
X186294809Y-109888958D01*
X186377728Y-110089143D01*
X186420000Y-110301658D01*
X186420000Y-110518342D01*
X186377728Y-110730857D01*
X186294809Y-110931042D01*
X186174422Y-111111213D01*
X186021213Y-111264422D01*
X185841042Y-111384809D01*
X185640857Y-111467728D01*
X185428342Y-111510000D01*
X185211658Y-111510000D01*
X184999143Y-111467728D01*
X184798958Y-111384809D01*
X184618787Y-111264422D01*
X184465578Y-111111213D01*
X184345191Y-110931042D01*
X184262272Y-110730857D01*
X184220000Y-110518342D01*
X184220000Y-110301658D01*
X184262272Y-110089143D01*
X184345191Y-109888958D01*
X184465578Y-109708787D01*
X184618787Y-109555578D01*
X184798958Y-109435191D01*
X184999143Y-109352272D01*
X185211658Y-109310000D01*
X185428342Y-109310000D01*
X185640857Y-109352272D01*
X185640857Y-109352272D01*
G37*
G36*
X179390857Y-109352272D02*
X179591042Y-109435191D01*
X179771213Y-109555578D01*
X179924422Y-109708787D01*
X180044809Y-109888958D01*
X180127728Y-110089143D01*
X180170000Y-110301658D01*
X180170000Y-110518342D01*
X180127728Y-110730857D01*
X180044809Y-110931042D01*
X179924422Y-111111213D01*
X179771213Y-111264422D01*
X179591042Y-111384809D01*
X179390857Y-111467728D01*
X179178342Y-111510000D01*
X178961658Y-111510000D01*
X178749143Y-111467728D01*
X178548958Y-111384809D01*
X178368787Y-111264422D01*
X178215578Y-111111213D01*
X178095191Y-110931042D01*
X178012272Y-110730857D01*
X177970000Y-110518342D01*
X177970000Y-110301658D01*
X178012272Y-110089143D01*
X178095191Y-109888958D01*
X178215578Y-109708787D01*
X178368787Y-109555578D01*
X178548958Y-109435191D01*
X178749143Y-109352272D01*
X178961658Y-109310000D01*
X179178342Y-109310000D01*
X179390857Y-109352272D01*
X179390857Y-109352272D01*
G37*
G36*
X196123352Y-109640743D02*
X196268941Y-109701048D01*
X196399973Y-109788601D01*
X196511399Y-109900027D01*
X196598952Y-110031059D01*
X196659257Y-110176648D01*
X196690000Y-110331205D01*
X196690000Y-110488795D01*
X196659257Y-110643352D01*
X196598952Y-110788941D01*
X196511399Y-110919973D01*
X196399973Y-111031399D01*
X196268941Y-111118952D01*
X196123352Y-111179257D01*
X195968795Y-111210000D01*
X195811205Y-111210000D01*
X195656648Y-111179257D01*
X195511059Y-111118952D01*
X195380027Y-111031399D01*
X195268601Y-110919973D01*
X195181048Y-110788941D01*
X195120743Y-110643352D01*
X195090000Y-110488795D01*
X195090000Y-110331205D01*
X195120743Y-110176648D01*
X195181048Y-110031059D01*
X195268601Y-109900027D01*
X195380027Y-109788601D01*
X195511059Y-109701048D01*
X195656648Y-109640743D01*
X195811205Y-109610000D01*
X195968795Y-109610000D01*
X196123352Y-109640743D01*
X196123352Y-109640743D01*
G37*
G36*
X198623352Y-109640743D02*
X198768941Y-109701048D01*
X198899973Y-109788601D01*
X199011399Y-109900027D01*
X199098952Y-110031059D01*
X199159257Y-110176648D01*
X199190000Y-110331205D01*
X199190000Y-110488795D01*
X199159257Y-110643352D01*
X199098952Y-110788941D01*
X199011399Y-110919973D01*
X198899973Y-111031399D01*
X198768941Y-111118952D01*
X198623352Y-111179257D01*
X198468795Y-111210000D01*
X198311205Y-111210000D01*
X198156648Y-111179257D01*
X198011059Y-111118952D01*
X197880027Y-111031399D01*
X197768601Y-110919973D01*
X197681048Y-110788941D01*
X197620743Y-110643352D01*
X197590000Y-110488795D01*
X197590000Y-110331205D01*
X197620743Y-110176648D01*
X197681048Y-110031059D01*
X197768601Y-109900027D01*
X197880027Y-109788601D01*
X198011059Y-109701048D01*
X198156648Y-109640743D01*
X198311205Y-109610000D01*
X198468795Y-109610000D01*
X198623352Y-109640743D01*
X198623352Y-109640743D01*
G37*
G36*
X179390857Y-106852272D02*
X179591042Y-106935191D01*
X179771213Y-107055578D01*
X179924422Y-107208787D01*
X180044809Y-107388958D01*
X180127728Y-107589143D01*
X180170000Y-107801658D01*
X180170000Y-108018342D01*
X180127728Y-108230857D01*
X180044809Y-108431042D01*
X179924422Y-108611213D01*
X179771213Y-108764422D01*
X179591042Y-108884809D01*
X179390857Y-108967728D01*
X179178342Y-109010000D01*
X178961658Y-109010000D01*
X178749143Y-108967728D01*
X178548958Y-108884809D01*
X178368787Y-108764422D01*
X178215578Y-108611213D01*
X178095191Y-108431042D01*
X178012272Y-108230857D01*
X177970000Y-108018342D01*
X177970000Y-107801658D01*
X178012272Y-107589143D01*
X178095191Y-107388958D01*
X178215578Y-107208787D01*
X178368787Y-107055578D01*
X178548958Y-106935191D01*
X178749143Y-106852272D01*
X178961658Y-106810000D01*
X179178342Y-106810000D01*
X179390857Y-106852272D01*
X179390857Y-106852272D01*
G37*
G36*
X176890857Y-106852272D02*
X177091042Y-106935191D01*
X177271213Y-107055578D01*
X177424422Y-107208787D01*
X177544809Y-107388958D01*
X177627728Y-107589143D01*
X177670000Y-107801658D01*
X177670000Y-108018342D01*
X177627728Y-108230857D01*
X177544809Y-108431042D01*
X177424422Y-108611213D01*
X177271213Y-108764422D01*
X177091042Y-108884809D01*
X176890857Y-108967728D01*
X176678342Y-109010000D01*
X176461658Y-109010000D01*
X176249143Y-108967728D01*
X176048958Y-108884809D01*
X175868787Y-108764422D01*
X175715578Y-108611213D01*
X175595191Y-108431042D01*
X175512272Y-108230857D01*
X175470000Y-108018342D01*
X175470000Y-107801658D01*
X175512272Y-107589143D01*
X175595191Y-107388958D01*
X175715578Y-107208787D01*
X175868787Y-107055578D01*
X176048958Y-106935191D01*
X176249143Y-106852272D01*
X176461658Y-106810000D01*
X176678342Y-106810000D01*
X176890857Y-106852272D01*
X176890857Y-106852272D01*
G37*
G36*
X196240026Y-104256115D02*
X196458412Y-104346573D01*
X196654958Y-104477901D01*
X196822099Y-104645042D01*
X196953427Y-104841588D01*
X197043885Y-105059974D01*
X197090000Y-105291809D01*
X197090000Y-105528191D01*
X197043885Y-105760026D01*
X196953427Y-105978412D01*
X196822099Y-106174958D01*
X196654958Y-106342099D01*
X196458412Y-106473427D01*
X196240026Y-106563885D01*
X196008191Y-106610000D01*
X195771809Y-106610000D01*
X195539974Y-106563885D01*
X195321588Y-106473427D01*
X195125042Y-106342099D01*
X194957901Y-106174958D01*
X194826573Y-105978412D01*
X194736115Y-105760026D01*
X194690000Y-105528191D01*
X194690000Y-105291809D01*
X194736115Y-105059974D01*
X194826573Y-104841588D01*
X194957901Y-104645042D01*
X195125042Y-104477901D01*
X195321588Y-104346573D01*
X195539974Y-104256115D01*
X195771809Y-104210000D01*
X196008191Y-104210000D01*
X196240026Y-104256115D01*
X196240026Y-104256115D01*
G37*
G36*
X179390857Y-104352272D02*
X179591042Y-104435191D01*
X179771213Y-104555578D01*
X179924422Y-104708787D01*
X180044809Y-104888958D01*
X180127728Y-105089143D01*
X180170000Y-105301658D01*
X180170000Y-105518342D01*
X180127728Y-105730857D01*
X180044809Y-105931042D01*
X179924422Y-106111213D01*
X179771213Y-106264422D01*
X179591042Y-106384809D01*
X179390857Y-106467728D01*
X179178342Y-106510000D01*
X178961658Y-106510000D01*
X178749143Y-106467728D01*
X178548958Y-106384809D01*
X178368787Y-106264422D01*
X178215578Y-106111213D01*
X178095191Y-105931042D01*
X178012272Y-105730857D01*
X177970000Y-105518342D01*
X177970000Y-105301658D01*
X178012272Y-105089143D01*
X178095191Y-104888958D01*
X178215578Y-104708787D01*
X178368787Y-104555578D01*
X178548958Y-104435191D01*
X178749143Y-104352272D01*
X178961658Y-104310000D01*
X179178342Y-104310000D01*
X179390857Y-104352272D01*
X179390857Y-104352272D01*
G37*
G36*
X176890857Y-104352272D02*
X177091042Y-104435191D01*
X177271213Y-104555578D01*
X177424422Y-104708787D01*
X177544809Y-104888958D01*
X177627728Y-105089143D01*
X177670000Y-105301658D01*
X177670000Y-105518342D01*
X177627728Y-105730857D01*
X177544809Y-105931042D01*
X177424422Y-106111213D01*
X177271213Y-106264422D01*
X177091042Y-106384809D01*
X176890857Y-106467728D01*
X176678342Y-106510000D01*
X176461658Y-106510000D01*
X176249143Y-106467728D01*
X176048958Y-106384809D01*
X175868787Y-106264422D01*
X175715578Y-106111213D01*
X175595191Y-105931042D01*
X175512272Y-105730857D01*
X175470000Y-105518342D01*
X175470000Y-105301658D01*
X175512272Y-105089143D01*
X175595191Y-104888958D01*
X175715578Y-104708787D01*
X175868787Y-104555578D01*
X176048958Y-104435191D01*
X176249143Y-104352272D01*
X176461658Y-104310000D01*
X176678342Y-104310000D01*
X176890857Y-104352272D01*
X176890857Y-104352272D01*
G37*
G36*
X185640857Y-104352272D02*
X185841042Y-104435191D01*
X186021213Y-104555578D01*
X186174422Y-104708787D01*
X186294809Y-104888958D01*
X186377728Y-105089143D01*
X186420000Y-105301658D01*
X186420000Y-105518342D01*
X186377728Y-105730857D01*
X186294809Y-105931042D01*
X186174422Y-106111213D01*
X186021213Y-106264422D01*
X185841042Y-106384809D01*
X185640857Y-106467728D01*
X185428342Y-106510000D01*
X185211658Y-106510000D01*
X184999143Y-106467728D01*
X184798958Y-106384809D01*
X184618787Y-106264422D01*
X184465578Y-106111213D01*
X184345191Y-105931042D01*
X184262272Y-105730857D01*
X184220000Y-105518342D01*
X184220000Y-105301658D01*
X184262272Y-105089143D01*
X184345191Y-104888958D01*
X184465578Y-104708787D01*
X184618787Y-104555578D01*
X184798958Y-104435191D01*
X184999143Y-104352272D01*
X185211658Y-104310000D01*
X185428342Y-104310000D01*
X185640857Y-104352272D01*
X185640857Y-104352272D01*
G37*
G36*
X191123352Y-104640743D02*
X191268941Y-104701048D01*
X191399973Y-104788601D01*
X191511399Y-104900027D01*
X191598952Y-105031059D01*
X191659257Y-105176648D01*
X191690000Y-105331205D01*
X191690000Y-105488795D01*
X191659257Y-105643352D01*
X191598952Y-105788941D01*
X191511399Y-105919973D01*
X191399973Y-106031399D01*
X191268941Y-106118952D01*
X191123352Y-106179257D01*
X190968795Y-106210000D01*
X190811205Y-106210000D01*
X190656648Y-106179257D01*
X190511059Y-106118952D01*
X190380027Y-106031399D01*
X190268601Y-105919973D01*
X190181048Y-105788941D01*
X190120743Y-105643352D01*
X190090000Y-105488795D01*
X190090000Y-105331205D01*
X190120743Y-105176648D01*
X190181048Y-105031059D01*
X190268601Y-104900027D01*
X190380027Y-104788601D01*
X190511059Y-104701048D01*
X190656648Y-104640743D01*
X190811205Y-104610000D01*
X190968795Y-104610000D01*
X191123352Y-104640743D01*
X191123352Y-104640743D01*
G37*
G36*
X173390935Y-101938429D02*
X173487534Y-101957644D01*
X173760517Y-102070717D01*
X173871756Y-102145045D01*
X174006197Y-102234876D01*
X174215124Y-102443803D01*
X174379284Y-102689485D01*
X174492356Y-102962467D01*
X174550000Y-103252261D01*
X174550000Y-103547739D01*
X174492356Y-103837533D01*
X174379284Y-104110515D01*
X174215124Y-104356197D01*
X174006197Y-104565124D01*
X174006194Y-104565126D01*
X173760517Y-104729283D01*
X173487534Y-104842356D01*
X173390935Y-104861571D01*
X173197739Y-104900000D01*
X172902261Y-104900000D01*
X172709065Y-104861571D01*
X172612466Y-104842356D01*
X172339483Y-104729283D01*
X172093806Y-104565126D01*
X172093803Y-104565124D01*
X171884876Y-104356197D01*
X171720716Y-104110515D01*
X171607644Y-103837533D01*
X171550000Y-103547739D01*
X171550000Y-103252261D01*
X171607644Y-102962467D01*
X171720716Y-102689485D01*
X171884876Y-102443803D01*
X172093803Y-102234876D01*
X172228244Y-102145045D01*
X172339483Y-102070717D01*
X172612466Y-101957644D01*
X172709065Y-101938429D01*
X172902261Y-101900000D01*
X173197739Y-101900000D01*
X173390935Y-101938429D01*
X173390935Y-101938429D01*
G37*
G36*
X191240026Y-99256115D02*
X191458412Y-99346573D01*
X191654958Y-99477901D01*
X191822099Y-99645042D01*
X191953427Y-99841588D01*
X192043885Y-100059974D01*
X192090000Y-100291809D01*
X192090000Y-100528191D01*
X192043885Y-100760026D01*
X191953427Y-100978412D01*
X191822099Y-101174958D01*
X191654958Y-101342099D01*
X191458412Y-101473427D01*
X191286790Y-101544515D01*
X191265179Y-101556066D01*
X191246237Y-101571612D01*
X191230691Y-101590554D01*
X191219140Y-101612164D01*
X191212027Y-101635614D01*
X191209625Y-101660000D01*
X191212027Y-101684386D01*
X191219140Y-101707835D01*
X191230691Y-101729446D01*
X191246237Y-101748388D01*
X191265179Y-101763934D01*
X191286790Y-101775485D01*
X191458412Y-101846573D01*
X191654958Y-101977901D01*
X191822099Y-102145042D01*
X191953427Y-102341588D01*
X192043885Y-102559974D01*
X192090000Y-102791809D01*
X192090000Y-103028191D01*
X192043885Y-103260026D01*
X191953427Y-103478412D01*
X191822099Y-103674958D01*
X191654958Y-103842099D01*
X191458412Y-103973427D01*
X191240026Y-104063885D01*
X191008191Y-104110000D01*
X190771809Y-104110000D01*
X190539974Y-104063885D01*
X190321588Y-103973427D01*
X190125042Y-103842099D01*
X189957901Y-103674958D01*
X189826573Y-103478412D01*
X189736115Y-103260026D01*
X189690000Y-103028191D01*
X189690000Y-102791809D01*
X189736115Y-102559974D01*
X189826573Y-102341588D01*
X189957901Y-102145042D01*
X190125042Y-101977901D01*
X190321588Y-101846573D01*
X190493210Y-101775485D01*
X190514821Y-101763934D01*
X190533763Y-101748388D01*
X190549309Y-101729446D01*
X190560860Y-101707836D01*
X190567973Y-101684386D01*
X190570375Y-101660000D01*
X190567973Y-101635614D01*
X190560860Y-101612165D01*
X190549309Y-101590554D01*
X190533763Y-101571612D01*
X190514821Y-101556066D01*
X190493210Y-101544515D01*
X190321588Y-101473427D01*
X190125042Y-101342099D01*
X189957901Y-101174958D01*
X189826573Y-100978412D01*
X189736115Y-100760026D01*
X189690000Y-100528191D01*
X189690000Y-100291809D01*
X189736115Y-100059974D01*
X189826573Y-99841588D01*
X189957901Y-99645042D01*
X190125042Y-99477901D01*
X190321588Y-99346573D01*
X190539974Y-99256115D01*
X190771809Y-99210000D01*
X191008191Y-99210000D01*
X191240026Y-99256115D01*
X191240026Y-99256115D01*
G37*
G36*
X185536448Y-100656873D02*
X185606232Y-100663746D01*
X185695770Y-100690907D01*
X185785309Y-100718068D01*
X185950347Y-100806283D01*
X186095001Y-100924999D01*
X186213717Y-101069653D01*
X186301932Y-101234691D01*
X186356254Y-101413769D01*
X186374596Y-101600000D01*
X186356254Y-101786231D01*
X186301932Y-101965309D01*
X186213717Y-102130347D01*
X186095001Y-102275001D01*
X185950347Y-102393717D01*
X185785309Y-102481932D01*
X185695770Y-102509093D01*
X185606232Y-102536254D01*
X185536448Y-102543127D01*
X185466666Y-102550000D01*
X185373334Y-102550000D01*
X185303552Y-102543127D01*
X185233768Y-102536254D01*
X185144230Y-102509093D01*
X185054691Y-102481932D01*
X184889653Y-102393717D01*
X184744999Y-102275001D01*
X184626283Y-102130347D01*
X184538068Y-101965309D01*
X184483746Y-101786231D01*
X184465404Y-101600000D01*
X184483746Y-101413769D01*
X184538068Y-101234691D01*
X184626283Y-101069653D01*
X184744999Y-100924999D01*
X184889653Y-100806283D01*
X185054691Y-100718068D01*
X185144230Y-100690907D01*
X185233768Y-100663746D01*
X185373334Y-100650000D01*
X185466666Y-100650000D01*
X185536448Y-100656873D01*
X185536448Y-100656873D01*
G37*
G36*
X178750000Y-102550000D02*
X176850000Y-102550000D01*
X176850000Y-100650000D01*
X178750000Y-100650000D01*
X178750000Y-102550000D01*
X178750000Y-102550000D01*
G37*
G36*
X196123352Y-99640743D02*
X196268941Y-99701048D01*
X196399973Y-99788601D01*
X196511399Y-99900027D01*
X196598952Y-100031059D01*
X196659257Y-100176648D01*
X196690000Y-100331205D01*
X196690000Y-100488795D01*
X196659257Y-100643352D01*
X196598952Y-100788941D01*
X196511399Y-100919973D01*
X196399973Y-101031399D01*
X196268941Y-101118952D01*
X196123352Y-101179257D01*
X195968795Y-101210000D01*
X195811205Y-101210000D01*
X195656648Y-101179257D01*
X195511059Y-101118952D01*
X195380027Y-101031399D01*
X195268601Y-100919973D01*
X195181048Y-100788941D01*
X195120743Y-100643352D01*
X195090000Y-100488795D01*
X195090000Y-100331205D01*
X195120743Y-100176648D01*
X195181048Y-100031059D01*
X195268601Y-99900027D01*
X195380027Y-99788601D01*
X195511059Y-99701048D01*
X195656648Y-99640743D01*
X195811205Y-99610000D01*
X195968795Y-99610000D01*
X196123352Y-99640743D01*
X196123352Y-99640743D01*
G37*
G36*
X198623352Y-99640743D02*
X198768941Y-99701048D01*
X198899973Y-99788601D01*
X199011399Y-99900027D01*
X199098952Y-100031059D01*
X199159257Y-100176648D01*
X199190000Y-100331205D01*
X199190000Y-100488795D01*
X199159257Y-100643352D01*
X199098952Y-100788941D01*
X199011399Y-100919973D01*
X198899973Y-101031399D01*
X198768941Y-101118952D01*
X198623352Y-101179257D01*
X198468795Y-101210000D01*
X198311205Y-101210000D01*
X198156648Y-101179257D01*
X198011059Y-101118952D01*
X197880027Y-101031399D01*
X197768601Y-100919973D01*
X197681048Y-100788941D01*
X197620743Y-100643352D01*
X197590000Y-100488795D01*
X197590000Y-100331205D01*
X197620743Y-100176648D01*
X197681048Y-100031059D01*
X197768601Y-99900027D01*
X197880027Y-99788601D01*
X198011059Y-99701048D01*
X198156648Y-99640743D01*
X198311205Y-99610000D01*
X198468795Y-99610000D01*
X198623352Y-99640743D01*
X198623352Y-99640743D01*
G37*
G36*
X178900000Y-98890000D02*
X176700000Y-98890000D01*
X176700000Y-96690000D01*
X178900000Y-96690000D01*
X178900000Y-98890000D01*
X178900000Y-98890000D01*
G37*
G36*
X175580857Y-96732272D02*
X175781042Y-96815191D01*
X175781045Y-96815193D01*
X175944763Y-96924586D01*
X175961213Y-96935578D01*
X176114422Y-97088787D01*
X176114424Y-97088790D01*
X176114425Y-97088791D01*
X176155674Y-97150525D01*
X176234809Y-97268958D01*
X176317728Y-97469143D01*
X176360000Y-97681658D01*
X176360000Y-97898342D01*
X176317728Y-98110857D01*
X176234809Y-98311042D01*
X176234807Y-98311045D01*
X176115852Y-98489074D01*
X176114422Y-98491213D01*
X175961213Y-98644422D01*
X175961210Y-98644424D01*
X175961209Y-98644425D01*
X175912490Y-98676978D01*
X175781042Y-98764809D01*
X175580857Y-98847728D01*
X175368342Y-98890000D01*
X175151658Y-98890000D01*
X174939143Y-98847728D01*
X174738958Y-98764809D01*
X174607510Y-98676978D01*
X174558791Y-98644425D01*
X174558790Y-98644424D01*
X174558787Y-98644422D01*
X174405578Y-98491213D01*
X174404149Y-98489074D01*
X174285193Y-98311045D01*
X174285191Y-98311042D01*
X174202272Y-98110857D01*
X174160000Y-97898342D01*
X174160000Y-97681658D01*
X174202272Y-97469143D01*
X174285191Y-97268958D01*
X174364326Y-97150525D01*
X174405575Y-97088791D01*
X174405576Y-97088790D01*
X174405578Y-97088787D01*
X174558787Y-96935578D01*
X174575238Y-96924586D01*
X174738955Y-96815193D01*
X174738958Y-96815191D01*
X174939143Y-96732272D01*
X175151658Y-96690000D01*
X175368342Y-96690000D01*
X175580857Y-96732272D01*
X175580857Y-96732272D01*
G37*
G36*
X188136432Y-96903022D02*
X188306081Y-96954485D01*
X188462433Y-97038056D01*
X188599475Y-97150525D01*
X188711944Y-97287567D01*
X188795515Y-97443919D01*
X188846978Y-97613568D01*
X188864354Y-97790000D01*
X188846978Y-97966432D01*
X188795515Y-98136081D01*
X188711944Y-98292433D01*
X188599475Y-98429475D01*
X188462433Y-98541944D01*
X188306081Y-98625515D01*
X188136432Y-98676978D01*
X188004211Y-98690000D01*
X187915789Y-98690000D01*
X187783568Y-98676978D01*
X187613919Y-98625515D01*
X187457567Y-98541944D01*
X187320525Y-98429475D01*
X187208056Y-98292433D01*
X187124485Y-98136081D01*
X187073022Y-97966432D01*
X187055646Y-97790000D01*
X187073022Y-97613568D01*
X187124485Y-97443919D01*
X187208056Y-97287567D01*
X187320525Y-97150525D01*
X187457567Y-97038056D01*
X187613919Y-96954485D01*
X187783568Y-96903022D01*
X187915789Y-96890000D01*
X188004211Y-96890000D01*
X188136432Y-96903022D01*
X188136432Y-96903022D01*
G37*
G36*
X180602521Y-96924586D02*
X180766309Y-96992429D01*
X180913720Y-97090926D01*
X181039074Y-97216280D01*
X181137571Y-97363691D01*
X181205414Y-97527479D01*
X181240000Y-97701356D01*
X181240000Y-97878644D01*
X181205414Y-98052521D01*
X181137571Y-98216309D01*
X181039074Y-98363720D01*
X180913720Y-98489074D01*
X180766309Y-98587571D01*
X180602521Y-98655414D01*
X180428644Y-98690000D01*
X180251356Y-98690000D01*
X180077479Y-98655414D01*
X179913691Y-98587571D01*
X179766280Y-98489074D01*
X179640926Y-98363720D01*
X179542429Y-98216309D01*
X179474586Y-98052521D01*
X179440000Y-97878644D01*
X179440000Y-97701356D01*
X179474586Y-97527479D01*
X179542429Y-97363691D01*
X179640926Y-97216280D01*
X179766280Y-97090926D01*
X179913691Y-96992429D01*
X180077479Y-96924586D01*
X180251356Y-96890000D01*
X180428644Y-96890000D01*
X180602521Y-96924586D01*
X180602521Y-96924586D01*
G37*
G36*
X195756432Y-93093022D02*
X195926081Y-93144485D01*
X196082433Y-93228056D01*
X196219475Y-93340525D01*
X196331944Y-93477567D01*
X196415515Y-93633919D01*
X196466978Y-93803568D01*
X196484354Y-93980000D01*
X196466978Y-94156432D01*
X196415515Y-94326081D01*
X196331944Y-94482433D01*
X196219475Y-94619475D01*
X196082433Y-94731944D01*
X195926081Y-94815515D01*
X195756432Y-94866978D01*
X195624211Y-94880000D01*
X195535789Y-94880000D01*
X195403568Y-94866978D01*
X195233919Y-94815515D01*
X195077567Y-94731944D01*
X194940525Y-94619475D01*
X194828056Y-94482433D01*
X194744485Y-94326081D01*
X194693022Y-94156432D01*
X194675646Y-93980000D01*
X194693022Y-93803568D01*
X194744485Y-93633919D01*
X194828056Y-93477567D01*
X194940525Y-93340525D01*
X195077567Y-93228056D01*
X195233919Y-93144485D01*
X195403568Y-93093022D01*
X195535789Y-93080000D01*
X195624211Y-93080000D01*
X195756432Y-93093022D01*
X195756432Y-93093022D01*
G37*
G36*
X172982521Y-93114586D02*
X173146309Y-93182429D01*
X173293720Y-93280926D01*
X173419074Y-93406280D01*
X173517571Y-93553691D01*
X173585414Y-93717479D01*
X173620000Y-93891356D01*
X173620000Y-94068644D01*
X173585414Y-94242521D01*
X173517571Y-94406309D01*
X173419074Y-94553720D01*
X173293720Y-94679074D01*
X173146309Y-94777571D01*
X172982521Y-94845414D01*
X172808644Y-94880000D01*
X172631356Y-94880000D01*
X172457479Y-94845414D01*
X172293691Y-94777571D01*
X172146280Y-94679074D01*
X172020926Y-94553720D01*
X171922429Y-94406309D01*
X171854586Y-94242521D01*
X171820000Y-94068644D01*
X171820000Y-93891356D01*
X171854586Y-93717479D01*
X171922429Y-93553691D01*
X172020926Y-93406280D01*
X172146280Y-93280926D01*
X172293691Y-93182429D01*
X172457479Y-93114586D01*
X172631356Y-93080000D01*
X172808644Y-93080000D01*
X172982521Y-93114586D01*
X172982521Y-93114586D01*
G37*
G36*
X188222521Y-93114586D02*
X188386309Y-93182429D01*
X188533720Y-93280926D01*
X188659074Y-93406280D01*
X188757571Y-93553691D01*
X188825414Y-93717479D01*
X188860000Y-93891356D01*
X188860000Y-94068644D01*
X188825414Y-94242521D01*
X188757571Y-94406309D01*
X188659074Y-94553720D01*
X188533720Y-94679074D01*
X188386309Y-94777571D01*
X188222521Y-94845414D01*
X188048644Y-94880000D01*
X187871356Y-94880000D01*
X187697479Y-94845414D01*
X187533691Y-94777571D01*
X187386280Y-94679074D01*
X187260926Y-94553720D01*
X187162429Y-94406309D01*
X187094586Y-94242521D01*
X187060000Y-94068644D01*
X187060000Y-93891356D01*
X187094586Y-93717479D01*
X187162429Y-93553691D01*
X187260926Y-93406280D01*
X187386280Y-93280926D01*
X187533691Y-93182429D01*
X187697479Y-93114586D01*
X187871356Y-93080000D01*
X188048644Y-93080000D01*
X188222521Y-93114586D01*
X188222521Y-93114586D01*
G37*
G36*
X180516432Y-93093022D02*
X180686081Y-93144485D01*
X180842433Y-93228056D01*
X180979475Y-93340525D01*
X181091944Y-93477567D01*
X181175515Y-93633919D01*
X181226978Y-93803568D01*
X181244354Y-93980000D01*
X181226978Y-94156432D01*
X181175515Y-94326081D01*
X181091944Y-94482433D01*
X180979475Y-94619475D01*
X180842433Y-94731944D01*
X180686081Y-94815515D01*
X180516432Y-94866978D01*
X180384211Y-94880000D01*
X180295789Y-94880000D01*
X180163568Y-94866978D01*
X179993919Y-94815515D01*
X179837567Y-94731944D01*
X179700525Y-94619475D01*
X179588056Y-94482433D01*
X179504485Y-94326081D01*
X179453022Y-94156432D01*
X179435646Y-93980000D01*
X179453022Y-93803568D01*
X179504485Y-93633919D01*
X179588056Y-93477567D01*
X179700525Y-93340525D01*
X179837567Y-93228056D01*
X179993919Y-93144485D01*
X180163568Y-93093022D01*
X180295789Y-93080000D01*
X180384211Y-93080000D01*
X180516432Y-93093022D01*
X180516432Y-93093022D01*
G37*
G36*
X195590935Y-88688429D02*
X195687534Y-88707644D01*
X195960517Y-88820717D01*
X196202920Y-88982687D01*
X196206197Y-88984876D01*
X196415124Y-89193803D01*
X196415126Y-89193806D01*
X196579283Y-89439483D01*
X196692356Y-89712466D01*
X196750000Y-90002263D01*
X196750000Y-90297737D01*
X196692356Y-90587534D01*
X196579283Y-90860517D01*
X196521663Y-90946751D01*
X196415124Y-91106197D01*
X196206197Y-91315124D01*
X196206194Y-91315126D01*
X195960517Y-91479283D01*
X195687534Y-91592356D01*
X195590935Y-91611571D01*
X195397739Y-91650000D01*
X195102261Y-91650000D01*
X194909065Y-91611571D01*
X194812466Y-91592356D01*
X194539483Y-91479283D01*
X194293806Y-91315126D01*
X194293803Y-91315124D01*
X194084876Y-91106197D01*
X193978337Y-90946751D01*
X193920717Y-90860517D01*
X193807644Y-90587534D01*
X193750000Y-90297737D01*
X193750000Y-90002263D01*
X193807644Y-89712466D01*
X193920717Y-89439483D01*
X194084874Y-89193806D01*
X194084876Y-89193803D01*
X194293803Y-88984876D01*
X194297080Y-88982687D01*
X194539483Y-88820717D01*
X194812466Y-88707644D01*
X194909065Y-88688429D01*
X195102261Y-88650000D01*
X195397739Y-88650000D01*
X195590935Y-88688429D01*
X195590935Y-88688429D01*
G37*
G36*
X192770000Y-91170000D02*
X190770000Y-91170000D01*
X190770000Y-89170000D01*
X192770000Y-89170000D01*
X192770000Y-91170000D01*
X192770000Y-91170000D01*
G37*
G36*
X176705770Y-89185372D02*
X176821689Y-89208429D01*
X177003678Y-89283811D01*
X177167463Y-89393249D01*
X177306751Y-89532537D01*
X177416189Y-89696322D01*
X177491571Y-89878311D01*
X177514628Y-89994230D01*
X177530000Y-90071507D01*
X177530000Y-90268493D01*
X177514628Y-90345770D01*
X177491571Y-90461689D01*
X177416189Y-90643678D01*
X177306751Y-90807463D01*
X177167463Y-90946751D01*
X177003678Y-91056189D01*
X176821689Y-91131571D01*
X176705770Y-91154628D01*
X176628493Y-91170000D01*
X176431507Y-91170000D01*
X176354230Y-91154628D01*
X176238311Y-91131571D01*
X176056322Y-91056189D01*
X175892537Y-90946751D01*
X175753249Y-90807463D01*
X175643811Y-90643678D01*
X175568429Y-90461689D01*
X175545372Y-90345770D01*
X175530000Y-90268493D01*
X175530000Y-90071507D01*
X175545372Y-89994230D01*
X175568429Y-89878311D01*
X175643811Y-89696322D01*
X175753249Y-89532537D01*
X175892537Y-89393249D01*
X176056322Y-89283811D01*
X176238311Y-89208429D01*
X176354230Y-89185372D01*
X176431507Y-89170000D01*
X176628493Y-89170000D01*
X176705770Y-89185372D01*
X176705770Y-89185372D01*
G37*
G36*
X183055770Y-89145372D02*
X183171689Y-89168429D01*
X183353678Y-89243811D01*
X183517463Y-89353249D01*
X183656751Y-89492537D01*
X183766189Y-89656322D01*
X183841571Y-89838311D01*
X183849527Y-89878311D01*
X183874183Y-90002261D01*
X183880000Y-90031509D01*
X183880000Y-90228491D01*
X183841571Y-90421689D01*
X183766189Y-90603678D01*
X183656751Y-90767463D01*
X183517463Y-90906751D01*
X183353678Y-91016189D01*
X183171689Y-91091571D01*
X183055770Y-91114628D01*
X182978493Y-91130000D01*
X182781507Y-91130000D01*
X182704230Y-91114628D01*
X182588311Y-91091571D01*
X182406322Y-91016189D01*
X182242537Y-90906751D01*
X182103249Y-90767463D01*
X181993811Y-90603678D01*
X181918429Y-90421689D01*
X181880000Y-90228491D01*
X181880000Y-90031509D01*
X181885818Y-90002261D01*
X181910473Y-89878311D01*
X181918429Y-89838311D01*
X181993811Y-89656322D01*
X182103249Y-89492537D01*
X182242537Y-89353249D01*
X182406322Y-89243811D01*
X182588311Y-89168429D01*
X182704230Y-89145372D01*
X182781507Y-89130000D01*
X182978493Y-89130000D01*
X183055770Y-89145372D01*
X183055770Y-89145372D01*
G37*
G36*
X188135770Y-89145372D02*
X188251689Y-89168429D01*
X188433678Y-89243811D01*
X188597463Y-89353249D01*
X188736751Y-89492537D01*
X188846189Y-89656322D01*
X188921571Y-89838311D01*
X188929527Y-89878311D01*
X188954183Y-90002261D01*
X188960000Y-90031509D01*
X188960000Y-90228491D01*
X188921571Y-90421689D01*
X188846189Y-90603678D01*
X188736751Y-90767463D01*
X188597463Y-90906751D01*
X188433678Y-91016189D01*
X188251689Y-91091571D01*
X188135770Y-91114628D01*
X188058493Y-91130000D01*
X187861507Y-91130000D01*
X187784230Y-91114628D01*
X187668311Y-91091571D01*
X187486322Y-91016189D01*
X187322537Y-90906751D01*
X187183249Y-90767463D01*
X187073811Y-90603678D01*
X186998429Y-90421689D01*
X186960000Y-90228491D01*
X186960000Y-90031509D01*
X186965818Y-90002261D01*
X186990473Y-89878311D01*
X186998429Y-89838311D01*
X187073811Y-89656322D01*
X187183249Y-89492537D01*
X187322537Y-89353249D01*
X187486322Y-89243811D01*
X187668311Y-89168429D01*
X187784230Y-89145372D01*
X187861507Y-89130000D01*
X188058493Y-89130000D01*
X188135770Y-89145372D01*
X188135770Y-89145372D01*
G37*
G36*
X180515770Y-89145372D02*
X180631689Y-89168429D01*
X180813678Y-89243811D01*
X180977463Y-89353249D01*
X181116751Y-89492537D01*
X181226189Y-89656322D01*
X181301571Y-89838311D01*
X181309527Y-89878311D01*
X181334183Y-90002261D01*
X181340000Y-90031509D01*
X181340000Y-90228491D01*
X181301571Y-90421689D01*
X181226189Y-90603678D01*
X181116751Y-90767463D01*
X180977463Y-90906751D01*
X180813678Y-91016189D01*
X180631689Y-91091571D01*
X180515770Y-91114628D01*
X180438493Y-91130000D01*
X180241507Y-91130000D01*
X180164230Y-91114628D01*
X180048311Y-91091571D01*
X179866322Y-91016189D01*
X179702537Y-90906751D01*
X179563249Y-90767463D01*
X179453811Y-90603678D01*
X179378429Y-90421689D01*
X179340000Y-90228491D01*
X179340000Y-90031509D01*
X179345818Y-90002261D01*
X179370473Y-89878311D01*
X179378429Y-89838311D01*
X179453811Y-89656322D01*
X179563249Y-89492537D01*
X179702537Y-89353249D01*
X179866322Y-89243811D01*
X180048311Y-89168429D01*
X180164230Y-89145372D01*
X180241507Y-89130000D01*
X180438493Y-89130000D01*
X180515770Y-89145372D01*
X180515770Y-89145372D01*
G37*
G36*
X185595770Y-89145372D02*
X185711689Y-89168429D01*
X185893678Y-89243811D01*
X186057463Y-89353249D01*
X186196751Y-89492537D01*
X186306189Y-89656322D01*
X186381571Y-89838311D01*
X186389527Y-89878311D01*
X186414183Y-90002261D01*
X186420000Y-90031509D01*
X186420000Y-90228491D01*
X186381571Y-90421689D01*
X186306189Y-90603678D01*
X186196751Y-90767463D01*
X186057463Y-90906751D01*
X185893678Y-91016189D01*
X185711689Y-91091571D01*
X185595770Y-91114628D01*
X185518493Y-91130000D01*
X185321507Y-91130000D01*
X185244230Y-91114628D01*
X185128311Y-91091571D01*
X184946322Y-91016189D01*
X184782537Y-90906751D01*
X184643249Y-90767463D01*
X184533811Y-90603678D01*
X184458429Y-90421689D01*
X184420000Y-90228491D01*
X184420000Y-90031509D01*
X184425818Y-90002261D01*
X184450473Y-89878311D01*
X184458429Y-89838311D01*
X184533811Y-89656322D01*
X184643249Y-89492537D01*
X184782537Y-89353249D01*
X184946322Y-89243811D01*
X185128311Y-89168429D01*
X185244230Y-89145372D01*
X185321507Y-89130000D01*
X185518493Y-89130000D01*
X185595770Y-89145372D01*
X185595770Y-89145372D01*
G37*
G36*
X177530000Y-88670000D02*
X175530000Y-88670000D01*
X175530000Y-86670000D01*
X177530000Y-86670000D01*
X177530000Y-88670000D01*
X177530000Y-88670000D01*
G37*
G36*
X191945770Y-86685372D02*
X192061689Y-86708429D01*
X192243678Y-86783811D01*
X192407463Y-86893249D01*
X192546751Y-87032537D01*
X192656189Y-87196322D01*
X192731571Y-87378311D01*
X192770000Y-87571509D01*
X192770000Y-87768491D01*
X192731571Y-87961689D01*
X192656189Y-88143678D01*
X192546751Y-88307463D01*
X192407463Y-88446751D01*
X192243678Y-88556189D01*
X192061689Y-88631571D01*
X191945770Y-88654628D01*
X191868493Y-88670000D01*
X191671507Y-88670000D01*
X191594230Y-88654628D01*
X191478311Y-88631571D01*
X191296322Y-88556189D01*
X191132537Y-88446751D01*
X190993249Y-88307463D01*
X190883811Y-88143678D01*
X190808429Y-87961689D01*
X190770000Y-87768491D01*
X190770000Y-87571509D01*
X190808429Y-87378311D01*
X190883811Y-87196322D01*
X190993249Y-87032537D01*
X191132537Y-86893249D01*
X191296322Y-86783811D01*
X191478311Y-86708429D01*
X191594230Y-86685372D01*
X191671507Y-86670000D01*
X191868493Y-86670000D01*
X191945770Y-86685372D01*
X191945770Y-86685372D01*
G37*
G36*
X185595770Y-86645372D02*
X185711689Y-86668429D01*
X185893678Y-86743811D01*
X186057463Y-86853249D01*
X186196751Y-86992537D01*
X186306189Y-87156322D01*
X186381571Y-87338311D01*
X186420000Y-87531509D01*
X186420000Y-87728491D01*
X186381571Y-87921689D01*
X186306189Y-88103678D01*
X186196751Y-88267463D01*
X186057463Y-88406751D01*
X185893678Y-88516189D01*
X185711689Y-88591571D01*
X185595770Y-88614628D01*
X185518493Y-88630000D01*
X185321507Y-88630000D01*
X185244230Y-88614628D01*
X185128311Y-88591571D01*
X184946322Y-88516189D01*
X184782537Y-88406751D01*
X184643249Y-88267463D01*
X184533811Y-88103678D01*
X184458429Y-87921689D01*
X184420000Y-87728491D01*
X184420000Y-87531509D01*
X184458429Y-87338311D01*
X184533811Y-87156322D01*
X184643249Y-86992537D01*
X184782537Y-86853249D01*
X184946322Y-86743811D01*
X185128311Y-86668429D01*
X185244230Y-86645372D01*
X185321507Y-86630000D01*
X185518493Y-86630000D01*
X185595770Y-86645372D01*
X185595770Y-86645372D01*
G37*
G36*
X183055770Y-86645372D02*
X183171689Y-86668429D01*
X183353678Y-86743811D01*
X183517463Y-86853249D01*
X183656751Y-86992537D01*
X183766189Y-87156322D01*
X183841571Y-87338311D01*
X183880000Y-87531509D01*
X183880000Y-87728491D01*
X183841571Y-87921689D01*
X183766189Y-88103678D01*
X183656751Y-88267463D01*
X183517463Y-88406751D01*
X183353678Y-88516189D01*
X183171689Y-88591571D01*
X183055770Y-88614628D01*
X182978493Y-88630000D01*
X182781507Y-88630000D01*
X182704230Y-88614628D01*
X182588311Y-88591571D01*
X182406322Y-88516189D01*
X182242537Y-88406751D01*
X182103249Y-88267463D01*
X181993811Y-88103678D01*
X181918429Y-87921689D01*
X181880000Y-87728491D01*
X181880000Y-87531509D01*
X181918429Y-87338311D01*
X181993811Y-87156322D01*
X182103249Y-86992537D01*
X182242537Y-86853249D01*
X182406322Y-86743811D01*
X182588311Y-86668429D01*
X182704230Y-86645372D01*
X182781507Y-86630000D01*
X182978493Y-86630000D01*
X183055770Y-86645372D01*
X183055770Y-86645372D01*
G37*
G36*
X188135770Y-86645372D02*
X188251689Y-86668429D01*
X188433678Y-86743811D01*
X188597463Y-86853249D01*
X188736751Y-86992537D01*
X188846189Y-87156322D01*
X188921571Y-87338311D01*
X188960000Y-87531509D01*
X188960000Y-87728491D01*
X188921571Y-87921689D01*
X188846189Y-88103678D01*
X188736751Y-88267463D01*
X188597463Y-88406751D01*
X188433678Y-88516189D01*
X188251689Y-88591571D01*
X188135770Y-88614628D01*
X188058493Y-88630000D01*
X187861507Y-88630000D01*
X187784230Y-88614628D01*
X187668311Y-88591571D01*
X187486322Y-88516189D01*
X187322537Y-88406751D01*
X187183249Y-88267463D01*
X187073811Y-88103678D01*
X186998429Y-87921689D01*
X186960000Y-87728491D01*
X186960000Y-87531509D01*
X186998429Y-87338311D01*
X187073811Y-87156322D01*
X187183249Y-86992537D01*
X187322537Y-86853249D01*
X187486322Y-86743811D01*
X187668311Y-86668429D01*
X187784230Y-86645372D01*
X187861507Y-86630000D01*
X188058493Y-86630000D01*
X188135770Y-86645372D01*
X188135770Y-86645372D01*
G37*
G36*
X180515770Y-86645372D02*
X180631689Y-86668429D01*
X180813678Y-86743811D01*
X180977463Y-86853249D01*
X181116751Y-86992537D01*
X181226189Y-87156322D01*
X181301571Y-87338311D01*
X181340000Y-87531509D01*
X181340000Y-87728491D01*
X181301571Y-87921689D01*
X181226189Y-88103678D01*
X181116751Y-88267463D01*
X180977463Y-88406751D01*
X180813678Y-88516189D01*
X180631689Y-88591571D01*
X180515770Y-88614628D01*
X180438493Y-88630000D01*
X180241507Y-88630000D01*
X180164230Y-88614628D01*
X180048311Y-88591571D01*
X179866322Y-88516189D01*
X179702537Y-88406751D01*
X179563249Y-88267463D01*
X179453811Y-88103678D01*
X179378429Y-87921689D01*
X179340000Y-87728491D01*
X179340000Y-87531509D01*
X179378429Y-87338311D01*
X179453811Y-87156322D01*
X179563249Y-86992537D01*
X179702537Y-86853249D01*
X179866322Y-86743811D01*
X180048311Y-86668429D01*
X180164230Y-86645372D01*
X180241507Y-86630000D01*
X180438493Y-86630000D01*
X180515770Y-86645372D01*
X180515770Y-86645372D01*
G37*
G36*
X194572521Y-85494586D02*
X194736309Y-85562429D01*
X194883720Y-85660926D01*
X195009074Y-85786280D01*
X195107571Y-85933691D01*
X195175414Y-86097479D01*
X195210000Y-86271356D01*
X195210000Y-86448644D01*
X195175414Y-86622521D01*
X195107571Y-86786309D01*
X195009074Y-86933720D01*
X194883720Y-87059074D01*
X194736309Y-87157571D01*
X194572521Y-87225414D01*
X194398644Y-87260000D01*
X194221356Y-87260000D01*
X194047479Y-87225414D01*
X193883691Y-87157571D01*
X193736280Y-87059074D01*
X193610926Y-86933720D01*
X193512429Y-86786309D01*
X193444586Y-86622521D01*
X193410000Y-86448644D01*
X193410000Y-86271356D01*
X193444586Y-86097479D01*
X193512429Y-85933691D01*
X193610926Y-85786280D01*
X193736280Y-85660926D01*
X193883691Y-85562429D01*
X194047479Y-85494586D01*
X194221356Y-85460000D01*
X194398644Y-85460000D01*
X194572521Y-85494586D01*
X194572521Y-85494586D01*
G37*
G36*
X174252521Y-85494586D02*
X174416309Y-85562429D01*
X174563720Y-85660926D01*
X174689074Y-85786280D01*
X174787571Y-85933691D01*
X174855414Y-86097479D01*
X174890000Y-86271356D01*
X174890000Y-86448644D01*
X174855414Y-86622521D01*
X174787571Y-86786309D01*
X174689074Y-86933720D01*
X174563720Y-87059074D01*
X174416309Y-87157571D01*
X174252521Y-87225414D01*
X174078644Y-87260000D01*
X173901356Y-87260000D01*
X173727479Y-87225414D01*
X173563691Y-87157571D01*
X173416280Y-87059074D01*
X173290926Y-86933720D01*
X173192429Y-86786309D01*
X173124586Y-86622521D01*
X173090000Y-86448644D01*
X173090000Y-86271356D01*
X173124586Y-86097479D01*
X173192429Y-85933691D01*
X173290926Y-85786280D01*
X173416280Y-85660926D01*
X173563691Y-85562429D01*
X173727479Y-85494586D01*
X173901356Y-85460000D01*
X174078644Y-85460000D01*
X174252521Y-85494586D01*
X174252521Y-85494586D01*
G37*
G36*
X176705770Y-84065372D02*
X176821689Y-84088429D01*
X177003678Y-84163811D01*
X177167463Y-84273249D01*
X177306751Y-84412537D01*
X177416189Y-84576322D01*
X177491571Y-84758311D01*
X177530000Y-84951509D01*
X177530000Y-85148491D01*
X177491571Y-85341689D01*
X177416189Y-85523678D01*
X177306751Y-85687463D01*
X177167463Y-85826751D01*
X177003678Y-85936189D01*
X176821689Y-86011571D01*
X176705770Y-86034628D01*
X176628493Y-86050000D01*
X176431507Y-86050000D01*
X176354230Y-86034628D01*
X176238311Y-86011571D01*
X176056322Y-85936189D01*
X175892537Y-85826751D01*
X175753249Y-85687463D01*
X175643811Y-85523678D01*
X175568429Y-85341689D01*
X175530000Y-85148491D01*
X175530000Y-84951509D01*
X175568429Y-84758311D01*
X175643811Y-84576322D01*
X175753249Y-84412537D01*
X175892537Y-84273249D01*
X176056322Y-84163811D01*
X176238311Y-84088429D01*
X176354230Y-84065372D01*
X176431507Y-84050000D01*
X176628493Y-84050000D01*
X176705770Y-84065372D01*
X176705770Y-84065372D01*
G37*
G36*
X191945770Y-84065372D02*
X192061689Y-84088429D01*
X192243678Y-84163811D01*
X192407463Y-84273249D01*
X192546751Y-84412537D01*
X192656189Y-84576322D01*
X192731571Y-84758311D01*
X192770000Y-84951509D01*
X192770000Y-85148491D01*
X192731571Y-85341689D01*
X192656189Y-85523678D01*
X192546751Y-85687463D01*
X192407463Y-85826751D01*
X192243678Y-85936189D01*
X192061689Y-86011571D01*
X191945770Y-86034628D01*
X191868493Y-86050000D01*
X191671507Y-86050000D01*
X191594230Y-86034628D01*
X191478311Y-86011571D01*
X191296322Y-85936189D01*
X191132537Y-85826751D01*
X190993249Y-85687463D01*
X190883811Y-85523678D01*
X190808429Y-85341689D01*
X190770000Y-85148491D01*
X190770000Y-84951509D01*
X190808429Y-84758311D01*
X190883811Y-84576322D01*
X190993249Y-84412537D01*
X191132537Y-84273249D01*
X191296322Y-84163811D01*
X191478311Y-84088429D01*
X191594230Y-84065372D01*
X191671507Y-84050000D01*
X191868493Y-84050000D01*
X191945770Y-84065372D01*
X191945770Y-84065372D01*
G37*
G36*
X180936030Y-82834469D02*
X180936033Y-82834470D01*
X180936034Y-82834470D01*
X181124535Y-82891651D01*
X181124537Y-82891652D01*
X181298260Y-82984509D01*
X181450528Y-83109472D01*
X181575491Y-83261740D01*
X181575492Y-83261742D01*
X181668349Y-83435465D01*
X181725530Y-83623966D01*
X181725531Y-83623970D01*
X181744838Y-83820000D01*
X181725531Y-84016030D01*
X181725530Y-84016033D01*
X181725530Y-84016034D01*
X181715227Y-84050000D01*
X181668348Y-84204537D01*
X181575491Y-84378260D01*
X181450528Y-84530528D01*
X181298260Y-84655491D01*
X181298258Y-84655492D01*
X181124535Y-84748349D01*
X180936034Y-84805530D01*
X180936033Y-84805530D01*
X180936030Y-84805531D01*
X180789124Y-84820000D01*
X179890876Y-84820000D01*
X179743970Y-84805531D01*
X179743967Y-84805530D01*
X179743966Y-84805530D01*
X179555465Y-84748349D01*
X179381742Y-84655492D01*
X179381740Y-84655491D01*
X179229472Y-84530528D01*
X179104509Y-84378260D01*
X179011652Y-84204537D01*
X178964774Y-84050000D01*
X178954470Y-84016034D01*
X178954470Y-84016033D01*
X178954469Y-84016030D01*
X178935162Y-83820000D01*
X178954469Y-83623970D01*
X178954470Y-83623966D01*
X179011651Y-83435465D01*
X179104508Y-83261742D01*
X179104509Y-83261740D01*
X179229472Y-83109472D01*
X179381740Y-82984509D01*
X179555463Y-82891652D01*
X179555465Y-82891651D01*
X179743966Y-82834470D01*
X179743967Y-82834470D01*
X179743970Y-82834469D01*
X179890876Y-82820000D01*
X180789124Y-82820000D01*
X180936030Y-82834469D01*
X180936030Y-82834469D01*
G37*
G36*
X189360000Y-84820000D02*
X186560000Y-84820000D01*
X186560000Y-82820000D01*
X189360000Y-82820000D01*
X189360000Y-84820000D01*
X189360000Y-84820000D01*
G37*
G36*
X176705770Y-81565372D02*
X176821689Y-81588429D01*
X177003678Y-81663811D01*
X177167463Y-81773249D01*
X177306751Y-81912537D01*
X177416189Y-82076322D01*
X177491571Y-82258311D01*
X177530000Y-82451509D01*
X177530000Y-82648491D01*
X177491571Y-82841689D01*
X177416189Y-83023678D01*
X177306751Y-83187463D01*
X177167463Y-83326751D01*
X177003678Y-83436189D01*
X176821689Y-83511571D01*
X176705770Y-83534628D01*
X176628493Y-83550000D01*
X176431507Y-83550000D01*
X176354230Y-83534628D01*
X176238311Y-83511571D01*
X176056322Y-83436189D01*
X175892537Y-83326751D01*
X175753249Y-83187463D01*
X175643811Y-83023678D01*
X175568429Y-82841689D01*
X175530000Y-82648491D01*
X175530000Y-82451509D01*
X175568429Y-82258311D01*
X175643811Y-82076322D01*
X175753249Y-81912537D01*
X175892537Y-81773249D01*
X176056322Y-81663811D01*
X176238311Y-81588429D01*
X176354230Y-81565372D01*
X176431507Y-81550000D01*
X176628493Y-81550000D01*
X176705770Y-81565372D01*
X176705770Y-81565372D01*
G37*
G36*
X191945770Y-81565372D02*
X192061689Y-81588429D01*
X192243678Y-81663811D01*
X192407463Y-81773249D01*
X192546751Y-81912537D01*
X192656189Y-82076322D01*
X192731571Y-82258311D01*
X192770000Y-82451509D01*
X192770000Y-82648491D01*
X192731571Y-82841689D01*
X192656189Y-83023678D01*
X192546751Y-83187463D01*
X192407463Y-83326751D01*
X192243678Y-83436189D01*
X192061689Y-83511571D01*
X191945770Y-83534628D01*
X191868493Y-83550000D01*
X191671507Y-83550000D01*
X191594230Y-83534628D01*
X191478311Y-83511571D01*
X191296322Y-83436189D01*
X191132537Y-83326751D01*
X190993249Y-83187463D01*
X190883811Y-83023678D01*
X190808429Y-82841689D01*
X190770000Y-82648491D01*
X190770000Y-82451509D01*
X190808429Y-82258311D01*
X190883811Y-82076322D01*
X190993249Y-81912537D01*
X191132537Y-81773249D01*
X191296322Y-81663811D01*
X191478311Y-81588429D01*
X191594230Y-81565372D01*
X191671507Y-81550000D01*
X191868493Y-81550000D01*
X191945770Y-81565372D01*
X191945770Y-81565372D01*
G37*
G36*
X188556030Y-80294469D02*
X188556033Y-80294470D01*
X188556034Y-80294470D01*
X188744535Y-80351651D01*
X188744537Y-80351652D01*
X188918260Y-80444509D01*
X189070528Y-80569472D01*
X189195491Y-80721740D01*
X189288348Y-80895463D01*
X189345531Y-81083970D01*
X189364838Y-81280000D01*
X189345531Y-81476030D01*
X189345530Y-81476033D01*
X189345530Y-81476034D01*
X189288569Y-81663811D01*
X189288348Y-81664537D01*
X189195491Y-81838260D01*
X189070528Y-81990528D01*
X188918260Y-82115491D01*
X188918258Y-82115492D01*
X188744535Y-82208349D01*
X188556034Y-82265530D01*
X188556033Y-82265530D01*
X188556030Y-82265531D01*
X188409124Y-82280000D01*
X187510876Y-82280000D01*
X187363970Y-82265531D01*
X187363967Y-82265530D01*
X187363966Y-82265530D01*
X187175465Y-82208349D01*
X187001742Y-82115492D01*
X187001740Y-82115491D01*
X186849472Y-81990528D01*
X186724509Y-81838260D01*
X186631652Y-81664537D01*
X186631432Y-81663811D01*
X186574470Y-81476034D01*
X186574470Y-81476033D01*
X186574469Y-81476030D01*
X186555162Y-81280000D01*
X186574469Y-81083970D01*
X186631652Y-80895463D01*
X186724509Y-80721740D01*
X186849472Y-80569472D01*
X187001740Y-80444509D01*
X187175463Y-80351652D01*
X187175465Y-80351651D01*
X187363966Y-80294470D01*
X187363967Y-80294470D01*
X187363970Y-80294469D01*
X187510876Y-80280000D01*
X188409124Y-80280000D01*
X188556030Y-80294469D01*
X188556030Y-80294469D01*
G37*
G36*
X180936030Y-80294469D02*
X180936033Y-80294470D01*
X180936034Y-80294470D01*
X181124535Y-80351651D01*
X181124537Y-80351652D01*
X181298260Y-80444509D01*
X181450528Y-80569472D01*
X181575491Y-80721740D01*
X181668348Y-80895463D01*
X181725531Y-81083970D01*
X181744838Y-81280000D01*
X181725531Y-81476030D01*
X181725530Y-81476033D01*
X181725530Y-81476034D01*
X181668569Y-81663811D01*
X181668348Y-81664537D01*
X181575491Y-81838260D01*
X181450528Y-81990528D01*
X181298260Y-82115491D01*
X181298258Y-82115492D01*
X181124535Y-82208349D01*
X180936034Y-82265530D01*
X180936033Y-82265530D01*
X180936030Y-82265531D01*
X180789124Y-82280000D01*
X179890876Y-82280000D01*
X179743970Y-82265531D01*
X179743967Y-82265530D01*
X179743966Y-82265530D01*
X179555465Y-82208349D01*
X179381742Y-82115492D01*
X179381740Y-82115491D01*
X179229472Y-81990528D01*
X179104509Y-81838260D01*
X179011652Y-81664537D01*
X179011432Y-81663811D01*
X178954470Y-81476034D01*
X178954470Y-81476033D01*
X178954469Y-81476030D01*
X178935162Y-81280000D01*
X178954469Y-81083970D01*
X179011652Y-80895463D01*
X179104509Y-80721740D01*
X179229472Y-80569472D01*
X179381740Y-80444509D01*
X179555463Y-80351652D01*
X179555465Y-80351651D01*
X179743966Y-80294470D01*
X179743967Y-80294470D01*
X179743970Y-80294469D01*
X179890876Y-80280000D01*
X180789124Y-80280000D01*
X180936030Y-80294469D01*
X180936030Y-80294469D01*
G37*
G36*
X176792521Y-79144586D02*
X176956309Y-79212429D01*
X177103720Y-79310926D01*
X177229074Y-79436280D01*
X177327571Y-79583691D01*
X177395414Y-79747479D01*
X177430000Y-79921356D01*
X177430000Y-80098644D01*
X177395414Y-80272521D01*
X177327571Y-80436309D01*
X177229074Y-80583720D01*
X177103720Y-80709074D01*
X176956309Y-80807571D01*
X176792521Y-80875414D01*
X176618644Y-80910000D01*
X176441356Y-80910000D01*
X176267479Y-80875414D01*
X176103691Y-80807571D01*
X175956280Y-80709074D01*
X175830926Y-80583720D01*
X175732429Y-80436309D01*
X175664586Y-80272521D01*
X175630000Y-80098644D01*
X175630000Y-79921356D01*
X175664586Y-79747479D01*
X175732429Y-79583691D01*
X175830926Y-79436280D01*
X175956280Y-79310926D01*
X176103691Y-79212429D01*
X176267479Y-79144586D01*
X176441356Y-79110000D01*
X176618644Y-79110000D01*
X176792521Y-79144586D01*
X176792521Y-79144586D01*
G37*
G36*
X192032521Y-79144586D02*
X192196309Y-79212429D01*
X192343720Y-79310926D01*
X192469074Y-79436280D01*
X192567571Y-79583691D01*
X192635414Y-79747479D01*
X192670000Y-79921356D01*
X192670000Y-80098644D01*
X192635414Y-80272521D01*
X192567571Y-80436309D01*
X192469074Y-80583720D01*
X192343720Y-80709074D01*
X192196309Y-80807571D01*
X192032521Y-80875414D01*
X191858644Y-80910000D01*
X191681356Y-80910000D01*
X191507479Y-80875414D01*
X191343691Y-80807571D01*
X191196280Y-80709074D01*
X191070926Y-80583720D01*
X190972429Y-80436309D01*
X190904586Y-80272521D01*
X190870000Y-80098644D01*
X190870000Y-79921356D01*
X190904586Y-79747479D01*
X190972429Y-79583691D01*
X191070926Y-79436280D01*
X191196280Y-79310926D01*
X191343691Y-79212429D01*
X191507479Y-79144586D01*
X191681356Y-79110000D01*
X191858644Y-79110000D01*
X192032521Y-79144586D01*
X192032521Y-79144586D01*
G37*
G36*
X188556030Y-77754469D02*
X188556033Y-77754470D01*
X188556034Y-77754470D01*
X188744535Y-77811651D01*
X188744537Y-77811652D01*
X188918260Y-77904509D01*
X189070528Y-78029472D01*
X189195491Y-78181740D01*
X189288348Y-78355463D01*
X189345531Y-78543970D01*
X189364838Y-78740000D01*
X189345531Y-78936030D01*
X189288348Y-79124537D01*
X189195491Y-79298260D01*
X189070528Y-79450528D01*
X188918260Y-79575491D01*
X188821935Y-79626978D01*
X188744535Y-79668349D01*
X188556034Y-79725530D01*
X188556033Y-79725530D01*
X188556030Y-79725531D01*
X188409124Y-79740000D01*
X187510876Y-79740000D01*
X187363970Y-79725531D01*
X187363967Y-79725530D01*
X187363966Y-79725530D01*
X187175465Y-79668349D01*
X187098065Y-79626978D01*
X187001740Y-79575491D01*
X186849472Y-79450528D01*
X186724509Y-79298260D01*
X186631652Y-79124537D01*
X186574469Y-78936030D01*
X186555162Y-78740000D01*
X186574469Y-78543970D01*
X186631652Y-78355463D01*
X186724509Y-78181740D01*
X186849472Y-78029472D01*
X187001740Y-77904509D01*
X187175463Y-77811652D01*
X187175465Y-77811651D01*
X187363966Y-77754470D01*
X187363967Y-77754470D01*
X187363970Y-77754469D01*
X187510876Y-77740000D01*
X188409124Y-77740000D01*
X188556030Y-77754469D01*
X188556030Y-77754469D01*
G37*
G36*
X180936030Y-77754469D02*
X180936033Y-77754470D01*
X180936034Y-77754470D01*
X181124535Y-77811651D01*
X181124537Y-77811652D01*
X181298260Y-77904509D01*
X181450528Y-78029472D01*
X181575491Y-78181740D01*
X181668348Y-78355463D01*
X181725531Y-78543970D01*
X181744838Y-78740000D01*
X181725531Y-78936030D01*
X181668348Y-79124537D01*
X181575491Y-79298260D01*
X181450528Y-79450528D01*
X181298260Y-79575491D01*
X181201935Y-79626978D01*
X181124535Y-79668349D01*
X180936034Y-79725530D01*
X180936033Y-79725530D01*
X180936030Y-79725531D01*
X180789124Y-79740000D01*
X179890876Y-79740000D01*
X179743970Y-79725531D01*
X179743967Y-79725530D01*
X179743966Y-79725530D01*
X179555465Y-79668349D01*
X179478065Y-79626978D01*
X179381740Y-79575491D01*
X179229472Y-79450528D01*
X179104509Y-79298260D01*
X179011652Y-79124537D01*
X178954469Y-78936030D01*
X178935162Y-78740000D01*
X178954469Y-78543970D01*
X179011652Y-78355463D01*
X179104509Y-78181740D01*
X179229472Y-78029472D01*
X179381740Y-77904509D01*
X179555463Y-77811652D01*
X179555465Y-77811651D01*
X179743966Y-77754470D01*
X179743967Y-77754470D01*
X179743970Y-77754469D01*
X179890876Y-77740000D01*
X180789124Y-77740000D01*
X180936030Y-77754469D01*
X180936030Y-77754469D01*
G37*
G36*
X194486432Y-77853022D02*
X194656081Y-77904485D01*
X194812433Y-77988056D01*
X194949475Y-78100525D01*
X195061944Y-78237567D01*
X195145515Y-78393919D01*
X195196978Y-78563568D01*
X195214354Y-78740000D01*
X195196978Y-78916432D01*
X195145515Y-79086081D01*
X195061944Y-79242433D01*
X194949475Y-79379475D01*
X194812433Y-79491944D01*
X194656081Y-79575515D01*
X194486432Y-79626978D01*
X194354211Y-79640000D01*
X194265789Y-79640000D01*
X194133568Y-79626978D01*
X193963919Y-79575515D01*
X193807567Y-79491944D01*
X193670525Y-79379475D01*
X193558056Y-79242433D01*
X193474485Y-79086081D01*
X193423022Y-78916432D01*
X193405646Y-78740000D01*
X193423022Y-78563568D01*
X193474485Y-78393919D01*
X193558056Y-78237567D01*
X193670525Y-78100525D01*
X193807567Y-77988056D01*
X193963919Y-77904485D01*
X194133568Y-77853022D01*
X194265789Y-77840000D01*
X194354211Y-77840000D01*
X194486432Y-77853022D01*
X194486432Y-77853022D01*
G37*
G36*
X174166432Y-77853022D02*
X174336081Y-77904485D01*
X174492433Y-77988056D01*
X174629475Y-78100525D01*
X174741944Y-78237567D01*
X174825515Y-78393919D01*
X174876978Y-78563568D01*
X174894354Y-78740000D01*
X174876978Y-78916432D01*
X174825515Y-79086081D01*
X174741944Y-79242433D01*
X174629475Y-79379475D01*
X174492433Y-79491944D01*
X174336081Y-79575515D01*
X174166432Y-79626978D01*
X174034211Y-79640000D01*
X173945789Y-79640000D01*
X173813568Y-79626978D01*
X173643919Y-79575515D01*
X173487567Y-79491944D01*
X173350525Y-79379475D01*
X173238056Y-79242433D01*
X173154485Y-79086081D01*
X173103022Y-78916432D01*
X173085646Y-78740000D01*
X173103022Y-78563568D01*
X173154485Y-78393919D01*
X173238056Y-78237567D01*
X173350525Y-78100525D01*
X173487567Y-77988056D01*
X173643919Y-77904485D01*
X173813568Y-77853022D01*
X173945789Y-77840000D01*
X174034211Y-77840000D01*
X174166432Y-77853022D01*
X174166432Y-77853022D01*
G37*
G36*
X188556030Y-75214469D02*
X188556033Y-75214470D01*
X188556034Y-75214470D01*
X188744535Y-75271651D01*
X188744537Y-75271652D01*
X188918260Y-75364509D01*
X189070528Y-75489472D01*
X189195491Y-75641740D01*
X189195492Y-75641742D01*
X189288349Y-75815465D01*
X189345530Y-76003966D01*
X189345531Y-76003970D01*
X189364838Y-76200000D01*
X189345531Y-76396030D01*
X189345530Y-76396033D01*
X189345530Y-76396034D01*
X189294237Y-76565126D01*
X189288348Y-76584537D01*
X189195491Y-76758260D01*
X189070528Y-76910528D01*
X188918260Y-77035491D01*
X188918258Y-77035492D01*
X188744535Y-77128349D01*
X188556034Y-77185530D01*
X188556033Y-77185530D01*
X188556030Y-77185531D01*
X188409124Y-77200000D01*
X187510876Y-77200000D01*
X187363970Y-77185531D01*
X187363967Y-77185530D01*
X187363966Y-77185530D01*
X187175465Y-77128349D01*
X187001742Y-77035492D01*
X187001740Y-77035491D01*
X186849472Y-76910528D01*
X186724509Y-76758260D01*
X186631652Y-76584537D01*
X186625764Y-76565126D01*
X186574470Y-76396034D01*
X186574470Y-76396033D01*
X186574469Y-76396030D01*
X186555162Y-76200000D01*
X186574469Y-76003970D01*
X186574470Y-76003966D01*
X186631651Y-75815465D01*
X186724508Y-75641742D01*
X186724509Y-75641740D01*
X186849472Y-75489472D01*
X187001740Y-75364509D01*
X187175463Y-75271652D01*
X187175465Y-75271651D01*
X187363966Y-75214470D01*
X187363967Y-75214470D01*
X187363970Y-75214469D01*
X187510876Y-75200000D01*
X188409124Y-75200000D01*
X188556030Y-75214469D01*
X188556030Y-75214469D01*
G37*
G36*
X180936030Y-75214469D02*
X180936033Y-75214470D01*
X180936034Y-75214470D01*
X181124535Y-75271651D01*
X181124537Y-75271652D01*
X181298260Y-75364509D01*
X181450528Y-75489472D01*
X181575491Y-75641740D01*
X181575492Y-75641742D01*
X181668349Y-75815465D01*
X181725530Y-76003966D01*
X181725531Y-76003970D01*
X181744838Y-76200000D01*
X181725531Y-76396030D01*
X181725530Y-76396033D01*
X181725530Y-76396034D01*
X181674237Y-76565126D01*
X181668348Y-76584537D01*
X181575491Y-76758260D01*
X181450528Y-76910528D01*
X181298260Y-77035491D01*
X181298258Y-77035492D01*
X181124535Y-77128349D01*
X180936034Y-77185530D01*
X180936033Y-77185530D01*
X180936030Y-77185531D01*
X180789124Y-77200000D01*
X179890876Y-77200000D01*
X179743970Y-77185531D01*
X179743967Y-77185530D01*
X179743966Y-77185530D01*
X179555465Y-77128349D01*
X179381742Y-77035492D01*
X179381740Y-77035491D01*
X179229472Y-76910528D01*
X179104509Y-76758260D01*
X179011652Y-76584537D01*
X179005764Y-76565126D01*
X178954470Y-76396034D01*
X178954470Y-76396033D01*
X178954469Y-76396030D01*
X178935162Y-76200000D01*
X178954469Y-76003970D01*
X178954470Y-76003966D01*
X179011651Y-75815465D01*
X179104508Y-75641742D01*
X179104509Y-75641740D01*
X179229472Y-75489472D01*
X179381740Y-75364509D01*
X179555463Y-75271652D01*
X179555465Y-75271651D01*
X179743966Y-75214470D01*
X179743967Y-75214470D01*
X179743970Y-75214469D01*
X179890876Y-75200000D01*
X180789124Y-75200000D01*
X180936030Y-75214469D01*
X180936030Y-75214469D01*
G37*
G36*
X173390935Y-73938429D02*
X173487534Y-73957644D01*
X173760517Y-74070717D01*
X174002920Y-74232687D01*
X174006197Y-74234876D01*
X174215124Y-74443803D01*
X174379284Y-74689485D01*
X174492356Y-74962467D01*
X174550000Y-75252261D01*
X174550000Y-75547739D01*
X174492356Y-75837533D01*
X174379284Y-76110515D01*
X174215124Y-76356197D01*
X174006197Y-76565124D01*
X174006194Y-76565126D01*
X173760517Y-76729283D01*
X173487534Y-76842356D01*
X173390935Y-76861571D01*
X173197739Y-76900000D01*
X172902261Y-76900000D01*
X172709065Y-76861571D01*
X172612466Y-76842356D01*
X172339483Y-76729283D01*
X172093806Y-76565126D01*
X172093803Y-76565124D01*
X171884876Y-76356197D01*
X171720716Y-76110515D01*
X171607644Y-75837533D01*
X171550000Y-75547739D01*
X171550000Y-75252261D01*
X171607644Y-74962467D01*
X171720716Y-74689485D01*
X171884876Y-74443803D01*
X172093803Y-74234876D01*
X172097080Y-74232687D01*
X172339483Y-74070717D01*
X172612466Y-73957644D01*
X172709065Y-73938429D01*
X172902261Y-73900000D01*
X173197739Y-73900000D01*
X173390935Y-73938429D01*
X173390935Y-73938429D01*
G37*
G36*
X191946432Y-71503022D02*
X192116081Y-71554485D01*
X192272433Y-71638056D01*
X192409475Y-71750525D01*
X192521944Y-71887567D01*
X192605515Y-72043919D01*
X192656978Y-72213568D01*
X192674354Y-72390000D01*
X192656978Y-72566432D01*
X192605515Y-72736081D01*
X192521944Y-72892433D01*
X192409475Y-73029475D01*
X192272433Y-73141944D01*
X192116081Y-73225515D01*
X191946432Y-73276978D01*
X191814211Y-73290000D01*
X191725789Y-73290000D01*
X191593568Y-73276978D01*
X191423919Y-73225515D01*
X191267567Y-73141944D01*
X191130525Y-73029475D01*
X191018056Y-72892433D01*
X190934485Y-72736081D01*
X190883022Y-72566432D01*
X190865646Y-72390000D01*
X190883022Y-72213568D01*
X190934485Y-72043919D01*
X191018056Y-71887567D01*
X191130525Y-71750525D01*
X191267567Y-71638056D01*
X191423919Y-71554485D01*
X191593568Y-71503022D01*
X191725789Y-71490000D01*
X191814211Y-71490000D01*
X191946432Y-71503022D01*
X191946432Y-71503022D01*
G37*
G36*
X176706432Y-71503022D02*
X176876081Y-71554485D01*
X177032433Y-71638056D01*
X177169475Y-71750525D01*
X177281944Y-71887567D01*
X177365515Y-72043919D01*
X177416978Y-72213568D01*
X177434354Y-72390000D01*
X177416978Y-72566432D01*
X177365515Y-72736081D01*
X177281944Y-72892433D01*
X177169475Y-73029475D01*
X177032433Y-73141944D01*
X176876081Y-73225515D01*
X176706432Y-73276978D01*
X176574211Y-73290000D01*
X176485789Y-73290000D01*
X176353568Y-73276978D01*
X176183919Y-73225515D01*
X176027567Y-73141944D01*
X175890525Y-73029475D01*
X175778056Y-72892433D01*
X175694485Y-72736081D01*
X175643022Y-72566432D01*
X175625646Y-72390000D01*
X175643022Y-72213568D01*
X175694485Y-72043919D01*
X175778056Y-71887567D01*
X175890525Y-71750525D01*
X176027567Y-71638056D01*
X176183919Y-71554485D01*
X176353568Y-71503022D01*
X176485789Y-71490000D01*
X176574211Y-71490000D01*
X176706432Y-71503022D01*
X176706432Y-71503022D01*
G37*
G36*
X187000026Y-70846115D02*
X187218412Y-70936573D01*
X187414958Y-71067901D01*
X187582099Y-71235042D01*
X187713427Y-71431588D01*
X187784515Y-71603210D01*
X187796066Y-71624821D01*
X187811612Y-71643763D01*
X187830554Y-71659309D01*
X187852164Y-71670860D01*
X187875614Y-71677973D01*
X187900000Y-71680375D01*
X187924386Y-71677973D01*
X187947835Y-71670860D01*
X187969446Y-71659309D01*
X187988388Y-71643763D01*
X188003934Y-71624821D01*
X188015485Y-71603210D01*
X188086573Y-71431588D01*
X188217901Y-71235042D01*
X188385042Y-71067901D01*
X188581588Y-70936573D01*
X188799974Y-70846115D01*
X189031809Y-70800000D01*
X189268191Y-70800000D01*
X189500026Y-70846115D01*
X189718412Y-70936573D01*
X189914958Y-71067901D01*
X190082099Y-71235042D01*
X190213427Y-71431588D01*
X190303885Y-71649974D01*
X190350000Y-71881809D01*
X190350000Y-72118191D01*
X190303885Y-72350026D01*
X190213427Y-72568412D01*
X190082099Y-72764958D01*
X189914958Y-72932099D01*
X189718412Y-73063427D01*
X189500026Y-73153885D01*
X189268191Y-73200000D01*
X189031809Y-73200000D01*
X188799974Y-73153885D01*
X188581588Y-73063427D01*
X188385042Y-72932099D01*
X188217901Y-72764958D01*
X188086573Y-72568412D01*
X188015485Y-72396790D01*
X188003934Y-72375179D01*
X187988388Y-72356237D01*
X187969446Y-72340691D01*
X187947836Y-72329140D01*
X187924386Y-72322027D01*
X187900000Y-72319625D01*
X187875614Y-72322027D01*
X187852165Y-72329140D01*
X187830554Y-72340691D01*
X187811612Y-72356237D01*
X187796066Y-72375179D01*
X187784515Y-72396790D01*
X187713427Y-72568412D01*
X187582099Y-72764958D01*
X187414958Y-72932099D01*
X187218412Y-73063427D01*
X187000026Y-73153885D01*
X186768191Y-73200000D01*
X186531809Y-73200000D01*
X186299974Y-73153885D01*
X186081588Y-73063427D01*
X185885042Y-72932099D01*
X185717901Y-72764958D01*
X185586573Y-72568412D01*
X185496115Y-72350026D01*
X185450000Y-72118191D01*
X185450000Y-71881809D01*
X185496115Y-71649974D01*
X185586573Y-71431588D01*
X185717901Y-71235042D01*
X185885042Y-71067901D01*
X186081588Y-70936573D01*
X186299974Y-70846115D01*
X186531809Y-70800000D01*
X186768191Y-70800000D01*
X187000026Y-70846115D01*
X187000026Y-70846115D01*
G37*
G36*
X179500026Y-70846115D02*
X179718412Y-70936573D01*
X179914958Y-71067901D01*
X180082099Y-71235042D01*
X180213427Y-71431588D01*
X180284515Y-71603210D01*
X180296066Y-71624821D01*
X180311612Y-71643763D01*
X180330554Y-71659309D01*
X180352164Y-71670860D01*
X180375614Y-71677973D01*
X180400000Y-71680375D01*
X180424386Y-71677973D01*
X180447835Y-71670860D01*
X180469446Y-71659309D01*
X180488388Y-71643763D01*
X180503934Y-71624821D01*
X180515485Y-71603210D01*
X180586573Y-71431588D01*
X180717901Y-71235042D01*
X180885042Y-71067901D01*
X181081588Y-70936573D01*
X181299974Y-70846115D01*
X181531809Y-70800000D01*
X181768191Y-70800000D01*
X182000026Y-70846115D01*
X182218412Y-70936573D01*
X182414958Y-71067901D01*
X182582099Y-71235042D01*
X182713427Y-71431588D01*
X182803885Y-71649974D01*
X182850000Y-71881809D01*
X182850000Y-72118191D01*
X182803885Y-72350026D01*
X182713427Y-72568412D01*
X182582099Y-72764958D01*
X182414958Y-72932099D01*
X182218412Y-73063427D01*
X182000026Y-73153885D01*
X181768191Y-73200000D01*
X181531809Y-73200000D01*
X181299974Y-73153885D01*
X181081588Y-73063427D01*
X180885042Y-72932099D01*
X180717901Y-72764958D01*
X180586573Y-72568412D01*
X180515485Y-72396790D01*
X180503934Y-72375179D01*
X180488388Y-72356237D01*
X180469446Y-72340691D01*
X180447836Y-72329140D01*
X180424386Y-72322027D01*
X180400000Y-72319625D01*
X180375614Y-72322027D01*
X180352165Y-72329140D01*
X180330554Y-72340691D01*
X180311612Y-72356237D01*
X180296066Y-72375179D01*
X180284515Y-72396790D01*
X180213427Y-72568412D01*
X180082099Y-72764958D01*
X179914958Y-72932099D01*
X179718412Y-73063427D01*
X179500026Y-73153885D01*
X179268191Y-73200000D01*
X179031809Y-73200000D01*
X178799974Y-73153885D01*
X178581588Y-73063427D01*
X178385042Y-72932099D01*
X178217901Y-72764958D01*
X178086573Y-72568412D01*
X177996115Y-72350026D01*
X177950000Y-72118191D01*
X177950000Y-71881809D01*
X177996115Y-71649974D01*
X178086573Y-71431588D01*
X178217901Y-71235042D01*
X178385042Y-71067901D01*
X178581588Y-70936573D01*
X178799974Y-70846115D01*
X179031809Y-70800000D01*
X179268191Y-70800000D01*
X179500026Y-70846115D01*
X179500026Y-70846115D01*
G37*
G36*
X184383352Y-71230743D02*
X184528941Y-71291048D01*
X184659973Y-71378601D01*
X184771399Y-71490027D01*
X184858952Y-71621059D01*
X184919257Y-71766648D01*
X184950000Y-71921205D01*
X184950000Y-72078795D01*
X184919257Y-72233352D01*
X184858952Y-72378941D01*
X184771399Y-72509973D01*
X184659973Y-72621399D01*
X184528941Y-72708952D01*
X184383352Y-72769257D01*
X184228795Y-72800000D01*
X184071205Y-72800000D01*
X183916648Y-72769257D01*
X183771059Y-72708952D01*
X183640027Y-72621399D01*
X183528601Y-72509973D01*
X183441048Y-72378941D01*
X183380743Y-72233352D01*
X183350000Y-72078795D01*
X183350000Y-71921205D01*
X183380743Y-71766648D01*
X183441048Y-71621059D01*
X183528601Y-71490027D01*
X183640027Y-71378601D01*
X183771059Y-71291048D01*
X183916648Y-71230743D01*
X184071205Y-71200000D01*
X184228795Y-71200000D01*
X184383352Y-71230743D01*
X184383352Y-71230743D01*
G37*
G36*
X184500026Y-65846115D02*
X184718412Y-65936573D01*
X184914958Y-66067901D01*
X185082099Y-66235042D01*
X185213427Y-66431588D01*
X185303885Y-66649974D01*
X185350000Y-66881809D01*
X185350000Y-67118191D01*
X185303885Y-67350026D01*
X185213427Y-67568412D01*
X185082099Y-67764958D01*
X184914958Y-67932099D01*
X184718412Y-68063427D01*
X184500026Y-68153885D01*
X184268191Y-68200000D01*
X184031809Y-68200000D01*
X183799974Y-68153885D01*
X183581588Y-68063427D01*
X183385042Y-67932099D01*
X183217901Y-67764958D01*
X183086573Y-67568412D01*
X182996115Y-67350026D01*
X182950000Y-67118191D01*
X182950000Y-66881809D01*
X182996115Y-66649974D01*
X183086573Y-66431588D01*
X183217901Y-66235042D01*
X183385042Y-66067901D01*
X183581588Y-65936573D01*
X183799974Y-65846115D01*
X184031809Y-65800000D01*
X184268191Y-65800000D01*
X184500026Y-65846115D01*
X184500026Y-65846115D01*
G37*
G36*
X179383352Y-66230743D02*
X179528941Y-66291048D01*
X179659973Y-66378601D01*
X179771399Y-66490027D01*
X179858952Y-66621059D01*
X179919257Y-66766648D01*
X179950000Y-66921205D01*
X179950000Y-67078795D01*
X179919257Y-67233352D01*
X179858952Y-67378941D01*
X179771399Y-67509973D01*
X179659973Y-67621399D01*
X179528941Y-67708952D01*
X179383352Y-67769257D01*
X179228795Y-67800000D01*
X179071205Y-67800000D01*
X178916648Y-67769257D01*
X178771059Y-67708952D01*
X178640027Y-67621399D01*
X178528601Y-67509973D01*
X178441048Y-67378941D01*
X178380743Y-67233352D01*
X178350000Y-67078795D01*
X178350000Y-66921205D01*
X178380743Y-66766648D01*
X178441048Y-66621059D01*
X178528601Y-66490027D01*
X178640027Y-66378601D01*
X178771059Y-66291048D01*
X178916648Y-66230743D01*
X179071205Y-66200000D01*
X179228795Y-66200000D01*
X179383352Y-66230743D01*
X179383352Y-66230743D01*
G37*
G36*
X189383352Y-66230743D02*
X189528941Y-66291048D01*
X189659973Y-66378601D01*
X189771399Y-66490027D01*
X189858952Y-66621059D01*
X189919257Y-66766648D01*
X189950000Y-66921205D01*
X189950000Y-67078795D01*
X189919257Y-67233352D01*
X189858952Y-67378941D01*
X189771399Y-67509973D01*
X189659973Y-67621399D01*
X189528941Y-67708952D01*
X189383352Y-67769257D01*
X189228795Y-67800000D01*
X189071205Y-67800000D01*
X188916648Y-67769257D01*
X188771059Y-67708952D01*
X188640027Y-67621399D01*
X188528601Y-67509973D01*
X188441048Y-67378941D01*
X188380743Y-67233352D01*
X188350000Y-67078795D01*
X188350000Y-66921205D01*
X188380743Y-66766648D01*
X188441048Y-66621059D01*
X188528601Y-66490027D01*
X188640027Y-66378601D01*
X188771059Y-66291048D01*
X188916648Y-66230743D01*
X189071205Y-66200000D01*
X189228795Y-66200000D01*
X189383352Y-66230743D01*
X189383352Y-66230743D01*
G37*
G36*
X179383352Y-63730743D02*
X179528941Y-63791048D01*
X179659973Y-63878601D01*
X179771399Y-63990027D01*
X179858952Y-64121059D01*
X179919257Y-64266648D01*
X179950000Y-64421205D01*
X179950000Y-64578795D01*
X179919257Y-64733352D01*
X179858952Y-64878941D01*
X179771399Y-65009973D01*
X179659973Y-65121399D01*
X179528941Y-65208952D01*
X179383352Y-65269257D01*
X179228795Y-65300000D01*
X179071205Y-65300000D01*
X178916648Y-65269257D01*
X178771059Y-65208952D01*
X178640027Y-65121399D01*
X178528601Y-65009973D01*
X178441048Y-64878941D01*
X178380743Y-64733352D01*
X178350000Y-64578795D01*
X178350000Y-64421205D01*
X178380743Y-64266648D01*
X178441048Y-64121059D01*
X178528601Y-63990027D01*
X178640027Y-63878601D01*
X178771059Y-63791048D01*
X178916648Y-63730743D01*
X179071205Y-63700000D01*
X179228795Y-63700000D01*
X179383352Y-63730743D01*
X179383352Y-63730743D01*
G37*
G36*
X189383352Y-63730743D02*
X189528941Y-63791048D01*
X189659973Y-63878601D01*
X189771399Y-63990027D01*
X189858952Y-64121059D01*
X189919257Y-64266648D01*
X189950000Y-64421205D01*
X189950000Y-64578795D01*
X189919257Y-64733352D01*
X189858952Y-64878941D01*
X189771399Y-65009973D01*
X189659973Y-65121399D01*
X189528941Y-65208952D01*
X189383352Y-65269257D01*
X189228795Y-65300000D01*
X189071205Y-65300000D01*
X188916648Y-65269257D01*
X188771059Y-65208952D01*
X188640027Y-65121399D01*
X188528601Y-65009973D01*
X188441048Y-64878941D01*
X188380743Y-64733352D01*
X188350000Y-64578795D01*
X188350000Y-64421205D01*
X188380743Y-64266648D01*
X188441048Y-64121059D01*
X188528601Y-63990027D01*
X188640027Y-63878601D01*
X188771059Y-63791048D01*
X188916648Y-63730743D01*
X189071205Y-63700000D01*
X189228795Y-63700000D01*
X189383352Y-63730743D01*
X189383352Y-63730743D01*
G37*
M02*
