G04 #@! TF.GenerationSoftware,KiCad,Pcbnew,5.0.1*
G04 #@! TF.CreationDate,2018-10-18T13:45:59+02:00*
G04 #@! TF.ProjectId,MicroFlux,4D6963726F466C75782E6B696361645F,rev?*
G04 #@! TF.SameCoordinates,Original*
G04 #@! TF.FileFunction,Legend,Top*
G04 #@! TF.FilePolarity,Positive*
%FSLAX46Y46*%
G04 Gerber Fmt 4.6, Leading zero omitted, Abs format (unit mm)*
G04 Created by KiCad (PCBNEW 5.0.1) date Thu 18 Oct 2018 01:45:59 PM CEST*
%MOMM*%
%LPD*%
G01*
G04 APERTURE LIST*
%ADD10C,0.120000*%
%ADD11C,0.050000*%
%ADD12C,0.150000*%
G04 APERTURE END LIST*
D10*
G04 #@! TO.C,D1*
X173540000Y-97789538D02*
G75*
G03X179090000Y-99334830I2990000J-462D01*
G01*
X173540000Y-97790462D02*
G75*
G02X179090000Y-96245170I2990000J462D01*
G01*
X179030000Y-97790000D02*
G75*
G03X179030000Y-97790000I-2500000J0D01*
G01*
X179090000Y-99335000D02*
X179090000Y-96245000D01*
G04 #@! TO.C,R7*
X189850000Y-93060000D02*
X189850000Y-94900000D01*
X189850000Y-94900000D02*
X193690000Y-94900000D01*
X193690000Y-94900000D02*
X193690000Y-93060000D01*
X193690000Y-93060000D02*
X189850000Y-93060000D01*
X188900000Y-93980000D02*
X189850000Y-93980000D01*
X194640000Y-93980000D02*
X193690000Y-93980000D01*
G04 #@! TO.C,R1*
X176530000Y-73330000D02*
X176530000Y-74280000D01*
X176530000Y-79070000D02*
X176530000Y-78120000D01*
X175610000Y-74280000D02*
X175610000Y-78120000D01*
X177450000Y-74280000D02*
X175610000Y-74280000D01*
X177450000Y-78120000D02*
X177450000Y-74280000D01*
X175610000Y-78120000D02*
X177450000Y-78120000D01*
G04 #@! TO.C,R2*
X190850000Y-78120000D02*
X192690000Y-78120000D01*
X192690000Y-78120000D02*
X192690000Y-74280000D01*
X192690000Y-74280000D02*
X190850000Y-74280000D01*
X190850000Y-74280000D02*
X190850000Y-78120000D01*
X191770000Y-79070000D02*
X191770000Y-78120000D01*
X191770000Y-73330000D02*
X191770000Y-74280000D01*
G04 #@! TO.C,R3*
X173990000Y-79680000D02*
X173990000Y-80630000D01*
X173990000Y-85420000D02*
X173990000Y-84470000D01*
X173070000Y-80630000D02*
X173070000Y-84470000D01*
X174910000Y-80630000D02*
X173070000Y-80630000D01*
X174910000Y-84470000D02*
X174910000Y-80630000D01*
X173070000Y-84470000D02*
X174910000Y-84470000D01*
G04 #@! TO.C,R4*
X193390000Y-84470000D02*
X195230000Y-84470000D01*
X195230000Y-84470000D02*
X195230000Y-80630000D01*
X195230000Y-80630000D02*
X193390000Y-80630000D01*
X193390000Y-80630000D02*
X193390000Y-84470000D01*
X194310000Y-85420000D02*
X194310000Y-84470000D01*
X194310000Y-79680000D02*
X194310000Y-80630000D01*
G04 #@! TO.C,R5*
X187020000Y-97790000D02*
X186070000Y-97790000D01*
X181280000Y-97790000D02*
X182230000Y-97790000D01*
X186070000Y-96870000D02*
X182230000Y-96870000D01*
X186070000Y-98710000D02*
X186070000Y-96870000D01*
X182230000Y-98710000D02*
X186070000Y-98710000D01*
X182230000Y-96870000D02*
X182230000Y-98710000D01*
G04 #@! TO.C,R6*
X174610000Y-93060000D02*
X174610000Y-94900000D01*
X174610000Y-94900000D02*
X178450000Y-94900000D01*
X178450000Y-94900000D02*
X178450000Y-93060000D01*
X178450000Y-93060000D02*
X174610000Y-93060000D01*
X173660000Y-93980000D02*
X174610000Y-93980000D01*
X179400000Y-93980000D02*
X178450000Y-93980000D01*
G04 #@! TO.C,D2*
X179970000Y-100680000D02*
X179970000Y-102520000D01*
X179970000Y-102520000D02*
X183250000Y-102520000D01*
X183250000Y-102520000D02*
X183250000Y-100680000D01*
X183250000Y-100680000D02*
X179970000Y-100680000D01*
X178790000Y-101600000D02*
X179970000Y-101600000D01*
X184430000Y-101600000D02*
X183250000Y-101600000D01*
X180546000Y-100680000D02*
X180546000Y-102520000D01*
X180666000Y-100680000D02*
X180666000Y-102520000D01*
X180426000Y-100680000D02*
X180426000Y-102520000D01*
D11*
G04 #@! TO.C,J1*
X199140000Y-111660000D02*
X188140000Y-111660000D01*
X188140000Y-111660000D02*
X188140000Y-99160000D01*
X188140000Y-99160000D02*
X199140000Y-99160000D01*
G04 #@! TO.C,J2*
X190400000Y-63750000D02*
X190400000Y-74750000D01*
X190400000Y-74750000D02*
X177900000Y-74750000D01*
X177900000Y-74750000D02*
X177900000Y-63750000D01*
D10*
G04 #@! TO.C,L1*
X177400661Y-68789340D02*
G75*
G03X177400661Y-68789340I-3620001J0D01*
G01*
G04 #@! TO.C,L2*
X198139341Y-68789340D02*
G75*
G03X198139341Y-68789340I-3620001J0D01*
G01*
G04 #@! TO.C,C7*
X178255000Y-86365225D02*
X177755000Y-86365225D01*
X178005000Y-86115225D02*
X178005000Y-86615225D01*
X176814000Y-91521000D02*
X176246000Y-91521000D01*
X177048000Y-91481000D02*
X176012000Y-91481000D01*
X177207000Y-91441000D02*
X175853000Y-91441000D01*
X177335000Y-91401000D02*
X175725000Y-91401000D01*
X177445000Y-91361000D02*
X175615000Y-91361000D01*
X177541000Y-91321000D02*
X175519000Y-91321000D01*
X177628000Y-91281000D02*
X175432000Y-91281000D01*
X177708000Y-91241000D02*
X175352000Y-91241000D01*
X175490000Y-91201000D02*
X175279000Y-91201000D01*
X177781000Y-91201000D02*
X177570000Y-91201000D01*
X175490000Y-91161000D02*
X175211000Y-91161000D01*
X177849000Y-91161000D02*
X177570000Y-91161000D01*
X175490000Y-91121000D02*
X175147000Y-91121000D01*
X177913000Y-91121000D02*
X177570000Y-91121000D01*
X175490000Y-91081000D02*
X175087000Y-91081000D01*
X177973000Y-91081000D02*
X177570000Y-91081000D01*
X175490000Y-91041000D02*
X175030000Y-91041000D01*
X178030000Y-91041000D02*
X177570000Y-91041000D01*
X175490000Y-91001000D02*
X174976000Y-91001000D01*
X178084000Y-91001000D02*
X177570000Y-91001000D01*
X175490000Y-90961000D02*
X174925000Y-90961000D01*
X178135000Y-90961000D02*
X177570000Y-90961000D01*
X175490000Y-90921000D02*
X174877000Y-90921000D01*
X178183000Y-90921000D02*
X177570000Y-90921000D01*
X175490000Y-90881000D02*
X174831000Y-90881000D01*
X178229000Y-90881000D02*
X177570000Y-90881000D01*
X175490000Y-90841000D02*
X174787000Y-90841000D01*
X178273000Y-90841000D02*
X177570000Y-90841000D01*
X175490000Y-90801000D02*
X174745000Y-90801000D01*
X178315000Y-90801000D02*
X177570000Y-90801000D01*
X175490000Y-90761000D02*
X174704000Y-90761000D01*
X178356000Y-90761000D02*
X177570000Y-90761000D01*
X175490000Y-90721000D02*
X174666000Y-90721000D01*
X178394000Y-90721000D02*
X177570000Y-90721000D01*
X175490000Y-90681000D02*
X174629000Y-90681000D01*
X178431000Y-90681000D02*
X177570000Y-90681000D01*
X175490000Y-90641000D02*
X174593000Y-90641000D01*
X178467000Y-90641000D02*
X177570000Y-90641000D01*
X175490000Y-90601000D02*
X174559000Y-90601000D01*
X178501000Y-90601000D02*
X177570000Y-90601000D01*
X175490000Y-90561000D02*
X174526000Y-90561000D01*
X178534000Y-90561000D02*
X177570000Y-90561000D01*
X175490000Y-90521000D02*
X174495000Y-90521000D01*
X178565000Y-90521000D02*
X177570000Y-90521000D01*
X175490000Y-90481000D02*
X174465000Y-90481000D01*
X178595000Y-90481000D02*
X177570000Y-90481000D01*
X175490000Y-90441000D02*
X174435000Y-90441000D01*
X178625000Y-90441000D02*
X177570000Y-90441000D01*
X175490000Y-90401000D02*
X174408000Y-90401000D01*
X178652000Y-90401000D02*
X177570000Y-90401000D01*
X175490000Y-90361000D02*
X174381000Y-90361000D01*
X178679000Y-90361000D02*
X177570000Y-90361000D01*
X175490000Y-90321000D02*
X174355000Y-90321000D01*
X178705000Y-90321000D02*
X177570000Y-90321000D01*
X175490000Y-90281000D02*
X174330000Y-90281000D01*
X178730000Y-90281000D02*
X177570000Y-90281000D01*
X175490000Y-90241000D02*
X174306000Y-90241000D01*
X178754000Y-90241000D02*
X177570000Y-90241000D01*
X175490000Y-90201000D02*
X174283000Y-90201000D01*
X178777000Y-90201000D02*
X177570000Y-90201000D01*
X175490000Y-90161000D02*
X174262000Y-90161000D01*
X178798000Y-90161000D02*
X177570000Y-90161000D01*
X175490000Y-90121000D02*
X174240000Y-90121000D01*
X178820000Y-90121000D02*
X177570000Y-90121000D01*
X175490000Y-90081000D02*
X174220000Y-90081000D01*
X178840000Y-90081000D02*
X177570000Y-90081000D01*
X175490000Y-90041000D02*
X174201000Y-90041000D01*
X178859000Y-90041000D02*
X177570000Y-90041000D01*
X175490000Y-90001000D02*
X174182000Y-90001000D01*
X178878000Y-90001000D02*
X177570000Y-90001000D01*
X175490000Y-89961000D02*
X174165000Y-89961000D01*
X178895000Y-89961000D02*
X177570000Y-89961000D01*
X175490000Y-89921000D02*
X174148000Y-89921000D01*
X178912000Y-89921000D02*
X177570000Y-89921000D01*
X175490000Y-89881000D02*
X174132000Y-89881000D01*
X178928000Y-89881000D02*
X177570000Y-89881000D01*
X175490000Y-89841000D02*
X174116000Y-89841000D01*
X178944000Y-89841000D02*
X177570000Y-89841000D01*
X175490000Y-89801000D02*
X174102000Y-89801000D01*
X178958000Y-89801000D02*
X177570000Y-89801000D01*
X175490000Y-89761000D02*
X174088000Y-89761000D01*
X178972000Y-89761000D02*
X177570000Y-89761000D01*
X175490000Y-89721000D02*
X174075000Y-89721000D01*
X178985000Y-89721000D02*
X177570000Y-89721000D01*
X175490000Y-89681000D02*
X174062000Y-89681000D01*
X178998000Y-89681000D02*
X177570000Y-89681000D01*
X175490000Y-89641000D02*
X174050000Y-89641000D01*
X179010000Y-89641000D02*
X177570000Y-89641000D01*
X175490000Y-89600000D02*
X174039000Y-89600000D01*
X179021000Y-89600000D02*
X177570000Y-89600000D01*
X175490000Y-89560000D02*
X174029000Y-89560000D01*
X179031000Y-89560000D02*
X177570000Y-89560000D01*
X175490000Y-89520000D02*
X174019000Y-89520000D01*
X179041000Y-89520000D02*
X177570000Y-89520000D01*
X175490000Y-89480000D02*
X174010000Y-89480000D01*
X179050000Y-89480000D02*
X177570000Y-89480000D01*
X175490000Y-89440000D02*
X174002000Y-89440000D01*
X179058000Y-89440000D02*
X177570000Y-89440000D01*
X175490000Y-89400000D02*
X173994000Y-89400000D01*
X179066000Y-89400000D02*
X177570000Y-89400000D01*
X175490000Y-89360000D02*
X173987000Y-89360000D01*
X179073000Y-89360000D02*
X177570000Y-89360000D01*
X175490000Y-89320000D02*
X173980000Y-89320000D01*
X179080000Y-89320000D02*
X177570000Y-89320000D01*
X175490000Y-89280000D02*
X173974000Y-89280000D01*
X179086000Y-89280000D02*
X177570000Y-89280000D01*
X175490000Y-89240000D02*
X173969000Y-89240000D01*
X179091000Y-89240000D02*
X177570000Y-89240000D01*
X175490000Y-89200000D02*
X173965000Y-89200000D01*
X179095000Y-89200000D02*
X177570000Y-89200000D01*
X175490000Y-89160000D02*
X173961000Y-89160000D01*
X179099000Y-89160000D02*
X177570000Y-89160000D01*
X179103000Y-89120000D02*
X173957000Y-89120000D01*
X179106000Y-89080000D02*
X173954000Y-89080000D01*
X179108000Y-89040000D02*
X173952000Y-89040000D01*
X179109000Y-89000000D02*
X173951000Y-89000000D01*
X179110000Y-88960000D02*
X173950000Y-88960000D01*
X179110000Y-88920000D02*
X173950000Y-88920000D01*
X179150000Y-88920000D02*
G75*
G03X179150000Y-88920000I-2620000J0D01*
G01*
G04 #@! TO.C,C8*
X194390000Y-88920000D02*
G75*
G03X194390000Y-88920000I-2620000J0D01*
G01*
X189190000Y-88920000D02*
X194350000Y-88920000D01*
X189190000Y-88880000D02*
X194350000Y-88880000D01*
X189191000Y-88840000D02*
X194349000Y-88840000D01*
X189192000Y-88800000D02*
X194348000Y-88800000D01*
X189194000Y-88760000D02*
X194346000Y-88760000D01*
X189197000Y-88720000D02*
X194343000Y-88720000D01*
X189201000Y-88680000D02*
X190730000Y-88680000D01*
X192810000Y-88680000D02*
X194339000Y-88680000D01*
X189205000Y-88640000D02*
X190730000Y-88640000D01*
X192810000Y-88640000D02*
X194335000Y-88640000D01*
X189209000Y-88600000D02*
X190730000Y-88600000D01*
X192810000Y-88600000D02*
X194331000Y-88600000D01*
X189214000Y-88560000D02*
X190730000Y-88560000D01*
X192810000Y-88560000D02*
X194326000Y-88560000D01*
X189220000Y-88520000D02*
X190730000Y-88520000D01*
X192810000Y-88520000D02*
X194320000Y-88520000D01*
X189227000Y-88480000D02*
X190730000Y-88480000D01*
X192810000Y-88480000D02*
X194313000Y-88480000D01*
X189234000Y-88440000D02*
X190730000Y-88440000D01*
X192810000Y-88440000D02*
X194306000Y-88440000D01*
X189242000Y-88400000D02*
X190730000Y-88400000D01*
X192810000Y-88400000D02*
X194298000Y-88400000D01*
X189250000Y-88360000D02*
X190730000Y-88360000D01*
X192810000Y-88360000D02*
X194290000Y-88360000D01*
X189259000Y-88320000D02*
X190730000Y-88320000D01*
X192810000Y-88320000D02*
X194281000Y-88320000D01*
X189269000Y-88280000D02*
X190730000Y-88280000D01*
X192810000Y-88280000D02*
X194271000Y-88280000D01*
X189279000Y-88240000D02*
X190730000Y-88240000D01*
X192810000Y-88240000D02*
X194261000Y-88240000D01*
X189290000Y-88199000D02*
X190730000Y-88199000D01*
X192810000Y-88199000D02*
X194250000Y-88199000D01*
X189302000Y-88159000D02*
X190730000Y-88159000D01*
X192810000Y-88159000D02*
X194238000Y-88159000D01*
X189315000Y-88119000D02*
X190730000Y-88119000D01*
X192810000Y-88119000D02*
X194225000Y-88119000D01*
X189328000Y-88079000D02*
X190730000Y-88079000D01*
X192810000Y-88079000D02*
X194212000Y-88079000D01*
X189342000Y-88039000D02*
X190730000Y-88039000D01*
X192810000Y-88039000D02*
X194198000Y-88039000D01*
X189356000Y-87999000D02*
X190730000Y-87999000D01*
X192810000Y-87999000D02*
X194184000Y-87999000D01*
X189372000Y-87959000D02*
X190730000Y-87959000D01*
X192810000Y-87959000D02*
X194168000Y-87959000D01*
X189388000Y-87919000D02*
X190730000Y-87919000D01*
X192810000Y-87919000D02*
X194152000Y-87919000D01*
X189405000Y-87879000D02*
X190730000Y-87879000D01*
X192810000Y-87879000D02*
X194135000Y-87879000D01*
X189422000Y-87839000D02*
X190730000Y-87839000D01*
X192810000Y-87839000D02*
X194118000Y-87839000D01*
X189441000Y-87799000D02*
X190730000Y-87799000D01*
X192810000Y-87799000D02*
X194099000Y-87799000D01*
X189460000Y-87759000D02*
X190730000Y-87759000D01*
X192810000Y-87759000D02*
X194080000Y-87759000D01*
X189480000Y-87719000D02*
X190730000Y-87719000D01*
X192810000Y-87719000D02*
X194060000Y-87719000D01*
X189502000Y-87679000D02*
X190730000Y-87679000D01*
X192810000Y-87679000D02*
X194038000Y-87679000D01*
X189523000Y-87639000D02*
X190730000Y-87639000D01*
X192810000Y-87639000D02*
X194017000Y-87639000D01*
X189546000Y-87599000D02*
X190730000Y-87599000D01*
X192810000Y-87599000D02*
X193994000Y-87599000D01*
X189570000Y-87559000D02*
X190730000Y-87559000D01*
X192810000Y-87559000D02*
X193970000Y-87559000D01*
X189595000Y-87519000D02*
X190730000Y-87519000D01*
X192810000Y-87519000D02*
X193945000Y-87519000D01*
X189621000Y-87479000D02*
X190730000Y-87479000D01*
X192810000Y-87479000D02*
X193919000Y-87479000D01*
X189648000Y-87439000D02*
X190730000Y-87439000D01*
X192810000Y-87439000D02*
X193892000Y-87439000D01*
X189675000Y-87399000D02*
X190730000Y-87399000D01*
X192810000Y-87399000D02*
X193865000Y-87399000D01*
X189705000Y-87359000D02*
X190730000Y-87359000D01*
X192810000Y-87359000D02*
X193835000Y-87359000D01*
X189735000Y-87319000D02*
X190730000Y-87319000D01*
X192810000Y-87319000D02*
X193805000Y-87319000D01*
X189766000Y-87279000D02*
X190730000Y-87279000D01*
X192810000Y-87279000D02*
X193774000Y-87279000D01*
X189799000Y-87239000D02*
X190730000Y-87239000D01*
X192810000Y-87239000D02*
X193741000Y-87239000D01*
X189833000Y-87199000D02*
X190730000Y-87199000D01*
X192810000Y-87199000D02*
X193707000Y-87199000D01*
X189869000Y-87159000D02*
X190730000Y-87159000D01*
X192810000Y-87159000D02*
X193671000Y-87159000D01*
X189906000Y-87119000D02*
X190730000Y-87119000D01*
X192810000Y-87119000D02*
X193634000Y-87119000D01*
X189944000Y-87079000D02*
X190730000Y-87079000D01*
X192810000Y-87079000D02*
X193596000Y-87079000D01*
X189985000Y-87039000D02*
X190730000Y-87039000D01*
X192810000Y-87039000D02*
X193555000Y-87039000D01*
X190027000Y-86999000D02*
X190730000Y-86999000D01*
X192810000Y-86999000D02*
X193513000Y-86999000D01*
X190071000Y-86959000D02*
X190730000Y-86959000D01*
X192810000Y-86959000D02*
X193469000Y-86959000D01*
X190117000Y-86919000D02*
X190730000Y-86919000D01*
X192810000Y-86919000D02*
X193423000Y-86919000D01*
X190165000Y-86879000D02*
X190730000Y-86879000D01*
X192810000Y-86879000D02*
X193375000Y-86879000D01*
X190216000Y-86839000D02*
X190730000Y-86839000D01*
X192810000Y-86839000D02*
X193324000Y-86839000D01*
X190270000Y-86799000D02*
X190730000Y-86799000D01*
X192810000Y-86799000D02*
X193270000Y-86799000D01*
X190327000Y-86759000D02*
X190730000Y-86759000D01*
X192810000Y-86759000D02*
X193213000Y-86759000D01*
X190387000Y-86719000D02*
X190730000Y-86719000D01*
X192810000Y-86719000D02*
X193153000Y-86719000D01*
X190451000Y-86679000D02*
X190730000Y-86679000D01*
X192810000Y-86679000D02*
X193089000Y-86679000D01*
X190519000Y-86639000D02*
X190730000Y-86639000D01*
X192810000Y-86639000D02*
X193021000Y-86639000D01*
X190592000Y-86599000D02*
X192948000Y-86599000D01*
X190672000Y-86559000D02*
X192868000Y-86559000D01*
X190759000Y-86519000D02*
X192781000Y-86519000D01*
X190855000Y-86479000D02*
X192685000Y-86479000D01*
X190965000Y-86439000D02*
X192575000Y-86439000D01*
X191093000Y-86399000D02*
X192447000Y-86399000D01*
X191252000Y-86359000D02*
X192288000Y-86359000D01*
X191486000Y-86319000D02*
X192054000Y-86319000D01*
X190295000Y-91724775D02*
X190295000Y-91224775D01*
X190045000Y-91474775D02*
X190545000Y-91474775D01*
G04 #@! TO.C,C1*
X175610000Y-83171000D02*
X175610000Y-84429000D01*
X177450000Y-83171000D02*
X177450000Y-84429000D01*
G04 #@! TO.C,C2*
X192690000Y-83171000D02*
X192690000Y-84429000D01*
X190850000Y-83171000D02*
X190850000Y-84429000D01*
G04 #@! TO.C,C3*
X183800000Y-89509000D02*
X183800000Y-88251000D01*
X181960000Y-89509000D02*
X181960000Y-88251000D01*
G04 #@! TO.C,C4*
X184500000Y-89509000D02*
X184500000Y-88251000D01*
X186340000Y-89509000D02*
X186340000Y-88251000D01*
G04 #@! TO.C,C5*
X179420000Y-88251000D02*
X179420000Y-89509000D01*
X181260000Y-88251000D02*
X181260000Y-89509000D01*
G04 #@! TO.C,C6*
X187040000Y-89509000D02*
X187040000Y-88251000D01*
X188880000Y-89509000D02*
X188880000Y-88251000D01*
G04 #@! TO.C,U1*
X183150000Y-85150000D02*
G75*
G02X185150000Y-85150000I1000000J0D01*
G01*
X185150000Y-85150000D02*
X186400000Y-85150000D01*
X186400000Y-85150000D02*
X186400000Y-74870000D01*
X186400000Y-74870000D02*
X181900000Y-74870000D01*
X181900000Y-74870000D02*
X181900000Y-85150000D01*
X181900000Y-85150000D02*
X183150000Y-85150000D01*
G04 #@! TO.C,RV1*
X156450000Y-111030000D02*
X156450000Y-104790000D01*
X166450000Y-111030000D02*
X166450000Y-104790000D01*
X166450000Y-104790000D02*
X156450000Y-104790000D01*
X166450000Y-111030000D02*
X156450000Y-111030000D01*
X166450000Y-111530000D02*
X166450000Y-104290000D01*
X171450000Y-111530000D02*
X171450000Y-104290000D01*
X171450000Y-104290000D02*
X166450000Y-104290000D01*
X171450000Y-111530000D02*
X166450000Y-111530000D01*
X171450000Y-112780000D02*
X171450000Y-103040000D01*
X187491000Y-112780000D02*
X187491000Y-103040000D01*
X187491000Y-103040000D02*
X171450000Y-103040000D01*
X187491000Y-112780000D02*
X171450000Y-112780000D01*
G04 #@! TO.C,D1*
D12*
X171981904Y-98242380D02*
X171981904Y-97242380D01*
X172220000Y-97242380D01*
X172362857Y-97290000D01*
X172458095Y-97385238D01*
X172505714Y-97480476D01*
X172553333Y-97670952D01*
X172553333Y-97813809D01*
X172505714Y-98004285D01*
X172458095Y-98099523D01*
X172362857Y-98194761D01*
X172220000Y-98242380D01*
X171981904Y-98242380D01*
X173505714Y-98242380D02*
X172934285Y-98242380D01*
X173220000Y-98242380D02*
X173220000Y-97242380D01*
X173124761Y-97385238D01*
X173029523Y-97480476D01*
X172934285Y-97528095D01*
G04 #@! TO.C,R7*
X191603333Y-94432380D02*
X191270000Y-93956190D01*
X191031904Y-94432380D02*
X191031904Y-93432380D01*
X191412857Y-93432380D01*
X191508095Y-93480000D01*
X191555714Y-93527619D01*
X191603333Y-93622857D01*
X191603333Y-93765714D01*
X191555714Y-93860952D01*
X191508095Y-93908571D01*
X191412857Y-93956190D01*
X191031904Y-93956190D01*
X191936666Y-93432380D02*
X192603333Y-93432380D01*
X192174761Y-94432380D01*
G04 #@! TO.C,R1*
X176982380Y-76366666D02*
X176506190Y-76700000D01*
X176982380Y-76938095D02*
X175982380Y-76938095D01*
X175982380Y-76557142D01*
X176030000Y-76461904D01*
X176077619Y-76414285D01*
X176172857Y-76366666D01*
X176315714Y-76366666D01*
X176410952Y-76414285D01*
X176458571Y-76461904D01*
X176506190Y-76557142D01*
X176506190Y-76938095D01*
X176982380Y-75414285D02*
X176982380Y-75985714D01*
X176982380Y-75700000D02*
X175982380Y-75700000D01*
X176125238Y-75795238D01*
X176220476Y-75890476D01*
X176268095Y-75985714D01*
G04 #@! TO.C,R2*
X192222380Y-76366666D02*
X191746190Y-76700000D01*
X192222380Y-76938095D02*
X191222380Y-76938095D01*
X191222380Y-76557142D01*
X191270000Y-76461904D01*
X191317619Y-76414285D01*
X191412857Y-76366666D01*
X191555714Y-76366666D01*
X191650952Y-76414285D01*
X191698571Y-76461904D01*
X191746190Y-76557142D01*
X191746190Y-76938095D01*
X191317619Y-75985714D02*
X191270000Y-75938095D01*
X191222380Y-75842857D01*
X191222380Y-75604761D01*
X191270000Y-75509523D01*
X191317619Y-75461904D01*
X191412857Y-75414285D01*
X191508095Y-75414285D01*
X191650952Y-75461904D01*
X192222380Y-76033333D01*
X192222380Y-75414285D01*
G04 #@! TO.C,R3*
X174442380Y-82716666D02*
X173966190Y-83050000D01*
X174442380Y-83288095D02*
X173442380Y-83288095D01*
X173442380Y-82907142D01*
X173490000Y-82811904D01*
X173537619Y-82764285D01*
X173632857Y-82716666D01*
X173775714Y-82716666D01*
X173870952Y-82764285D01*
X173918571Y-82811904D01*
X173966190Y-82907142D01*
X173966190Y-83288095D01*
X173442380Y-82383333D02*
X173442380Y-81764285D01*
X173823333Y-82097619D01*
X173823333Y-81954761D01*
X173870952Y-81859523D01*
X173918571Y-81811904D01*
X174013809Y-81764285D01*
X174251904Y-81764285D01*
X174347142Y-81811904D01*
X174394761Y-81859523D01*
X174442380Y-81954761D01*
X174442380Y-82240476D01*
X174394761Y-82335714D01*
X174347142Y-82383333D01*
G04 #@! TO.C,R4*
X194762380Y-82716666D02*
X194286190Y-83050000D01*
X194762380Y-83288095D02*
X193762380Y-83288095D01*
X193762380Y-82907142D01*
X193810000Y-82811904D01*
X193857619Y-82764285D01*
X193952857Y-82716666D01*
X194095714Y-82716666D01*
X194190952Y-82764285D01*
X194238571Y-82811904D01*
X194286190Y-82907142D01*
X194286190Y-83288095D01*
X194095714Y-81859523D02*
X194762380Y-81859523D01*
X193714761Y-82097619D02*
X194429047Y-82335714D01*
X194429047Y-81716666D01*
G04 #@! TO.C,R5*
X183983333Y-98242380D02*
X183650000Y-97766190D01*
X183411904Y-98242380D02*
X183411904Y-97242380D01*
X183792857Y-97242380D01*
X183888095Y-97290000D01*
X183935714Y-97337619D01*
X183983333Y-97432857D01*
X183983333Y-97575714D01*
X183935714Y-97670952D01*
X183888095Y-97718571D01*
X183792857Y-97766190D01*
X183411904Y-97766190D01*
X184888095Y-97242380D02*
X184411904Y-97242380D01*
X184364285Y-97718571D01*
X184411904Y-97670952D01*
X184507142Y-97623333D01*
X184745238Y-97623333D01*
X184840476Y-97670952D01*
X184888095Y-97718571D01*
X184935714Y-97813809D01*
X184935714Y-98051904D01*
X184888095Y-98147142D01*
X184840476Y-98194761D01*
X184745238Y-98242380D01*
X184507142Y-98242380D01*
X184411904Y-98194761D01*
X184364285Y-98147142D01*
G04 #@! TO.C,R6*
X176363333Y-94432380D02*
X176030000Y-93956190D01*
X175791904Y-94432380D02*
X175791904Y-93432380D01*
X176172857Y-93432380D01*
X176268095Y-93480000D01*
X176315714Y-93527619D01*
X176363333Y-93622857D01*
X176363333Y-93765714D01*
X176315714Y-93860952D01*
X176268095Y-93908571D01*
X176172857Y-93956190D01*
X175791904Y-93956190D01*
X177220476Y-93432380D02*
X177030000Y-93432380D01*
X176934761Y-93480000D01*
X176887142Y-93527619D01*
X176791904Y-93670476D01*
X176744285Y-93860952D01*
X176744285Y-94241904D01*
X176791904Y-94337142D01*
X176839523Y-94384761D01*
X176934761Y-94432380D01*
X177125238Y-94432380D01*
X177220476Y-94384761D01*
X177268095Y-94337142D01*
X177315714Y-94241904D01*
X177315714Y-94003809D01*
X177268095Y-93908571D01*
X177220476Y-93860952D01*
X177125238Y-93813333D01*
X176934761Y-93813333D01*
X176839523Y-93860952D01*
X176791904Y-93908571D01*
X176744285Y-94003809D01*
G04 #@! TO.C,D2*
X180871904Y-102052380D02*
X180871904Y-101052380D01*
X181110000Y-101052380D01*
X181252857Y-101100000D01*
X181348095Y-101195238D01*
X181395714Y-101290476D01*
X181443333Y-101480952D01*
X181443333Y-101623809D01*
X181395714Y-101814285D01*
X181348095Y-101909523D01*
X181252857Y-102004761D01*
X181110000Y-102052380D01*
X180871904Y-102052380D01*
X181824285Y-101147619D02*
X181871904Y-101100000D01*
X181967142Y-101052380D01*
X182205238Y-101052380D01*
X182300476Y-101100000D01*
X182348095Y-101147619D01*
X182395714Y-101242857D01*
X182395714Y-101338095D01*
X182348095Y-101480952D01*
X181776666Y-102052380D01*
X182395714Y-102052380D01*
X174998095Y-102052380D02*
X174998095Y-101052380D01*
X175569523Y-102052380D02*
X175140952Y-101480952D01*
X175569523Y-101052380D02*
X174998095Y-101623809D01*
G04 #@! TO.C,J1*
X192492380Y-105743333D02*
X193206666Y-105743333D01*
X193349523Y-105790952D01*
X193444761Y-105886190D01*
X193492380Y-106029047D01*
X193492380Y-106124285D01*
X193492380Y-104743333D02*
X193492380Y-105314761D01*
X193492380Y-105029047D02*
X192492380Y-105029047D01*
X192635238Y-105124285D01*
X192730476Y-105219523D01*
X192778095Y-105314761D01*
G04 #@! TO.C,J2*
X183816666Y-69302380D02*
X183816666Y-70016666D01*
X183769047Y-70159523D01*
X183673809Y-70254761D01*
X183530952Y-70302380D01*
X183435714Y-70302380D01*
X184245238Y-69397619D02*
X184292857Y-69350000D01*
X184388095Y-69302380D01*
X184626190Y-69302380D01*
X184721428Y-69350000D01*
X184769047Y-69397619D01*
X184816666Y-69492857D01*
X184816666Y-69588095D01*
X184769047Y-69730952D01*
X184197619Y-70302380D01*
X184816666Y-70302380D01*
G04 #@! TO.C,L1*
X176363333Y-65222380D02*
X175887142Y-65222380D01*
X175887142Y-64222380D01*
X177220476Y-65222380D02*
X176649047Y-65222380D01*
X176934761Y-65222380D02*
X176934761Y-64222380D01*
X176839523Y-64365238D01*
X176744285Y-64460476D01*
X176649047Y-64508095D01*
G04 #@! TO.C,L2*
X191603333Y-65222380D02*
X191127142Y-65222380D01*
X191127142Y-64222380D01*
X191889047Y-64317619D02*
X191936666Y-64270000D01*
X192031904Y-64222380D01*
X192270000Y-64222380D01*
X192365238Y-64270000D01*
X192412857Y-64317619D01*
X192460476Y-64412857D01*
X192460476Y-64508095D01*
X192412857Y-64650952D01*
X191841428Y-65222380D01*
X192460476Y-65222380D01*
G04 #@! TO.C,C7*
X174458333Y-92432142D02*
X174410714Y-92479761D01*
X174267857Y-92527380D01*
X174172619Y-92527380D01*
X174029761Y-92479761D01*
X173934523Y-92384523D01*
X173886904Y-92289285D01*
X173839285Y-92098809D01*
X173839285Y-91955952D01*
X173886904Y-91765476D01*
X173934523Y-91670238D01*
X174029761Y-91575000D01*
X174172619Y-91527380D01*
X174267857Y-91527380D01*
X174410714Y-91575000D01*
X174458333Y-91622619D01*
X174791666Y-91527380D02*
X175458333Y-91527380D01*
X175029761Y-92527380D01*
G04 #@! TO.C,C8*
X193508333Y-92432142D02*
X193460714Y-92479761D01*
X193317857Y-92527380D01*
X193222619Y-92527380D01*
X193079761Y-92479761D01*
X192984523Y-92384523D01*
X192936904Y-92289285D01*
X192889285Y-92098809D01*
X192889285Y-91955952D01*
X192936904Y-91765476D01*
X192984523Y-91670238D01*
X193079761Y-91575000D01*
X193222619Y-91527380D01*
X193317857Y-91527380D01*
X193460714Y-91575000D01*
X193508333Y-91622619D01*
X194079761Y-91955952D02*
X193984523Y-91908333D01*
X193936904Y-91860714D01*
X193889285Y-91765476D01*
X193889285Y-91717857D01*
X193936904Y-91622619D01*
X193984523Y-91575000D01*
X194079761Y-91527380D01*
X194270238Y-91527380D01*
X194365476Y-91575000D01*
X194413095Y-91622619D01*
X194460714Y-91717857D01*
X194460714Y-91765476D01*
X194413095Y-91860714D01*
X194365476Y-91908333D01*
X194270238Y-91955952D01*
X194079761Y-91955952D01*
X193984523Y-92003571D01*
X193936904Y-92051190D01*
X193889285Y-92146428D01*
X193889285Y-92336904D01*
X193936904Y-92432142D01*
X193984523Y-92479761D01*
X194079761Y-92527380D01*
X194270238Y-92527380D01*
X194365476Y-92479761D01*
X194413095Y-92432142D01*
X194460714Y-92336904D01*
X194460714Y-92146428D01*
X194413095Y-92051190D01*
X194365476Y-92003571D01*
X194270238Y-91955952D01*
G04 #@! TO.C,C1*
X178792142Y-82716666D02*
X178839761Y-82764285D01*
X178887380Y-82907142D01*
X178887380Y-83002380D01*
X178839761Y-83145238D01*
X178744523Y-83240476D01*
X178649285Y-83288095D01*
X178458809Y-83335714D01*
X178315952Y-83335714D01*
X178125476Y-83288095D01*
X178030238Y-83240476D01*
X177935000Y-83145238D01*
X177887380Y-83002380D01*
X177887380Y-82907142D01*
X177935000Y-82764285D01*
X177982619Y-82716666D01*
X178887380Y-81764285D02*
X178887380Y-82335714D01*
X178887380Y-82050000D02*
X177887380Y-82050000D01*
X178030238Y-82145238D01*
X178125476Y-82240476D01*
X178173095Y-82335714D01*
G04 #@! TO.C,C2*
X190222142Y-82716666D02*
X190269761Y-82764285D01*
X190317380Y-82907142D01*
X190317380Y-83002380D01*
X190269761Y-83145238D01*
X190174523Y-83240476D01*
X190079285Y-83288095D01*
X189888809Y-83335714D01*
X189745952Y-83335714D01*
X189555476Y-83288095D01*
X189460238Y-83240476D01*
X189365000Y-83145238D01*
X189317380Y-83002380D01*
X189317380Y-82907142D01*
X189365000Y-82764285D01*
X189412619Y-82716666D01*
X189412619Y-82335714D02*
X189365000Y-82288095D01*
X189317380Y-82192857D01*
X189317380Y-81954761D01*
X189365000Y-81859523D01*
X189412619Y-81811904D01*
X189507857Y-81764285D01*
X189603095Y-81764285D01*
X189745952Y-81811904D01*
X190317380Y-82383333D01*
X190317380Y-81764285D01*
G04 #@! TO.C,C3*
X182713333Y-92432142D02*
X182665714Y-92479761D01*
X182522857Y-92527380D01*
X182427619Y-92527380D01*
X182284761Y-92479761D01*
X182189523Y-92384523D01*
X182141904Y-92289285D01*
X182094285Y-92098809D01*
X182094285Y-91955952D01*
X182141904Y-91765476D01*
X182189523Y-91670238D01*
X182284761Y-91575000D01*
X182427619Y-91527380D01*
X182522857Y-91527380D01*
X182665714Y-91575000D01*
X182713333Y-91622619D01*
X183046666Y-91527380D02*
X183665714Y-91527380D01*
X183332380Y-91908333D01*
X183475238Y-91908333D01*
X183570476Y-91955952D01*
X183618095Y-92003571D01*
X183665714Y-92098809D01*
X183665714Y-92336904D01*
X183618095Y-92432142D01*
X183570476Y-92479761D01*
X183475238Y-92527380D01*
X183189523Y-92527380D01*
X183094285Y-92479761D01*
X183046666Y-92432142D01*
G04 #@! TO.C,C4*
X185253333Y-92432142D02*
X185205714Y-92479761D01*
X185062857Y-92527380D01*
X184967619Y-92527380D01*
X184824761Y-92479761D01*
X184729523Y-92384523D01*
X184681904Y-92289285D01*
X184634285Y-92098809D01*
X184634285Y-91955952D01*
X184681904Y-91765476D01*
X184729523Y-91670238D01*
X184824761Y-91575000D01*
X184967619Y-91527380D01*
X185062857Y-91527380D01*
X185205714Y-91575000D01*
X185253333Y-91622619D01*
X186110476Y-91860714D02*
X186110476Y-92527380D01*
X185872380Y-91479761D02*
X185634285Y-92194047D01*
X186253333Y-92194047D01*
G04 #@! TO.C,C5*
X180173333Y-92432142D02*
X180125714Y-92479761D01*
X179982857Y-92527380D01*
X179887619Y-92527380D01*
X179744761Y-92479761D01*
X179649523Y-92384523D01*
X179601904Y-92289285D01*
X179554285Y-92098809D01*
X179554285Y-91955952D01*
X179601904Y-91765476D01*
X179649523Y-91670238D01*
X179744761Y-91575000D01*
X179887619Y-91527380D01*
X179982857Y-91527380D01*
X180125714Y-91575000D01*
X180173333Y-91622619D01*
X181078095Y-91527380D02*
X180601904Y-91527380D01*
X180554285Y-92003571D01*
X180601904Y-91955952D01*
X180697142Y-91908333D01*
X180935238Y-91908333D01*
X181030476Y-91955952D01*
X181078095Y-92003571D01*
X181125714Y-92098809D01*
X181125714Y-92336904D01*
X181078095Y-92432142D01*
X181030476Y-92479761D01*
X180935238Y-92527380D01*
X180697142Y-92527380D01*
X180601904Y-92479761D01*
X180554285Y-92432142D01*
G04 #@! TO.C,C6*
X187793333Y-92432142D02*
X187745714Y-92479761D01*
X187602857Y-92527380D01*
X187507619Y-92527380D01*
X187364761Y-92479761D01*
X187269523Y-92384523D01*
X187221904Y-92289285D01*
X187174285Y-92098809D01*
X187174285Y-91955952D01*
X187221904Y-91765476D01*
X187269523Y-91670238D01*
X187364761Y-91575000D01*
X187507619Y-91527380D01*
X187602857Y-91527380D01*
X187745714Y-91575000D01*
X187793333Y-91622619D01*
X188650476Y-91527380D02*
X188460000Y-91527380D01*
X188364761Y-91575000D01*
X188317142Y-91622619D01*
X188221904Y-91765476D01*
X188174285Y-91955952D01*
X188174285Y-92336904D01*
X188221904Y-92432142D01*
X188269523Y-92479761D01*
X188364761Y-92527380D01*
X188555238Y-92527380D01*
X188650476Y-92479761D01*
X188698095Y-92432142D01*
X188745714Y-92336904D01*
X188745714Y-92098809D01*
X188698095Y-92003571D01*
X188650476Y-91955952D01*
X188555238Y-91908333D01*
X188364761Y-91908333D01*
X188269523Y-91955952D01*
X188221904Y-92003571D01*
X188174285Y-92098809D01*
G04 #@! TO.C,U1*
X183388095Y-79462380D02*
X183388095Y-80271904D01*
X183435714Y-80367142D01*
X183483333Y-80414761D01*
X183578571Y-80462380D01*
X183769047Y-80462380D01*
X183864285Y-80414761D01*
X183911904Y-80367142D01*
X183959523Y-80271904D01*
X183959523Y-79462380D01*
X184959523Y-80462380D02*
X184388095Y-80462380D01*
X184673809Y-80462380D02*
X184673809Y-79462380D01*
X184578571Y-79605238D01*
X184483333Y-79700476D01*
X184388095Y-79748095D01*
G04 #@! TO.C,RV1*
X183332380Y-108545238D02*
X182856190Y-108878571D01*
X183332380Y-109116666D02*
X182332380Y-109116666D01*
X182332380Y-108735714D01*
X182380000Y-108640476D01*
X182427619Y-108592857D01*
X182522857Y-108545238D01*
X182665714Y-108545238D01*
X182760952Y-108592857D01*
X182808571Y-108640476D01*
X182856190Y-108735714D01*
X182856190Y-109116666D01*
X182332380Y-108259523D02*
X183332380Y-107926190D01*
X182332380Y-107592857D01*
X183332380Y-106735714D02*
X183332380Y-107307142D01*
X183332380Y-107021428D02*
X182332380Y-107021428D01*
X182475238Y-107116666D01*
X182570476Y-107211904D01*
X182618095Y-107307142D01*
G04 #@! TD*
M02*
