G04 #@! TF.GenerationSoftware,KiCad,Pcbnew,5.0.1*
G04 #@! TF.CreationDate,2018-10-21T21:20:25+02:00*
G04 #@! TF.ProjectId,MicroFlux,4D6963726F466C75782E6B696361645F,rev?*
G04 #@! TF.SameCoordinates,Original*
G04 #@! TF.FileFunction,Legend,Top*
G04 #@! TF.FilePolarity,Positive*
%FSLAX46Y46*%
G04 Gerber Fmt 4.6, Leading zero omitted, Abs format (unit mm)*
G04 Created by KiCad (PCBNEW 5.0.1) date Sun 21 Oct 2018 09:20:25 PM CEST*
%MOMM*%
%LPD*%
G01*
G04 APERTURE LIST*
%ADD10C,0.300000*%
%ADD11C,0.120000*%
%ADD12C,0.050000*%
%ADD13C,0.150000*%
G04 APERTURE END LIST*
D10*
X198163571Y-86879285D02*
X196663571Y-86879285D01*
X197735000Y-86379285D01*
X196663571Y-85879285D01*
X198163571Y-85879285D01*
X198163571Y-85165000D02*
X197163571Y-85165000D01*
X196663571Y-85165000D02*
X196735000Y-85236428D01*
X196806428Y-85165000D01*
X196735000Y-85093571D01*
X196663571Y-85165000D01*
X196806428Y-85165000D01*
X198092142Y-83807857D02*
X198163571Y-83950714D01*
X198163571Y-84236428D01*
X198092142Y-84379285D01*
X198020714Y-84450714D01*
X197877857Y-84522142D01*
X197449285Y-84522142D01*
X197306428Y-84450714D01*
X197235000Y-84379285D01*
X197163571Y-84236428D01*
X197163571Y-83950714D01*
X197235000Y-83807857D01*
X198163571Y-83165000D02*
X197163571Y-83165000D01*
X197449285Y-83165000D02*
X197306428Y-83093571D01*
X197235000Y-83022142D01*
X197163571Y-82879285D01*
X197163571Y-82736428D01*
X198163571Y-82022142D02*
X198092142Y-82165000D01*
X198020714Y-82236428D01*
X197877857Y-82307857D01*
X197449285Y-82307857D01*
X197306428Y-82236428D01*
X197235000Y-82165000D01*
X197163571Y-82022142D01*
X197163571Y-81807857D01*
X197235000Y-81665000D01*
X197306428Y-81593571D01*
X197449285Y-81522142D01*
X197877857Y-81522142D01*
X198020714Y-81593571D01*
X198092142Y-81665000D01*
X198163571Y-81807857D01*
X198163571Y-82022142D01*
X197377857Y-80379285D02*
X197377857Y-80879285D01*
X198163571Y-80879285D02*
X196663571Y-80879285D01*
X196663571Y-80165000D01*
X198163571Y-79379285D02*
X198092142Y-79522142D01*
X197949285Y-79593571D01*
X196663571Y-79593571D01*
X197163571Y-78165000D02*
X198163571Y-78165000D01*
X197163571Y-78807857D02*
X197949285Y-78807857D01*
X198092142Y-78736428D01*
X198163571Y-78593571D01*
X198163571Y-78379285D01*
X198092142Y-78236428D01*
X198020714Y-78165000D01*
X198163571Y-77593571D02*
X197163571Y-76807857D01*
X197163571Y-77593571D02*
X198163571Y-76807857D01*
X170178571Y-100967142D02*
X171392857Y-100967142D01*
X171535714Y-101038571D01*
X171607142Y-101110000D01*
X171678571Y-101252857D01*
X171678571Y-101467142D01*
X171607142Y-101610000D01*
X171107142Y-100967142D02*
X171178571Y-101110000D01*
X171178571Y-101395714D01*
X171107142Y-101538571D01*
X171035714Y-101610000D01*
X170892857Y-101681428D01*
X170464285Y-101681428D01*
X170321428Y-101610000D01*
X170250000Y-101538571D01*
X170178571Y-101395714D01*
X170178571Y-101110000D01*
X170250000Y-100967142D01*
X171178571Y-100252857D02*
X170178571Y-100252857D01*
X169678571Y-100252857D02*
X169750000Y-100324285D01*
X169821428Y-100252857D01*
X169750000Y-100181428D01*
X169678571Y-100252857D01*
X169821428Y-100252857D01*
X170178571Y-99752857D02*
X170178571Y-99181428D01*
X169678571Y-99538571D02*
X170964285Y-99538571D01*
X171107142Y-99467142D01*
X171178571Y-99324285D01*
X171178571Y-99181428D01*
X171178571Y-98681428D02*
X169678571Y-98681428D01*
X171178571Y-98038571D02*
X170392857Y-98038571D01*
X170250000Y-98110000D01*
X170178571Y-98252857D01*
X170178571Y-98467142D01*
X170250000Y-98610000D01*
X170321428Y-98681428D01*
X170178571Y-96681428D02*
X171178571Y-96681428D01*
X170178571Y-97324285D02*
X170964285Y-97324285D01*
X171107142Y-97252857D01*
X171178571Y-97110000D01*
X171178571Y-96895714D01*
X171107142Y-96752857D01*
X171035714Y-96681428D01*
X171178571Y-95967142D02*
X169678571Y-95967142D01*
X170250000Y-95967142D02*
X170178571Y-95824285D01*
X170178571Y-95538571D01*
X170250000Y-95395714D01*
X170321428Y-95324285D01*
X170464285Y-95252857D01*
X170892857Y-95252857D01*
X171035714Y-95324285D01*
X171107142Y-95395714D01*
X171178571Y-95538571D01*
X171178571Y-95824285D01*
X171107142Y-95967142D01*
X171035714Y-94610000D02*
X171107142Y-94538571D01*
X171178571Y-94610000D01*
X171107142Y-94681428D01*
X171035714Y-94610000D01*
X171178571Y-94610000D01*
X171107142Y-93252857D02*
X171178571Y-93395714D01*
X171178571Y-93681428D01*
X171107142Y-93824285D01*
X171035714Y-93895714D01*
X170892857Y-93967142D01*
X170464285Y-93967142D01*
X170321428Y-93895714D01*
X170250000Y-93824285D01*
X170178571Y-93681428D01*
X170178571Y-93395714D01*
X170250000Y-93252857D01*
X171178571Y-92395714D02*
X171107142Y-92538571D01*
X171035714Y-92610000D01*
X170892857Y-92681428D01*
X170464285Y-92681428D01*
X170321428Y-92610000D01*
X170250000Y-92538571D01*
X170178571Y-92395714D01*
X170178571Y-92181428D01*
X170250000Y-92038571D01*
X170321428Y-91967142D01*
X170464285Y-91895714D01*
X170892857Y-91895714D01*
X171035714Y-91967142D01*
X171107142Y-92038571D01*
X171178571Y-92181428D01*
X171178571Y-92395714D01*
X171178571Y-91252857D02*
X170178571Y-91252857D01*
X170321428Y-91252857D02*
X170250000Y-91181428D01*
X170178571Y-91038571D01*
X170178571Y-90824285D01*
X170250000Y-90681428D01*
X170392857Y-90610000D01*
X171178571Y-90610000D01*
X170392857Y-90610000D02*
X170250000Y-90538571D01*
X170178571Y-90395714D01*
X170178571Y-90181428D01*
X170250000Y-90038571D01*
X170392857Y-89967142D01*
X171178571Y-89967142D01*
X169607142Y-88181428D02*
X171535714Y-89467142D01*
X170392857Y-87181428D02*
X170392857Y-87681428D01*
X171178571Y-87681428D02*
X169678571Y-87681428D01*
X169678571Y-86967142D01*
X169678571Y-86110000D02*
X169678571Y-85824285D01*
X169750000Y-85681428D01*
X169892857Y-85538571D01*
X170178571Y-85467142D01*
X170678571Y-85467142D01*
X170964285Y-85538571D01*
X171107142Y-85681428D01*
X171178571Y-85824285D01*
X171178571Y-86110000D01*
X171107142Y-86252857D01*
X170964285Y-86395714D01*
X170678571Y-86467142D01*
X170178571Y-86467142D01*
X169892857Y-86395714D01*
X169750000Y-86252857D01*
X169678571Y-86110000D01*
X171107142Y-84895714D02*
X171178571Y-84681428D01*
X171178571Y-84324285D01*
X171107142Y-84181428D01*
X171035714Y-84110000D01*
X170892857Y-84038571D01*
X170750000Y-84038571D01*
X170607142Y-84110000D01*
X170535714Y-84181428D01*
X170464285Y-84324285D01*
X170392857Y-84610000D01*
X170321428Y-84752857D01*
X170250000Y-84824285D01*
X170107142Y-84895714D01*
X169964285Y-84895714D01*
X169821428Y-84824285D01*
X169750000Y-84752857D01*
X169678571Y-84610000D01*
X169678571Y-84252857D01*
X169750000Y-84038571D01*
X171178571Y-83395714D02*
X169678571Y-83395714D01*
X170392857Y-83395714D02*
X170392857Y-82538571D01*
X171178571Y-82538571D02*
X169678571Y-82538571D01*
X171107142Y-81895714D02*
X171178571Y-81681428D01*
X171178571Y-81324285D01*
X171107142Y-81181428D01*
X171035714Y-81110000D01*
X170892857Y-81038571D01*
X170750000Y-81038571D01*
X170607142Y-81110000D01*
X170535714Y-81181428D01*
X170464285Y-81324285D01*
X170392857Y-81610000D01*
X170321428Y-81752857D01*
X170250000Y-81824285D01*
X170107142Y-81895714D01*
X169964285Y-81895714D01*
X169821428Y-81824285D01*
X169750000Y-81752857D01*
X169678571Y-81610000D01*
X169678571Y-81252857D01*
X169750000Y-81038571D01*
X171178571Y-80181428D02*
X171107142Y-80324285D01*
X171035714Y-80395714D01*
X170892857Y-80467142D01*
X170464285Y-80467142D01*
X170321428Y-80395714D01*
X170250000Y-80324285D01*
X170178571Y-80181428D01*
X170178571Y-79967142D01*
X170250000Y-79824285D01*
X170321428Y-79752857D01*
X170464285Y-79681428D01*
X170892857Y-79681428D01*
X171035714Y-79752857D01*
X171107142Y-79824285D01*
X171178571Y-79967142D01*
X171178571Y-80181428D01*
X171178571Y-78824285D02*
X171107142Y-78967142D01*
X170964285Y-79038571D01*
X169678571Y-79038571D01*
X171178571Y-77610000D02*
X169678571Y-77610000D01*
X171107142Y-77610000D02*
X171178571Y-77752857D01*
X171178571Y-78038571D01*
X171107142Y-78181428D01*
X171035714Y-78252857D01*
X170892857Y-78324285D01*
X170464285Y-78324285D01*
X170321428Y-78252857D01*
X170250000Y-78181428D01*
X170178571Y-78038571D01*
X170178571Y-77752857D01*
X170250000Y-77610000D01*
X171107142Y-76324285D02*
X171178571Y-76467142D01*
X171178571Y-76752857D01*
X171107142Y-76895714D01*
X170964285Y-76967142D01*
X170392857Y-76967142D01*
X170250000Y-76895714D01*
X170178571Y-76752857D01*
X170178571Y-76467142D01*
X170250000Y-76324285D01*
X170392857Y-76252857D01*
X170535714Y-76252857D01*
X170678571Y-76967142D01*
X171178571Y-75610000D02*
X170178571Y-75610000D01*
X170464285Y-75610000D02*
X170321428Y-75538571D01*
X170250000Y-75467142D01*
X170178571Y-75324285D01*
X170178571Y-75181428D01*
X171178571Y-74681428D02*
X169678571Y-74681428D01*
X171178571Y-73824285D02*
X170321428Y-74467142D01*
X169678571Y-73824285D02*
X170535714Y-74681428D01*
X171178571Y-73181428D02*
X170178571Y-73181428D01*
X169678571Y-73181428D02*
X169750000Y-73252857D01*
X169821428Y-73181428D01*
X169750000Y-73110000D01*
X169678571Y-73181428D01*
X169821428Y-73181428D01*
X170178571Y-72681428D02*
X170178571Y-72110000D01*
X169678571Y-72467142D02*
X170964285Y-72467142D01*
X171107142Y-72395714D01*
X171178571Y-72252857D01*
X171178571Y-72110000D01*
X171107142Y-71681428D02*
X171178571Y-71538571D01*
X171178571Y-71252857D01*
X171107142Y-71110000D01*
X170964285Y-71038571D01*
X170892857Y-71038571D01*
X170750000Y-71110000D01*
X170678571Y-71252857D01*
X170678571Y-71467142D01*
X170607142Y-71610000D01*
X170464285Y-71681428D01*
X170392857Y-71681428D01*
X170250000Y-71610000D01*
X170178571Y-71467142D01*
X170178571Y-71252857D01*
X170250000Y-71110000D01*
D11*
G04 #@! TO.C,C7*
X176880000Y-88291000D02*
X176880000Y-89549000D01*
X178720000Y-88291000D02*
X178720000Y-89549000D01*
G04 #@! TO.C,C8*
X189580000Y-89549000D02*
X189580000Y-88291000D01*
X191420000Y-89549000D02*
X191420000Y-88291000D01*
G04 #@! TO.C,D1*
X173540000Y-97789538D02*
G75*
G03X179090000Y-99334830I2990000J-462D01*
G01*
X173540000Y-97790462D02*
G75*
G02X179090000Y-96245170I2990000J462D01*
G01*
X179030000Y-97790000D02*
G75*
G03X179030000Y-97790000I-2500000J0D01*
G01*
X179090000Y-99335000D02*
X179090000Y-96245000D01*
G04 #@! TO.C,D2*
X178890000Y-100260000D02*
X178890000Y-100130000D01*
X178890000Y-100130000D02*
X184330000Y-100130000D01*
X184330000Y-100130000D02*
X184330000Y-100260000D01*
X178890000Y-102940000D02*
X178890000Y-103070000D01*
X178890000Y-103070000D02*
X184330000Y-103070000D01*
X184330000Y-103070000D02*
X184330000Y-102940000D01*
X179790000Y-100130000D02*
X179790000Y-103070000D01*
X179910000Y-100130000D02*
X179910000Y-103070000D01*
X179670000Y-100130000D02*
X179670000Y-103070000D01*
G04 #@! TO.C,R7*
X189850000Y-93060000D02*
X189850000Y-94900000D01*
X189850000Y-94900000D02*
X193690000Y-94900000D01*
X193690000Y-94900000D02*
X193690000Y-93060000D01*
X193690000Y-93060000D02*
X189850000Y-93060000D01*
X188900000Y-93980000D02*
X189850000Y-93980000D01*
X194640000Y-93980000D02*
X193690000Y-93980000D01*
G04 #@! TO.C,R1*
X176530000Y-73330000D02*
X176530000Y-74280000D01*
X176530000Y-79070000D02*
X176530000Y-78120000D01*
X175610000Y-74280000D02*
X175610000Y-78120000D01*
X177450000Y-74280000D02*
X175610000Y-74280000D01*
X177450000Y-78120000D02*
X177450000Y-74280000D01*
X175610000Y-78120000D02*
X177450000Y-78120000D01*
G04 #@! TO.C,R2*
X190850000Y-78120000D02*
X192690000Y-78120000D01*
X192690000Y-78120000D02*
X192690000Y-74280000D01*
X192690000Y-74280000D02*
X190850000Y-74280000D01*
X190850000Y-74280000D02*
X190850000Y-78120000D01*
X191770000Y-79070000D02*
X191770000Y-78120000D01*
X191770000Y-73330000D02*
X191770000Y-74280000D01*
G04 #@! TO.C,R3*
X173990000Y-79680000D02*
X173990000Y-80630000D01*
X173990000Y-85420000D02*
X173990000Y-84470000D01*
X173070000Y-80630000D02*
X173070000Y-84470000D01*
X174910000Y-80630000D02*
X173070000Y-80630000D01*
X174910000Y-84470000D02*
X174910000Y-80630000D01*
X173070000Y-84470000D02*
X174910000Y-84470000D01*
G04 #@! TO.C,R4*
X193390000Y-84470000D02*
X195230000Y-84470000D01*
X195230000Y-84470000D02*
X195230000Y-80630000D01*
X195230000Y-80630000D02*
X193390000Y-80630000D01*
X193390000Y-80630000D02*
X193390000Y-84470000D01*
X194310000Y-85420000D02*
X194310000Y-84470000D01*
X194310000Y-79680000D02*
X194310000Y-80630000D01*
G04 #@! TO.C,R5*
X187020000Y-97790000D02*
X186070000Y-97790000D01*
X181280000Y-97790000D02*
X182230000Y-97790000D01*
X186070000Y-96870000D02*
X182230000Y-96870000D01*
X186070000Y-98710000D02*
X186070000Y-96870000D01*
X182230000Y-98710000D02*
X186070000Y-98710000D01*
X182230000Y-96870000D02*
X182230000Y-98710000D01*
G04 #@! TO.C,R6*
X174610000Y-93060000D02*
X174610000Y-94900000D01*
X174610000Y-94900000D02*
X178450000Y-94900000D01*
X178450000Y-94900000D02*
X178450000Y-93060000D01*
X178450000Y-93060000D02*
X174610000Y-93060000D01*
X173660000Y-93980000D02*
X174610000Y-93980000D01*
X179400000Y-93980000D02*
X178450000Y-93980000D01*
D12*
G04 #@! TO.C,J1*
X188140000Y-99160000D02*
X199140000Y-99160000D01*
X188140000Y-111660000D02*
X188140000Y-99160000D01*
X199140000Y-111660000D02*
X188140000Y-111660000D01*
G04 #@! TO.C,J2*
X177900000Y-74750000D02*
X177900000Y-63750000D01*
X190400000Y-74750000D02*
X177900000Y-74750000D01*
X190400000Y-63750000D02*
X190400000Y-74750000D01*
D11*
G04 #@! TO.C,L1*
X177400661Y-68789340D02*
G75*
G03X177400661Y-68789340I-3620001J0D01*
G01*
G04 #@! TO.C,L2*
X198139341Y-68789340D02*
G75*
G03X198139341Y-68789340I-3620001J0D01*
G01*
G04 #@! TO.C,C1*
X175610000Y-83171000D02*
X175610000Y-84429000D01*
X177450000Y-83171000D02*
X177450000Y-84429000D01*
G04 #@! TO.C,C2*
X192690000Y-83171000D02*
X192690000Y-84429000D01*
X190850000Y-83171000D02*
X190850000Y-84429000D01*
G04 #@! TO.C,C3*
X183800000Y-89509000D02*
X183800000Y-88251000D01*
X181960000Y-89509000D02*
X181960000Y-88251000D01*
G04 #@! TO.C,C4*
X184500000Y-89509000D02*
X184500000Y-88251000D01*
X186340000Y-89509000D02*
X186340000Y-88251000D01*
G04 #@! TO.C,C5*
X179420000Y-88251000D02*
X179420000Y-89509000D01*
X181260000Y-88251000D02*
X181260000Y-89509000D01*
G04 #@! TO.C,C6*
X187040000Y-89509000D02*
X187040000Y-88251000D01*
X188880000Y-89509000D02*
X188880000Y-88251000D01*
G04 #@! TO.C,U1*
X181900000Y-85150000D02*
X183150000Y-85150000D01*
X181900000Y-74870000D02*
X181900000Y-85150000D01*
X186400000Y-74870000D02*
X181900000Y-74870000D01*
X186400000Y-85150000D02*
X186400000Y-74870000D01*
X185150000Y-85150000D02*
X186400000Y-85150000D01*
X183150000Y-85150000D02*
G75*
G02X185150000Y-85150000I1000000J0D01*
G01*
G04 #@! TO.C,RV1*
X156450000Y-111030000D02*
X156450000Y-104790000D01*
X166450000Y-111030000D02*
X166450000Y-104790000D01*
X166450000Y-104790000D02*
X156450000Y-104790000D01*
X166450000Y-111030000D02*
X156450000Y-111030000D01*
X166450000Y-111530000D02*
X166450000Y-104290000D01*
X171450000Y-111530000D02*
X171450000Y-104290000D01*
X171450000Y-104290000D02*
X166450000Y-104290000D01*
X171450000Y-111530000D02*
X166450000Y-111530000D01*
X171450000Y-112780000D02*
X171450000Y-103040000D01*
X187491000Y-112780000D02*
X187491000Y-103040000D01*
X187491000Y-103040000D02*
X171450000Y-103040000D01*
X187491000Y-112780000D02*
X171450000Y-112780000D01*
G04 #@! TO.C,C7*
D13*
X177633333Y-92432142D02*
X177585714Y-92479761D01*
X177442857Y-92527380D01*
X177347619Y-92527380D01*
X177204761Y-92479761D01*
X177109523Y-92384523D01*
X177061904Y-92289285D01*
X177014285Y-92098809D01*
X177014285Y-91955952D01*
X177061904Y-91765476D01*
X177109523Y-91670238D01*
X177204761Y-91575000D01*
X177347619Y-91527380D01*
X177442857Y-91527380D01*
X177585714Y-91575000D01*
X177633333Y-91622619D01*
X177966666Y-91527380D02*
X178633333Y-91527380D01*
X178204761Y-92527380D01*
G04 #@! TO.C,C8*
X190333333Y-92432142D02*
X190285714Y-92479761D01*
X190142857Y-92527380D01*
X190047619Y-92527380D01*
X189904761Y-92479761D01*
X189809523Y-92384523D01*
X189761904Y-92289285D01*
X189714285Y-92098809D01*
X189714285Y-91955952D01*
X189761904Y-91765476D01*
X189809523Y-91670238D01*
X189904761Y-91575000D01*
X190047619Y-91527380D01*
X190142857Y-91527380D01*
X190285714Y-91575000D01*
X190333333Y-91622619D01*
X190904761Y-91955952D02*
X190809523Y-91908333D01*
X190761904Y-91860714D01*
X190714285Y-91765476D01*
X190714285Y-91717857D01*
X190761904Y-91622619D01*
X190809523Y-91575000D01*
X190904761Y-91527380D01*
X191095238Y-91527380D01*
X191190476Y-91575000D01*
X191238095Y-91622619D01*
X191285714Y-91717857D01*
X191285714Y-91765476D01*
X191238095Y-91860714D01*
X191190476Y-91908333D01*
X191095238Y-91955952D01*
X190904761Y-91955952D01*
X190809523Y-92003571D01*
X190761904Y-92051190D01*
X190714285Y-92146428D01*
X190714285Y-92336904D01*
X190761904Y-92432142D01*
X190809523Y-92479761D01*
X190904761Y-92527380D01*
X191095238Y-92527380D01*
X191190476Y-92479761D01*
X191238095Y-92432142D01*
X191285714Y-92336904D01*
X191285714Y-92146428D01*
X191238095Y-92051190D01*
X191190476Y-92003571D01*
X191095238Y-91955952D01*
G04 #@! TO.C,D1*
X171981904Y-98242380D02*
X171981904Y-97242380D01*
X172220000Y-97242380D01*
X172362857Y-97290000D01*
X172458095Y-97385238D01*
X172505714Y-97480476D01*
X172553333Y-97670952D01*
X172553333Y-97813809D01*
X172505714Y-98004285D01*
X172458095Y-98099523D01*
X172362857Y-98194761D01*
X172220000Y-98242380D01*
X171981904Y-98242380D01*
X173505714Y-98242380D02*
X172934285Y-98242380D01*
X173220000Y-98242380D02*
X173220000Y-97242380D01*
X173124761Y-97385238D01*
X173029523Y-97480476D01*
X172934285Y-97528095D01*
G04 #@! TO.C,D2*
X180871904Y-102052380D02*
X180871904Y-101052380D01*
X181110000Y-101052380D01*
X181252857Y-101100000D01*
X181348095Y-101195238D01*
X181395714Y-101290476D01*
X181443333Y-101480952D01*
X181443333Y-101623809D01*
X181395714Y-101814285D01*
X181348095Y-101909523D01*
X181252857Y-102004761D01*
X181110000Y-102052380D01*
X180871904Y-102052380D01*
X181824285Y-101147619D02*
X181871904Y-101100000D01*
X181967142Y-101052380D01*
X182205238Y-101052380D01*
X182300476Y-101100000D01*
X182348095Y-101147619D01*
X182395714Y-101242857D01*
X182395714Y-101338095D01*
X182348095Y-101480952D01*
X181776666Y-102052380D01*
X182395714Y-102052380D01*
X174998095Y-102052380D02*
X174998095Y-101052380D01*
X175569523Y-102052380D02*
X175140952Y-101480952D01*
X175569523Y-101052380D02*
X174998095Y-101623809D01*
G04 #@! TO.C,R7*
X191603333Y-94432380D02*
X191270000Y-93956190D01*
X191031904Y-94432380D02*
X191031904Y-93432380D01*
X191412857Y-93432380D01*
X191508095Y-93480000D01*
X191555714Y-93527619D01*
X191603333Y-93622857D01*
X191603333Y-93765714D01*
X191555714Y-93860952D01*
X191508095Y-93908571D01*
X191412857Y-93956190D01*
X191031904Y-93956190D01*
X191936666Y-93432380D02*
X192603333Y-93432380D01*
X192174761Y-94432380D01*
G04 #@! TO.C,R1*
X176982380Y-76366666D02*
X176506190Y-76700000D01*
X176982380Y-76938095D02*
X175982380Y-76938095D01*
X175982380Y-76557142D01*
X176030000Y-76461904D01*
X176077619Y-76414285D01*
X176172857Y-76366666D01*
X176315714Y-76366666D01*
X176410952Y-76414285D01*
X176458571Y-76461904D01*
X176506190Y-76557142D01*
X176506190Y-76938095D01*
X176982380Y-75414285D02*
X176982380Y-75985714D01*
X176982380Y-75700000D02*
X175982380Y-75700000D01*
X176125238Y-75795238D01*
X176220476Y-75890476D01*
X176268095Y-75985714D01*
G04 #@! TO.C,R2*
X192222380Y-76366666D02*
X191746190Y-76700000D01*
X192222380Y-76938095D02*
X191222380Y-76938095D01*
X191222380Y-76557142D01*
X191270000Y-76461904D01*
X191317619Y-76414285D01*
X191412857Y-76366666D01*
X191555714Y-76366666D01*
X191650952Y-76414285D01*
X191698571Y-76461904D01*
X191746190Y-76557142D01*
X191746190Y-76938095D01*
X191317619Y-75985714D02*
X191270000Y-75938095D01*
X191222380Y-75842857D01*
X191222380Y-75604761D01*
X191270000Y-75509523D01*
X191317619Y-75461904D01*
X191412857Y-75414285D01*
X191508095Y-75414285D01*
X191650952Y-75461904D01*
X192222380Y-76033333D01*
X192222380Y-75414285D01*
G04 #@! TO.C,R3*
X174442380Y-82716666D02*
X173966190Y-83050000D01*
X174442380Y-83288095D02*
X173442380Y-83288095D01*
X173442380Y-82907142D01*
X173490000Y-82811904D01*
X173537619Y-82764285D01*
X173632857Y-82716666D01*
X173775714Y-82716666D01*
X173870952Y-82764285D01*
X173918571Y-82811904D01*
X173966190Y-82907142D01*
X173966190Y-83288095D01*
X173442380Y-82383333D02*
X173442380Y-81764285D01*
X173823333Y-82097619D01*
X173823333Y-81954761D01*
X173870952Y-81859523D01*
X173918571Y-81811904D01*
X174013809Y-81764285D01*
X174251904Y-81764285D01*
X174347142Y-81811904D01*
X174394761Y-81859523D01*
X174442380Y-81954761D01*
X174442380Y-82240476D01*
X174394761Y-82335714D01*
X174347142Y-82383333D01*
G04 #@! TO.C,R4*
X194762380Y-82716666D02*
X194286190Y-83050000D01*
X194762380Y-83288095D02*
X193762380Y-83288095D01*
X193762380Y-82907142D01*
X193810000Y-82811904D01*
X193857619Y-82764285D01*
X193952857Y-82716666D01*
X194095714Y-82716666D01*
X194190952Y-82764285D01*
X194238571Y-82811904D01*
X194286190Y-82907142D01*
X194286190Y-83288095D01*
X194095714Y-81859523D02*
X194762380Y-81859523D01*
X193714761Y-82097619D02*
X194429047Y-82335714D01*
X194429047Y-81716666D01*
G04 #@! TO.C,R5*
X183983333Y-98242380D02*
X183650000Y-97766190D01*
X183411904Y-98242380D02*
X183411904Y-97242380D01*
X183792857Y-97242380D01*
X183888095Y-97290000D01*
X183935714Y-97337619D01*
X183983333Y-97432857D01*
X183983333Y-97575714D01*
X183935714Y-97670952D01*
X183888095Y-97718571D01*
X183792857Y-97766190D01*
X183411904Y-97766190D01*
X184888095Y-97242380D02*
X184411904Y-97242380D01*
X184364285Y-97718571D01*
X184411904Y-97670952D01*
X184507142Y-97623333D01*
X184745238Y-97623333D01*
X184840476Y-97670952D01*
X184888095Y-97718571D01*
X184935714Y-97813809D01*
X184935714Y-98051904D01*
X184888095Y-98147142D01*
X184840476Y-98194761D01*
X184745238Y-98242380D01*
X184507142Y-98242380D01*
X184411904Y-98194761D01*
X184364285Y-98147142D01*
G04 #@! TO.C,R6*
X176363333Y-94432380D02*
X176030000Y-93956190D01*
X175791904Y-94432380D02*
X175791904Y-93432380D01*
X176172857Y-93432380D01*
X176268095Y-93480000D01*
X176315714Y-93527619D01*
X176363333Y-93622857D01*
X176363333Y-93765714D01*
X176315714Y-93860952D01*
X176268095Y-93908571D01*
X176172857Y-93956190D01*
X175791904Y-93956190D01*
X177220476Y-93432380D02*
X177030000Y-93432380D01*
X176934761Y-93480000D01*
X176887142Y-93527619D01*
X176791904Y-93670476D01*
X176744285Y-93860952D01*
X176744285Y-94241904D01*
X176791904Y-94337142D01*
X176839523Y-94384761D01*
X176934761Y-94432380D01*
X177125238Y-94432380D01*
X177220476Y-94384761D01*
X177268095Y-94337142D01*
X177315714Y-94241904D01*
X177315714Y-94003809D01*
X177268095Y-93908571D01*
X177220476Y-93860952D01*
X177125238Y-93813333D01*
X176934761Y-93813333D01*
X176839523Y-93860952D01*
X176791904Y-93908571D01*
X176744285Y-94003809D01*
G04 #@! TO.C,J1*
X192492380Y-105743333D02*
X193206666Y-105743333D01*
X193349523Y-105790952D01*
X193444761Y-105886190D01*
X193492380Y-106029047D01*
X193492380Y-106124285D01*
X193492380Y-104743333D02*
X193492380Y-105314761D01*
X193492380Y-105029047D02*
X192492380Y-105029047D01*
X192635238Y-105124285D01*
X192730476Y-105219523D01*
X192778095Y-105314761D01*
G04 #@! TO.C,J2*
X183816666Y-69302380D02*
X183816666Y-70016666D01*
X183769047Y-70159523D01*
X183673809Y-70254761D01*
X183530952Y-70302380D01*
X183435714Y-70302380D01*
X184245238Y-69397619D02*
X184292857Y-69350000D01*
X184388095Y-69302380D01*
X184626190Y-69302380D01*
X184721428Y-69350000D01*
X184769047Y-69397619D01*
X184816666Y-69492857D01*
X184816666Y-69588095D01*
X184769047Y-69730952D01*
X184197619Y-70302380D01*
X184816666Y-70302380D01*
G04 #@! TO.C,L1*
X176363333Y-65222380D02*
X175887142Y-65222380D01*
X175887142Y-64222380D01*
X177220476Y-65222380D02*
X176649047Y-65222380D01*
X176934761Y-65222380D02*
X176934761Y-64222380D01*
X176839523Y-64365238D01*
X176744285Y-64460476D01*
X176649047Y-64508095D01*
G04 #@! TO.C,L2*
X191603333Y-65222380D02*
X191127142Y-65222380D01*
X191127142Y-64222380D01*
X191889047Y-64317619D02*
X191936666Y-64270000D01*
X192031904Y-64222380D01*
X192270000Y-64222380D01*
X192365238Y-64270000D01*
X192412857Y-64317619D01*
X192460476Y-64412857D01*
X192460476Y-64508095D01*
X192412857Y-64650952D01*
X191841428Y-65222380D01*
X192460476Y-65222380D01*
G04 #@! TO.C,C1*
X178792142Y-82716666D02*
X178839761Y-82764285D01*
X178887380Y-82907142D01*
X178887380Y-83002380D01*
X178839761Y-83145238D01*
X178744523Y-83240476D01*
X178649285Y-83288095D01*
X178458809Y-83335714D01*
X178315952Y-83335714D01*
X178125476Y-83288095D01*
X178030238Y-83240476D01*
X177935000Y-83145238D01*
X177887380Y-83002380D01*
X177887380Y-82907142D01*
X177935000Y-82764285D01*
X177982619Y-82716666D01*
X178887380Y-81764285D02*
X178887380Y-82335714D01*
X178887380Y-82050000D02*
X177887380Y-82050000D01*
X178030238Y-82145238D01*
X178125476Y-82240476D01*
X178173095Y-82335714D01*
G04 #@! TO.C,C2*
X190222142Y-82716666D02*
X190269761Y-82764285D01*
X190317380Y-82907142D01*
X190317380Y-83002380D01*
X190269761Y-83145238D01*
X190174523Y-83240476D01*
X190079285Y-83288095D01*
X189888809Y-83335714D01*
X189745952Y-83335714D01*
X189555476Y-83288095D01*
X189460238Y-83240476D01*
X189365000Y-83145238D01*
X189317380Y-83002380D01*
X189317380Y-82907142D01*
X189365000Y-82764285D01*
X189412619Y-82716666D01*
X189412619Y-82335714D02*
X189365000Y-82288095D01*
X189317380Y-82192857D01*
X189317380Y-81954761D01*
X189365000Y-81859523D01*
X189412619Y-81811904D01*
X189507857Y-81764285D01*
X189603095Y-81764285D01*
X189745952Y-81811904D01*
X190317380Y-82383333D01*
X190317380Y-81764285D01*
G04 #@! TO.C,C3*
X182713333Y-92432142D02*
X182665714Y-92479761D01*
X182522857Y-92527380D01*
X182427619Y-92527380D01*
X182284761Y-92479761D01*
X182189523Y-92384523D01*
X182141904Y-92289285D01*
X182094285Y-92098809D01*
X182094285Y-91955952D01*
X182141904Y-91765476D01*
X182189523Y-91670238D01*
X182284761Y-91575000D01*
X182427619Y-91527380D01*
X182522857Y-91527380D01*
X182665714Y-91575000D01*
X182713333Y-91622619D01*
X183046666Y-91527380D02*
X183665714Y-91527380D01*
X183332380Y-91908333D01*
X183475238Y-91908333D01*
X183570476Y-91955952D01*
X183618095Y-92003571D01*
X183665714Y-92098809D01*
X183665714Y-92336904D01*
X183618095Y-92432142D01*
X183570476Y-92479761D01*
X183475238Y-92527380D01*
X183189523Y-92527380D01*
X183094285Y-92479761D01*
X183046666Y-92432142D01*
G04 #@! TO.C,C4*
X185253333Y-92432142D02*
X185205714Y-92479761D01*
X185062857Y-92527380D01*
X184967619Y-92527380D01*
X184824761Y-92479761D01*
X184729523Y-92384523D01*
X184681904Y-92289285D01*
X184634285Y-92098809D01*
X184634285Y-91955952D01*
X184681904Y-91765476D01*
X184729523Y-91670238D01*
X184824761Y-91575000D01*
X184967619Y-91527380D01*
X185062857Y-91527380D01*
X185205714Y-91575000D01*
X185253333Y-91622619D01*
X186110476Y-91860714D02*
X186110476Y-92527380D01*
X185872380Y-91479761D02*
X185634285Y-92194047D01*
X186253333Y-92194047D01*
G04 #@! TO.C,C5*
X180173333Y-92432142D02*
X180125714Y-92479761D01*
X179982857Y-92527380D01*
X179887619Y-92527380D01*
X179744761Y-92479761D01*
X179649523Y-92384523D01*
X179601904Y-92289285D01*
X179554285Y-92098809D01*
X179554285Y-91955952D01*
X179601904Y-91765476D01*
X179649523Y-91670238D01*
X179744761Y-91575000D01*
X179887619Y-91527380D01*
X179982857Y-91527380D01*
X180125714Y-91575000D01*
X180173333Y-91622619D01*
X181078095Y-91527380D02*
X180601904Y-91527380D01*
X180554285Y-92003571D01*
X180601904Y-91955952D01*
X180697142Y-91908333D01*
X180935238Y-91908333D01*
X181030476Y-91955952D01*
X181078095Y-92003571D01*
X181125714Y-92098809D01*
X181125714Y-92336904D01*
X181078095Y-92432142D01*
X181030476Y-92479761D01*
X180935238Y-92527380D01*
X180697142Y-92527380D01*
X180601904Y-92479761D01*
X180554285Y-92432142D01*
G04 #@! TO.C,C6*
X187793333Y-92432142D02*
X187745714Y-92479761D01*
X187602857Y-92527380D01*
X187507619Y-92527380D01*
X187364761Y-92479761D01*
X187269523Y-92384523D01*
X187221904Y-92289285D01*
X187174285Y-92098809D01*
X187174285Y-91955952D01*
X187221904Y-91765476D01*
X187269523Y-91670238D01*
X187364761Y-91575000D01*
X187507619Y-91527380D01*
X187602857Y-91527380D01*
X187745714Y-91575000D01*
X187793333Y-91622619D01*
X188650476Y-91527380D02*
X188460000Y-91527380D01*
X188364761Y-91575000D01*
X188317142Y-91622619D01*
X188221904Y-91765476D01*
X188174285Y-91955952D01*
X188174285Y-92336904D01*
X188221904Y-92432142D01*
X188269523Y-92479761D01*
X188364761Y-92527380D01*
X188555238Y-92527380D01*
X188650476Y-92479761D01*
X188698095Y-92432142D01*
X188745714Y-92336904D01*
X188745714Y-92098809D01*
X188698095Y-92003571D01*
X188650476Y-91955952D01*
X188555238Y-91908333D01*
X188364761Y-91908333D01*
X188269523Y-91955952D01*
X188221904Y-92003571D01*
X188174285Y-92098809D01*
G04 #@! TO.C,U1*
X183388095Y-79462380D02*
X183388095Y-80271904D01*
X183435714Y-80367142D01*
X183483333Y-80414761D01*
X183578571Y-80462380D01*
X183769047Y-80462380D01*
X183864285Y-80414761D01*
X183911904Y-80367142D01*
X183959523Y-80271904D01*
X183959523Y-79462380D01*
X184959523Y-80462380D02*
X184388095Y-80462380D01*
X184673809Y-80462380D02*
X184673809Y-79462380D01*
X184578571Y-79605238D01*
X184483333Y-79700476D01*
X184388095Y-79748095D01*
G04 #@! TO.C,RV1*
X183332380Y-108545238D02*
X182856190Y-108878571D01*
X183332380Y-109116666D02*
X182332380Y-109116666D01*
X182332380Y-108735714D01*
X182380000Y-108640476D01*
X182427619Y-108592857D01*
X182522857Y-108545238D01*
X182665714Y-108545238D01*
X182760952Y-108592857D01*
X182808571Y-108640476D01*
X182856190Y-108735714D01*
X182856190Y-109116666D01*
X182332380Y-108259523D02*
X183332380Y-107926190D01*
X182332380Y-107592857D01*
X183332380Y-106735714D02*
X183332380Y-107307142D01*
X183332380Y-107021428D02*
X182332380Y-107021428D01*
X182475238Y-107116666D01*
X182570476Y-107211904D01*
X182618095Y-107307142D01*
G04 #@! TD*
M02*
