M48
;DRILL file {KiCad 5.0.1} date Thu 18 Oct 2018 01:56:02 PM CEST
;FORMAT={3:3/ absolute / metric / suppress leading zeros}
FMAT,2
METRIC,TZ
T1C0.700
T2C0.750
T3C0.800
T4C0.900
T5C1.000
T6C1.200
T7C2.400
%
G90
G05
M71
T1
X172720Y-93980
X180340Y-97790
X187960Y-97790
X194310Y-78740
X194310Y-86360
X173990Y-78740
X187960Y-93980
X195580Y-93980
X191770Y-72390
X191770Y-80010
X176530Y-72390
X176530Y-80010
X180340Y-93980
X173990Y-86360
T2
X177800Y-101600
X185420Y-101600
T3
X187960Y-87630
X187960Y-90130
X182880Y-87630
X182880Y-90130
X191770Y-82550
X191770Y-85050
X176530Y-82550
X176530Y-85050
X180340Y-76200
X180340Y-78740
X180340Y-81280
X180340Y-83820
X187960Y-76200
X187960Y-78740
X187960Y-81280
X187960Y-83820
X185420Y-87630
X185420Y-90130
X176530Y-87670
X176530Y-90170
X191770Y-87670
X191770Y-90170
X180340Y-87630
X180340Y-90130
T4
X175260Y-97790
X177800Y-97790
T5
X176570Y-105410
X176570Y-107910
X176570Y-110410
X179070Y-105410
X179070Y-107910
X179070Y-110410
X185320Y-105410
X185320Y-110410
T6
X179150Y-72000
X181650Y-72000
X184150Y-67000
X186650Y-72000
X189150Y-72000
X190890Y-100410
X190890Y-102910
X190890Y-107910
X190890Y-110410
X195890Y-105410
T7
X177800Y-114300
X190500Y-114300
T0
M30
