G04 #@! TF.GenerationSoftware,KiCad,Pcbnew,5.0.1*
G04 #@! TF.CreationDate,2018-10-18T13:45:59+02:00*
G04 #@! TF.ProjectId,MicroFlux,4D6963726F466C75782E6B696361645F,rev?*
G04 #@! TF.SameCoordinates,Original*
G04 #@! TF.FileFunction,Copper,L1,Top,Signal*
G04 #@! TF.FilePolarity,Positive*
%FSLAX46Y46*%
G04 Gerber Fmt 4.6, Leading zero omitted, Abs format (unit mm)*
G04 Created by KiCad (PCBNEW 5.0.1) date Thu 18 Oct 2018 01:45:59 PM CEST*
%MOMM*%
%LPD*%
G01*
G04 APERTURE LIST*
G04 #@! TA.AperFunction,ComponentPad*
%ADD10R,1.800000X1.800000*%
G04 #@! TD*
G04 #@! TA.AperFunction,ComponentPad*
%ADD11C,1.800000*%
G04 #@! TD*
G04 #@! TA.AperFunction,ComponentPad*
%ADD12C,1.400000*%
G04 #@! TD*
G04 #@! TA.AperFunction,ComponentPad*
%ADD13O,1.400000X1.400000*%
G04 #@! TD*
G04 #@! TA.AperFunction,ComponentPad*
%ADD14R,1.500000X1.500000*%
G04 #@! TD*
G04 #@! TA.AperFunction,ComponentPad*
%ADD15O,1.500000X1.500000*%
G04 #@! TD*
G04 #@! TA.AperFunction,ComponentPad*
%ADD16C,2.000000*%
G04 #@! TD*
G04 #@! TA.AperFunction,Conductor*
%ADD17C,0.100000*%
G04 #@! TD*
G04 #@! TA.AperFunction,ConnectorPad*
%ADD18C,2.600000*%
G04 #@! TD*
G04 #@! TA.AperFunction,ComponentPad*
%ADD19C,3.000000*%
G04 #@! TD*
G04 #@! TA.AperFunction,ComponentPad*
%ADD20C,1.600000*%
G04 #@! TD*
G04 #@! TA.AperFunction,ComponentPad*
%ADD21R,1.600000X1.600000*%
G04 #@! TD*
G04 #@! TA.AperFunction,ComponentPad*
%ADD22R,2.400000X1.600000*%
G04 #@! TD*
G04 #@! TA.AperFunction,ComponentPad*
%ADD23O,2.400000X1.600000*%
G04 #@! TD*
G04 #@! TA.AperFunction,Conductor*
%ADD24C,0.250000*%
G04 #@! TD*
G04 #@! TA.AperFunction,Conductor*
%ADD25C,0.254000*%
G04 #@! TD*
G04 APERTURE END LIST*
D10*
G04 #@! TO.P,D1,1*
G04 #@! TO.N,Net-(D1-Pad1)*
X177800000Y-97790000D03*
D11*
G04 #@! TO.P,D1,2*
G04 #@! TO.N,+BATT*
X175260000Y-97790000D03*
G04 #@! TD*
D12*
G04 #@! TO.P,R7,1*
G04 #@! TO.N,GNDREF*
X187960000Y-93980000D03*
D13*
G04 #@! TO.P,R7,2*
G04 #@! TO.N,-BATT*
X195580000Y-93980000D03*
G04 #@! TD*
G04 #@! TO.P,R1,2*
G04 #@! TO.N,IN_LEFT*
X176530000Y-72390000D03*
D12*
G04 #@! TO.P,R1,1*
G04 #@! TO.N,Net-(C1-Pad2)*
X176530000Y-80010000D03*
G04 #@! TD*
G04 #@! TO.P,R2,1*
G04 #@! TO.N,Net-(C2-Pad2)*
X191770000Y-80010000D03*
D13*
G04 #@! TO.P,R2,2*
G04 #@! TO.N,IN_RIGHT*
X191770000Y-72390000D03*
G04 #@! TD*
G04 #@! TO.P,R3,2*
G04 #@! TO.N,Net-(C1-Pad2)*
X173990000Y-78740000D03*
D12*
G04 #@! TO.P,R3,1*
G04 #@! TO.N,AMPLIFIED_LEFT*
X173990000Y-86360000D03*
G04 #@! TD*
G04 #@! TO.P,R4,1*
G04 #@! TO.N,AMPLIFIED_RIGHT*
X194310000Y-86360000D03*
D13*
G04 #@! TO.P,R4,2*
G04 #@! TO.N,Net-(C2-Pad2)*
X194310000Y-78740000D03*
G04 #@! TD*
G04 #@! TO.P,R5,2*
G04 #@! TO.N,-BATT*
X187960000Y-97790000D03*
D12*
G04 #@! TO.P,R5,1*
G04 #@! TO.N,Net-(D1-Pad1)*
X180340000Y-97790000D03*
G04 #@! TD*
G04 #@! TO.P,R6,1*
G04 #@! TO.N,+BATT*
X172720000Y-93980000D03*
D13*
G04 #@! TO.P,R6,2*
G04 #@! TO.N,GNDREF*
X180340000Y-93980000D03*
G04 #@! TD*
D14*
G04 #@! TO.P,D2,1*
G04 #@! TO.N,+BATT*
X177800000Y-101600000D03*
D15*
G04 #@! TO.P,D2,2*
G04 #@! TO.N,Net-(D2-Pad2)*
X185420000Y-101600000D03*
G04 #@! TD*
D16*
G04 #@! TO.P,J1,T*
G04 #@! TO.N,Net-(J1-PadT)*
X190890000Y-100410000D03*
G04 #@! TO.P,J1,TN*
G04 #@! TO.N,Net-(J1-PadTN)*
X190890000Y-102910000D03*
G04 #@! TO.P,J1,RN*
G04 #@! TO.N,Net-(J1-PadRN)*
X190890000Y-107910000D03*
G04 #@! TO.P,J1,R*
G04 #@! TO.N,Net-(J1-PadR)*
X190890000Y-110410000D03*
G04 #@! TO.P,J1,S*
G04 #@! TO.N,GNDREF*
X195890000Y-105410000D03*
G04 #@! TD*
G04 #@! TO.P,J2,T*
G04 #@! TO.N,IN_LEFT*
X179150000Y-72000000D03*
G04 #@! TO.P,J2,TN*
G04 #@! TO.N,Net-(J2-PadTN)*
X181650000Y-72000000D03*
G04 #@! TO.P,J2,RN*
G04 #@! TO.N,Net-(J2-PadRN)*
X186650000Y-72000000D03*
G04 #@! TO.P,J2,R*
G04 #@! TO.N,IN_RIGHT*
X189150000Y-72000000D03*
G04 #@! TO.P,J2,S*
G04 #@! TO.N,GNDREF*
X184150000Y-67000000D03*
G04 #@! TD*
D17*
G04 #@! TO.N,Net-(J2-PadTN)*
G04 #@! TO.C,L1*
G36*
X173985792Y-65243332D02*
X174048890Y-65252692D01*
X174110766Y-65268191D01*
X174170825Y-65289680D01*
X174228489Y-65316953D01*
X174283202Y-65349747D01*
X174334437Y-65387745D01*
X174381700Y-65430583D01*
X177139417Y-68188300D01*
X177182255Y-68235563D01*
X177220253Y-68286798D01*
X177253047Y-68341511D01*
X177280320Y-68399175D01*
X177301809Y-68459234D01*
X177317308Y-68521110D01*
X177326668Y-68584208D01*
X177329798Y-68647919D01*
X177326668Y-68711630D01*
X177317308Y-68774728D01*
X177301809Y-68836604D01*
X177280320Y-68896663D01*
X177253047Y-68954327D01*
X177220253Y-69009040D01*
X177182255Y-69060275D01*
X177139417Y-69107538D01*
X176220178Y-70026777D01*
X176172915Y-70069615D01*
X176121680Y-70107613D01*
X176066967Y-70140407D01*
X176009303Y-70167680D01*
X175949244Y-70189169D01*
X175887368Y-70204668D01*
X175824270Y-70214028D01*
X175760559Y-70217158D01*
X175696848Y-70214028D01*
X175633750Y-70204668D01*
X175571874Y-70189169D01*
X175511815Y-70167680D01*
X175454151Y-70140407D01*
X175399438Y-70107613D01*
X175348203Y-70069615D01*
X175300940Y-70026777D01*
X172543223Y-67269060D01*
X172500385Y-67221797D01*
X172462387Y-67170562D01*
X172429593Y-67115849D01*
X172402320Y-67058185D01*
X172380831Y-66998126D01*
X172365332Y-66936250D01*
X172355972Y-66873152D01*
X172352842Y-66809441D01*
X172355972Y-66745730D01*
X172365332Y-66682632D01*
X172380831Y-66620756D01*
X172402320Y-66560697D01*
X172429593Y-66503033D01*
X172462387Y-66448320D01*
X172500385Y-66397085D01*
X172543223Y-66349822D01*
X173462462Y-65430583D01*
X173509725Y-65387745D01*
X173560960Y-65349747D01*
X173615673Y-65316953D01*
X173673337Y-65289680D01*
X173733396Y-65268191D01*
X173795272Y-65252692D01*
X173858370Y-65243332D01*
X173922081Y-65240202D01*
X173985792Y-65243332D01*
X173985792Y-65243332D01*
G37*
D18*
G04 #@! TD*
G04 #@! TO.P,L1,2*
G04 #@! TO.N,Net-(J2-PadTN)*
X174841320Y-67728680D03*
D17*
G04 #@! TO.N,GNDREF*
G04 #@! TO.C,L1*
G36*
X171864472Y-67364652D02*
X171927570Y-67374012D01*
X171989446Y-67389511D01*
X172049505Y-67411000D01*
X172107169Y-67438273D01*
X172161882Y-67471067D01*
X172213117Y-67509065D01*
X172260380Y-67551903D01*
X175018097Y-70309620D01*
X175060935Y-70356883D01*
X175098933Y-70408118D01*
X175131727Y-70462831D01*
X175159000Y-70520495D01*
X175180489Y-70580554D01*
X175195988Y-70642430D01*
X175205348Y-70705528D01*
X175208478Y-70769239D01*
X175205348Y-70832950D01*
X175195988Y-70896048D01*
X175180489Y-70957924D01*
X175159000Y-71017983D01*
X175131727Y-71075647D01*
X175098933Y-71130360D01*
X175060935Y-71181595D01*
X175018097Y-71228858D01*
X174098858Y-72148097D01*
X174051595Y-72190935D01*
X174000360Y-72228933D01*
X173945647Y-72261727D01*
X173887983Y-72289000D01*
X173827924Y-72310489D01*
X173766048Y-72325988D01*
X173702950Y-72335348D01*
X173639239Y-72338478D01*
X173575528Y-72335348D01*
X173512430Y-72325988D01*
X173450554Y-72310489D01*
X173390495Y-72289000D01*
X173332831Y-72261727D01*
X173278118Y-72228933D01*
X173226883Y-72190935D01*
X173179620Y-72148097D01*
X170421903Y-69390380D01*
X170379065Y-69343117D01*
X170341067Y-69291882D01*
X170308273Y-69237169D01*
X170281000Y-69179505D01*
X170259511Y-69119446D01*
X170244012Y-69057570D01*
X170234652Y-68994472D01*
X170231522Y-68930761D01*
X170234652Y-68867050D01*
X170244012Y-68803952D01*
X170259511Y-68742076D01*
X170281000Y-68682017D01*
X170308273Y-68624353D01*
X170341067Y-68569640D01*
X170379065Y-68518405D01*
X170421903Y-68471142D01*
X171341142Y-67551903D01*
X171388405Y-67509065D01*
X171439640Y-67471067D01*
X171494353Y-67438273D01*
X171552017Y-67411000D01*
X171612076Y-67389511D01*
X171673952Y-67374012D01*
X171737050Y-67364652D01*
X171800761Y-67361522D01*
X171864472Y-67364652D01*
X171864472Y-67364652D01*
G37*
D18*
G04 #@! TD*
G04 #@! TO.P,L1,1*
G04 #@! TO.N,GNDREF*
X172720000Y-69850000D03*
D17*
G04 #@! TO.N,GNDREF*
G04 #@! TO.C,L2*
G36*
X196562950Y-67364652D02*
X196626048Y-67374012D01*
X196687924Y-67389511D01*
X196747983Y-67411000D01*
X196805647Y-67438273D01*
X196860360Y-67471067D01*
X196911595Y-67509065D01*
X196958858Y-67551903D01*
X197878097Y-68471142D01*
X197920935Y-68518405D01*
X197958933Y-68569640D01*
X197991727Y-68624353D01*
X198019000Y-68682017D01*
X198040489Y-68742076D01*
X198055988Y-68803952D01*
X198065348Y-68867050D01*
X198068478Y-68930761D01*
X198065348Y-68994472D01*
X198055988Y-69057570D01*
X198040489Y-69119446D01*
X198019000Y-69179505D01*
X197991727Y-69237169D01*
X197958933Y-69291882D01*
X197920935Y-69343117D01*
X197878097Y-69390380D01*
X195120380Y-72148097D01*
X195073117Y-72190935D01*
X195021882Y-72228933D01*
X194967169Y-72261727D01*
X194909505Y-72289000D01*
X194849446Y-72310489D01*
X194787570Y-72325988D01*
X194724472Y-72335348D01*
X194660761Y-72338478D01*
X194597050Y-72335348D01*
X194533952Y-72325988D01*
X194472076Y-72310489D01*
X194412017Y-72289000D01*
X194354353Y-72261727D01*
X194299640Y-72228933D01*
X194248405Y-72190935D01*
X194201142Y-72148097D01*
X193281903Y-71228858D01*
X193239065Y-71181595D01*
X193201067Y-71130360D01*
X193168273Y-71075647D01*
X193141000Y-71017983D01*
X193119511Y-70957924D01*
X193104012Y-70896048D01*
X193094652Y-70832950D01*
X193091522Y-70769239D01*
X193094652Y-70705528D01*
X193104012Y-70642430D01*
X193119511Y-70580554D01*
X193141000Y-70520495D01*
X193168273Y-70462831D01*
X193201067Y-70408118D01*
X193239065Y-70356883D01*
X193281903Y-70309620D01*
X196039620Y-67551903D01*
X196086883Y-67509065D01*
X196138118Y-67471067D01*
X196192831Y-67438273D01*
X196250495Y-67411000D01*
X196310554Y-67389511D01*
X196372430Y-67374012D01*
X196435528Y-67364652D01*
X196499239Y-67361522D01*
X196562950Y-67364652D01*
X196562950Y-67364652D01*
G37*
D18*
G04 #@! TD*
G04 #@! TO.P,L2,1*
G04 #@! TO.N,GNDREF*
X195580000Y-69850000D03*
D17*
G04 #@! TO.N,Net-(J2-PadRN)*
G04 #@! TO.C,L2*
G36*
X194441630Y-65243332D02*
X194504728Y-65252692D01*
X194566604Y-65268191D01*
X194626663Y-65289680D01*
X194684327Y-65316953D01*
X194739040Y-65349747D01*
X194790275Y-65387745D01*
X194837538Y-65430583D01*
X195756777Y-66349822D01*
X195799615Y-66397085D01*
X195837613Y-66448320D01*
X195870407Y-66503033D01*
X195897680Y-66560697D01*
X195919169Y-66620756D01*
X195934668Y-66682632D01*
X195944028Y-66745730D01*
X195947158Y-66809441D01*
X195944028Y-66873152D01*
X195934668Y-66936250D01*
X195919169Y-66998126D01*
X195897680Y-67058185D01*
X195870407Y-67115849D01*
X195837613Y-67170562D01*
X195799615Y-67221797D01*
X195756777Y-67269060D01*
X192999060Y-70026777D01*
X192951797Y-70069615D01*
X192900562Y-70107613D01*
X192845849Y-70140407D01*
X192788185Y-70167680D01*
X192728126Y-70189169D01*
X192666250Y-70204668D01*
X192603152Y-70214028D01*
X192539441Y-70217158D01*
X192475730Y-70214028D01*
X192412632Y-70204668D01*
X192350756Y-70189169D01*
X192290697Y-70167680D01*
X192233033Y-70140407D01*
X192178320Y-70107613D01*
X192127085Y-70069615D01*
X192079822Y-70026777D01*
X191160583Y-69107538D01*
X191117745Y-69060275D01*
X191079747Y-69009040D01*
X191046953Y-68954327D01*
X191019680Y-68896663D01*
X190998191Y-68836604D01*
X190982692Y-68774728D01*
X190973332Y-68711630D01*
X190970202Y-68647919D01*
X190973332Y-68584208D01*
X190982692Y-68521110D01*
X190998191Y-68459234D01*
X191019680Y-68399175D01*
X191046953Y-68341511D01*
X191079747Y-68286798D01*
X191117745Y-68235563D01*
X191160583Y-68188300D01*
X193918300Y-65430583D01*
X193965563Y-65387745D01*
X194016798Y-65349747D01*
X194071511Y-65316953D01*
X194129175Y-65289680D01*
X194189234Y-65268191D01*
X194251110Y-65252692D01*
X194314208Y-65243332D01*
X194377919Y-65240202D01*
X194441630Y-65243332D01*
X194441630Y-65243332D01*
G37*
D18*
G04 #@! TD*
G04 #@! TO.P,L2,2*
G04 #@! TO.N,Net-(J2-PadRN)*
X193458680Y-67728680D03*
D19*
G04 #@! TO.P,BT1,1*
G04 #@! TO.N,Net-(BT1-Pad1)*
X177800000Y-114300000D03*
G04 #@! TO.P,BT1,2*
G04 #@! TO.N,-BATT*
X190500000Y-114300000D03*
G04 #@! TD*
D20*
G04 #@! TO.P,C7,2*
G04 #@! TO.N,GNDREF*
X176530000Y-90170000D03*
D21*
G04 #@! TO.P,C7,1*
G04 #@! TO.N,+BATT*
X176530000Y-87670000D03*
G04 #@! TD*
G04 #@! TO.P,C8,1*
G04 #@! TO.N,GNDREF*
X191770000Y-90170000D03*
D20*
G04 #@! TO.P,C8,2*
G04 #@! TO.N,-BATT*
X191770000Y-87670000D03*
G04 #@! TD*
G04 #@! TO.P,C1,2*
G04 #@! TO.N,Net-(C1-Pad2)*
X176530000Y-85050000D03*
G04 #@! TO.P,C1,1*
G04 #@! TO.N,AMPLIFIED_LEFT*
X176530000Y-82550000D03*
G04 #@! TD*
G04 #@! TO.P,C2,1*
G04 #@! TO.N,AMPLIFIED_RIGHT*
X191770000Y-82550000D03*
G04 #@! TO.P,C2,2*
G04 #@! TO.N,Net-(C2-Pad2)*
X191770000Y-85050000D03*
G04 #@! TD*
G04 #@! TO.P,C3,2*
G04 #@! TO.N,AMPLIFIED_LEFT*
X182880000Y-87630000D03*
G04 #@! TO.P,C3,1*
G04 #@! TO.N,Net-(C3-Pad1)*
X182880000Y-90130000D03*
G04 #@! TD*
G04 #@! TO.P,C4,1*
G04 #@! TO.N,Net-(C4-Pad1)*
X185420000Y-90130000D03*
G04 #@! TO.P,C4,2*
G04 #@! TO.N,AMPLIFIED_RIGHT*
X185420000Y-87630000D03*
G04 #@! TD*
G04 #@! TO.P,C5,2*
G04 #@! TO.N,GNDREF*
X180340000Y-90130000D03*
G04 #@! TO.P,C5,1*
G04 #@! TO.N,+BATT*
X180340000Y-87630000D03*
G04 #@! TD*
G04 #@! TO.P,C6,1*
G04 #@! TO.N,GNDREF*
X187960000Y-90130000D03*
G04 #@! TO.P,C6,2*
G04 #@! TO.N,-BATT*
X187960000Y-87630000D03*
G04 #@! TD*
D22*
G04 #@! TO.P,U1,1*
G04 #@! TO.N,AMPLIFIED_RIGHT*
X187960000Y-83820000D03*
D23*
G04 #@! TO.P,U1,5*
G04 #@! TO.N,GNDREF*
X180340000Y-76200000D03*
G04 #@! TO.P,U1,2*
G04 #@! TO.N,Net-(C2-Pad2)*
X187960000Y-81280000D03*
G04 #@! TO.P,U1,6*
G04 #@! TO.N,Net-(C1-Pad2)*
X180340000Y-78740000D03*
G04 #@! TO.P,U1,3*
G04 #@! TO.N,GNDREF*
X187960000Y-78740000D03*
G04 #@! TO.P,U1,7*
G04 #@! TO.N,AMPLIFIED_LEFT*
X180340000Y-81280000D03*
G04 #@! TO.P,U1,4*
G04 #@! TO.N,-BATT*
X187960000Y-76200000D03*
G04 #@! TO.P,U1,8*
G04 #@! TO.N,+BATT*
X180340000Y-83820000D03*
G04 #@! TD*
D11*
G04 #@! TO.P,RV1,4*
G04 #@! TO.N,Net-(C4-Pad1)*
X179070000Y-105410000D03*
G04 #@! TO.P,RV1,5*
G04 #@! TO.N,Net-(J1-PadR)*
X179070000Y-107910000D03*
G04 #@! TO.P,RV1,6*
G04 #@! TO.N,GNDREF*
X179070000Y-110410000D03*
G04 #@! TO.P,RV1,1*
G04 #@! TO.N,Net-(C3-Pad1)*
X176570000Y-105410000D03*
G04 #@! TO.P,RV1,2*
G04 #@! TO.N,Net-(J1-PadT)*
X176570000Y-107910000D03*
G04 #@! TO.P,RV1,3*
G04 #@! TO.N,GNDREF*
X176570000Y-110410000D03*
G04 #@! TO.P,RV1,8*
G04 #@! TO.N,Net-(BT1-Pad1)*
X185320000Y-110410000D03*
G04 #@! TO.P,RV1,7*
G04 #@! TO.N,Net-(D2-Pad2)*
X185320000Y-105410000D03*
G04 #@! TD*
D24*
G04 #@! TO.N,+BATT*
X180340000Y-87630000D02*
X180340000Y-83820000D01*
X176570000Y-87630000D02*
X176530000Y-87670000D01*
X180340000Y-87630000D02*
X176570000Y-87630000D01*
X172720000Y-92848630D02*
X172720000Y-93980000D01*
X172720000Y-90430000D02*
X172720000Y-92848630D01*
X175480000Y-87670000D02*
X172720000Y-90430000D01*
X176530000Y-87670000D02*
X175480000Y-87670000D01*
X172720000Y-95250000D02*
X175260000Y-97790000D01*
X172720000Y-93980000D02*
X172720000Y-95250000D01*
X177800000Y-100330000D02*
X177800000Y-101600000D01*
X175260000Y-97790000D02*
X177800000Y-100330000D01*
G04 #@! TO.N,-BATT*
X189410000Y-76200000D02*
X187960000Y-76200000D01*
X194310000Y-76200000D02*
X189410000Y-76200000D01*
X195580000Y-77470000D02*
X194310000Y-76200000D01*
X195580000Y-87630000D02*
X195580000Y-77470000D01*
X191730000Y-87630000D02*
X191770000Y-87670000D01*
X187960000Y-87630000D02*
X191730000Y-87630000D01*
X195540000Y-87670000D02*
X195580000Y-87630000D01*
X191770000Y-87670000D02*
X195540000Y-87670000D01*
X198120000Y-90170000D02*
X195580000Y-87630000D01*
X198120000Y-92710000D02*
X198120000Y-90170000D01*
X198120000Y-97790000D02*
X198120000Y-92710000D01*
X197215001Y-98694999D02*
X198120000Y-97790000D01*
X190500000Y-114300000D02*
X197215001Y-107584999D01*
X197215001Y-107584999D02*
X197215001Y-98694999D01*
X195580000Y-93980000D02*
X198120000Y-93980000D01*
X191770000Y-97790000D02*
X195580000Y-93980000D01*
X187960000Y-97790000D02*
X191770000Y-97790000D01*
G04 #@! TO.N,Net-(D1-Pad1)*
X180340000Y-97790000D02*
X177800000Y-97790000D01*
G04 #@! TO.N,Net-(C2-Pad2)*
X193040000Y-78740000D02*
X191770000Y-80010000D01*
X194310000Y-78740000D02*
X193040000Y-78740000D01*
X192569999Y-84250001D02*
X191770000Y-85050000D01*
X193040000Y-83780000D02*
X192569999Y-84250001D01*
X191770000Y-80010000D02*
X193040000Y-81280000D01*
X193040000Y-81280000D02*
X193040000Y-83780000D01*
X190500000Y-81280000D02*
X191770000Y-80010000D01*
X187960000Y-81280000D02*
X190500000Y-81280000D01*
G04 #@! TO.N,Net-(C1-Pad2)*
X175260000Y-78740000D02*
X173990000Y-78740000D01*
X176530000Y-80010000D02*
X175260000Y-78740000D01*
X175260000Y-83780000D02*
X175730001Y-84250001D01*
X176530000Y-80010000D02*
X175260000Y-81280000D01*
X175730001Y-84250001D02*
X176530000Y-85050000D01*
X175260000Y-81280000D02*
X175260000Y-83780000D01*
X177800000Y-78740000D02*
X176530000Y-80010000D01*
X180340000Y-78740000D02*
X177800000Y-78740000D01*
G04 #@! TO.N,Net-(C4-Pad1)*
X185420000Y-90130000D02*
X185420000Y-99060000D01*
X184150000Y-100330000D02*
X184150000Y-104140000D01*
X185420000Y-99060000D02*
X184150000Y-100330000D01*
X184150000Y-104140000D02*
X182880000Y-105410000D01*
X182880000Y-105410000D02*
X179070000Y-105410000D01*
G04 #@! TO.N,Net-(J1-PadR)*
X188390000Y-107910000D02*
X190890000Y-110410000D01*
X179070000Y-107910000D02*
X188390000Y-107910000D01*
G04 #@! TO.N,Net-(C3-Pad1)*
X176570000Y-105410000D02*
X177800000Y-104180000D01*
X177800000Y-104180000D02*
X181570000Y-104180000D01*
X181570000Y-104180000D02*
X182880000Y-102870000D01*
X182880000Y-102870000D02*
X182880000Y-90130000D01*
G04 #@! TO.N,Net-(J1-PadT)*
X190420000Y-100410000D02*
X190890000Y-100410000D01*
X189230000Y-101600000D02*
X190420000Y-100410000D01*
X189230000Y-104140000D02*
X189230000Y-101600000D01*
X186690000Y-106680000D02*
X189230000Y-104140000D01*
X176570000Y-107910000D02*
X177800000Y-106680000D01*
X177800000Y-106680000D02*
X186690000Y-106680000D01*
G04 #@! TO.N,Net-(BT1-Pad1)*
X181430000Y-114300000D02*
X185320000Y-110410000D01*
X177800000Y-114300000D02*
X181430000Y-114300000D01*
G04 #@! TO.N,AMPLIFIED_RIGHT*
X186690000Y-83820000D02*
X187960000Y-83820000D01*
X185420000Y-87630000D02*
X185420000Y-85090000D01*
X185420000Y-85090000D02*
X186690000Y-83820000D01*
X187960000Y-83820000D02*
X189230000Y-83820000D01*
X190500000Y-85090000D02*
X190500000Y-86360000D01*
X190500000Y-86360000D02*
X194310000Y-86360000D01*
X190500000Y-83820000D02*
X191770000Y-82550000D01*
X189230000Y-83820000D02*
X190500000Y-83820000D01*
X190500000Y-85090000D02*
X190500000Y-83820000D01*
G04 #@! TO.N,AMPLIFIED_LEFT*
X182880000Y-82550000D02*
X182880000Y-86498630D01*
X182880000Y-86498630D02*
X182880000Y-87630000D01*
X180340000Y-81280000D02*
X181610000Y-81280000D01*
X181610000Y-81280000D02*
X182880000Y-82550000D01*
X177800000Y-81280000D02*
X180340000Y-81280000D01*
X176530000Y-82550000D02*
X177800000Y-81280000D01*
X177800000Y-83820000D02*
X176530000Y-82550000D01*
X173990000Y-86360000D02*
X177800000Y-86360000D01*
X177800000Y-86360000D02*
X177800000Y-83820000D01*
G04 #@! TO.N,IN_RIGHT*
X191380000Y-72000000D02*
X191770000Y-72390000D01*
X189150000Y-72000000D02*
X191380000Y-72000000D01*
G04 #@! TO.N,IN_LEFT*
X176920000Y-72000000D02*
X176530000Y-72390000D01*
X179150000Y-72000000D02*
X176920000Y-72000000D01*
G04 #@! TO.N,Net-(J2-PadRN)*
X188800000Y-69850000D02*
X187649999Y-71000001D01*
X187649999Y-71000001D02*
X186650000Y-72000000D01*
X193458680Y-67728680D02*
X191337360Y-69850000D01*
X191337360Y-69850000D02*
X188800000Y-69850000D01*
G04 #@! TO.N,Net-(J2-PadTN)*
X176962640Y-69850000D02*
X174841320Y-67728680D01*
X181650000Y-72000000D02*
X179500000Y-69850000D01*
X179500000Y-69850000D02*
X176962640Y-69850000D01*
G04 #@! TO.N,Net-(D2-Pad2)*
X185420000Y-105310000D02*
X185320000Y-105410000D01*
X185420000Y-101600000D02*
X185420000Y-105310000D01*
G04 #@! TD*
D25*
G04 #@! TO.N,GNDREF*
G36*
X177915000Y-64254343D02*
X177915000Y-64745657D01*
X178103018Y-65199571D01*
X178450429Y-65546982D01*
X178904343Y-65735000D01*
X179395657Y-65735000D01*
X179849571Y-65546982D01*
X180196982Y-65199571D01*
X180385000Y-64745657D01*
X180385000Y-64254343D01*
X180366632Y-64210000D01*
X187933368Y-64210000D01*
X187915000Y-64254343D01*
X187915000Y-64745657D01*
X188103018Y-65199571D01*
X188450429Y-65546982D01*
X188904343Y-65735000D01*
X189395657Y-65735000D01*
X189849571Y-65546982D01*
X190196982Y-65199571D01*
X190385000Y-64745657D01*
X190385000Y-64254343D01*
X190366632Y-64210000D01*
X196805334Y-64210000D01*
X197303698Y-64272958D01*
X197728893Y-64441305D01*
X198098858Y-64710101D01*
X198390356Y-65062462D01*
X198585067Y-65476244D01*
X198677093Y-65958662D01*
X198680001Y-66051195D01*
X198680001Y-68375020D01*
X198069546Y-67764565D01*
X197845040Y-67764565D01*
X195759605Y-69850000D01*
X196925801Y-71016196D01*
X197150307Y-71016196D01*
X198680001Y-69486502D01*
X198680001Y-89640137D01*
X198667929Y-89622071D01*
X198604476Y-89579673D01*
X196340000Y-87315199D01*
X196340000Y-77544846D01*
X196354888Y-77469999D01*
X196340000Y-77395152D01*
X196340000Y-77395148D01*
X196295904Y-77173463D01*
X196127929Y-76922071D01*
X196064473Y-76879671D01*
X194900331Y-75715530D01*
X194857929Y-75652071D01*
X194606537Y-75484096D01*
X194384852Y-75440000D01*
X194384847Y-75440000D01*
X194310000Y-75425112D01*
X194235153Y-75440000D01*
X189578043Y-75440000D01*
X189394577Y-75165423D01*
X188919909Y-74848260D01*
X188501333Y-74765000D01*
X187418667Y-74765000D01*
X187000091Y-74848260D01*
X186525423Y-75165423D01*
X186208260Y-75640091D01*
X186096887Y-76200000D01*
X186208260Y-76759909D01*
X186525423Y-77234577D01*
X186881499Y-77472499D01*
X186455500Y-77815104D01*
X186185633Y-78308181D01*
X186168096Y-78390961D01*
X186290085Y-78613000D01*
X187833000Y-78613000D01*
X187833000Y-78593000D01*
X188087000Y-78593000D01*
X188087000Y-78613000D01*
X189629915Y-78613000D01*
X189751904Y-78390961D01*
X189734367Y-78308181D01*
X189464500Y-77815104D01*
X189038501Y-77472499D01*
X189394577Y-77234577D01*
X189578043Y-76960000D01*
X193995199Y-76960000D01*
X194440198Y-77405000D01*
X194178515Y-77405000D01*
X193789109Y-77482458D01*
X193347519Y-77777519D01*
X193212226Y-77980000D01*
X193114846Y-77980000D01*
X193039999Y-77965112D01*
X192965152Y-77980000D01*
X192965148Y-77980000D01*
X192743463Y-78024096D01*
X192492071Y-78192071D01*
X192449671Y-78255527D01*
X192030198Y-78675000D01*
X191504452Y-78675000D01*
X191013783Y-78878242D01*
X190638242Y-79253783D01*
X190435000Y-79744452D01*
X190435000Y-80270199D01*
X190185199Y-80520000D01*
X189578043Y-80520000D01*
X189394577Y-80245423D01*
X189038501Y-80007501D01*
X189464500Y-79664896D01*
X189734367Y-79171819D01*
X189751904Y-79089039D01*
X189629915Y-78867000D01*
X188087000Y-78867000D01*
X188087000Y-78887000D01*
X187833000Y-78887000D01*
X187833000Y-78867000D01*
X186290085Y-78867000D01*
X186168096Y-79089039D01*
X186185633Y-79171819D01*
X186455500Y-79664896D01*
X186881499Y-80007501D01*
X186525423Y-80245423D01*
X186208260Y-80720091D01*
X186096887Y-81280000D01*
X186208260Y-81839909D01*
X186525423Y-82314577D01*
X186646106Y-82395215D01*
X186512235Y-82421843D01*
X186302191Y-82562191D01*
X186161843Y-82772235D01*
X186112560Y-83020000D01*
X186112560Y-83316237D01*
X186099671Y-83335527D01*
X184935528Y-84499671D01*
X184872072Y-84542071D01*
X184829672Y-84605527D01*
X184829671Y-84605528D01*
X184704097Y-84793463D01*
X184645112Y-85090000D01*
X184660001Y-85164851D01*
X184660000Y-86391570D01*
X184607138Y-86413466D01*
X184203466Y-86817138D01*
X184150000Y-86946216D01*
X184096534Y-86817138D01*
X183692862Y-86413466D01*
X183640000Y-86391570D01*
X183640000Y-82624846D01*
X183654888Y-82549999D01*
X183640000Y-82475152D01*
X183640000Y-82475148D01*
X183595904Y-82253463D01*
X183427929Y-82002071D01*
X183364473Y-81959671D01*
X182200331Y-80795530D01*
X182157929Y-80732071D01*
X182052815Y-80661836D01*
X181774577Y-80245423D01*
X181422242Y-80010000D01*
X181774577Y-79774577D01*
X182091740Y-79299909D01*
X182203113Y-78740000D01*
X182091740Y-78180091D01*
X181774577Y-77705423D01*
X181418501Y-77467501D01*
X181844500Y-77124896D01*
X182114367Y-76631819D01*
X182131904Y-76549039D01*
X182009915Y-76327000D01*
X180467000Y-76327000D01*
X180467000Y-76347000D01*
X180213000Y-76347000D01*
X180213000Y-76327000D01*
X178670085Y-76327000D01*
X178548096Y-76549039D01*
X178565633Y-76631819D01*
X178835500Y-77124896D01*
X179261499Y-77467501D01*
X178905423Y-77705423D01*
X178721957Y-77980000D01*
X177874846Y-77980000D01*
X177799999Y-77965112D01*
X177725152Y-77980000D01*
X177725148Y-77980000D01*
X177503463Y-78024096D01*
X177252071Y-78192071D01*
X177209671Y-78255527D01*
X176790198Y-78675000D01*
X176269801Y-78675000D01*
X175850331Y-78255530D01*
X175807929Y-78192071D01*
X175556537Y-78024096D01*
X175334852Y-77980000D01*
X175334847Y-77980000D01*
X175260000Y-77965112D01*
X175185153Y-77980000D01*
X175087774Y-77980000D01*
X174952481Y-77777519D01*
X174510891Y-77482458D01*
X174121485Y-77405000D01*
X173858515Y-77405000D01*
X173469109Y-77482458D01*
X173027519Y-77777519D01*
X172732458Y-78219109D01*
X172628846Y-78740000D01*
X172732458Y-79260891D01*
X173027519Y-79702481D01*
X173469109Y-79997542D01*
X173858515Y-80075000D01*
X174121485Y-80075000D01*
X174510891Y-79997542D01*
X174952481Y-79702481D01*
X175030667Y-79585468D01*
X175195000Y-79749801D01*
X175195000Y-80270199D01*
X174775530Y-80689669D01*
X174712071Y-80732071D01*
X174544096Y-80983464D01*
X174500000Y-81205149D01*
X174500000Y-81205153D01*
X174485112Y-81280000D01*
X174500000Y-81354847D01*
X174500001Y-83705148D01*
X174485112Y-83780000D01*
X174544097Y-84076537D01*
X174660003Y-84250002D01*
X174712072Y-84327929D01*
X174775528Y-84370329D01*
X175116897Y-84711698D01*
X175095000Y-84764561D01*
X175095000Y-85335439D01*
X175204585Y-85600000D01*
X175117975Y-85600000D01*
X174746217Y-85228242D01*
X174255548Y-85025000D01*
X173724452Y-85025000D01*
X173233783Y-85228242D01*
X172858242Y-85603783D01*
X172655000Y-86094452D01*
X172655000Y-86625548D01*
X172858242Y-87116217D01*
X173233783Y-87491758D01*
X173724452Y-87695000D01*
X174255548Y-87695000D01*
X174468338Y-87606859D01*
X172235530Y-89839669D01*
X172172071Y-89882071D01*
X172004096Y-90133464D01*
X171960000Y-90355149D01*
X171960000Y-90355153D01*
X171945112Y-90430000D01*
X171960000Y-90504847D01*
X171960001Y-92773774D01*
X171960000Y-92773779D01*
X171960000Y-92852025D01*
X171588242Y-93223783D01*
X171385000Y-93714452D01*
X171385000Y-94245548D01*
X171588242Y-94736217D01*
X171960001Y-95107976D01*
X171960001Y-95175149D01*
X171945112Y-95250000D01*
X171960001Y-95324852D01*
X172004097Y-95546537D01*
X172172072Y-95797929D01*
X172235528Y-95840329D01*
X173770360Y-97375162D01*
X173725000Y-97484670D01*
X173725000Y-98095330D01*
X173958690Y-98659507D01*
X174390493Y-99091310D01*
X174954670Y-99325000D01*
X175565330Y-99325000D01*
X175674838Y-99279640D01*
X176709203Y-100314006D01*
X176592191Y-100392191D01*
X176451843Y-100602235D01*
X176402560Y-100850000D01*
X176402560Y-102350000D01*
X176451843Y-102597765D01*
X176592191Y-102807809D01*
X176802235Y-102948157D01*
X177050000Y-102997440D01*
X178550000Y-102997440D01*
X178797765Y-102948157D01*
X179007809Y-102807809D01*
X179148157Y-102597765D01*
X179197440Y-102350000D01*
X179197440Y-100850000D01*
X179148157Y-100602235D01*
X179007809Y-100392191D01*
X178797765Y-100251843D01*
X178550000Y-100202560D01*
X178549540Y-100202560D01*
X178515904Y-100033463D01*
X178474102Y-99970902D01*
X178390329Y-99845526D01*
X178390327Y-99845524D01*
X178347929Y-99782071D01*
X178284476Y-99739673D01*
X177882243Y-99337440D01*
X178700000Y-99337440D01*
X178947765Y-99288157D01*
X179157809Y-99147809D01*
X179298157Y-98937765D01*
X179347440Y-98690000D01*
X179347440Y-98685415D01*
X179583783Y-98921758D01*
X180074452Y-99125000D01*
X180605548Y-99125000D01*
X181096217Y-98921758D01*
X181471758Y-98546217D01*
X181675000Y-98055548D01*
X181675000Y-97524452D01*
X181471758Y-97033783D01*
X181096217Y-96658242D01*
X180605548Y-96455000D01*
X180074452Y-96455000D01*
X179583783Y-96658242D01*
X179347440Y-96894585D01*
X179347440Y-96890000D01*
X179298157Y-96642235D01*
X179157809Y-96432191D01*
X178947765Y-96291843D01*
X178700000Y-96242560D01*
X176900000Y-96242560D01*
X176652235Y-96291843D01*
X176442191Y-96432191D01*
X176301843Y-96642235D01*
X176298725Y-96657908D01*
X176129507Y-96488690D01*
X175565330Y-96255000D01*
X174954670Y-96255000D01*
X174845162Y-96300360D01*
X173566388Y-95021587D01*
X173851758Y-94736217D01*
X174026924Y-94313329D01*
X179047284Y-94313329D01*
X179190203Y-94658396D01*
X179537337Y-95046764D01*
X180006669Y-95272727D01*
X180213000Y-95150206D01*
X180213000Y-94107000D01*
X180467000Y-94107000D01*
X180467000Y-95150206D01*
X180673331Y-95272727D01*
X181142663Y-95046764D01*
X181489797Y-94658396D01*
X181632716Y-94313329D01*
X181509374Y-94107000D01*
X180467000Y-94107000D01*
X180213000Y-94107000D01*
X179170626Y-94107000D01*
X179047284Y-94313329D01*
X174026924Y-94313329D01*
X174055000Y-94245548D01*
X174055000Y-93714452D01*
X174026925Y-93646671D01*
X179047284Y-93646671D01*
X179170626Y-93853000D01*
X180213000Y-93853000D01*
X180213000Y-92809794D01*
X180467000Y-92809794D01*
X180467000Y-93853000D01*
X181509374Y-93853000D01*
X181632716Y-93646671D01*
X181489797Y-93301604D01*
X181142663Y-92913236D01*
X180673331Y-92687273D01*
X180467000Y-92809794D01*
X180213000Y-92809794D01*
X180006669Y-92687273D01*
X179537337Y-92913236D01*
X179190203Y-93301604D01*
X179047284Y-93646671D01*
X174026925Y-93646671D01*
X173851758Y-93223783D01*
X173480000Y-92852025D01*
X173480000Y-91177745D01*
X175701861Y-91177745D01*
X175775995Y-91423864D01*
X176313223Y-91616965D01*
X176883454Y-91589778D01*
X177284005Y-91423864D01*
X177358139Y-91177745D01*
X177318140Y-91137745D01*
X179511861Y-91137745D01*
X179585995Y-91383864D01*
X180123223Y-91576965D01*
X180693454Y-91549778D01*
X181094005Y-91383864D01*
X181168139Y-91137745D01*
X180340000Y-90309605D01*
X179511861Y-91137745D01*
X177318140Y-91137745D01*
X176530000Y-90349605D01*
X175701861Y-91177745D01*
X173480000Y-91177745D01*
X173480000Y-90744801D01*
X174271578Y-89953223D01*
X175083035Y-89953223D01*
X175110222Y-90523454D01*
X175276136Y-90924005D01*
X175522255Y-90998139D01*
X176350395Y-90170000D01*
X176709605Y-90170000D01*
X177537745Y-90998139D01*
X177783864Y-90924005D01*
X177976965Y-90386777D01*
X177954388Y-89913223D01*
X178893035Y-89913223D01*
X178920222Y-90483454D01*
X179086136Y-90884005D01*
X179332255Y-90958139D01*
X180160395Y-90130000D01*
X179332255Y-89301861D01*
X179086136Y-89375995D01*
X178893035Y-89913223D01*
X177954388Y-89913223D01*
X177949778Y-89816546D01*
X177783864Y-89415995D01*
X177537745Y-89341861D01*
X176709605Y-90170000D01*
X176350395Y-90170000D01*
X175522255Y-89341861D01*
X175276136Y-89415995D01*
X175083035Y-89953223D01*
X174271578Y-89953223D01*
X175287059Y-88937744D01*
X175482235Y-89068157D01*
X175716187Y-89114693D01*
X175701861Y-89162255D01*
X176530000Y-89990395D01*
X177358139Y-89162255D01*
X177343813Y-89114693D01*
X177577765Y-89068157D01*
X177787809Y-88927809D01*
X177928157Y-88717765D01*
X177977440Y-88470000D01*
X177977440Y-88390000D01*
X179101570Y-88390000D01*
X179123466Y-88442862D01*
X179527138Y-88846534D01*
X179592299Y-88873525D01*
X179585995Y-88876136D01*
X179511861Y-89122255D01*
X180340000Y-89950395D01*
X181168139Y-89122255D01*
X181094005Y-88876136D01*
X181087254Y-88873710D01*
X181152862Y-88846534D01*
X181556534Y-88442862D01*
X181610000Y-88313784D01*
X181663466Y-88442862D01*
X182067138Y-88846534D01*
X182147932Y-88880000D01*
X182067138Y-88913466D01*
X181663466Y-89317138D01*
X181616475Y-89430583D01*
X181593864Y-89375995D01*
X181347745Y-89301861D01*
X180519605Y-90130000D01*
X181347745Y-90958139D01*
X181593864Y-90884005D01*
X181614874Y-90825552D01*
X181663466Y-90942862D01*
X182067138Y-91346534D01*
X182120001Y-91368431D01*
X182120000Y-102555198D01*
X181255199Y-103420000D01*
X177874848Y-103420000D01*
X177800000Y-103405112D01*
X177725152Y-103420000D01*
X177725148Y-103420000D01*
X177551605Y-103454520D01*
X177503462Y-103464096D01*
X177375391Y-103549671D01*
X177252071Y-103632071D01*
X177209671Y-103695527D01*
X176984838Y-103920360D01*
X176875330Y-103875000D01*
X176264670Y-103875000D01*
X175700493Y-104108690D01*
X175268690Y-104540493D01*
X175035000Y-105104670D01*
X175035000Y-105715330D01*
X175268690Y-106279507D01*
X175649183Y-106660000D01*
X175268690Y-107040493D01*
X175035000Y-107604670D01*
X175035000Y-108215330D01*
X175268690Y-108779507D01*
X175700493Y-109211310D01*
X175708290Y-109214539D01*
X175669446Y-109329841D01*
X176570000Y-110230395D01*
X177470554Y-109329841D01*
X177431710Y-109214539D01*
X177439507Y-109211310D01*
X177820000Y-108830817D01*
X178200493Y-109211310D01*
X178208290Y-109214539D01*
X178169446Y-109329841D01*
X179070000Y-110230395D01*
X179970554Y-109329841D01*
X179931710Y-109214539D01*
X179939507Y-109211310D01*
X180371310Y-108779507D01*
X180416669Y-108670000D01*
X188075199Y-108670000D01*
X189323823Y-109918625D01*
X189255000Y-110084778D01*
X189255000Y-110735222D01*
X189503914Y-111336153D01*
X189963847Y-111796086D01*
X190564778Y-112045000D01*
X191215222Y-112045000D01*
X191816153Y-111796086D01*
X192276086Y-111336153D01*
X192525000Y-110735222D01*
X192525000Y-110084778D01*
X192276086Y-109483847D01*
X191952239Y-109160000D01*
X192276086Y-108836153D01*
X192525000Y-108235222D01*
X192525000Y-107584778D01*
X192276086Y-106983847D01*
X191816153Y-106523914D01*
X191608607Y-106437946D01*
X191936982Y-106109571D01*
X192125000Y-105655657D01*
X192125000Y-105164343D01*
X192117179Y-105145461D01*
X194244092Y-105145461D01*
X194268144Y-105795460D01*
X194470613Y-106284264D01*
X194737468Y-106382927D01*
X195710395Y-105410000D01*
X194737468Y-104437073D01*
X194470613Y-104535736D01*
X194244092Y-105145461D01*
X192117179Y-105145461D01*
X191936982Y-104710429D01*
X191608607Y-104382054D01*
X191816153Y-104296086D01*
X192276086Y-103836153D01*
X192525000Y-103235222D01*
X192525000Y-102584778D01*
X192276086Y-101983847D01*
X191952239Y-101660000D01*
X192276086Y-101336153D01*
X192525000Y-100735222D01*
X192525000Y-100084778D01*
X192276086Y-99483847D01*
X191816153Y-99023914D01*
X191215222Y-98775000D01*
X190564778Y-98775000D01*
X189963847Y-99023914D01*
X189503914Y-99483847D01*
X189255000Y-100084778D01*
X189255000Y-100500199D01*
X188745528Y-101009671D01*
X188682072Y-101052071D01*
X188639672Y-101115527D01*
X188639671Y-101115528D01*
X188514097Y-101303463D01*
X188455112Y-101600000D01*
X188470001Y-101674852D01*
X188470000Y-103825197D01*
X186855000Y-105440198D01*
X186855000Y-105104670D01*
X186621310Y-104540493D01*
X186189507Y-104108690D01*
X186180000Y-104104752D01*
X186180000Y-102757909D01*
X186418529Y-102598529D01*
X186724641Y-102140400D01*
X186832133Y-101600000D01*
X186724641Y-101059600D01*
X186418529Y-100601471D01*
X185960400Y-100295359D01*
X185556407Y-100215000D01*
X185339802Y-100215000D01*
X185904473Y-99650329D01*
X185967929Y-99607929D01*
X186135904Y-99356537D01*
X186180000Y-99134852D01*
X186180000Y-99134848D01*
X186194888Y-99060001D01*
X186180000Y-98985154D01*
X186180000Y-94915275D01*
X187204331Y-94915275D01*
X187266169Y-95151042D01*
X187767122Y-95327419D01*
X188297440Y-95298664D01*
X188653831Y-95151042D01*
X188715669Y-94915275D01*
X187960000Y-94159605D01*
X187204331Y-94915275D01*
X186180000Y-94915275D01*
X186180000Y-93787122D01*
X186612581Y-93787122D01*
X186641336Y-94317440D01*
X186788958Y-94673831D01*
X187024725Y-94735669D01*
X187780395Y-93980000D01*
X188139605Y-93980000D01*
X188895275Y-94735669D01*
X189131042Y-94673831D01*
X189307419Y-94172878D01*
X189278664Y-93642560D01*
X189131042Y-93286169D01*
X188895275Y-93224331D01*
X188139605Y-93980000D01*
X187780395Y-93980000D01*
X187024725Y-93224331D01*
X186788958Y-93286169D01*
X186612581Y-93787122D01*
X186180000Y-93787122D01*
X186180000Y-93044725D01*
X187204331Y-93044725D01*
X187960000Y-93800395D01*
X188715669Y-93044725D01*
X188653831Y-92808958D01*
X188152878Y-92632581D01*
X187622560Y-92661336D01*
X187266169Y-92808958D01*
X187204331Y-93044725D01*
X186180000Y-93044725D01*
X186180000Y-91368430D01*
X186232862Y-91346534D01*
X186441651Y-91137745D01*
X187131861Y-91137745D01*
X187205995Y-91383864D01*
X187743223Y-91576965D01*
X188313454Y-91549778D01*
X188714005Y-91383864D01*
X188788139Y-91137745D01*
X187960000Y-90309605D01*
X187131861Y-91137745D01*
X186441651Y-91137745D01*
X186636534Y-90942862D01*
X186683525Y-90829417D01*
X186706136Y-90884005D01*
X186952255Y-90958139D01*
X187780395Y-90130000D01*
X188139605Y-90130000D01*
X188967745Y-90958139D01*
X189213864Y-90884005D01*
X189367795Y-90455750D01*
X190335000Y-90455750D01*
X190335000Y-91096309D01*
X190431673Y-91329698D01*
X190610301Y-91508327D01*
X190843690Y-91605000D01*
X191484250Y-91605000D01*
X191643000Y-91446250D01*
X191643000Y-90297000D01*
X191897000Y-90297000D01*
X191897000Y-91446250D01*
X192055750Y-91605000D01*
X192696310Y-91605000D01*
X192929699Y-91508327D01*
X193108327Y-91329698D01*
X193205000Y-91096309D01*
X193205000Y-90455750D01*
X193046250Y-90297000D01*
X191897000Y-90297000D01*
X191643000Y-90297000D01*
X190493750Y-90297000D01*
X190335000Y-90455750D01*
X189367795Y-90455750D01*
X189406965Y-90346777D01*
X189379778Y-89776546D01*
X189213864Y-89375995D01*
X188967745Y-89301861D01*
X188139605Y-90130000D01*
X187780395Y-90130000D01*
X186952255Y-89301861D01*
X186706136Y-89375995D01*
X186685126Y-89434448D01*
X186636534Y-89317138D01*
X186232862Y-88913466D01*
X186152068Y-88880000D01*
X186232862Y-88846534D01*
X186636534Y-88442862D01*
X186690000Y-88313784D01*
X186743466Y-88442862D01*
X187147138Y-88846534D01*
X187212299Y-88873525D01*
X187205995Y-88876136D01*
X187131861Y-89122255D01*
X187960000Y-89950395D01*
X188788139Y-89122255D01*
X188714005Y-88876136D01*
X188707254Y-88873710D01*
X188772862Y-88846534D01*
X189176534Y-88442862D01*
X189198430Y-88390000D01*
X190515001Y-88390000D01*
X190553466Y-88482862D01*
X190816759Y-88746155D01*
X190610301Y-88831673D01*
X190431673Y-89010302D01*
X190335000Y-89243691D01*
X190335000Y-89884250D01*
X190493750Y-90043000D01*
X191643000Y-90043000D01*
X191643000Y-90023000D01*
X191897000Y-90023000D01*
X191897000Y-90043000D01*
X193046250Y-90043000D01*
X193205000Y-89884250D01*
X193205000Y-89243691D01*
X193108327Y-89010302D01*
X192929699Y-88831673D01*
X192723241Y-88746155D01*
X192986534Y-88482862D01*
X193008430Y-88430000D01*
X194346048Y-88430000D01*
X194153910Y-88509586D01*
X193609586Y-89053910D01*
X193315000Y-89765105D01*
X193315000Y-90534895D01*
X193609586Y-91246090D01*
X194153910Y-91790414D01*
X194865105Y-92085000D01*
X195634895Y-92085000D01*
X196346090Y-91790414D01*
X196890414Y-91246090D01*
X197185000Y-90534895D01*
X197185000Y-90309803D01*
X197360001Y-90484804D01*
X197360000Y-92784851D01*
X197360001Y-92784856D01*
X197360001Y-93220000D01*
X196677774Y-93220000D01*
X196542481Y-93017519D01*
X196100891Y-92722458D01*
X195711485Y-92645000D01*
X195448515Y-92645000D01*
X195059109Y-92722458D01*
X194617519Y-93017519D01*
X194322458Y-93459109D01*
X194218846Y-93980000D01*
X194266355Y-94218843D01*
X191455199Y-97030000D01*
X189057774Y-97030000D01*
X188922481Y-96827519D01*
X188480891Y-96532458D01*
X188091485Y-96455000D01*
X187828515Y-96455000D01*
X187439109Y-96532458D01*
X186997519Y-96827519D01*
X186702458Y-97269109D01*
X186598846Y-97790000D01*
X186702458Y-98310891D01*
X186997519Y-98752481D01*
X187439109Y-99047542D01*
X187828515Y-99125000D01*
X188091485Y-99125000D01*
X188480891Y-99047542D01*
X188922481Y-98752481D01*
X189057774Y-98550000D01*
X191695153Y-98550000D01*
X191770000Y-98564888D01*
X191844847Y-98550000D01*
X191844852Y-98550000D01*
X192066537Y-98505904D01*
X192317929Y-98337929D01*
X192360331Y-98274470D01*
X195341157Y-95293645D01*
X195448515Y-95315000D01*
X195711485Y-95315000D01*
X196100891Y-95237542D01*
X196542481Y-94942481D01*
X196677774Y-94740000D01*
X197360001Y-94740000D01*
X197360000Y-97475198D01*
X196730529Y-98104670D01*
X196667073Y-98147070D01*
X196624673Y-98210526D01*
X196624672Y-98210527D01*
X196499098Y-98398462D01*
X196440113Y-98694999D01*
X196455002Y-98769851D01*
X196455002Y-99307277D01*
X196135657Y-99175000D01*
X195644343Y-99175000D01*
X195190429Y-99363018D01*
X194843018Y-99710429D01*
X194655000Y-100164343D01*
X194655000Y-100655657D01*
X194843018Y-101109571D01*
X195190429Y-101456982D01*
X195644343Y-101645000D01*
X196135657Y-101645000D01*
X196455002Y-101512723D01*
X196455001Y-103875718D01*
X196154539Y-103764092D01*
X195504540Y-103788144D01*
X195015736Y-103990613D01*
X194917073Y-104257468D01*
X195890000Y-105230395D01*
X195904143Y-105216253D01*
X196083748Y-105395858D01*
X196069605Y-105410000D01*
X196083748Y-105424143D01*
X195904143Y-105603748D01*
X195890000Y-105589605D01*
X194917073Y-106562532D01*
X195015736Y-106829387D01*
X195625461Y-107055908D01*
X196275460Y-107031856D01*
X196455001Y-106957488D01*
X196455001Y-107270196D01*
X191374059Y-112351140D01*
X190924678Y-112165000D01*
X190075322Y-112165000D01*
X189290620Y-112490034D01*
X188690034Y-113090620D01*
X188365000Y-113875322D01*
X188365000Y-114724678D01*
X188690034Y-115509380D01*
X189290620Y-116109966D01*
X189338986Y-116130000D01*
X178961014Y-116130000D01*
X179009380Y-116109966D01*
X179609966Y-115509380D01*
X179796105Y-115060000D01*
X181355153Y-115060000D01*
X181430000Y-115074888D01*
X181504847Y-115060000D01*
X181504852Y-115060000D01*
X181726537Y-115015904D01*
X181977929Y-114847929D01*
X182020331Y-114784470D01*
X184905162Y-111899640D01*
X185014670Y-111945000D01*
X185625330Y-111945000D01*
X186189507Y-111711310D01*
X186621310Y-111279507D01*
X186855000Y-110715330D01*
X186855000Y-110104670D01*
X186621310Y-109540493D01*
X186189507Y-109108690D01*
X185625330Y-108875000D01*
X185014670Y-108875000D01*
X184450493Y-109108690D01*
X184018690Y-109540493D01*
X183785000Y-110104670D01*
X183785000Y-110715330D01*
X183830360Y-110824838D01*
X181115199Y-113540000D01*
X179796105Y-113540000D01*
X179609966Y-113090620D01*
X179009380Y-112490034D01*
X178224678Y-112165000D01*
X177375322Y-112165000D01*
X176590620Y-112490034D01*
X175990034Y-113090620D01*
X175665000Y-113875322D01*
X175665000Y-114724678D01*
X175990034Y-115509380D01*
X176590620Y-116109966D01*
X176638986Y-116130000D01*
X171494667Y-116130000D01*
X170996301Y-116067042D01*
X170571111Y-115898697D01*
X170201141Y-115629899D01*
X169909645Y-115277541D01*
X169714933Y-114863756D01*
X169622907Y-114381339D01*
X169620000Y-114288836D01*
X169620000Y-111490159D01*
X175669446Y-111490159D01*
X175755852Y-111746643D01*
X176329336Y-111956458D01*
X176939460Y-111930839D01*
X177384148Y-111746643D01*
X177470554Y-111490159D01*
X178169446Y-111490159D01*
X178255852Y-111746643D01*
X178829336Y-111956458D01*
X179439460Y-111930839D01*
X179884148Y-111746643D01*
X179970554Y-111490159D01*
X179070000Y-110589605D01*
X178169446Y-111490159D01*
X177470554Y-111490159D01*
X176570000Y-110589605D01*
X175669446Y-111490159D01*
X169620000Y-111490159D01*
X169620000Y-110169336D01*
X175023542Y-110169336D01*
X175049161Y-110779460D01*
X175233357Y-111224148D01*
X175489841Y-111310554D01*
X176390395Y-110410000D01*
X176749605Y-110410000D01*
X177650159Y-111310554D01*
X177820000Y-111253337D01*
X177989841Y-111310554D01*
X178890395Y-110410000D01*
X179249605Y-110410000D01*
X180150159Y-111310554D01*
X180406643Y-111224148D01*
X180616458Y-110650664D01*
X180590839Y-110040540D01*
X180406643Y-109595852D01*
X180150159Y-109509446D01*
X179249605Y-110410000D01*
X178890395Y-110410000D01*
X177989841Y-109509446D01*
X177820000Y-109566663D01*
X177650159Y-109509446D01*
X176749605Y-110410000D01*
X176390395Y-110410000D01*
X175489841Y-109509446D01*
X175233357Y-109595852D01*
X175023542Y-110169336D01*
X169620000Y-110169336D01*
X169620000Y-103015105D01*
X171115000Y-103015105D01*
X171115000Y-103784895D01*
X171409586Y-104496090D01*
X171953910Y-105040414D01*
X172665105Y-105335000D01*
X173434895Y-105335000D01*
X174146090Y-105040414D01*
X174690414Y-104496090D01*
X174985000Y-103784895D01*
X174985000Y-103015105D01*
X174690414Y-102303910D01*
X174146090Y-101759586D01*
X173434895Y-101465000D01*
X172665105Y-101465000D01*
X171953910Y-101759586D01*
X171409586Y-102303910D01*
X171115000Y-103015105D01*
X169620000Y-103015105D01*
X169620000Y-75015105D01*
X171115000Y-75015105D01*
X171115000Y-75784895D01*
X171409586Y-76496090D01*
X171953910Y-77040414D01*
X172665105Y-77335000D01*
X173434895Y-77335000D01*
X174146090Y-77040414D01*
X174690414Y-76496090D01*
X174957634Y-75850961D01*
X178548096Y-75850961D01*
X178670085Y-76073000D01*
X180213000Y-76073000D01*
X180213000Y-74765000D01*
X180467000Y-74765000D01*
X180467000Y-76073000D01*
X182009915Y-76073000D01*
X182131904Y-75850961D01*
X182114367Y-75768181D01*
X181844500Y-75275104D01*
X181406483Y-74922834D01*
X180867000Y-74765000D01*
X180467000Y-74765000D01*
X180213000Y-74765000D01*
X179813000Y-74765000D01*
X179273517Y-74922834D01*
X178835500Y-75275104D01*
X178565633Y-75768181D01*
X178548096Y-75850961D01*
X174957634Y-75850961D01*
X174985000Y-75784895D01*
X174985000Y-75015105D01*
X174690414Y-74303910D01*
X174146090Y-73759586D01*
X173434895Y-73465000D01*
X172665105Y-73465000D01*
X171953910Y-73759586D01*
X171409586Y-74303910D01*
X171115000Y-75015105D01*
X169620000Y-75015105D01*
X169620000Y-71195801D01*
X171553804Y-71195801D01*
X171553804Y-71420307D01*
X173279541Y-73146044D01*
X173512930Y-73242717D01*
X173765549Y-73242716D01*
X173998938Y-73146043D01*
X174805435Y-72339546D01*
X174805435Y-72115040D01*
X172720000Y-70029605D01*
X171553804Y-71195801D01*
X169620000Y-71195801D01*
X169620000Y-69486503D01*
X171149693Y-71016196D01*
X171374199Y-71016196D01*
X172540395Y-69850000D01*
X170454960Y-67764565D01*
X170230454Y-67764565D01*
X169620000Y-68375019D01*
X169620000Y-67360454D01*
X170634565Y-67360454D01*
X170634565Y-67584960D01*
X172720000Y-69670395D01*
X172734143Y-69656253D01*
X172913748Y-69835858D01*
X172899605Y-69850000D01*
X174985040Y-71935435D01*
X175209546Y-71935435D01*
X175271610Y-71873371D01*
X175168846Y-72390000D01*
X175272458Y-72910891D01*
X175567519Y-73352481D01*
X176009109Y-73647542D01*
X176398515Y-73725000D01*
X176661485Y-73725000D01*
X177050891Y-73647542D01*
X177492481Y-73352481D01*
X177771965Y-72934204D01*
X178223847Y-73386086D01*
X178824778Y-73635000D01*
X179475222Y-73635000D01*
X180076153Y-73386086D01*
X180400000Y-73062239D01*
X180723847Y-73386086D01*
X181324778Y-73635000D01*
X181975222Y-73635000D01*
X182576153Y-73386086D01*
X183036086Y-72926153D01*
X183122054Y-72718607D01*
X183450429Y-73046982D01*
X183904343Y-73235000D01*
X184395657Y-73235000D01*
X184849571Y-73046982D01*
X185177946Y-72718607D01*
X185263914Y-72926153D01*
X185723847Y-73386086D01*
X186324778Y-73635000D01*
X186975222Y-73635000D01*
X187576153Y-73386086D01*
X187900000Y-73062239D01*
X188223847Y-73386086D01*
X188824778Y-73635000D01*
X189475222Y-73635000D01*
X190076153Y-73386086D01*
X190528035Y-72934204D01*
X190807519Y-73352481D01*
X191249109Y-73647542D01*
X191638515Y-73725000D01*
X191901485Y-73725000D01*
X192290891Y-73647542D01*
X192732481Y-73352481D01*
X193027542Y-72910891D01*
X193131154Y-72390000D01*
X193076462Y-72115040D01*
X193494565Y-72115040D01*
X193494565Y-72339546D01*
X194301062Y-73146043D01*
X194534451Y-73242716D01*
X194787070Y-73242717D01*
X195020459Y-73146044D01*
X196746196Y-71420307D01*
X196746196Y-71195801D01*
X195580000Y-70029605D01*
X193494565Y-72115040D01*
X193076462Y-72115040D01*
X193028390Y-71873371D01*
X193090454Y-71935435D01*
X193314960Y-71935435D01*
X195400395Y-69850000D01*
X195386253Y-69835858D01*
X195565858Y-69656253D01*
X195580000Y-69670395D01*
X197665435Y-67584960D01*
X197665435Y-67360454D01*
X196858938Y-66553957D01*
X196625549Y-66457284D01*
X196524549Y-66457284D01*
X196495836Y-66312932D01*
X196214587Y-65892012D01*
X195295348Y-64972773D01*
X194874428Y-64691524D01*
X194377919Y-64592762D01*
X193881410Y-64691524D01*
X193460490Y-64972773D01*
X190702773Y-67730490D01*
X190421524Y-68151410D01*
X190322762Y-68647919D01*
X190410698Y-69090000D01*
X188874846Y-69090000D01*
X188799999Y-69075112D01*
X188725152Y-69090000D01*
X188725148Y-69090000D01*
X188503463Y-69134096D01*
X188252071Y-69302071D01*
X188209671Y-69365527D01*
X187165529Y-70409670D01*
X187165526Y-70409672D01*
X187141375Y-70433823D01*
X186975222Y-70365000D01*
X186324778Y-70365000D01*
X185723847Y-70613914D01*
X185263914Y-71073847D01*
X185177946Y-71281393D01*
X184849571Y-70953018D01*
X184395657Y-70765000D01*
X183904343Y-70765000D01*
X183450429Y-70953018D01*
X183122054Y-71281393D01*
X183036086Y-71073847D01*
X182576153Y-70613914D01*
X181975222Y-70365000D01*
X181324778Y-70365000D01*
X181158625Y-70433823D01*
X180090331Y-69365530D01*
X180047929Y-69302071D01*
X179796537Y-69134096D01*
X179574852Y-69090000D01*
X179574847Y-69090000D01*
X179500000Y-69075112D01*
X179425153Y-69090000D01*
X177889302Y-69090000D01*
X177977238Y-68647919D01*
X177878476Y-68151410D01*
X177597227Y-67730490D01*
X176621080Y-66754343D01*
X177915000Y-66754343D01*
X177915000Y-67245657D01*
X178103018Y-67699571D01*
X178450429Y-68046982D01*
X178904343Y-68235000D01*
X179395657Y-68235000D01*
X179594751Y-68152532D01*
X183177073Y-68152532D01*
X183275736Y-68419387D01*
X183885461Y-68645908D01*
X184535460Y-68621856D01*
X185024264Y-68419387D01*
X185122927Y-68152532D01*
X184150000Y-67179605D01*
X183177073Y-68152532D01*
X179594751Y-68152532D01*
X179849571Y-68046982D01*
X180196982Y-67699571D01*
X180385000Y-67245657D01*
X180385000Y-66754343D01*
X180377179Y-66735461D01*
X182504092Y-66735461D01*
X182528144Y-67385460D01*
X182730613Y-67874264D01*
X182997468Y-67972927D01*
X183970395Y-67000000D01*
X184329605Y-67000000D01*
X185302532Y-67972927D01*
X185569387Y-67874264D01*
X185795908Y-67264539D01*
X185777030Y-66754343D01*
X187915000Y-66754343D01*
X187915000Y-67245657D01*
X188103018Y-67699571D01*
X188450429Y-68046982D01*
X188904343Y-68235000D01*
X189395657Y-68235000D01*
X189849571Y-68046982D01*
X190196982Y-67699571D01*
X190385000Y-67245657D01*
X190385000Y-66754343D01*
X190196982Y-66300429D01*
X189849571Y-65953018D01*
X189395657Y-65765000D01*
X188904343Y-65765000D01*
X188450429Y-65953018D01*
X188103018Y-66300429D01*
X187915000Y-66754343D01*
X185777030Y-66754343D01*
X185771856Y-66614540D01*
X185569387Y-66125736D01*
X185302532Y-66027073D01*
X184329605Y-67000000D01*
X183970395Y-67000000D01*
X182997468Y-66027073D01*
X182730613Y-66125736D01*
X182504092Y-66735461D01*
X180377179Y-66735461D01*
X180196982Y-66300429D01*
X179849571Y-65953018D01*
X179594752Y-65847468D01*
X183177073Y-65847468D01*
X184150000Y-66820395D01*
X185122927Y-65847468D01*
X185024264Y-65580613D01*
X184414539Y-65354092D01*
X183764540Y-65378144D01*
X183275736Y-65580613D01*
X183177073Y-65847468D01*
X179594752Y-65847468D01*
X179395657Y-65765000D01*
X178904343Y-65765000D01*
X178450429Y-65953018D01*
X178103018Y-66300429D01*
X177915000Y-66754343D01*
X176621080Y-66754343D01*
X174839510Y-64972773D01*
X174418590Y-64691524D01*
X173922081Y-64592762D01*
X173425572Y-64691524D01*
X173004652Y-64972773D01*
X172085413Y-65892012D01*
X171804164Y-66312932D01*
X171775451Y-66457284D01*
X171674451Y-66457284D01*
X171441062Y-66553957D01*
X170634565Y-67360454D01*
X169620000Y-67360454D01*
X169620000Y-66084666D01*
X169682958Y-65586302D01*
X169851305Y-65161107D01*
X170120101Y-64791142D01*
X170472462Y-64499644D01*
X170886244Y-64304933D01*
X171368662Y-64212907D01*
X171461164Y-64210000D01*
X177933368Y-64210000D01*
X177915000Y-64254343D01*
X177915000Y-64254343D01*
G37*
X177915000Y-64254343D02*
X177915000Y-64745657D01*
X178103018Y-65199571D01*
X178450429Y-65546982D01*
X178904343Y-65735000D01*
X179395657Y-65735000D01*
X179849571Y-65546982D01*
X180196982Y-65199571D01*
X180385000Y-64745657D01*
X180385000Y-64254343D01*
X180366632Y-64210000D01*
X187933368Y-64210000D01*
X187915000Y-64254343D01*
X187915000Y-64745657D01*
X188103018Y-65199571D01*
X188450429Y-65546982D01*
X188904343Y-65735000D01*
X189395657Y-65735000D01*
X189849571Y-65546982D01*
X190196982Y-65199571D01*
X190385000Y-64745657D01*
X190385000Y-64254343D01*
X190366632Y-64210000D01*
X196805334Y-64210000D01*
X197303698Y-64272958D01*
X197728893Y-64441305D01*
X198098858Y-64710101D01*
X198390356Y-65062462D01*
X198585067Y-65476244D01*
X198677093Y-65958662D01*
X198680001Y-66051195D01*
X198680001Y-68375020D01*
X198069546Y-67764565D01*
X197845040Y-67764565D01*
X195759605Y-69850000D01*
X196925801Y-71016196D01*
X197150307Y-71016196D01*
X198680001Y-69486502D01*
X198680001Y-89640137D01*
X198667929Y-89622071D01*
X198604476Y-89579673D01*
X196340000Y-87315199D01*
X196340000Y-77544846D01*
X196354888Y-77469999D01*
X196340000Y-77395152D01*
X196340000Y-77395148D01*
X196295904Y-77173463D01*
X196127929Y-76922071D01*
X196064473Y-76879671D01*
X194900331Y-75715530D01*
X194857929Y-75652071D01*
X194606537Y-75484096D01*
X194384852Y-75440000D01*
X194384847Y-75440000D01*
X194310000Y-75425112D01*
X194235153Y-75440000D01*
X189578043Y-75440000D01*
X189394577Y-75165423D01*
X188919909Y-74848260D01*
X188501333Y-74765000D01*
X187418667Y-74765000D01*
X187000091Y-74848260D01*
X186525423Y-75165423D01*
X186208260Y-75640091D01*
X186096887Y-76200000D01*
X186208260Y-76759909D01*
X186525423Y-77234577D01*
X186881499Y-77472499D01*
X186455500Y-77815104D01*
X186185633Y-78308181D01*
X186168096Y-78390961D01*
X186290085Y-78613000D01*
X187833000Y-78613000D01*
X187833000Y-78593000D01*
X188087000Y-78593000D01*
X188087000Y-78613000D01*
X189629915Y-78613000D01*
X189751904Y-78390961D01*
X189734367Y-78308181D01*
X189464500Y-77815104D01*
X189038501Y-77472499D01*
X189394577Y-77234577D01*
X189578043Y-76960000D01*
X193995199Y-76960000D01*
X194440198Y-77405000D01*
X194178515Y-77405000D01*
X193789109Y-77482458D01*
X193347519Y-77777519D01*
X193212226Y-77980000D01*
X193114846Y-77980000D01*
X193039999Y-77965112D01*
X192965152Y-77980000D01*
X192965148Y-77980000D01*
X192743463Y-78024096D01*
X192492071Y-78192071D01*
X192449671Y-78255527D01*
X192030198Y-78675000D01*
X191504452Y-78675000D01*
X191013783Y-78878242D01*
X190638242Y-79253783D01*
X190435000Y-79744452D01*
X190435000Y-80270199D01*
X190185199Y-80520000D01*
X189578043Y-80520000D01*
X189394577Y-80245423D01*
X189038501Y-80007501D01*
X189464500Y-79664896D01*
X189734367Y-79171819D01*
X189751904Y-79089039D01*
X189629915Y-78867000D01*
X188087000Y-78867000D01*
X188087000Y-78887000D01*
X187833000Y-78887000D01*
X187833000Y-78867000D01*
X186290085Y-78867000D01*
X186168096Y-79089039D01*
X186185633Y-79171819D01*
X186455500Y-79664896D01*
X186881499Y-80007501D01*
X186525423Y-80245423D01*
X186208260Y-80720091D01*
X186096887Y-81280000D01*
X186208260Y-81839909D01*
X186525423Y-82314577D01*
X186646106Y-82395215D01*
X186512235Y-82421843D01*
X186302191Y-82562191D01*
X186161843Y-82772235D01*
X186112560Y-83020000D01*
X186112560Y-83316237D01*
X186099671Y-83335527D01*
X184935528Y-84499671D01*
X184872072Y-84542071D01*
X184829672Y-84605527D01*
X184829671Y-84605528D01*
X184704097Y-84793463D01*
X184645112Y-85090000D01*
X184660001Y-85164851D01*
X184660000Y-86391570D01*
X184607138Y-86413466D01*
X184203466Y-86817138D01*
X184150000Y-86946216D01*
X184096534Y-86817138D01*
X183692862Y-86413466D01*
X183640000Y-86391570D01*
X183640000Y-82624846D01*
X183654888Y-82549999D01*
X183640000Y-82475152D01*
X183640000Y-82475148D01*
X183595904Y-82253463D01*
X183427929Y-82002071D01*
X183364473Y-81959671D01*
X182200331Y-80795530D01*
X182157929Y-80732071D01*
X182052815Y-80661836D01*
X181774577Y-80245423D01*
X181422242Y-80010000D01*
X181774577Y-79774577D01*
X182091740Y-79299909D01*
X182203113Y-78740000D01*
X182091740Y-78180091D01*
X181774577Y-77705423D01*
X181418501Y-77467501D01*
X181844500Y-77124896D01*
X182114367Y-76631819D01*
X182131904Y-76549039D01*
X182009915Y-76327000D01*
X180467000Y-76327000D01*
X180467000Y-76347000D01*
X180213000Y-76347000D01*
X180213000Y-76327000D01*
X178670085Y-76327000D01*
X178548096Y-76549039D01*
X178565633Y-76631819D01*
X178835500Y-77124896D01*
X179261499Y-77467501D01*
X178905423Y-77705423D01*
X178721957Y-77980000D01*
X177874846Y-77980000D01*
X177799999Y-77965112D01*
X177725152Y-77980000D01*
X177725148Y-77980000D01*
X177503463Y-78024096D01*
X177252071Y-78192071D01*
X177209671Y-78255527D01*
X176790198Y-78675000D01*
X176269801Y-78675000D01*
X175850331Y-78255530D01*
X175807929Y-78192071D01*
X175556537Y-78024096D01*
X175334852Y-77980000D01*
X175334847Y-77980000D01*
X175260000Y-77965112D01*
X175185153Y-77980000D01*
X175087774Y-77980000D01*
X174952481Y-77777519D01*
X174510891Y-77482458D01*
X174121485Y-77405000D01*
X173858515Y-77405000D01*
X173469109Y-77482458D01*
X173027519Y-77777519D01*
X172732458Y-78219109D01*
X172628846Y-78740000D01*
X172732458Y-79260891D01*
X173027519Y-79702481D01*
X173469109Y-79997542D01*
X173858515Y-80075000D01*
X174121485Y-80075000D01*
X174510891Y-79997542D01*
X174952481Y-79702481D01*
X175030667Y-79585468D01*
X175195000Y-79749801D01*
X175195000Y-80270199D01*
X174775530Y-80689669D01*
X174712071Y-80732071D01*
X174544096Y-80983464D01*
X174500000Y-81205149D01*
X174500000Y-81205153D01*
X174485112Y-81280000D01*
X174500000Y-81354847D01*
X174500001Y-83705148D01*
X174485112Y-83780000D01*
X174544097Y-84076537D01*
X174660003Y-84250002D01*
X174712072Y-84327929D01*
X174775528Y-84370329D01*
X175116897Y-84711698D01*
X175095000Y-84764561D01*
X175095000Y-85335439D01*
X175204585Y-85600000D01*
X175117975Y-85600000D01*
X174746217Y-85228242D01*
X174255548Y-85025000D01*
X173724452Y-85025000D01*
X173233783Y-85228242D01*
X172858242Y-85603783D01*
X172655000Y-86094452D01*
X172655000Y-86625548D01*
X172858242Y-87116217D01*
X173233783Y-87491758D01*
X173724452Y-87695000D01*
X174255548Y-87695000D01*
X174468338Y-87606859D01*
X172235530Y-89839669D01*
X172172071Y-89882071D01*
X172004096Y-90133464D01*
X171960000Y-90355149D01*
X171960000Y-90355153D01*
X171945112Y-90430000D01*
X171960000Y-90504847D01*
X171960001Y-92773774D01*
X171960000Y-92773779D01*
X171960000Y-92852025D01*
X171588242Y-93223783D01*
X171385000Y-93714452D01*
X171385000Y-94245548D01*
X171588242Y-94736217D01*
X171960001Y-95107976D01*
X171960001Y-95175149D01*
X171945112Y-95250000D01*
X171960001Y-95324852D01*
X172004097Y-95546537D01*
X172172072Y-95797929D01*
X172235528Y-95840329D01*
X173770360Y-97375162D01*
X173725000Y-97484670D01*
X173725000Y-98095330D01*
X173958690Y-98659507D01*
X174390493Y-99091310D01*
X174954670Y-99325000D01*
X175565330Y-99325000D01*
X175674838Y-99279640D01*
X176709203Y-100314006D01*
X176592191Y-100392191D01*
X176451843Y-100602235D01*
X176402560Y-100850000D01*
X176402560Y-102350000D01*
X176451843Y-102597765D01*
X176592191Y-102807809D01*
X176802235Y-102948157D01*
X177050000Y-102997440D01*
X178550000Y-102997440D01*
X178797765Y-102948157D01*
X179007809Y-102807809D01*
X179148157Y-102597765D01*
X179197440Y-102350000D01*
X179197440Y-100850000D01*
X179148157Y-100602235D01*
X179007809Y-100392191D01*
X178797765Y-100251843D01*
X178550000Y-100202560D01*
X178549540Y-100202560D01*
X178515904Y-100033463D01*
X178474102Y-99970902D01*
X178390329Y-99845526D01*
X178390327Y-99845524D01*
X178347929Y-99782071D01*
X178284476Y-99739673D01*
X177882243Y-99337440D01*
X178700000Y-99337440D01*
X178947765Y-99288157D01*
X179157809Y-99147809D01*
X179298157Y-98937765D01*
X179347440Y-98690000D01*
X179347440Y-98685415D01*
X179583783Y-98921758D01*
X180074452Y-99125000D01*
X180605548Y-99125000D01*
X181096217Y-98921758D01*
X181471758Y-98546217D01*
X181675000Y-98055548D01*
X181675000Y-97524452D01*
X181471758Y-97033783D01*
X181096217Y-96658242D01*
X180605548Y-96455000D01*
X180074452Y-96455000D01*
X179583783Y-96658242D01*
X179347440Y-96894585D01*
X179347440Y-96890000D01*
X179298157Y-96642235D01*
X179157809Y-96432191D01*
X178947765Y-96291843D01*
X178700000Y-96242560D01*
X176900000Y-96242560D01*
X176652235Y-96291843D01*
X176442191Y-96432191D01*
X176301843Y-96642235D01*
X176298725Y-96657908D01*
X176129507Y-96488690D01*
X175565330Y-96255000D01*
X174954670Y-96255000D01*
X174845162Y-96300360D01*
X173566388Y-95021587D01*
X173851758Y-94736217D01*
X174026924Y-94313329D01*
X179047284Y-94313329D01*
X179190203Y-94658396D01*
X179537337Y-95046764D01*
X180006669Y-95272727D01*
X180213000Y-95150206D01*
X180213000Y-94107000D01*
X180467000Y-94107000D01*
X180467000Y-95150206D01*
X180673331Y-95272727D01*
X181142663Y-95046764D01*
X181489797Y-94658396D01*
X181632716Y-94313329D01*
X181509374Y-94107000D01*
X180467000Y-94107000D01*
X180213000Y-94107000D01*
X179170626Y-94107000D01*
X179047284Y-94313329D01*
X174026924Y-94313329D01*
X174055000Y-94245548D01*
X174055000Y-93714452D01*
X174026925Y-93646671D01*
X179047284Y-93646671D01*
X179170626Y-93853000D01*
X180213000Y-93853000D01*
X180213000Y-92809794D01*
X180467000Y-92809794D01*
X180467000Y-93853000D01*
X181509374Y-93853000D01*
X181632716Y-93646671D01*
X181489797Y-93301604D01*
X181142663Y-92913236D01*
X180673331Y-92687273D01*
X180467000Y-92809794D01*
X180213000Y-92809794D01*
X180006669Y-92687273D01*
X179537337Y-92913236D01*
X179190203Y-93301604D01*
X179047284Y-93646671D01*
X174026925Y-93646671D01*
X173851758Y-93223783D01*
X173480000Y-92852025D01*
X173480000Y-91177745D01*
X175701861Y-91177745D01*
X175775995Y-91423864D01*
X176313223Y-91616965D01*
X176883454Y-91589778D01*
X177284005Y-91423864D01*
X177358139Y-91177745D01*
X177318140Y-91137745D01*
X179511861Y-91137745D01*
X179585995Y-91383864D01*
X180123223Y-91576965D01*
X180693454Y-91549778D01*
X181094005Y-91383864D01*
X181168139Y-91137745D01*
X180340000Y-90309605D01*
X179511861Y-91137745D01*
X177318140Y-91137745D01*
X176530000Y-90349605D01*
X175701861Y-91177745D01*
X173480000Y-91177745D01*
X173480000Y-90744801D01*
X174271578Y-89953223D01*
X175083035Y-89953223D01*
X175110222Y-90523454D01*
X175276136Y-90924005D01*
X175522255Y-90998139D01*
X176350395Y-90170000D01*
X176709605Y-90170000D01*
X177537745Y-90998139D01*
X177783864Y-90924005D01*
X177976965Y-90386777D01*
X177954388Y-89913223D01*
X178893035Y-89913223D01*
X178920222Y-90483454D01*
X179086136Y-90884005D01*
X179332255Y-90958139D01*
X180160395Y-90130000D01*
X179332255Y-89301861D01*
X179086136Y-89375995D01*
X178893035Y-89913223D01*
X177954388Y-89913223D01*
X177949778Y-89816546D01*
X177783864Y-89415995D01*
X177537745Y-89341861D01*
X176709605Y-90170000D01*
X176350395Y-90170000D01*
X175522255Y-89341861D01*
X175276136Y-89415995D01*
X175083035Y-89953223D01*
X174271578Y-89953223D01*
X175287059Y-88937744D01*
X175482235Y-89068157D01*
X175716187Y-89114693D01*
X175701861Y-89162255D01*
X176530000Y-89990395D01*
X177358139Y-89162255D01*
X177343813Y-89114693D01*
X177577765Y-89068157D01*
X177787809Y-88927809D01*
X177928157Y-88717765D01*
X177977440Y-88470000D01*
X177977440Y-88390000D01*
X179101570Y-88390000D01*
X179123466Y-88442862D01*
X179527138Y-88846534D01*
X179592299Y-88873525D01*
X179585995Y-88876136D01*
X179511861Y-89122255D01*
X180340000Y-89950395D01*
X181168139Y-89122255D01*
X181094005Y-88876136D01*
X181087254Y-88873710D01*
X181152862Y-88846534D01*
X181556534Y-88442862D01*
X181610000Y-88313784D01*
X181663466Y-88442862D01*
X182067138Y-88846534D01*
X182147932Y-88880000D01*
X182067138Y-88913466D01*
X181663466Y-89317138D01*
X181616475Y-89430583D01*
X181593864Y-89375995D01*
X181347745Y-89301861D01*
X180519605Y-90130000D01*
X181347745Y-90958139D01*
X181593864Y-90884005D01*
X181614874Y-90825552D01*
X181663466Y-90942862D01*
X182067138Y-91346534D01*
X182120001Y-91368431D01*
X182120000Y-102555198D01*
X181255199Y-103420000D01*
X177874848Y-103420000D01*
X177800000Y-103405112D01*
X177725152Y-103420000D01*
X177725148Y-103420000D01*
X177551605Y-103454520D01*
X177503462Y-103464096D01*
X177375391Y-103549671D01*
X177252071Y-103632071D01*
X177209671Y-103695527D01*
X176984838Y-103920360D01*
X176875330Y-103875000D01*
X176264670Y-103875000D01*
X175700493Y-104108690D01*
X175268690Y-104540493D01*
X175035000Y-105104670D01*
X175035000Y-105715330D01*
X175268690Y-106279507D01*
X175649183Y-106660000D01*
X175268690Y-107040493D01*
X175035000Y-107604670D01*
X175035000Y-108215330D01*
X175268690Y-108779507D01*
X175700493Y-109211310D01*
X175708290Y-109214539D01*
X175669446Y-109329841D01*
X176570000Y-110230395D01*
X177470554Y-109329841D01*
X177431710Y-109214539D01*
X177439507Y-109211310D01*
X177820000Y-108830817D01*
X178200493Y-109211310D01*
X178208290Y-109214539D01*
X178169446Y-109329841D01*
X179070000Y-110230395D01*
X179970554Y-109329841D01*
X179931710Y-109214539D01*
X179939507Y-109211310D01*
X180371310Y-108779507D01*
X180416669Y-108670000D01*
X188075199Y-108670000D01*
X189323823Y-109918625D01*
X189255000Y-110084778D01*
X189255000Y-110735222D01*
X189503914Y-111336153D01*
X189963847Y-111796086D01*
X190564778Y-112045000D01*
X191215222Y-112045000D01*
X191816153Y-111796086D01*
X192276086Y-111336153D01*
X192525000Y-110735222D01*
X192525000Y-110084778D01*
X192276086Y-109483847D01*
X191952239Y-109160000D01*
X192276086Y-108836153D01*
X192525000Y-108235222D01*
X192525000Y-107584778D01*
X192276086Y-106983847D01*
X191816153Y-106523914D01*
X191608607Y-106437946D01*
X191936982Y-106109571D01*
X192125000Y-105655657D01*
X192125000Y-105164343D01*
X192117179Y-105145461D01*
X194244092Y-105145461D01*
X194268144Y-105795460D01*
X194470613Y-106284264D01*
X194737468Y-106382927D01*
X195710395Y-105410000D01*
X194737468Y-104437073D01*
X194470613Y-104535736D01*
X194244092Y-105145461D01*
X192117179Y-105145461D01*
X191936982Y-104710429D01*
X191608607Y-104382054D01*
X191816153Y-104296086D01*
X192276086Y-103836153D01*
X192525000Y-103235222D01*
X192525000Y-102584778D01*
X192276086Y-101983847D01*
X191952239Y-101660000D01*
X192276086Y-101336153D01*
X192525000Y-100735222D01*
X192525000Y-100084778D01*
X192276086Y-99483847D01*
X191816153Y-99023914D01*
X191215222Y-98775000D01*
X190564778Y-98775000D01*
X189963847Y-99023914D01*
X189503914Y-99483847D01*
X189255000Y-100084778D01*
X189255000Y-100500199D01*
X188745528Y-101009671D01*
X188682072Y-101052071D01*
X188639672Y-101115527D01*
X188639671Y-101115528D01*
X188514097Y-101303463D01*
X188455112Y-101600000D01*
X188470001Y-101674852D01*
X188470000Y-103825197D01*
X186855000Y-105440198D01*
X186855000Y-105104670D01*
X186621310Y-104540493D01*
X186189507Y-104108690D01*
X186180000Y-104104752D01*
X186180000Y-102757909D01*
X186418529Y-102598529D01*
X186724641Y-102140400D01*
X186832133Y-101600000D01*
X186724641Y-101059600D01*
X186418529Y-100601471D01*
X185960400Y-100295359D01*
X185556407Y-100215000D01*
X185339802Y-100215000D01*
X185904473Y-99650329D01*
X185967929Y-99607929D01*
X186135904Y-99356537D01*
X186180000Y-99134852D01*
X186180000Y-99134848D01*
X186194888Y-99060001D01*
X186180000Y-98985154D01*
X186180000Y-94915275D01*
X187204331Y-94915275D01*
X187266169Y-95151042D01*
X187767122Y-95327419D01*
X188297440Y-95298664D01*
X188653831Y-95151042D01*
X188715669Y-94915275D01*
X187960000Y-94159605D01*
X187204331Y-94915275D01*
X186180000Y-94915275D01*
X186180000Y-93787122D01*
X186612581Y-93787122D01*
X186641336Y-94317440D01*
X186788958Y-94673831D01*
X187024725Y-94735669D01*
X187780395Y-93980000D01*
X188139605Y-93980000D01*
X188895275Y-94735669D01*
X189131042Y-94673831D01*
X189307419Y-94172878D01*
X189278664Y-93642560D01*
X189131042Y-93286169D01*
X188895275Y-93224331D01*
X188139605Y-93980000D01*
X187780395Y-93980000D01*
X187024725Y-93224331D01*
X186788958Y-93286169D01*
X186612581Y-93787122D01*
X186180000Y-93787122D01*
X186180000Y-93044725D01*
X187204331Y-93044725D01*
X187960000Y-93800395D01*
X188715669Y-93044725D01*
X188653831Y-92808958D01*
X188152878Y-92632581D01*
X187622560Y-92661336D01*
X187266169Y-92808958D01*
X187204331Y-93044725D01*
X186180000Y-93044725D01*
X186180000Y-91368430D01*
X186232862Y-91346534D01*
X186441651Y-91137745D01*
X187131861Y-91137745D01*
X187205995Y-91383864D01*
X187743223Y-91576965D01*
X188313454Y-91549778D01*
X188714005Y-91383864D01*
X188788139Y-91137745D01*
X187960000Y-90309605D01*
X187131861Y-91137745D01*
X186441651Y-91137745D01*
X186636534Y-90942862D01*
X186683525Y-90829417D01*
X186706136Y-90884005D01*
X186952255Y-90958139D01*
X187780395Y-90130000D01*
X188139605Y-90130000D01*
X188967745Y-90958139D01*
X189213864Y-90884005D01*
X189367795Y-90455750D01*
X190335000Y-90455750D01*
X190335000Y-91096309D01*
X190431673Y-91329698D01*
X190610301Y-91508327D01*
X190843690Y-91605000D01*
X191484250Y-91605000D01*
X191643000Y-91446250D01*
X191643000Y-90297000D01*
X191897000Y-90297000D01*
X191897000Y-91446250D01*
X192055750Y-91605000D01*
X192696310Y-91605000D01*
X192929699Y-91508327D01*
X193108327Y-91329698D01*
X193205000Y-91096309D01*
X193205000Y-90455750D01*
X193046250Y-90297000D01*
X191897000Y-90297000D01*
X191643000Y-90297000D01*
X190493750Y-90297000D01*
X190335000Y-90455750D01*
X189367795Y-90455750D01*
X189406965Y-90346777D01*
X189379778Y-89776546D01*
X189213864Y-89375995D01*
X188967745Y-89301861D01*
X188139605Y-90130000D01*
X187780395Y-90130000D01*
X186952255Y-89301861D01*
X186706136Y-89375995D01*
X186685126Y-89434448D01*
X186636534Y-89317138D01*
X186232862Y-88913466D01*
X186152068Y-88880000D01*
X186232862Y-88846534D01*
X186636534Y-88442862D01*
X186690000Y-88313784D01*
X186743466Y-88442862D01*
X187147138Y-88846534D01*
X187212299Y-88873525D01*
X187205995Y-88876136D01*
X187131861Y-89122255D01*
X187960000Y-89950395D01*
X188788139Y-89122255D01*
X188714005Y-88876136D01*
X188707254Y-88873710D01*
X188772862Y-88846534D01*
X189176534Y-88442862D01*
X189198430Y-88390000D01*
X190515001Y-88390000D01*
X190553466Y-88482862D01*
X190816759Y-88746155D01*
X190610301Y-88831673D01*
X190431673Y-89010302D01*
X190335000Y-89243691D01*
X190335000Y-89884250D01*
X190493750Y-90043000D01*
X191643000Y-90043000D01*
X191643000Y-90023000D01*
X191897000Y-90023000D01*
X191897000Y-90043000D01*
X193046250Y-90043000D01*
X193205000Y-89884250D01*
X193205000Y-89243691D01*
X193108327Y-89010302D01*
X192929699Y-88831673D01*
X192723241Y-88746155D01*
X192986534Y-88482862D01*
X193008430Y-88430000D01*
X194346048Y-88430000D01*
X194153910Y-88509586D01*
X193609586Y-89053910D01*
X193315000Y-89765105D01*
X193315000Y-90534895D01*
X193609586Y-91246090D01*
X194153910Y-91790414D01*
X194865105Y-92085000D01*
X195634895Y-92085000D01*
X196346090Y-91790414D01*
X196890414Y-91246090D01*
X197185000Y-90534895D01*
X197185000Y-90309803D01*
X197360001Y-90484804D01*
X197360000Y-92784851D01*
X197360001Y-92784856D01*
X197360001Y-93220000D01*
X196677774Y-93220000D01*
X196542481Y-93017519D01*
X196100891Y-92722458D01*
X195711485Y-92645000D01*
X195448515Y-92645000D01*
X195059109Y-92722458D01*
X194617519Y-93017519D01*
X194322458Y-93459109D01*
X194218846Y-93980000D01*
X194266355Y-94218843D01*
X191455199Y-97030000D01*
X189057774Y-97030000D01*
X188922481Y-96827519D01*
X188480891Y-96532458D01*
X188091485Y-96455000D01*
X187828515Y-96455000D01*
X187439109Y-96532458D01*
X186997519Y-96827519D01*
X186702458Y-97269109D01*
X186598846Y-97790000D01*
X186702458Y-98310891D01*
X186997519Y-98752481D01*
X187439109Y-99047542D01*
X187828515Y-99125000D01*
X188091485Y-99125000D01*
X188480891Y-99047542D01*
X188922481Y-98752481D01*
X189057774Y-98550000D01*
X191695153Y-98550000D01*
X191770000Y-98564888D01*
X191844847Y-98550000D01*
X191844852Y-98550000D01*
X192066537Y-98505904D01*
X192317929Y-98337929D01*
X192360331Y-98274470D01*
X195341157Y-95293645D01*
X195448515Y-95315000D01*
X195711485Y-95315000D01*
X196100891Y-95237542D01*
X196542481Y-94942481D01*
X196677774Y-94740000D01*
X197360001Y-94740000D01*
X197360000Y-97475198D01*
X196730529Y-98104670D01*
X196667073Y-98147070D01*
X196624673Y-98210526D01*
X196624672Y-98210527D01*
X196499098Y-98398462D01*
X196440113Y-98694999D01*
X196455002Y-98769851D01*
X196455002Y-99307277D01*
X196135657Y-99175000D01*
X195644343Y-99175000D01*
X195190429Y-99363018D01*
X194843018Y-99710429D01*
X194655000Y-100164343D01*
X194655000Y-100655657D01*
X194843018Y-101109571D01*
X195190429Y-101456982D01*
X195644343Y-101645000D01*
X196135657Y-101645000D01*
X196455002Y-101512723D01*
X196455001Y-103875718D01*
X196154539Y-103764092D01*
X195504540Y-103788144D01*
X195015736Y-103990613D01*
X194917073Y-104257468D01*
X195890000Y-105230395D01*
X195904143Y-105216253D01*
X196083748Y-105395858D01*
X196069605Y-105410000D01*
X196083748Y-105424143D01*
X195904143Y-105603748D01*
X195890000Y-105589605D01*
X194917073Y-106562532D01*
X195015736Y-106829387D01*
X195625461Y-107055908D01*
X196275460Y-107031856D01*
X196455001Y-106957488D01*
X196455001Y-107270196D01*
X191374059Y-112351140D01*
X190924678Y-112165000D01*
X190075322Y-112165000D01*
X189290620Y-112490034D01*
X188690034Y-113090620D01*
X188365000Y-113875322D01*
X188365000Y-114724678D01*
X188690034Y-115509380D01*
X189290620Y-116109966D01*
X189338986Y-116130000D01*
X178961014Y-116130000D01*
X179009380Y-116109966D01*
X179609966Y-115509380D01*
X179796105Y-115060000D01*
X181355153Y-115060000D01*
X181430000Y-115074888D01*
X181504847Y-115060000D01*
X181504852Y-115060000D01*
X181726537Y-115015904D01*
X181977929Y-114847929D01*
X182020331Y-114784470D01*
X184905162Y-111899640D01*
X185014670Y-111945000D01*
X185625330Y-111945000D01*
X186189507Y-111711310D01*
X186621310Y-111279507D01*
X186855000Y-110715330D01*
X186855000Y-110104670D01*
X186621310Y-109540493D01*
X186189507Y-109108690D01*
X185625330Y-108875000D01*
X185014670Y-108875000D01*
X184450493Y-109108690D01*
X184018690Y-109540493D01*
X183785000Y-110104670D01*
X183785000Y-110715330D01*
X183830360Y-110824838D01*
X181115199Y-113540000D01*
X179796105Y-113540000D01*
X179609966Y-113090620D01*
X179009380Y-112490034D01*
X178224678Y-112165000D01*
X177375322Y-112165000D01*
X176590620Y-112490034D01*
X175990034Y-113090620D01*
X175665000Y-113875322D01*
X175665000Y-114724678D01*
X175990034Y-115509380D01*
X176590620Y-116109966D01*
X176638986Y-116130000D01*
X171494667Y-116130000D01*
X170996301Y-116067042D01*
X170571111Y-115898697D01*
X170201141Y-115629899D01*
X169909645Y-115277541D01*
X169714933Y-114863756D01*
X169622907Y-114381339D01*
X169620000Y-114288836D01*
X169620000Y-111490159D01*
X175669446Y-111490159D01*
X175755852Y-111746643D01*
X176329336Y-111956458D01*
X176939460Y-111930839D01*
X177384148Y-111746643D01*
X177470554Y-111490159D01*
X178169446Y-111490159D01*
X178255852Y-111746643D01*
X178829336Y-111956458D01*
X179439460Y-111930839D01*
X179884148Y-111746643D01*
X179970554Y-111490159D01*
X179070000Y-110589605D01*
X178169446Y-111490159D01*
X177470554Y-111490159D01*
X176570000Y-110589605D01*
X175669446Y-111490159D01*
X169620000Y-111490159D01*
X169620000Y-110169336D01*
X175023542Y-110169336D01*
X175049161Y-110779460D01*
X175233357Y-111224148D01*
X175489841Y-111310554D01*
X176390395Y-110410000D01*
X176749605Y-110410000D01*
X177650159Y-111310554D01*
X177820000Y-111253337D01*
X177989841Y-111310554D01*
X178890395Y-110410000D01*
X179249605Y-110410000D01*
X180150159Y-111310554D01*
X180406643Y-111224148D01*
X180616458Y-110650664D01*
X180590839Y-110040540D01*
X180406643Y-109595852D01*
X180150159Y-109509446D01*
X179249605Y-110410000D01*
X178890395Y-110410000D01*
X177989841Y-109509446D01*
X177820000Y-109566663D01*
X177650159Y-109509446D01*
X176749605Y-110410000D01*
X176390395Y-110410000D01*
X175489841Y-109509446D01*
X175233357Y-109595852D01*
X175023542Y-110169336D01*
X169620000Y-110169336D01*
X169620000Y-103015105D01*
X171115000Y-103015105D01*
X171115000Y-103784895D01*
X171409586Y-104496090D01*
X171953910Y-105040414D01*
X172665105Y-105335000D01*
X173434895Y-105335000D01*
X174146090Y-105040414D01*
X174690414Y-104496090D01*
X174985000Y-103784895D01*
X174985000Y-103015105D01*
X174690414Y-102303910D01*
X174146090Y-101759586D01*
X173434895Y-101465000D01*
X172665105Y-101465000D01*
X171953910Y-101759586D01*
X171409586Y-102303910D01*
X171115000Y-103015105D01*
X169620000Y-103015105D01*
X169620000Y-75015105D01*
X171115000Y-75015105D01*
X171115000Y-75784895D01*
X171409586Y-76496090D01*
X171953910Y-77040414D01*
X172665105Y-77335000D01*
X173434895Y-77335000D01*
X174146090Y-77040414D01*
X174690414Y-76496090D01*
X174957634Y-75850961D01*
X178548096Y-75850961D01*
X178670085Y-76073000D01*
X180213000Y-76073000D01*
X180213000Y-74765000D01*
X180467000Y-74765000D01*
X180467000Y-76073000D01*
X182009915Y-76073000D01*
X182131904Y-75850961D01*
X182114367Y-75768181D01*
X181844500Y-75275104D01*
X181406483Y-74922834D01*
X180867000Y-74765000D01*
X180467000Y-74765000D01*
X180213000Y-74765000D01*
X179813000Y-74765000D01*
X179273517Y-74922834D01*
X178835500Y-75275104D01*
X178565633Y-75768181D01*
X178548096Y-75850961D01*
X174957634Y-75850961D01*
X174985000Y-75784895D01*
X174985000Y-75015105D01*
X174690414Y-74303910D01*
X174146090Y-73759586D01*
X173434895Y-73465000D01*
X172665105Y-73465000D01*
X171953910Y-73759586D01*
X171409586Y-74303910D01*
X171115000Y-75015105D01*
X169620000Y-75015105D01*
X169620000Y-71195801D01*
X171553804Y-71195801D01*
X171553804Y-71420307D01*
X173279541Y-73146044D01*
X173512930Y-73242717D01*
X173765549Y-73242716D01*
X173998938Y-73146043D01*
X174805435Y-72339546D01*
X174805435Y-72115040D01*
X172720000Y-70029605D01*
X171553804Y-71195801D01*
X169620000Y-71195801D01*
X169620000Y-69486503D01*
X171149693Y-71016196D01*
X171374199Y-71016196D01*
X172540395Y-69850000D01*
X170454960Y-67764565D01*
X170230454Y-67764565D01*
X169620000Y-68375019D01*
X169620000Y-67360454D01*
X170634565Y-67360454D01*
X170634565Y-67584960D01*
X172720000Y-69670395D01*
X172734143Y-69656253D01*
X172913748Y-69835858D01*
X172899605Y-69850000D01*
X174985040Y-71935435D01*
X175209546Y-71935435D01*
X175271610Y-71873371D01*
X175168846Y-72390000D01*
X175272458Y-72910891D01*
X175567519Y-73352481D01*
X176009109Y-73647542D01*
X176398515Y-73725000D01*
X176661485Y-73725000D01*
X177050891Y-73647542D01*
X177492481Y-73352481D01*
X177771965Y-72934204D01*
X178223847Y-73386086D01*
X178824778Y-73635000D01*
X179475222Y-73635000D01*
X180076153Y-73386086D01*
X180400000Y-73062239D01*
X180723847Y-73386086D01*
X181324778Y-73635000D01*
X181975222Y-73635000D01*
X182576153Y-73386086D01*
X183036086Y-72926153D01*
X183122054Y-72718607D01*
X183450429Y-73046982D01*
X183904343Y-73235000D01*
X184395657Y-73235000D01*
X184849571Y-73046982D01*
X185177946Y-72718607D01*
X185263914Y-72926153D01*
X185723847Y-73386086D01*
X186324778Y-73635000D01*
X186975222Y-73635000D01*
X187576153Y-73386086D01*
X187900000Y-73062239D01*
X188223847Y-73386086D01*
X188824778Y-73635000D01*
X189475222Y-73635000D01*
X190076153Y-73386086D01*
X190528035Y-72934204D01*
X190807519Y-73352481D01*
X191249109Y-73647542D01*
X191638515Y-73725000D01*
X191901485Y-73725000D01*
X192290891Y-73647542D01*
X192732481Y-73352481D01*
X193027542Y-72910891D01*
X193131154Y-72390000D01*
X193076462Y-72115040D01*
X193494565Y-72115040D01*
X193494565Y-72339546D01*
X194301062Y-73146043D01*
X194534451Y-73242716D01*
X194787070Y-73242717D01*
X195020459Y-73146044D01*
X196746196Y-71420307D01*
X196746196Y-71195801D01*
X195580000Y-70029605D01*
X193494565Y-72115040D01*
X193076462Y-72115040D01*
X193028390Y-71873371D01*
X193090454Y-71935435D01*
X193314960Y-71935435D01*
X195400395Y-69850000D01*
X195386253Y-69835858D01*
X195565858Y-69656253D01*
X195580000Y-69670395D01*
X197665435Y-67584960D01*
X197665435Y-67360454D01*
X196858938Y-66553957D01*
X196625549Y-66457284D01*
X196524549Y-66457284D01*
X196495836Y-66312932D01*
X196214587Y-65892012D01*
X195295348Y-64972773D01*
X194874428Y-64691524D01*
X194377919Y-64592762D01*
X193881410Y-64691524D01*
X193460490Y-64972773D01*
X190702773Y-67730490D01*
X190421524Y-68151410D01*
X190322762Y-68647919D01*
X190410698Y-69090000D01*
X188874846Y-69090000D01*
X188799999Y-69075112D01*
X188725152Y-69090000D01*
X188725148Y-69090000D01*
X188503463Y-69134096D01*
X188252071Y-69302071D01*
X188209671Y-69365527D01*
X187165529Y-70409670D01*
X187165526Y-70409672D01*
X187141375Y-70433823D01*
X186975222Y-70365000D01*
X186324778Y-70365000D01*
X185723847Y-70613914D01*
X185263914Y-71073847D01*
X185177946Y-71281393D01*
X184849571Y-70953018D01*
X184395657Y-70765000D01*
X183904343Y-70765000D01*
X183450429Y-70953018D01*
X183122054Y-71281393D01*
X183036086Y-71073847D01*
X182576153Y-70613914D01*
X181975222Y-70365000D01*
X181324778Y-70365000D01*
X181158625Y-70433823D01*
X180090331Y-69365530D01*
X180047929Y-69302071D01*
X179796537Y-69134096D01*
X179574852Y-69090000D01*
X179574847Y-69090000D01*
X179500000Y-69075112D01*
X179425153Y-69090000D01*
X177889302Y-69090000D01*
X177977238Y-68647919D01*
X177878476Y-68151410D01*
X177597227Y-67730490D01*
X176621080Y-66754343D01*
X177915000Y-66754343D01*
X177915000Y-67245657D01*
X178103018Y-67699571D01*
X178450429Y-68046982D01*
X178904343Y-68235000D01*
X179395657Y-68235000D01*
X179594751Y-68152532D01*
X183177073Y-68152532D01*
X183275736Y-68419387D01*
X183885461Y-68645908D01*
X184535460Y-68621856D01*
X185024264Y-68419387D01*
X185122927Y-68152532D01*
X184150000Y-67179605D01*
X183177073Y-68152532D01*
X179594751Y-68152532D01*
X179849571Y-68046982D01*
X180196982Y-67699571D01*
X180385000Y-67245657D01*
X180385000Y-66754343D01*
X180377179Y-66735461D01*
X182504092Y-66735461D01*
X182528144Y-67385460D01*
X182730613Y-67874264D01*
X182997468Y-67972927D01*
X183970395Y-67000000D01*
X184329605Y-67000000D01*
X185302532Y-67972927D01*
X185569387Y-67874264D01*
X185795908Y-67264539D01*
X185777030Y-66754343D01*
X187915000Y-66754343D01*
X187915000Y-67245657D01*
X188103018Y-67699571D01*
X188450429Y-68046982D01*
X188904343Y-68235000D01*
X189395657Y-68235000D01*
X189849571Y-68046982D01*
X190196982Y-67699571D01*
X190385000Y-67245657D01*
X190385000Y-66754343D01*
X190196982Y-66300429D01*
X189849571Y-65953018D01*
X189395657Y-65765000D01*
X188904343Y-65765000D01*
X188450429Y-65953018D01*
X188103018Y-66300429D01*
X187915000Y-66754343D01*
X185777030Y-66754343D01*
X185771856Y-66614540D01*
X185569387Y-66125736D01*
X185302532Y-66027073D01*
X184329605Y-67000000D01*
X183970395Y-67000000D01*
X182997468Y-66027073D01*
X182730613Y-66125736D01*
X182504092Y-66735461D01*
X180377179Y-66735461D01*
X180196982Y-66300429D01*
X179849571Y-65953018D01*
X179594752Y-65847468D01*
X183177073Y-65847468D01*
X184150000Y-66820395D01*
X185122927Y-65847468D01*
X185024264Y-65580613D01*
X184414539Y-65354092D01*
X183764540Y-65378144D01*
X183275736Y-65580613D01*
X183177073Y-65847468D01*
X179594752Y-65847468D01*
X179395657Y-65765000D01*
X178904343Y-65765000D01*
X178450429Y-65953018D01*
X178103018Y-66300429D01*
X177915000Y-66754343D01*
X176621080Y-66754343D01*
X174839510Y-64972773D01*
X174418590Y-64691524D01*
X173922081Y-64592762D01*
X173425572Y-64691524D01*
X173004652Y-64972773D01*
X172085413Y-65892012D01*
X171804164Y-66312932D01*
X171775451Y-66457284D01*
X171674451Y-66457284D01*
X171441062Y-66553957D01*
X170634565Y-67360454D01*
X169620000Y-67360454D01*
X169620000Y-66084666D01*
X169682958Y-65586302D01*
X169851305Y-65161107D01*
X170120101Y-64791142D01*
X170472462Y-64499644D01*
X170886244Y-64304933D01*
X171368662Y-64212907D01*
X171461164Y-64210000D01*
X177933368Y-64210000D01*
X177915000Y-64254343D01*
G04 #@! TD*
M02*
