G04 #@! TF.GenerationSoftware,KiCad,Pcbnew,5.0.1*
G04 #@! TF.CreationDate,2018-10-18T13:56:00+02:00*
G04 #@! TF.ProjectId,MicroFlux,4D6963726F466C75782E6B696361645F,rev?*
G04 #@! TF.SameCoordinates,Original*
G04 #@! TF.FileFunction,Legend,Bot*
G04 #@! TF.FilePolarity,Positive*
%FSLAX46Y46*%
G04 Gerber Fmt 4.6, Leading zero omitted, Abs format (unit mm)*
G04 Created by KiCad (PCBNEW 5.0.1) date Thu 18 Oct 2018 01:56:00 PM CEST*
%MOMM*%
%LPD*%
G01*
G04 APERTURE LIST*
%ADD10C,0.150000*%
%ADD11C,0.010000*%
G04 APERTURE END LIST*
D10*
G04 #@! TO.C,BT1*
X169050000Y-62900000D02*
X169050000Y-117400000D01*
X169050000Y-117400000D02*
X199250000Y-117400000D01*
X199250000Y-117400000D02*
X199250000Y-62900000D01*
X199250000Y-62900000D02*
X169050000Y-62900000D01*
D11*
G04 #@! TO.C,REF\002A\002A*
G36*
X195637150Y-76967464D02*
X195967052Y-76969006D01*
X196249981Y-76970566D01*
X196489761Y-76972261D01*
X196690219Y-76974208D01*
X196855181Y-76976523D01*
X196988472Y-76979322D01*
X197093918Y-76982724D01*
X197175345Y-76986844D01*
X197236580Y-76991799D01*
X197281447Y-76997707D01*
X197313774Y-77004683D01*
X197337385Y-77012845D01*
X197351650Y-77019802D01*
X197434200Y-77064904D01*
X197434200Y-76250800D01*
X197358000Y-76250800D01*
X197304452Y-76247441D01*
X197281804Y-76239351D01*
X197281800Y-76239227D01*
X197294784Y-76213109D01*
X197327537Y-76160726D01*
X197345421Y-76133903D01*
X197412647Y-76001603D01*
X197459589Y-75841937D01*
X197483338Y-75673022D01*
X197480984Y-75512977D01*
X197461247Y-75412600D01*
X197379939Y-75228538D01*
X197258200Y-75063410D01*
X197105510Y-74928517D01*
X197003694Y-74867155D01*
X196846029Y-74799731D01*
X196679951Y-74755855D01*
X196491403Y-74732714D01*
X196304913Y-74727241D01*
X196291200Y-74728002D01*
X196291200Y-75528136D01*
X196466895Y-75532634D01*
X196600414Y-75546249D01*
X196699949Y-75571477D01*
X196773691Y-75610812D01*
X196829831Y-75666751D01*
X196852170Y-75699016D01*
X196890164Y-75805421D01*
X196887176Y-75931144D01*
X196843728Y-76066203D01*
X196831773Y-76090499D01*
X196781557Y-76187300D01*
X196232487Y-76194142D01*
X195683416Y-76200985D01*
X195639454Y-76133891D01*
X195612707Y-76070360D01*
X195592044Y-75980668D01*
X195585065Y-75922633D01*
X195581970Y-75834255D01*
X195592095Y-75775291D01*
X195620683Y-75724985D01*
X195641568Y-75698927D01*
X195715167Y-75631583D01*
X195810737Y-75582664D01*
X195935234Y-75550341D01*
X196095611Y-75532787D01*
X196291200Y-75528136D01*
X196291200Y-74728002D01*
X196008965Y-74743675D01*
X195749134Y-74791542D01*
X195526509Y-74870171D01*
X195342180Y-74978889D01*
X195197237Y-75117025D01*
X195092768Y-75283906D01*
X195029864Y-75478860D01*
X195022835Y-75518170D01*
X195014575Y-75633703D01*
X195021429Y-75761063D01*
X195040852Y-75887661D01*
X195070299Y-76000912D01*
X195107225Y-76088228D01*
X195147815Y-76136262D01*
X195172282Y-76157127D01*
X195167192Y-76173170D01*
X195128657Y-76184925D01*
X195052788Y-76192924D01*
X194935701Y-76197702D01*
X194773506Y-76199793D01*
X194683670Y-76200000D01*
X194509573Y-76199477D01*
X194378217Y-76197469D01*
X194281550Y-76193311D01*
X194211519Y-76186343D01*
X194160073Y-76175901D01*
X194119158Y-76161322D01*
X194099470Y-76151938D01*
X194005200Y-76103876D01*
X194005200Y-76960228D01*
X195637150Y-76967464D01*
X195637150Y-76967464D01*
G37*
X195637150Y-76967464D02*
X195967052Y-76969006D01*
X196249981Y-76970566D01*
X196489761Y-76972261D01*
X196690219Y-76974208D01*
X196855181Y-76976523D01*
X196988472Y-76979322D01*
X197093918Y-76982724D01*
X197175345Y-76986844D01*
X197236580Y-76991799D01*
X197281447Y-76997707D01*
X197313774Y-77004683D01*
X197337385Y-77012845D01*
X197351650Y-77019802D01*
X197434200Y-77064904D01*
X197434200Y-76250800D01*
X197358000Y-76250800D01*
X197304452Y-76247441D01*
X197281804Y-76239351D01*
X197281800Y-76239227D01*
X197294784Y-76213109D01*
X197327537Y-76160726D01*
X197345421Y-76133903D01*
X197412647Y-76001603D01*
X197459589Y-75841937D01*
X197483338Y-75673022D01*
X197480984Y-75512977D01*
X197461247Y-75412600D01*
X197379939Y-75228538D01*
X197258200Y-75063410D01*
X197105510Y-74928517D01*
X197003694Y-74867155D01*
X196846029Y-74799731D01*
X196679951Y-74755855D01*
X196491403Y-74732714D01*
X196304913Y-74727241D01*
X196291200Y-74728002D01*
X196291200Y-75528136D01*
X196466895Y-75532634D01*
X196600414Y-75546249D01*
X196699949Y-75571477D01*
X196773691Y-75610812D01*
X196829831Y-75666751D01*
X196852170Y-75699016D01*
X196890164Y-75805421D01*
X196887176Y-75931144D01*
X196843728Y-76066203D01*
X196831773Y-76090499D01*
X196781557Y-76187300D01*
X196232487Y-76194142D01*
X195683416Y-76200985D01*
X195639454Y-76133891D01*
X195612707Y-76070360D01*
X195592044Y-75980668D01*
X195585065Y-75922633D01*
X195581970Y-75834255D01*
X195592095Y-75775291D01*
X195620683Y-75724985D01*
X195641568Y-75698927D01*
X195715167Y-75631583D01*
X195810737Y-75582664D01*
X195935234Y-75550341D01*
X196095611Y-75532787D01*
X196291200Y-75528136D01*
X196291200Y-74728002D01*
X196008965Y-74743675D01*
X195749134Y-74791542D01*
X195526509Y-74870171D01*
X195342180Y-74978889D01*
X195197237Y-75117025D01*
X195092768Y-75283906D01*
X195029864Y-75478860D01*
X195022835Y-75518170D01*
X195014575Y-75633703D01*
X195021429Y-75761063D01*
X195040852Y-75887661D01*
X195070299Y-76000912D01*
X195107225Y-76088228D01*
X195147815Y-76136262D01*
X195172282Y-76157127D01*
X195167192Y-76173170D01*
X195128657Y-76184925D01*
X195052788Y-76192924D01*
X194935701Y-76197702D01*
X194773506Y-76199793D01*
X194683670Y-76200000D01*
X194509573Y-76199477D01*
X194378217Y-76197469D01*
X194281550Y-76193311D01*
X194211519Y-76186343D01*
X194160073Y-76175901D01*
X194119158Y-76161322D01*
X194099470Y-76151938D01*
X194005200Y-76103876D01*
X194005200Y-76960228D01*
X195637150Y-76967464D01*
G36*
X195032359Y-73747620D02*
X195072264Y-73923576D01*
X195116895Y-74042513D01*
X195172778Y-74135098D01*
X195246360Y-74217779D01*
X195301188Y-74270917D01*
X195352829Y-74314396D01*
X195406992Y-74349291D01*
X195469387Y-74376676D01*
X195545723Y-74397624D01*
X195641710Y-74413209D01*
X195763058Y-74424504D01*
X195915475Y-74432585D01*
X196104670Y-74438523D01*
X196336355Y-74443394D01*
X196457477Y-74445549D01*
X196689434Y-74449807D01*
X196876051Y-74453930D01*
X197022785Y-74458276D01*
X197135095Y-74463203D01*
X197218437Y-74469068D01*
X197278269Y-74476231D01*
X197320049Y-74485049D01*
X197349234Y-74495880D01*
X197365527Y-74505135D01*
X197434200Y-74550171D01*
X197434200Y-73739418D01*
X197280698Y-73723500D01*
X197348483Y-73624102D01*
X197427254Y-73467946D01*
X197473178Y-73287092D01*
X197484137Y-73097295D01*
X197458011Y-72914309D01*
X197448436Y-72880834D01*
X197366112Y-72694429D01*
X197248585Y-72543520D01*
X197099321Y-72430652D01*
X196921786Y-72358375D01*
X196719443Y-72329235D01*
X196697600Y-72328788D01*
X196668545Y-72329452D01*
X196668545Y-73057707D01*
X196757884Y-73061963D01*
X196788502Y-73072090D01*
X196869089Y-73134779D01*
X196923481Y-73229723D01*
X196947352Y-73343327D01*
X196936378Y-73461996D01*
X196924508Y-73499596D01*
X196882968Y-73586783D01*
X196830366Y-73642424D01*
X196755280Y-73672894D01*
X196646289Y-73684566D01*
X196591572Y-73685400D01*
X196392800Y-73685400D01*
X196392800Y-73519484D01*
X196407824Y-73355747D01*
X196450733Y-73217128D01*
X196511555Y-73121676D01*
X196578298Y-73079069D01*
X196668545Y-73057707D01*
X196668545Y-72329452D01*
X196583273Y-72331403D01*
X196495974Y-72345051D01*
X196412311Y-72374550D01*
X196362215Y-72397882D01*
X196205636Y-72502223D01*
X196079758Y-72646604D01*
X195984878Y-72830369D01*
X195921291Y-73052862D01*
X195889295Y-73313426D01*
X195885241Y-73453794D01*
X195884800Y-73692088D01*
X195781228Y-73678196D01*
X195667960Y-73642262D01*
X195589507Y-73570344D01*
X195546163Y-73463724D01*
X195538223Y-73323687D01*
X195565980Y-73151516D01*
X195620144Y-72974509D01*
X195647413Y-72890051D01*
X195662373Y-72825058D01*
X195661908Y-72793195D01*
X195661589Y-72792862D01*
X195629872Y-72775276D01*
X195563912Y-72745180D01*
X195476745Y-72707902D01*
X195381404Y-72668773D01*
X195290925Y-72633122D01*
X195218340Y-72606280D01*
X195176685Y-72593575D01*
X195173302Y-72593200D01*
X195154617Y-72614990D01*
X195148200Y-72658447D01*
X195142037Y-72710031D01*
X195125424Y-72796850D01*
X195101175Y-72905103D01*
X195082173Y-72982297D01*
X195031360Y-73248096D01*
X195014718Y-73506776D01*
X195032359Y-73747620D01*
X195032359Y-73747620D01*
G37*
X195032359Y-73747620D02*
X195072264Y-73923576D01*
X195116895Y-74042513D01*
X195172778Y-74135098D01*
X195246360Y-74217779D01*
X195301188Y-74270917D01*
X195352829Y-74314396D01*
X195406992Y-74349291D01*
X195469387Y-74376676D01*
X195545723Y-74397624D01*
X195641710Y-74413209D01*
X195763058Y-74424504D01*
X195915475Y-74432585D01*
X196104670Y-74438523D01*
X196336355Y-74443394D01*
X196457477Y-74445549D01*
X196689434Y-74449807D01*
X196876051Y-74453930D01*
X197022785Y-74458276D01*
X197135095Y-74463203D01*
X197218437Y-74469068D01*
X197278269Y-74476231D01*
X197320049Y-74485049D01*
X197349234Y-74495880D01*
X197365527Y-74505135D01*
X197434200Y-74550171D01*
X197434200Y-73739418D01*
X197280698Y-73723500D01*
X197348483Y-73624102D01*
X197427254Y-73467946D01*
X197473178Y-73287092D01*
X197484137Y-73097295D01*
X197458011Y-72914309D01*
X197448436Y-72880834D01*
X197366112Y-72694429D01*
X197248585Y-72543520D01*
X197099321Y-72430652D01*
X196921786Y-72358375D01*
X196719443Y-72329235D01*
X196697600Y-72328788D01*
X196668545Y-72329452D01*
X196668545Y-73057707D01*
X196757884Y-73061963D01*
X196788502Y-73072090D01*
X196869089Y-73134779D01*
X196923481Y-73229723D01*
X196947352Y-73343327D01*
X196936378Y-73461996D01*
X196924508Y-73499596D01*
X196882968Y-73586783D01*
X196830366Y-73642424D01*
X196755280Y-73672894D01*
X196646289Y-73684566D01*
X196591572Y-73685400D01*
X196392800Y-73685400D01*
X196392800Y-73519484D01*
X196407824Y-73355747D01*
X196450733Y-73217128D01*
X196511555Y-73121676D01*
X196578298Y-73079069D01*
X196668545Y-73057707D01*
X196668545Y-72329452D01*
X196583273Y-72331403D01*
X196495974Y-72345051D01*
X196412311Y-72374550D01*
X196362215Y-72397882D01*
X196205636Y-72502223D01*
X196079758Y-72646604D01*
X195984878Y-72830369D01*
X195921291Y-73052862D01*
X195889295Y-73313426D01*
X195885241Y-73453794D01*
X195884800Y-73692088D01*
X195781228Y-73678196D01*
X195667960Y-73642262D01*
X195589507Y-73570344D01*
X195546163Y-73463724D01*
X195538223Y-73323687D01*
X195565980Y-73151516D01*
X195620144Y-72974509D01*
X195647413Y-72890051D01*
X195662373Y-72825058D01*
X195661908Y-72793195D01*
X195661589Y-72792862D01*
X195629872Y-72775276D01*
X195563912Y-72745180D01*
X195476745Y-72707902D01*
X195381404Y-72668773D01*
X195290925Y-72633122D01*
X195218340Y-72606280D01*
X195176685Y-72593575D01*
X195173302Y-72593200D01*
X195154617Y-72614990D01*
X195148200Y-72658447D01*
X195142037Y-72710031D01*
X195125424Y-72796850D01*
X195101175Y-72905103D01*
X195082173Y-72982297D01*
X195031360Y-73248096D01*
X195014718Y-73506776D01*
X195032359Y-73747620D01*
G36*
X194186341Y-71664676D02*
X194196143Y-71705911D01*
X194218829Y-71776879D01*
X194254963Y-71872173D01*
X194299187Y-71979521D01*
X194346147Y-72086653D01*
X194390487Y-72181298D01*
X194426851Y-72251185D01*
X194447598Y-72282064D01*
X194470582Y-72272374D01*
X194525508Y-72240036D01*
X194602651Y-72191464D01*
X194692288Y-72133074D01*
X194784695Y-72071281D01*
X194870151Y-72012502D01*
X194938930Y-71963152D01*
X194980159Y-71930677D01*
X194977624Y-71902236D01*
X194947335Y-71850081D01*
X194913312Y-71806407D01*
X194821226Y-71661298D01*
X194775559Y-71496487D01*
X194774284Y-71338098D01*
X194814902Y-71167398D01*
X194898127Y-71023259D01*
X195022925Y-70906245D01*
X195188260Y-70816919D01*
X195393097Y-70755843D01*
X195636401Y-70723581D01*
X195910200Y-70720426D01*
X196157826Y-70741867D01*
X196363741Y-70786984D01*
X196532105Y-70857630D01*
X196667080Y-70955657D01*
X196772826Y-71082917D01*
X196791151Y-71112579D01*
X196831415Y-71189773D01*
X196852876Y-71261238D01*
X196860676Y-71349027D01*
X196861009Y-71412100D01*
X196845354Y-71571817D01*
X196797392Y-71710547D01*
X196710613Y-71844625D01*
X196668663Y-71894846D01*
X196624162Y-71949092D01*
X196600225Y-71985414D01*
X196598969Y-71993055D01*
X196632288Y-72015216D01*
X196696333Y-72054498D01*
X196781348Y-72105230D01*
X196877575Y-72161743D01*
X196975257Y-72218366D01*
X197064636Y-72269431D01*
X197135956Y-72309265D01*
X197179460Y-72332201D01*
X197188180Y-72335453D01*
X197201554Y-72310218D01*
X197232253Y-72252344D01*
X197273786Y-72174062D01*
X197276230Y-72169457D01*
X197356612Y-72007147D01*
X197411928Y-71864212D01*
X197446986Y-71722272D01*
X197466593Y-71562947D01*
X197474340Y-71412100D01*
X197475569Y-71219285D01*
X197466113Y-71067250D01*
X197450565Y-70976436D01*
X197365718Y-70744201D01*
X197236718Y-70531159D01*
X197067906Y-70341366D01*
X196863623Y-70178878D01*
X196628209Y-70047752D01*
X196366005Y-69952044D01*
X196349632Y-69947548D01*
X196163026Y-69911250D01*
X195948920Y-69892345D01*
X195725257Y-69890823D01*
X195509982Y-69906669D01*
X195321040Y-69939872D01*
X195289044Y-69948297D01*
X195015435Y-70050061D01*
X194769468Y-70192732D01*
X194554653Y-70373804D01*
X194374495Y-70590770D01*
X194360082Y-70612000D01*
X194267504Y-70789644D01*
X194201748Y-70997698D01*
X194164907Y-71222198D01*
X194159073Y-71449178D01*
X194186341Y-71664676D01*
X194186341Y-71664676D01*
G37*
X194186341Y-71664676D02*
X194196143Y-71705911D01*
X194218829Y-71776879D01*
X194254963Y-71872173D01*
X194299187Y-71979521D01*
X194346147Y-72086653D01*
X194390487Y-72181298D01*
X194426851Y-72251185D01*
X194447598Y-72282064D01*
X194470582Y-72272374D01*
X194525508Y-72240036D01*
X194602651Y-72191464D01*
X194692288Y-72133074D01*
X194784695Y-72071281D01*
X194870151Y-72012502D01*
X194938930Y-71963152D01*
X194980159Y-71930677D01*
X194977624Y-71902236D01*
X194947335Y-71850081D01*
X194913312Y-71806407D01*
X194821226Y-71661298D01*
X194775559Y-71496487D01*
X194774284Y-71338098D01*
X194814902Y-71167398D01*
X194898127Y-71023259D01*
X195022925Y-70906245D01*
X195188260Y-70816919D01*
X195393097Y-70755843D01*
X195636401Y-70723581D01*
X195910200Y-70720426D01*
X196157826Y-70741867D01*
X196363741Y-70786984D01*
X196532105Y-70857630D01*
X196667080Y-70955657D01*
X196772826Y-71082917D01*
X196791151Y-71112579D01*
X196831415Y-71189773D01*
X196852876Y-71261238D01*
X196860676Y-71349027D01*
X196861009Y-71412100D01*
X196845354Y-71571817D01*
X196797392Y-71710547D01*
X196710613Y-71844625D01*
X196668663Y-71894846D01*
X196624162Y-71949092D01*
X196600225Y-71985414D01*
X196598969Y-71993055D01*
X196632288Y-72015216D01*
X196696333Y-72054498D01*
X196781348Y-72105230D01*
X196877575Y-72161743D01*
X196975257Y-72218366D01*
X197064636Y-72269431D01*
X197135956Y-72309265D01*
X197179460Y-72332201D01*
X197188180Y-72335453D01*
X197201554Y-72310218D01*
X197232253Y-72252344D01*
X197273786Y-72174062D01*
X197276230Y-72169457D01*
X197356612Y-72007147D01*
X197411928Y-71864212D01*
X197446986Y-71722272D01*
X197466593Y-71562947D01*
X197474340Y-71412100D01*
X197475569Y-71219285D01*
X197466113Y-71067250D01*
X197450565Y-70976436D01*
X197365718Y-70744201D01*
X197236718Y-70531159D01*
X197067906Y-70341366D01*
X196863623Y-70178878D01*
X196628209Y-70047752D01*
X196366005Y-69952044D01*
X196349632Y-69947548D01*
X196163026Y-69911250D01*
X195948920Y-69892345D01*
X195725257Y-69890823D01*
X195509982Y-69906669D01*
X195321040Y-69939872D01*
X195289044Y-69948297D01*
X195015435Y-70050061D01*
X194769468Y-70192732D01*
X194554653Y-70373804D01*
X194374495Y-70590770D01*
X194360082Y-70612000D01*
X194267504Y-70789644D01*
X194201748Y-70997698D01*
X194164907Y-71222198D01*
X194159073Y-71449178D01*
X194186341Y-71664676D01*
G36*
X193622699Y-69571363D02*
X193629976Y-69593155D01*
X193646420Y-69611586D01*
X193675197Y-69626935D01*
X193719474Y-69639481D01*
X193782418Y-69649505D01*
X193867194Y-69657283D01*
X193976971Y-69663096D01*
X194114914Y-69667223D01*
X194284191Y-69669943D01*
X194487968Y-69671535D01*
X194729411Y-69672277D01*
X195011687Y-69672450D01*
X195337964Y-69672332D01*
X195711407Y-69672203D01*
X195770500Y-69672200D01*
X196145884Y-69672122D01*
X196473711Y-69671849D01*
X196757221Y-69671318D01*
X196999658Y-69670469D01*
X197204261Y-69669240D01*
X197374274Y-69667569D01*
X197512939Y-69665395D01*
X197623496Y-69662657D01*
X197709188Y-69659292D01*
X197773257Y-69655241D01*
X197818944Y-69650441D01*
X197849492Y-69644831D01*
X197868141Y-69638349D01*
X197876885Y-69632285D01*
X197883992Y-69621209D01*
X197890213Y-69601001D01*
X197895606Y-69568490D01*
X197900229Y-69520503D01*
X197904140Y-69453867D01*
X197907396Y-69365410D01*
X197910056Y-69251960D01*
X197912175Y-69110344D01*
X197913813Y-68937390D01*
X197915028Y-68729924D01*
X197915876Y-68484776D01*
X197916415Y-68198771D01*
X197916703Y-67868739D01*
X197916798Y-67491505D01*
X197916800Y-67436999D01*
X197916726Y-67053176D01*
X197916467Y-66716980D01*
X197915965Y-66425239D01*
X197915162Y-66174781D01*
X197914000Y-65962432D01*
X197912422Y-65785021D01*
X197910371Y-65639375D01*
X197907787Y-65522322D01*
X197904615Y-65430688D01*
X197900795Y-65361303D01*
X197896271Y-65310992D01*
X197890985Y-65276584D01*
X197884879Y-65254907D01*
X197877895Y-65242787D01*
X197876885Y-65241714D01*
X197865627Y-65234465D01*
X197845152Y-65228138D01*
X197812219Y-65222672D01*
X197763586Y-65218006D01*
X197696011Y-65214078D01*
X197606252Y-65210826D01*
X197491068Y-65208190D01*
X197347217Y-65206107D01*
X197171456Y-65204517D01*
X196960544Y-65203358D01*
X196711239Y-65202568D01*
X196420300Y-65202086D01*
X196084484Y-65201851D01*
X195770500Y-65201800D01*
X195395115Y-65201877D01*
X195067288Y-65202150D01*
X194783778Y-65202681D01*
X194541341Y-65203530D01*
X194336738Y-65204759D01*
X194215729Y-65205948D01*
X194215729Y-65481199D01*
X194240638Y-65491637D01*
X194294844Y-65517944D01*
X194322699Y-65531999D01*
X194345774Y-65542932D01*
X194371420Y-65552174D01*
X194403859Y-65559867D01*
X194447308Y-65566152D01*
X194505988Y-65571172D01*
X194584117Y-65575068D01*
X194685917Y-65577983D01*
X194815605Y-65580057D01*
X194977401Y-65581434D01*
X195175525Y-65582254D01*
X195414197Y-65582659D01*
X195697635Y-65582791D01*
X195834290Y-65582799D01*
X196097726Y-65582439D01*
X196346037Y-65581402D01*
X196574556Y-65579756D01*
X196778618Y-65577568D01*
X196953558Y-65574903D01*
X197094711Y-65571830D01*
X197197410Y-65568415D01*
X197256991Y-65564724D01*
X197270370Y-65562224D01*
X197310136Y-65537800D01*
X197364350Y-65511968D01*
X197434200Y-65482289D01*
X197433811Y-66008794D01*
X197432849Y-66163967D01*
X197430381Y-66298350D01*
X197426674Y-66404999D01*
X197421992Y-66476970D01*
X197416600Y-66507319D01*
X197414761Y-66507094D01*
X197380826Y-66477145D01*
X197322626Y-66441332D01*
X197314811Y-66437244D01*
X197277521Y-66422318D01*
X197227267Y-66411307D01*
X197156556Y-66403669D01*
X197057898Y-66398866D01*
X196923800Y-66396356D01*
X196746772Y-66395601D01*
X196736961Y-66395600D01*
X196559347Y-66396833D01*
X196416876Y-66400396D01*
X196313727Y-66406078D01*
X196254078Y-66413672D01*
X196240400Y-66420414D01*
X196259770Y-66449914D01*
X196306744Y-66487641D01*
X196310250Y-66489915D01*
X196367268Y-66530493D01*
X196405500Y-66564699D01*
X196442632Y-66595147D01*
X196504966Y-66635083D01*
X196528833Y-66648671D01*
X196595930Y-66690820D01*
X196684720Y-66753527D01*
X196778064Y-66824592D01*
X196795533Y-66838542D01*
X196938344Y-66946661D01*
X197074967Y-67037138D01*
X197197349Y-67105389D01*
X197297440Y-67146831D01*
X197355923Y-67157600D01*
X197434200Y-67157600D01*
X197434200Y-68284055D01*
X197420488Y-68271929D01*
X197420488Y-68427600D01*
X197424757Y-68451699D01*
X197428485Y-68518796D01*
X197431448Y-68621089D01*
X197433426Y-68750778D01*
X197434196Y-68900061D01*
X197434200Y-68910200D01*
X197433408Y-69086967D01*
X197430806Y-69218101D01*
X197426056Y-69308747D01*
X197418818Y-69364050D01*
X197408752Y-69389156D01*
X197402450Y-69391992D01*
X197358554Y-69377038D01*
X197321395Y-69353892D01*
X197302692Y-69344698D01*
X197270195Y-69337102D01*
X197219498Y-69330959D01*
X197146196Y-69326127D01*
X197045883Y-69322464D01*
X196914154Y-69319826D01*
X196746604Y-69318070D01*
X196538827Y-69317053D01*
X196286418Y-69316633D01*
X196172045Y-69316600D01*
X195072000Y-69316600D01*
X195072000Y-68451695D01*
X195146938Y-68490447D01*
X195172815Y-68500478D01*
X195211092Y-68508667D01*
X195266607Y-68515192D01*
X195344197Y-68520226D01*
X195448700Y-68523947D01*
X195584954Y-68526529D01*
X195757797Y-68528148D01*
X195972067Y-68528979D01*
X196214750Y-68529200D01*
X196466440Y-68529086D01*
X196672511Y-68528585D01*
X196838147Y-68527455D01*
X196968527Y-68525455D01*
X197068835Y-68522345D01*
X197144251Y-68517883D01*
X197199957Y-68511829D01*
X197241135Y-68503941D01*
X197272967Y-68493979D01*
X197300635Y-68481701D01*
X197307200Y-68478400D01*
X197370636Y-68447490D01*
X197413110Y-68429480D01*
X197420488Y-68427600D01*
X197420488Y-68271929D01*
X197364570Y-68222477D01*
X197315266Y-68178555D01*
X197284290Y-68150373D01*
X197282020Y-68148200D01*
X197218905Y-68090445D01*
X197134689Y-68018963D01*
X197042065Y-67943897D01*
X196953725Y-67875391D01*
X196882361Y-67823588D01*
X196850547Y-67803376D01*
X196786584Y-67763155D01*
X196695299Y-67699662D01*
X196588680Y-67621804D01*
X196478715Y-67538487D01*
X196377390Y-67458617D01*
X196302607Y-67396273D01*
X196225548Y-67335829D01*
X196141943Y-67279159D01*
X196135050Y-67274978D01*
X195936936Y-67147637D01*
X195806356Y-67051994D01*
X195715212Y-66982036D01*
X195627760Y-67063468D01*
X195548661Y-67133660D01*
X195441892Y-67223715D01*
X195320451Y-67323057D01*
X195197339Y-67421107D01*
X195085555Y-67507289D01*
X195046815Y-67536151D01*
X194666892Y-67840941D01*
X194409787Y-68080279D01*
X194208400Y-68279059D01*
X194208400Y-67733747D01*
X194208523Y-67548550D01*
X194209861Y-67407998D01*
X194213867Y-67305937D01*
X194221993Y-67236212D01*
X194235691Y-67192669D01*
X194256416Y-67169153D01*
X194285618Y-67159511D01*
X194324751Y-67157586D01*
X194344390Y-67157600D01*
X194397842Y-67142012D01*
X194465121Y-67102941D01*
X194488362Y-67085299D01*
X194565668Y-67026652D01*
X194656586Y-66963890D01*
X194691000Y-66941802D01*
X194757764Y-66898552D01*
X194804931Y-66864912D01*
X194818000Y-66853239D01*
X194847339Y-66823445D01*
X194903018Y-66774245D01*
X194974108Y-66714522D01*
X195049681Y-66653162D01*
X195118808Y-66599047D01*
X195170561Y-66561063D01*
X195193483Y-66548000D01*
X195222974Y-66531182D01*
X195270717Y-66489146D01*
X195287900Y-66471799D01*
X195360904Y-66395599D01*
X194941088Y-66395600D01*
X194758302Y-66397193D01*
X194615476Y-66402895D01*
X194501840Y-66414093D01*
X194406629Y-66432172D01*
X194319075Y-66458518D01*
X194252850Y-66484164D01*
X194237771Y-66487394D01*
X194226538Y-66478649D01*
X194218591Y-66451705D01*
X194213367Y-66400338D01*
X194210303Y-66318324D01*
X194208838Y-66199439D01*
X194208410Y-66037460D01*
X194208400Y-65991917D01*
X194208746Y-65837083D01*
X194209712Y-65701122D01*
X194211190Y-65591617D01*
X194213071Y-65516151D01*
X194215245Y-65482308D01*
X194215729Y-65481199D01*
X194215729Y-65205948D01*
X194166725Y-65206430D01*
X194028060Y-65208604D01*
X193917503Y-65211342D01*
X193831811Y-65214707D01*
X193767742Y-65218758D01*
X193722055Y-65223558D01*
X193691507Y-65229168D01*
X193672858Y-65235650D01*
X193664114Y-65241714D01*
X193655934Y-65254178D01*
X193648938Y-65276437D01*
X193643034Y-65312191D01*
X193638133Y-65365141D01*
X193634144Y-65438988D01*
X193630978Y-65537431D01*
X193628544Y-65664173D01*
X193626752Y-65822913D01*
X193625511Y-66017353D01*
X193624733Y-66251193D01*
X193624326Y-66528135D01*
X193624200Y-66851878D01*
X193624200Y-68478400D01*
X193720418Y-68478400D01*
X193836335Y-68498479D01*
X193955000Y-68551525D01*
X194055991Y-68626754D01*
X194100244Y-68679006D01*
X194147370Y-68792546D01*
X194157636Y-68923500D01*
X194133918Y-69057628D01*
X194079089Y-69180690D01*
X193996023Y-69278448D01*
X193976147Y-69293800D01*
X193875428Y-69340806D01*
X193759877Y-69362439D01*
X193624199Y-69373690D01*
X193624200Y-69483030D01*
X193622977Y-69516580D01*
X193621421Y-69545931D01*
X193622699Y-69571363D01*
X193622699Y-69571363D01*
G37*
X193622699Y-69571363D02*
X193629976Y-69593155D01*
X193646420Y-69611586D01*
X193675197Y-69626935D01*
X193719474Y-69639481D01*
X193782418Y-69649505D01*
X193867194Y-69657283D01*
X193976971Y-69663096D01*
X194114914Y-69667223D01*
X194284191Y-69669943D01*
X194487968Y-69671535D01*
X194729411Y-69672277D01*
X195011687Y-69672450D01*
X195337964Y-69672332D01*
X195711407Y-69672203D01*
X195770500Y-69672200D01*
X196145884Y-69672122D01*
X196473711Y-69671849D01*
X196757221Y-69671318D01*
X196999658Y-69670469D01*
X197204261Y-69669240D01*
X197374274Y-69667569D01*
X197512939Y-69665395D01*
X197623496Y-69662657D01*
X197709188Y-69659292D01*
X197773257Y-69655241D01*
X197818944Y-69650441D01*
X197849492Y-69644831D01*
X197868141Y-69638349D01*
X197876885Y-69632285D01*
X197883992Y-69621209D01*
X197890213Y-69601001D01*
X197895606Y-69568490D01*
X197900229Y-69520503D01*
X197904140Y-69453867D01*
X197907396Y-69365410D01*
X197910056Y-69251960D01*
X197912175Y-69110344D01*
X197913813Y-68937390D01*
X197915028Y-68729924D01*
X197915876Y-68484776D01*
X197916415Y-68198771D01*
X197916703Y-67868739D01*
X197916798Y-67491505D01*
X197916800Y-67436999D01*
X197916726Y-67053176D01*
X197916467Y-66716980D01*
X197915965Y-66425239D01*
X197915162Y-66174781D01*
X197914000Y-65962432D01*
X197912422Y-65785021D01*
X197910371Y-65639375D01*
X197907787Y-65522322D01*
X197904615Y-65430688D01*
X197900795Y-65361303D01*
X197896271Y-65310992D01*
X197890985Y-65276584D01*
X197884879Y-65254907D01*
X197877895Y-65242787D01*
X197876885Y-65241714D01*
X197865627Y-65234465D01*
X197845152Y-65228138D01*
X197812219Y-65222672D01*
X197763586Y-65218006D01*
X197696011Y-65214078D01*
X197606252Y-65210826D01*
X197491068Y-65208190D01*
X197347217Y-65206107D01*
X197171456Y-65204517D01*
X196960544Y-65203358D01*
X196711239Y-65202568D01*
X196420300Y-65202086D01*
X196084484Y-65201851D01*
X195770500Y-65201800D01*
X195395115Y-65201877D01*
X195067288Y-65202150D01*
X194783778Y-65202681D01*
X194541341Y-65203530D01*
X194336738Y-65204759D01*
X194215729Y-65205948D01*
X194215729Y-65481199D01*
X194240638Y-65491637D01*
X194294844Y-65517944D01*
X194322699Y-65531999D01*
X194345774Y-65542932D01*
X194371420Y-65552174D01*
X194403859Y-65559867D01*
X194447308Y-65566152D01*
X194505988Y-65571172D01*
X194584117Y-65575068D01*
X194685917Y-65577983D01*
X194815605Y-65580057D01*
X194977401Y-65581434D01*
X195175525Y-65582254D01*
X195414197Y-65582659D01*
X195697635Y-65582791D01*
X195834290Y-65582799D01*
X196097726Y-65582439D01*
X196346037Y-65581402D01*
X196574556Y-65579756D01*
X196778618Y-65577568D01*
X196953558Y-65574903D01*
X197094711Y-65571830D01*
X197197410Y-65568415D01*
X197256991Y-65564724D01*
X197270370Y-65562224D01*
X197310136Y-65537800D01*
X197364350Y-65511968D01*
X197434200Y-65482289D01*
X197433811Y-66008794D01*
X197432849Y-66163967D01*
X197430381Y-66298350D01*
X197426674Y-66404999D01*
X197421992Y-66476970D01*
X197416600Y-66507319D01*
X197414761Y-66507094D01*
X197380826Y-66477145D01*
X197322626Y-66441332D01*
X197314811Y-66437244D01*
X197277521Y-66422318D01*
X197227267Y-66411307D01*
X197156556Y-66403669D01*
X197057898Y-66398866D01*
X196923800Y-66396356D01*
X196746772Y-66395601D01*
X196736961Y-66395600D01*
X196559347Y-66396833D01*
X196416876Y-66400396D01*
X196313727Y-66406078D01*
X196254078Y-66413672D01*
X196240400Y-66420414D01*
X196259770Y-66449914D01*
X196306744Y-66487641D01*
X196310250Y-66489915D01*
X196367268Y-66530493D01*
X196405500Y-66564699D01*
X196442632Y-66595147D01*
X196504966Y-66635083D01*
X196528833Y-66648671D01*
X196595930Y-66690820D01*
X196684720Y-66753527D01*
X196778064Y-66824592D01*
X196795533Y-66838542D01*
X196938344Y-66946661D01*
X197074967Y-67037138D01*
X197197349Y-67105389D01*
X197297440Y-67146831D01*
X197355923Y-67157600D01*
X197434200Y-67157600D01*
X197434200Y-68284055D01*
X197420488Y-68271929D01*
X197420488Y-68427600D01*
X197424757Y-68451699D01*
X197428485Y-68518796D01*
X197431448Y-68621089D01*
X197433426Y-68750778D01*
X197434196Y-68900061D01*
X197434200Y-68910200D01*
X197433408Y-69086967D01*
X197430806Y-69218101D01*
X197426056Y-69308747D01*
X197418818Y-69364050D01*
X197408752Y-69389156D01*
X197402450Y-69391992D01*
X197358554Y-69377038D01*
X197321395Y-69353892D01*
X197302692Y-69344698D01*
X197270195Y-69337102D01*
X197219498Y-69330959D01*
X197146196Y-69326127D01*
X197045883Y-69322464D01*
X196914154Y-69319826D01*
X196746604Y-69318070D01*
X196538827Y-69317053D01*
X196286418Y-69316633D01*
X196172045Y-69316600D01*
X195072000Y-69316600D01*
X195072000Y-68451695D01*
X195146938Y-68490447D01*
X195172815Y-68500478D01*
X195211092Y-68508667D01*
X195266607Y-68515192D01*
X195344197Y-68520226D01*
X195448700Y-68523947D01*
X195584954Y-68526529D01*
X195757797Y-68528148D01*
X195972067Y-68528979D01*
X196214750Y-68529200D01*
X196466440Y-68529086D01*
X196672511Y-68528585D01*
X196838147Y-68527455D01*
X196968527Y-68525455D01*
X197068835Y-68522345D01*
X197144251Y-68517883D01*
X197199957Y-68511829D01*
X197241135Y-68503941D01*
X197272967Y-68493979D01*
X197300635Y-68481701D01*
X197307200Y-68478400D01*
X197370636Y-68447490D01*
X197413110Y-68429480D01*
X197420488Y-68427600D01*
X197420488Y-68271929D01*
X197364570Y-68222477D01*
X197315266Y-68178555D01*
X197284290Y-68150373D01*
X197282020Y-68148200D01*
X197218905Y-68090445D01*
X197134689Y-68018963D01*
X197042065Y-67943897D01*
X196953725Y-67875391D01*
X196882361Y-67823588D01*
X196850547Y-67803376D01*
X196786584Y-67763155D01*
X196695299Y-67699662D01*
X196588680Y-67621804D01*
X196478715Y-67538487D01*
X196377390Y-67458617D01*
X196302607Y-67396273D01*
X196225548Y-67335829D01*
X196141943Y-67279159D01*
X196135050Y-67274978D01*
X195936936Y-67147637D01*
X195806356Y-67051994D01*
X195715212Y-66982036D01*
X195627760Y-67063468D01*
X195548661Y-67133660D01*
X195441892Y-67223715D01*
X195320451Y-67323057D01*
X195197339Y-67421107D01*
X195085555Y-67507289D01*
X195046815Y-67536151D01*
X194666892Y-67840941D01*
X194409787Y-68080279D01*
X194208400Y-68279059D01*
X194208400Y-67733747D01*
X194208523Y-67548550D01*
X194209861Y-67407998D01*
X194213867Y-67305937D01*
X194221993Y-67236212D01*
X194235691Y-67192669D01*
X194256416Y-67169153D01*
X194285618Y-67159511D01*
X194324751Y-67157586D01*
X194344390Y-67157600D01*
X194397842Y-67142012D01*
X194465121Y-67102941D01*
X194488362Y-67085299D01*
X194565668Y-67026652D01*
X194656586Y-66963890D01*
X194691000Y-66941802D01*
X194757764Y-66898552D01*
X194804931Y-66864912D01*
X194818000Y-66853239D01*
X194847339Y-66823445D01*
X194903018Y-66774245D01*
X194974108Y-66714522D01*
X195049681Y-66653162D01*
X195118808Y-66599047D01*
X195170561Y-66561063D01*
X195193483Y-66548000D01*
X195222974Y-66531182D01*
X195270717Y-66489146D01*
X195287900Y-66471799D01*
X195360904Y-66395599D01*
X194941088Y-66395600D01*
X194758302Y-66397193D01*
X194615476Y-66402895D01*
X194501840Y-66414093D01*
X194406629Y-66432172D01*
X194319075Y-66458518D01*
X194252850Y-66484164D01*
X194237771Y-66487394D01*
X194226538Y-66478649D01*
X194218591Y-66451705D01*
X194213367Y-66400338D01*
X194210303Y-66318324D01*
X194208838Y-66199439D01*
X194208410Y-66037460D01*
X194208400Y-65991917D01*
X194208746Y-65837083D01*
X194209712Y-65701122D01*
X194211190Y-65591617D01*
X194213071Y-65516151D01*
X194215245Y-65482308D01*
X194215729Y-65481199D01*
X194215729Y-65205948D01*
X194166725Y-65206430D01*
X194028060Y-65208604D01*
X193917503Y-65211342D01*
X193831811Y-65214707D01*
X193767742Y-65218758D01*
X193722055Y-65223558D01*
X193691507Y-65229168D01*
X193672858Y-65235650D01*
X193664114Y-65241714D01*
X193655934Y-65254178D01*
X193648938Y-65276437D01*
X193643034Y-65312191D01*
X193638133Y-65365141D01*
X193634144Y-65438988D01*
X193630978Y-65537431D01*
X193628544Y-65664173D01*
X193626752Y-65822913D01*
X193625511Y-66017353D01*
X193624733Y-66251193D01*
X193624326Y-66528135D01*
X193624200Y-66851878D01*
X193624200Y-68478400D01*
X193720418Y-68478400D01*
X193836335Y-68498479D01*
X193955000Y-68551525D01*
X194055991Y-68626754D01*
X194100244Y-68679006D01*
X194147370Y-68792546D01*
X194157636Y-68923500D01*
X194133918Y-69057628D01*
X194079089Y-69180690D01*
X193996023Y-69278448D01*
X193976147Y-69293800D01*
X193875428Y-69340806D01*
X193759877Y-69362439D01*
X193624199Y-69373690D01*
X193624200Y-69483030D01*
X193622977Y-69516580D01*
X193621421Y-69545931D01*
X193622699Y-69571363D01*
G04 #@! TO.C,BT1*
D10*
X184935714Y-114228571D02*
X184792857Y-114276190D01*
X184745238Y-114323809D01*
X184697619Y-114419047D01*
X184697619Y-114561904D01*
X184745238Y-114657142D01*
X184792857Y-114704761D01*
X184888095Y-114752380D01*
X185269047Y-114752380D01*
X185269047Y-113752380D01*
X184935714Y-113752380D01*
X184840476Y-113800000D01*
X184792857Y-113847619D01*
X184745238Y-113942857D01*
X184745238Y-114038095D01*
X184792857Y-114133333D01*
X184840476Y-114180952D01*
X184935714Y-114228571D01*
X185269047Y-114228571D01*
X184411904Y-113752380D02*
X183840476Y-113752380D01*
X184126190Y-114752380D02*
X184126190Y-113752380D01*
X182983333Y-114752380D02*
X183554761Y-114752380D01*
X183269047Y-114752380D02*
X183269047Y-113752380D01*
X183364285Y-113895238D01*
X183459523Y-113990476D01*
X183554761Y-114038095D01*
G04 #@! TD*
M02*
