G04 #@! TF.GenerationSoftware,KiCad,Pcbnew,5.0.1*
G04 #@! TF.CreationDate,2018-10-18T13:45:59+02:00*
G04 #@! TF.ProjectId,MicroFlux,4D6963726F466C75782E6B696361645F,rev?*
G04 #@! TF.SameCoordinates,Original*
G04 #@! TF.FileFunction,Other,Fab,Bot*
%FSLAX46Y46*%
G04 Gerber Fmt 4.6, Leading zero omitted, Abs format (unit mm)*
G04 Created by KiCad (PCBNEW 5.0.1) date Thu 18 Oct 2018 01:45:59 PM CEST*
%MOMM*%
%LPD*%
G01*
G04 APERTURE LIST*
%ADD10C,0.150000*%
%ADD11C,0.450000*%
G04 APERTURE END LIST*
D10*
G04 #@! TO.C,BT1*
X199250000Y-116150000D02*
X169050000Y-116150000D01*
X169050000Y-112300000D02*
X199250000Y-112300000D01*
X175750000Y-112300000D02*
X175750000Y-110300000D01*
X175750000Y-110300000D02*
X179850000Y-110300000D01*
X179850000Y-110300000D02*
X179850000Y-112300000D01*
X190250000Y-112300000D02*
X190250000Y-110300000D01*
X187950000Y-110300000D02*
X193050000Y-110300000D01*
X190750000Y-110300000D02*
X190750000Y-112300000D01*
X188450000Y-110300000D02*
X188450000Y-112300000D01*
X187950000Y-112300000D02*
X187950000Y-110300000D01*
X193050000Y-110300000D02*
X193050000Y-112300000D01*
X192550000Y-112300000D02*
X192550000Y-110300000D01*
X171150000Y-112300000D02*
X171150000Y-87300000D01*
X171150000Y-87300000D02*
X169050000Y-87300000D01*
X197150000Y-112300000D02*
X197150000Y-87300000D01*
X197150000Y-87300000D02*
X199250000Y-87300000D01*
X175150000Y-62900000D02*
X175150000Y-67300000D01*
X193150000Y-62900000D02*
X193150000Y-67300000D01*
X193150000Y-64300000D02*
X175150000Y-64300000D01*
X193150000Y-65300000D02*
X175150000Y-65300000D01*
X193150000Y-66300000D02*
X175150000Y-66300000D01*
X193150000Y-67300000D02*
X175150000Y-67300000D01*
X199250000Y-62900000D02*
X169050000Y-62900000D01*
X169050000Y-62900000D02*
X169050000Y-117400000D01*
X199250000Y-117400000D02*
X199250000Y-62900000D01*
X169050000Y-117400000D02*
X199250000Y-117400000D01*
G04 #@! TD*
G04 #@! TO.C,BT1*
X186221428Y-114228571D02*
X186078571Y-114276190D01*
X186030952Y-114323809D01*
X185983333Y-114419047D01*
X185983333Y-114561904D01*
X186030952Y-114657142D01*
X186078571Y-114704761D01*
X186173809Y-114752380D01*
X186554761Y-114752380D01*
X186554761Y-113752380D01*
X186221428Y-113752380D01*
X186126190Y-113800000D01*
X186078571Y-113847619D01*
X186030952Y-113942857D01*
X186030952Y-114038095D01*
X186078571Y-114133333D01*
X186126190Y-114180952D01*
X186221428Y-114228571D01*
X186554761Y-114228571D01*
X185126190Y-114752380D02*
X185126190Y-114228571D01*
X185173809Y-114133333D01*
X185269047Y-114085714D01*
X185459523Y-114085714D01*
X185554761Y-114133333D01*
X185126190Y-114704761D02*
X185221428Y-114752380D01*
X185459523Y-114752380D01*
X185554761Y-114704761D01*
X185602380Y-114609523D01*
X185602380Y-114514285D01*
X185554761Y-114419047D01*
X185459523Y-114371428D01*
X185221428Y-114371428D01*
X185126190Y-114323809D01*
X184792857Y-114085714D02*
X184411904Y-114085714D01*
X184650000Y-113752380D02*
X184650000Y-114609523D01*
X184602380Y-114704761D01*
X184507142Y-114752380D01*
X184411904Y-114752380D01*
X184221428Y-114085714D02*
X183840476Y-114085714D01*
X184078571Y-113752380D02*
X184078571Y-114609523D01*
X184030952Y-114704761D01*
X183935714Y-114752380D01*
X183840476Y-114752380D01*
X183126190Y-114704761D02*
X183221428Y-114752380D01*
X183411904Y-114752380D01*
X183507142Y-114704761D01*
X183554761Y-114609523D01*
X183554761Y-114228571D01*
X183507142Y-114133333D01*
X183411904Y-114085714D01*
X183221428Y-114085714D01*
X183126190Y-114133333D01*
X183078571Y-114228571D01*
X183078571Y-114323809D01*
X183554761Y-114419047D01*
X182650000Y-114752380D02*
X182650000Y-114085714D01*
X182650000Y-114276190D02*
X182602380Y-114180952D01*
X182554761Y-114133333D01*
X182459523Y-114085714D01*
X182364285Y-114085714D01*
X182126190Y-114085714D02*
X181888095Y-114752380D01*
X181650000Y-114085714D02*
X181888095Y-114752380D01*
X181983333Y-114990476D01*
X182030952Y-115038095D01*
X182126190Y-115085714D01*
D11*
X190714285Y-106157142D02*
X190714285Y-108442857D01*
X191857142Y-107300000D02*
X189571428Y-107300000D01*
X178014285Y-106157142D02*
X178014285Y-108442857D01*
D10*
X184935714Y-111278571D02*
X184792857Y-111326190D01*
X184745238Y-111373809D01*
X184697619Y-111469047D01*
X184697619Y-111611904D01*
X184745238Y-111707142D01*
X184792857Y-111754761D01*
X184888095Y-111802380D01*
X185269047Y-111802380D01*
X185269047Y-110802380D01*
X184935714Y-110802380D01*
X184840476Y-110850000D01*
X184792857Y-110897619D01*
X184745238Y-110992857D01*
X184745238Y-111088095D01*
X184792857Y-111183333D01*
X184840476Y-111230952D01*
X184935714Y-111278571D01*
X185269047Y-111278571D01*
X184411904Y-110802380D02*
X183840476Y-110802380D01*
X184126190Y-111802380D02*
X184126190Y-110802380D01*
X182983333Y-111802380D02*
X183554761Y-111802380D01*
X183269047Y-111802380D02*
X183269047Y-110802380D01*
X183364285Y-110945238D01*
X183459523Y-111040476D01*
X183554761Y-111088095D01*
G04 #@! TD*
M02*
