G04 #@! TF.GenerationSoftware,KiCad,Pcbnew,5.0.1*
G04 #@! TF.CreationDate,2018-10-18T13:56:00+02:00*
G04 #@! TF.ProjectId,MicroFlux,4D6963726F466C75782E6B696361645F,rev?*
G04 #@! TF.SameCoordinates,Original*
G04 #@! TF.FileFunction,Copper,L1,Top,Signal*
G04 #@! TF.FilePolarity,Positive*
%FSLAX46Y46*%
G04 Gerber Fmt 4.6, Leading zero omitted, Abs format (unit mm)*
G04 Created by KiCad (PCBNEW 5.0.1) date Thu 18 Oct 2018 01:56:00 PM CEST*
%MOMM*%
%LPD*%
G01*
G04 APERTURE LIST*
G04 #@! TA.AperFunction,EtchedComponent*
%ADD10C,0.010000*%
G04 #@! TD*
G04 #@! TA.AperFunction,ComponentPad*
%ADD11R,1.800000X1.800000*%
G04 #@! TD*
G04 #@! TA.AperFunction,ComponentPad*
%ADD12C,1.800000*%
G04 #@! TD*
G04 #@! TA.AperFunction,ComponentPad*
%ADD13C,1.400000*%
G04 #@! TD*
G04 #@! TA.AperFunction,ComponentPad*
%ADD14O,1.400000X1.400000*%
G04 #@! TD*
G04 #@! TA.AperFunction,ComponentPad*
%ADD15R,1.500000X1.500000*%
G04 #@! TD*
G04 #@! TA.AperFunction,ComponentPad*
%ADD16O,1.500000X1.500000*%
G04 #@! TD*
G04 #@! TA.AperFunction,ComponentPad*
%ADD17C,2.000000*%
G04 #@! TD*
G04 #@! TA.AperFunction,Conductor*
%ADD18C,0.100000*%
G04 #@! TD*
G04 #@! TA.AperFunction,ConnectorPad*
%ADD19C,2.600000*%
G04 #@! TD*
G04 #@! TA.AperFunction,ComponentPad*
%ADD20C,3.000000*%
G04 #@! TD*
G04 #@! TA.AperFunction,ComponentPad*
%ADD21C,1.600000*%
G04 #@! TD*
G04 #@! TA.AperFunction,ComponentPad*
%ADD22R,1.600000X1.600000*%
G04 #@! TD*
G04 #@! TA.AperFunction,ComponentPad*
%ADD23R,2.400000X1.600000*%
G04 #@! TD*
G04 #@! TA.AperFunction,ComponentPad*
%ADD24O,2.400000X1.600000*%
G04 #@! TD*
G04 #@! TA.AperFunction,Conductor*
%ADD25C,0.250000*%
G04 #@! TD*
G04 #@! TA.AperFunction,Conductor*
%ADD26C,0.254000*%
G04 #@! TD*
G04 APERTURE END LIST*
D10*
G04 #@! TO.C,REF\002A\002A*
G36*
X172823910Y-110272348D02*
X172902454Y-110272778D01*
X172959298Y-110273942D01*
X172998105Y-110276207D01*
X173022538Y-110279940D01*
X173036262Y-110285506D01*
X173042940Y-110293273D01*
X173046236Y-110303605D01*
X173046556Y-110304943D01*
X173051562Y-110329079D01*
X173060829Y-110376701D01*
X173073392Y-110442741D01*
X173088287Y-110522128D01*
X173104551Y-110609796D01*
X173105119Y-110612875D01*
X173121410Y-110698789D01*
X173136652Y-110774696D01*
X173149861Y-110836045D01*
X173160054Y-110878282D01*
X173166248Y-110896855D01*
X173166543Y-110897184D01*
X173184788Y-110906253D01*
X173222405Y-110921367D01*
X173271271Y-110939262D01*
X173271543Y-110939358D01*
X173333093Y-110962493D01*
X173405657Y-110991965D01*
X173474057Y-111021597D01*
X173477294Y-111023062D01*
X173588702Y-111073626D01*
X173835399Y-110905160D01*
X173911077Y-110853803D01*
X173979631Y-110807889D01*
X174037088Y-110770030D01*
X174079476Y-110742837D01*
X174102825Y-110728921D01*
X174105042Y-110727889D01*
X174122010Y-110732484D01*
X174153701Y-110754655D01*
X174201352Y-110795447D01*
X174266198Y-110855905D01*
X174332397Y-110920227D01*
X174396214Y-110983612D01*
X174453329Y-111041451D01*
X174500305Y-111090175D01*
X174533703Y-111126210D01*
X174550085Y-111145984D01*
X174550694Y-111147002D01*
X174552505Y-111160572D01*
X174545683Y-111182733D01*
X174528540Y-111216478D01*
X174499393Y-111264800D01*
X174456555Y-111330692D01*
X174399448Y-111415517D01*
X174348766Y-111490177D01*
X174303461Y-111557140D01*
X174266150Y-111612516D01*
X174239452Y-111652420D01*
X174225985Y-111672962D01*
X174225137Y-111674356D01*
X174226781Y-111694038D01*
X174239245Y-111732293D01*
X174260048Y-111781889D01*
X174267462Y-111797728D01*
X174299814Y-111868290D01*
X174334328Y-111948353D01*
X174362365Y-112017629D01*
X174382568Y-112069045D01*
X174398615Y-112108119D01*
X174407888Y-112128541D01*
X174409041Y-112130114D01*
X174426096Y-112132721D01*
X174466298Y-112139863D01*
X174524302Y-112150523D01*
X174594763Y-112163685D01*
X174672335Y-112178333D01*
X174751672Y-112193449D01*
X174827431Y-112208018D01*
X174894264Y-112221022D01*
X174946828Y-112231445D01*
X174979776Y-112238270D01*
X174987857Y-112240199D01*
X174996205Y-112244962D01*
X175002506Y-112255718D01*
X175007045Y-112276098D01*
X175010104Y-112309734D01*
X175011967Y-112360255D01*
X175012918Y-112431292D01*
X175013240Y-112526476D01*
X175013257Y-112565492D01*
X175013257Y-112882799D01*
X174937057Y-112897839D01*
X174894663Y-112905995D01*
X174831400Y-112917899D01*
X174754962Y-112932116D01*
X174673043Y-112947210D01*
X174650400Y-112951355D01*
X174574806Y-112966053D01*
X174508953Y-112980505D01*
X174458366Y-112993375D01*
X174428574Y-113003322D01*
X174423612Y-113006287D01*
X174411426Y-113027283D01*
X174393953Y-113067967D01*
X174374577Y-113120322D01*
X174370734Y-113131600D01*
X174345339Y-113201523D01*
X174313817Y-113280418D01*
X174282969Y-113351266D01*
X174282817Y-113351595D01*
X174231447Y-113462733D01*
X174400399Y-113711253D01*
X174569352Y-113959772D01*
X174352429Y-114177058D01*
X174286819Y-114241726D01*
X174226979Y-114298733D01*
X174176267Y-114345033D01*
X174138046Y-114377584D01*
X174115675Y-114393343D01*
X174112466Y-114394343D01*
X174093626Y-114386469D01*
X174055180Y-114364578D01*
X174001330Y-114331267D01*
X173936276Y-114289131D01*
X173865940Y-114241943D01*
X173794555Y-114193810D01*
X173730908Y-114151928D01*
X173679041Y-114118871D01*
X173642995Y-114097218D01*
X173626867Y-114089543D01*
X173607189Y-114096037D01*
X173569875Y-114113150D01*
X173522621Y-114137326D01*
X173517612Y-114140013D01*
X173453977Y-114171927D01*
X173410341Y-114187579D01*
X173383202Y-114187745D01*
X173369057Y-114173204D01*
X173368975Y-114173000D01*
X173361905Y-114155779D01*
X173345042Y-114114899D01*
X173319695Y-114053525D01*
X173287171Y-113974819D01*
X173248778Y-113881947D01*
X173205822Y-113778072D01*
X173164222Y-113677502D01*
X173118504Y-113566516D01*
X173076526Y-113463703D01*
X173039548Y-113372215D01*
X173008827Y-113295201D01*
X172985622Y-113235815D01*
X172971190Y-113197209D01*
X172966743Y-113182800D01*
X172977896Y-113166272D01*
X173007069Y-113139930D01*
X173045971Y-113110887D01*
X173156757Y-113019039D01*
X173243351Y-112913759D01*
X173304716Y-112797266D01*
X173339815Y-112671776D01*
X173347608Y-112539507D01*
X173341943Y-112478457D01*
X173311078Y-112351795D01*
X173257920Y-112239941D01*
X173185767Y-112144001D01*
X173097917Y-112065076D01*
X172997665Y-112004270D01*
X172888310Y-111962687D01*
X172773147Y-111941428D01*
X172655475Y-111941599D01*
X172538590Y-111964301D01*
X172425789Y-112010638D01*
X172320369Y-112081713D01*
X172276368Y-112121911D01*
X172191979Y-112225129D01*
X172133222Y-112337925D01*
X172099704Y-112457010D01*
X172091035Y-112579095D01*
X172106823Y-112700893D01*
X172146678Y-112819116D01*
X172210207Y-112930475D01*
X172297021Y-113031684D01*
X172394029Y-113110887D01*
X172434437Y-113141162D01*
X172462982Y-113167219D01*
X172473257Y-113182825D01*
X172467877Y-113199843D01*
X172452575Y-113240500D01*
X172428612Y-113301642D01*
X172397244Y-113380119D01*
X172359732Y-113472780D01*
X172317333Y-113576472D01*
X172275663Y-113677526D01*
X172229690Y-113788607D01*
X172187107Y-113891541D01*
X172149221Y-113983165D01*
X172117340Y-114060316D01*
X172092771Y-114119831D01*
X172076820Y-114158544D01*
X172070910Y-114173000D01*
X172056948Y-114187685D01*
X172029940Y-114187642D01*
X171986413Y-114172099D01*
X171922890Y-114140284D01*
X171922388Y-114140013D01*
X171874560Y-114115323D01*
X171835897Y-114097338D01*
X171814095Y-114089614D01*
X171813133Y-114089543D01*
X171796721Y-114097378D01*
X171760487Y-114119165D01*
X171708474Y-114152328D01*
X171644725Y-114194291D01*
X171574060Y-114241943D01*
X171502116Y-114290191D01*
X171437274Y-114332151D01*
X171383735Y-114365227D01*
X171345697Y-114386821D01*
X171327533Y-114394343D01*
X171310808Y-114384457D01*
X171277180Y-114356826D01*
X171230010Y-114314495D01*
X171172658Y-114260505D01*
X171108484Y-114197899D01*
X171087497Y-114176983D01*
X170870499Y-113959623D01*
X171035668Y-113717220D01*
X171085864Y-113642781D01*
X171129919Y-113575972D01*
X171165362Y-113520665D01*
X171189719Y-113480729D01*
X171200522Y-113460036D01*
X171200838Y-113458563D01*
X171195143Y-113439058D01*
X171179826Y-113399822D01*
X171157537Y-113347430D01*
X171141893Y-113312355D01*
X171112641Y-113245201D01*
X171085094Y-113177358D01*
X171063737Y-113120034D01*
X171057935Y-113102572D01*
X171041452Y-113055938D01*
X171025340Y-113019905D01*
X171016490Y-113006287D01*
X170996960Y-112997952D01*
X170954334Y-112986137D01*
X170894145Y-112972181D01*
X170821922Y-112957422D01*
X170789600Y-112951355D01*
X170707522Y-112936273D01*
X170628795Y-112921669D01*
X170561109Y-112908980D01*
X170512160Y-112899642D01*
X170502943Y-112897839D01*
X170426743Y-112882799D01*
X170426743Y-112565492D01*
X170426914Y-112461154D01*
X170427616Y-112382213D01*
X170429134Y-112325038D01*
X170431749Y-112285999D01*
X170435746Y-112261465D01*
X170441409Y-112247805D01*
X170449020Y-112241389D01*
X170452143Y-112240199D01*
X170470978Y-112235980D01*
X170512588Y-112227562D01*
X170571630Y-112215961D01*
X170642757Y-112202195D01*
X170720625Y-112187280D01*
X170799887Y-112172232D01*
X170875198Y-112158069D01*
X170941213Y-112145806D01*
X170992587Y-112136461D01*
X171023975Y-112131050D01*
X171030959Y-112130114D01*
X171037285Y-112117596D01*
X171051290Y-112084246D01*
X171070355Y-112036377D01*
X171077634Y-112017629D01*
X171106996Y-111945195D01*
X171141571Y-111865170D01*
X171172537Y-111797728D01*
X171195323Y-111746159D01*
X171210482Y-111703785D01*
X171215542Y-111677834D01*
X171214736Y-111674356D01*
X171204041Y-111657936D01*
X171179620Y-111621417D01*
X171144095Y-111568687D01*
X171100087Y-111503635D01*
X171050217Y-111430151D01*
X171040356Y-111415645D01*
X170982492Y-111329704D01*
X170939956Y-111264261D01*
X170911054Y-111216304D01*
X170894090Y-111182820D01*
X170887367Y-111160795D01*
X170889190Y-111147217D01*
X170889236Y-111147131D01*
X170903586Y-111129297D01*
X170935323Y-111094817D01*
X170981010Y-111047268D01*
X171037204Y-110990222D01*
X171100468Y-110927255D01*
X171107602Y-110920227D01*
X171187330Y-110843020D01*
X171248857Y-110786330D01*
X171293421Y-110749110D01*
X171322257Y-110730315D01*
X171334958Y-110727889D01*
X171353494Y-110738471D01*
X171391961Y-110762916D01*
X171446386Y-110798612D01*
X171512798Y-110842947D01*
X171587225Y-110893311D01*
X171604601Y-110905160D01*
X171851297Y-111073626D01*
X171962706Y-111023062D01*
X172030457Y-110993595D01*
X172103183Y-110963959D01*
X172165703Y-110940330D01*
X172168457Y-110939358D01*
X172217360Y-110921457D01*
X172255057Y-110906320D01*
X172273425Y-110897210D01*
X172273456Y-110897184D01*
X172279285Y-110880717D01*
X172289192Y-110840219D01*
X172302195Y-110780242D01*
X172317309Y-110705340D01*
X172333552Y-110620064D01*
X172334881Y-110612875D01*
X172351175Y-110525014D01*
X172366133Y-110445260D01*
X172378791Y-110378681D01*
X172388186Y-110330347D01*
X172393354Y-110305325D01*
X172393444Y-110304943D01*
X172396589Y-110294299D01*
X172402704Y-110286262D01*
X172415453Y-110280467D01*
X172438500Y-110276547D01*
X172475509Y-110274135D01*
X172530144Y-110272865D01*
X172606067Y-110272371D01*
X172706944Y-110272286D01*
X172720000Y-110272286D01*
X172823910Y-110272348D01*
X172823910Y-110272348D01*
G37*
X172823910Y-110272348D02*
X172902454Y-110272778D01*
X172959298Y-110273942D01*
X172998105Y-110276207D01*
X173022538Y-110279940D01*
X173036262Y-110285506D01*
X173042940Y-110293273D01*
X173046236Y-110303605D01*
X173046556Y-110304943D01*
X173051562Y-110329079D01*
X173060829Y-110376701D01*
X173073392Y-110442741D01*
X173088287Y-110522128D01*
X173104551Y-110609796D01*
X173105119Y-110612875D01*
X173121410Y-110698789D01*
X173136652Y-110774696D01*
X173149861Y-110836045D01*
X173160054Y-110878282D01*
X173166248Y-110896855D01*
X173166543Y-110897184D01*
X173184788Y-110906253D01*
X173222405Y-110921367D01*
X173271271Y-110939262D01*
X173271543Y-110939358D01*
X173333093Y-110962493D01*
X173405657Y-110991965D01*
X173474057Y-111021597D01*
X173477294Y-111023062D01*
X173588702Y-111073626D01*
X173835399Y-110905160D01*
X173911077Y-110853803D01*
X173979631Y-110807889D01*
X174037088Y-110770030D01*
X174079476Y-110742837D01*
X174102825Y-110728921D01*
X174105042Y-110727889D01*
X174122010Y-110732484D01*
X174153701Y-110754655D01*
X174201352Y-110795447D01*
X174266198Y-110855905D01*
X174332397Y-110920227D01*
X174396214Y-110983612D01*
X174453329Y-111041451D01*
X174500305Y-111090175D01*
X174533703Y-111126210D01*
X174550085Y-111145984D01*
X174550694Y-111147002D01*
X174552505Y-111160572D01*
X174545683Y-111182733D01*
X174528540Y-111216478D01*
X174499393Y-111264800D01*
X174456555Y-111330692D01*
X174399448Y-111415517D01*
X174348766Y-111490177D01*
X174303461Y-111557140D01*
X174266150Y-111612516D01*
X174239452Y-111652420D01*
X174225985Y-111672962D01*
X174225137Y-111674356D01*
X174226781Y-111694038D01*
X174239245Y-111732293D01*
X174260048Y-111781889D01*
X174267462Y-111797728D01*
X174299814Y-111868290D01*
X174334328Y-111948353D01*
X174362365Y-112017629D01*
X174382568Y-112069045D01*
X174398615Y-112108119D01*
X174407888Y-112128541D01*
X174409041Y-112130114D01*
X174426096Y-112132721D01*
X174466298Y-112139863D01*
X174524302Y-112150523D01*
X174594763Y-112163685D01*
X174672335Y-112178333D01*
X174751672Y-112193449D01*
X174827431Y-112208018D01*
X174894264Y-112221022D01*
X174946828Y-112231445D01*
X174979776Y-112238270D01*
X174987857Y-112240199D01*
X174996205Y-112244962D01*
X175002506Y-112255718D01*
X175007045Y-112276098D01*
X175010104Y-112309734D01*
X175011967Y-112360255D01*
X175012918Y-112431292D01*
X175013240Y-112526476D01*
X175013257Y-112565492D01*
X175013257Y-112882799D01*
X174937057Y-112897839D01*
X174894663Y-112905995D01*
X174831400Y-112917899D01*
X174754962Y-112932116D01*
X174673043Y-112947210D01*
X174650400Y-112951355D01*
X174574806Y-112966053D01*
X174508953Y-112980505D01*
X174458366Y-112993375D01*
X174428574Y-113003322D01*
X174423612Y-113006287D01*
X174411426Y-113027283D01*
X174393953Y-113067967D01*
X174374577Y-113120322D01*
X174370734Y-113131600D01*
X174345339Y-113201523D01*
X174313817Y-113280418D01*
X174282969Y-113351266D01*
X174282817Y-113351595D01*
X174231447Y-113462733D01*
X174400399Y-113711253D01*
X174569352Y-113959772D01*
X174352429Y-114177058D01*
X174286819Y-114241726D01*
X174226979Y-114298733D01*
X174176267Y-114345033D01*
X174138046Y-114377584D01*
X174115675Y-114393343D01*
X174112466Y-114394343D01*
X174093626Y-114386469D01*
X174055180Y-114364578D01*
X174001330Y-114331267D01*
X173936276Y-114289131D01*
X173865940Y-114241943D01*
X173794555Y-114193810D01*
X173730908Y-114151928D01*
X173679041Y-114118871D01*
X173642995Y-114097218D01*
X173626867Y-114089543D01*
X173607189Y-114096037D01*
X173569875Y-114113150D01*
X173522621Y-114137326D01*
X173517612Y-114140013D01*
X173453977Y-114171927D01*
X173410341Y-114187579D01*
X173383202Y-114187745D01*
X173369057Y-114173204D01*
X173368975Y-114173000D01*
X173361905Y-114155779D01*
X173345042Y-114114899D01*
X173319695Y-114053525D01*
X173287171Y-113974819D01*
X173248778Y-113881947D01*
X173205822Y-113778072D01*
X173164222Y-113677502D01*
X173118504Y-113566516D01*
X173076526Y-113463703D01*
X173039548Y-113372215D01*
X173008827Y-113295201D01*
X172985622Y-113235815D01*
X172971190Y-113197209D01*
X172966743Y-113182800D01*
X172977896Y-113166272D01*
X173007069Y-113139930D01*
X173045971Y-113110887D01*
X173156757Y-113019039D01*
X173243351Y-112913759D01*
X173304716Y-112797266D01*
X173339815Y-112671776D01*
X173347608Y-112539507D01*
X173341943Y-112478457D01*
X173311078Y-112351795D01*
X173257920Y-112239941D01*
X173185767Y-112144001D01*
X173097917Y-112065076D01*
X172997665Y-112004270D01*
X172888310Y-111962687D01*
X172773147Y-111941428D01*
X172655475Y-111941599D01*
X172538590Y-111964301D01*
X172425789Y-112010638D01*
X172320369Y-112081713D01*
X172276368Y-112121911D01*
X172191979Y-112225129D01*
X172133222Y-112337925D01*
X172099704Y-112457010D01*
X172091035Y-112579095D01*
X172106823Y-112700893D01*
X172146678Y-112819116D01*
X172210207Y-112930475D01*
X172297021Y-113031684D01*
X172394029Y-113110887D01*
X172434437Y-113141162D01*
X172462982Y-113167219D01*
X172473257Y-113182825D01*
X172467877Y-113199843D01*
X172452575Y-113240500D01*
X172428612Y-113301642D01*
X172397244Y-113380119D01*
X172359732Y-113472780D01*
X172317333Y-113576472D01*
X172275663Y-113677526D01*
X172229690Y-113788607D01*
X172187107Y-113891541D01*
X172149221Y-113983165D01*
X172117340Y-114060316D01*
X172092771Y-114119831D01*
X172076820Y-114158544D01*
X172070910Y-114173000D01*
X172056948Y-114187685D01*
X172029940Y-114187642D01*
X171986413Y-114172099D01*
X171922890Y-114140284D01*
X171922388Y-114140013D01*
X171874560Y-114115323D01*
X171835897Y-114097338D01*
X171814095Y-114089614D01*
X171813133Y-114089543D01*
X171796721Y-114097378D01*
X171760487Y-114119165D01*
X171708474Y-114152328D01*
X171644725Y-114194291D01*
X171574060Y-114241943D01*
X171502116Y-114290191D01*
X171437274Y-114332151D01*
X171383735Y-114365227D01*
X171345697Y-114386821D01*
X171327533Y-114394343D01*
X171310808Y-114384457D01*
X171277180Y-114356826D01*
X171230010Y-114314495D01*
X171172658Y-114260505D01*
X171108484Y-114197899D01*
X171087497Y-114176983D01*
X170870499Y-113959623D01*
X171035668Y-113717220D01*
X171085864Y-113642781D01*
X171129919Y-113575972D01*
X171165362Y-113520665D01*
X171189719Y-113480729D01*
X171200522Y-113460036D01*
X171200838Y-113458563D01*
X171195143Y-113439058D01*
X171179826Y-113399822D01*
X171157537Y-113347430D01*
X171141893Y-113312355D01*
X171112641Y-113245201D01*
X171085094Y-113177358D01*
X171063737Y-113120034D01*
X171057935Y-113102572D01*
X171041452Y-113055938D01*
X171025340Y-113019905D01*
X171016490Y-113006287D01*
X170996960Y-112997952D01*
X170954334Y-112986137D01*
X170894145Y-112972181D01*
X170821922Y-112957422D01*
X170789600Y-112951355D01*
X170707522Y-112936273D01*
X170628795Y-112921669D01*
X170561109Y-112908980D01*
X170512160Y-112899642D01*
X170502943Y-112897839D01*
X170426743Y-112882799D01*
X170426743Y-112565492D01*
X170426914Y-112461154D01*
X170427616Y-112382213D01*
X170429134Y-112325038D01*
X170431749Y-112285999D01*
X170435746Y-112261465D01*
X170441409Y-112247805D01*
X170449020Y-112241389D01*
X170452143Y-112240199D01*
X170470978Y-112235980D01*
X170512588Y-112227562D01*
X170571630Y-112215961D01*
X170642757Y-112202195D01*
X170720625Y-112187280D01*
X170799887Y-112172232D01*
X170875198Y-112158069D01*
X170941213Y-112145806D01*
X170992587Y-112136461D01*
X171023975Y-112131050D01*
X171030959Y-112130114D01*
X171037285Y-112117596D01*
X171051290Y-112084246D01*
X171070355Y-112036377D01*
X171077634Y-112017629D01*
X171106996Y-111945195D01*
X171141571Y-111865170D01*
X171172537Y-111797728D01*
X171195323Y-111746159D01*
X171210482Y-111703785D01*
X171215542Y-111677834D01*
X171214736Y-111674356D01*
X171204041Y-111657936D01*
X171179620Y-111621417D01*
X171144095Y-111568687D01*
X171100087Y-111503635D01*
X171050217Y-111430151D01*
X171040356Y-111415645D01*
X170982492Y-111329704D01*
X170939956Y-111264261D01*
X170911054Y-111216304D01*
X170894090Y-111182820D01*
X170887367Y-111160795D01*
X170889190Y-111147217D01*
X170889236Y-111147131D01*
X170903586Y-111129297D01*
X170935323Y-111094817D01*
X170981010Y-111047268D01*
X171037204Y-110990222D01*
X171100468Y-110927255D01*
X171107602Y-110920227D01*
X171187330Y-110843020D01*
X171248857Y-110786330D01*
X171293421Y-110749110D01*
X171322257Y-110730315D01*
X171334958Y-110727889D01*
X171353494Y-110738471D01*
X171391961Y-110762916D01*
X171446386Y-110798612D01*
X171512798Y-110842947D01*
X171587225Y-110893311D01*
X171604601Y-110905160D01*
X171851297Y-111073626D01*
X171962706Y-111023062D01*
X172030457Y-110993595D01*
X172103183Y-110963959D01*
X172165703Y-110940330D01*
X172168457Y-110939358D01*
X172217360Y-110921457D01*
X172255057Y-110906320D01*
X172273425Y-110897210D01*
X172273456Y-110897184D01*
X172279285Y-110880717D01*
X172289192Y-110840219D01*
X172302195Y-110780242D01*
X172317309Y-110705340D01*
X172333552Y-110620064D01*
X172334881Y-110612875D01*
X172351175Y-110525014D01*
X172366133Y-110445260D01*
X172378791Y-110378681D01*
X172388186Y-110330347D01*
X172393354Y-110305325D01*
X172393444Y-110304943D01*
X172396589Y-110294299D01*
X172402704Y-110286262D01*
X172415453Y-110280467D01*
X172438500Y-110276547D01*
X172475509Y-110274135D01*
X172530144Y-110272865D01*
X172606067Y-110272371D01*
X172706944Y-110272286D01*
X172720000Y-110272286D01*
X172823910Y-110272348D01*
G36*
X175873595Y-114996966D02*
X175931021Y-115034497D01*
X175958719Y-115068096D01*
X175980662Y-115129064D01*
X175982405Y-115177308D01*
X175978457Y-115241816D01*
X175829686Y-115306934D01*
X175757349Y-115340202D01*
X175710084Y-115366964D01*
X175685507Y-115390144D01*
X175681237Y-115412667D01*
X175694889Y-115437455D01*
X175709943Y-115453886D01*
X175753746Y-115480235D01*
X175801389Y-115482081D01*
X175845145Y-115461546D01*
X175877289Y-115420752D01*
X175883038Y-115406347D01*
X175910576Y-115361356D01*
X175942258Y-115342182D01*
X175985714Y-115325779D01*
X175985714Y-115387966D01*
X175981872Y-115430283D01*
X175966823Y-115465969D01*
X175935280Y-115506943D01*
X175930592Y-115512267D01*
X175895506Y-115548720D01*
X175865347Y-115568283D01*
X175827615Y-115577283D01*
X175796335Y-115580230D01*
X175740385Y-115580965D01*
X175700555Y-115571660D01*
X175675708Y-115557846D01*
X175636656Y-115527467D01*
X175609625Y-115494613D01*
X175592517Y-115453294D01*
X175583238Y-115397521D01*
X175579693Y-115321305D01*
X175579410Y-115282622D01*
X175580372Y-115236247D01*
X175668007Y-115236247D01*
X175669023Y-115261126D01*
X175671556Y-115265200D01*
X175688274Y-115259665D01*
X175724249Y-115245017D01*
X175772331Y-115224190D01*
X175782386Y-115219714D01*
X175843152Y-115188814D01*
X175876632Y-115161657D01*
X175883990Y-115136220D01*
X175866391Y-115110481D01*
X175851856Y-115099109D01*
X175799410Y-115076364D01*
X175750322Y-115080122D01*
X175709227Y-115107884D01*
X175680758Y-115157152D01*
X175671631Y-115196257D01*
X175668007Y-115236247D01*
X175580372Y-115236247D01*
X175581285Y-115192249D01*
X175588196Y-115125384D01*
X175601884Y-115076695D01*
X175624096Y-115040849D01*
X175656574Y-115012513D01*
X175670733Y-115003355D01*
X175735053Y-114979507D01*
X175805473Y-114978006D01*
X175873595Y-114996966D01*
X175873595Y-114996966D01*
G37*
X175873595Y-114996966D02*
X175931021Y-115034497D01*
X175958719Y-115068096D01*
X175980662Y-115129064D01*
X175982405Y-115177308D01*
X175978457Y-115241816D01*
X175829686Y-115306934D01*
X175757349Y-115340202D01*
X175710084Y-115366964D01*
X175685507Y-115390144D01*
X175681237Y-115412667D01*
X175694889Y-115437455D01*
X175709943Y-115453886D01*
X175753746Y-115480235D01*
X175801389Y-115482081D01*
X175845145Y-115461546D01*
X175877289Y-115420752D01*
X175883038Y-115406347D01*
X175910576Y-115361356D01*
X175942258Y-115342182D01*
X175985714Y-115325779D01*
X175985714Y-115387966D01*
X175981872Y-115430283D01*
X175966823Y-115465969D01*
X175935280Y-115506943D01*
X175930592Y-115512267D01*
X175895506Y-115548720D01*
X175865347Y-115568283D01*
X175827615Y-115577283D01*
X175796335Y-115580230D01*
X175740385Y-115580965D01*
X175700555Y-115571660D01*
X175675708Y-115557846D01*
X175636656Y-115527467D01*
X175609625Y-115494613D01*
X175592517Y-115453294D01*
X175583238Y-115397521D01*
X175579693Y-115321305D01*
X175579410Y-115282622D01*
X175580372Y-115236247D01*
X175668007Y-115236247D01*
X175669023Y-115261126D01*
X175671556Y-115265200D01*
X175688274Y-115259665D01*
X175724249Y-115245017D01*
X175772331Y-115224190D01*
X175782386Y-115219714D01*
X175843152Y-115188814D01*
X175876632Y-115161657D01*
X175883990Y-115136220D01*
X175866391Y-115110481D01*
X175851856Y-115099109D01*
X175799410Y-115076364D01*
X175750322Y-115080122D01*
X175709227Y-115107884D01*
X175680758Y-115157152D01*
X175671631Y-115196257D01*
X175668007Y-115236247D01*
X175580372Y-115236247D01*
X175581285Y-115192249D01*
X175588196Y-115125384D01*
X175601884Y-115076695D01*
X175624096Y-115040849D01*
X175656574Y-115012513D01*
X175670733Y-115003355D01*
X175735053Y-114979507D01*
X175805473Y-114978006D01*
X175873595Y-114996966D01*
G36*
X175372600Y-114988752D02*
X175389948Y-114996334D01*
X175431356Y-115029128D01*
X175466765Y-115076547D01*
X175488664Y-115127151D01*
X175492229Y-115152098D01*
X175480279Y-115186927D01*
X175454067Y-115205357D01*
X175425964Y-115216516D01*
X175413095Y-115218572D01*
X175406829Y-115203649D01*
X175394456Y-115171175D01*
X175389028Y-115156502D01*
X175358590Y-115105744D01*
X175314520Y-115080427D01*
X175258010Y-115081206D01*
X175253825Y-115082203D01*
X175223655Y-115096507D01*
X175201476Y-115124393D01*
X175186327Y-115169287D01*
X175177250Y-115234615D01*
X175173286Y-115323804D01*
X175172914Y-115371261D01*
X175172730Y-115446071D01*
X175171522Y-115497069D01*
X175168309Y-115529471D01*
X175162109Y-115548495D01*
X175151940Y-115559356D01*
X175136819Y-115567272D01*
X175135946Y-115567670D01*
X175106828Y-115579981D01*
X175092403Y-115584514D01*
X175090186Y-115570809D01*
X175088289Y-115532925D01*
X175086847Y-115475715D01*
X175085998Y-115404027D01*
X175085829Y-115351565D01*
X175086692Y-115250047D01*
X175090070Y-115173032D01*
X175097142Y-115116023D01*
X175109088Y-115074526D01*
X175127090Y-115044043D01*
X175152327Y-115020080D01*
X175177247Y-115003355D01*
X175237171Y-114981097D01*
X175306911Y-114976076D01*
X175372600Y-114988752D01*
X175372600Y-114988752D01*
G37*
X175372600Y-114988752D02*
X175389948Y-114996334D01*
X175431356Y-115029128D01*
X175466765Y-115076547D01*
X175488664Y-115127151D01*
X175492229Y-115152098D01*
X175480279Y-115186927D01*
X175454067Y-115205357D01*
X175425964Y-115216516D01*
X175413095Y-115218572D01*
X175406829Y-115203649D01*
X175394456Y-115171175D01*
X175389028Y-115156502D01*
X175358590Y-115105744D01*
X175314520Y-115080427D01*
X175258010Y-115081206D01*
X175253825Y-115082203D01*
X175223655Y-115096507D01*
X175201476Y-115124393D01*
X175186327Y-115169287D01*
X175177250Y-115234615D01*
X175173286Y-115323804D01*
X175172914Y-115371261D01*
X175172730Y-115446071D01*
X175171522Y-115497069D01*
X175168309Y-115529471D01*
X175162109Y-115548495D01*
X175151940Y-115559356D01*
X175136819Y-115567272D01*
X175135946Y-115567670D01*
X175106828Y-115579981D01*
X175092403Y-115584514D01*
X175090186Y-115570809D01*
X175088289Y-115532925D01*
X175086847Y-115475715D01*
X175085998Y-115404027D01*
X175085829Y-115351565D01*
X175086692Y-115250047D01*
X175090070Y-115173032D01*
X175097142Y-115116023D01*
X175109088Y-115074526D01*
X175127090Y-115044043D01*
X175152327Y-115020080D01*
X175177247Y-115003355D01*
X175237171Y-114981097D01*
X175306911Y-114976076D01*
X175372600Y-114988752D01*
G36*
X174864876Y-114986335D02*
X174906667Y-115005344D01*
X174939469Y-115028378D01*
X174963503Y-115054133D01*
X174980097Y-115087358D01*
X174990577Y-115132800D01*
X174996271Y-115195207D01*
X174998507Y-115279327D01*
X174998743Y-115334721D01*
X174998743Y-115550826D01*
X174961774Y-115567670D01*
X174932656Y-115579981D01*
X174918231Y-115584514D01*
X174915472Y-115571025D01*
X174913282Y-115534653D01*
X174911942Y-115481542D01*
X174911657Y-115439372D01*
X174910434Y-115378447D01*
X174907136Y-115330115D01*
X174902321Y-115300518D01*
X174898496Y-115294229D01*
X174872783Y-115300652D01*
X174832418Y-115317125D01*
X174785679Y-115339458D01*
X174740845Y-115363457D01*
X174706193Y-115384930D01*
X174690002Y-115399685D01*
X174689938Y-115399845D01*
X174691330Y-115427152D01*
X174703818Y-115453219D01*
X174725743Y-115474392D01*
X174757743Y-115481474D01*
X174785092Y-115480649D01*
X174823826Y-115480042D01*
X174844158Y-115489116D01*
X174856369Y-115513092D01*
X174857909Y-115517613D01*
X174863203Y-115551806D01*
X174849047Y-115572568D01*
X174812148Y-115582462D01*
X174772289Y-115584292D01*
X174700562Y-115570727D01*
X174663432Y-115551355D01*
X174617576Y-115505845D01*
X174593256Y-115449983D01*
X174591073Y-115390957D01*
X174611629Y-115335953D01*
X174642549Y-115301486D01*
X174673420Y-115282189D01*
X174721942Y-115257759D01*
X174778485Y-115232985D01*
X174787910Y-115229199D01*
X174850019Y-115201791D01*
X174885822Y-115177634D01*
X174897337Y-115153619D01*
X174886580Y-115126635D01*
X174868114Y-115105543D01*
X174824469Y-115079572D01*
X174776446Y-115077624D01*
X174732406Y-115097637D01*
X174700709Y-115137551D01*
X174696549Y-115147848D01*
X174672327Y-115185724D01*
X174636965Y-115213842D01*
X174592343Y-115236917D01*
X174592343Y-115171485D01*
X174594969Y-115131506D01*
X174606230Y-115099997D01*
X174631199Y-115066378D01*
X174655169Y-115040484D01*
X174692441Y-115003817D01*
X174721401Y-114984121D01*
X174752505Y-114976220D01*
X174787713Y-114974914D01*
X174864876Y-114986335D01*
X174864876Y-114986335D01*
G37*
X174864876Y-114986335D02*
X174906667Y-115005344D01*
X174939469Y-115028378D01*
X174963503Y-115054133D01*
X174980097Y-115087358D01*
X174990577Y-115132800D01*
X174996271Y-115195207D01*
X174998507Y-115279327D01*
X174998743Y-115334721D01*
X174998743Y-115550826D01*
X174961774Y-115567670D01*
X174932656Y-115579981D01*
X174918231Y-115584514D01*
X174915472Y-115571025D01*
X174913282Y-115534653D01*
X174911942Y-115481542D01*
X174911657Y-115439372D01*
X174910434Y-115378447D01*
X174907136Y-115330115D01*
X174902321Y-115300518D01*
X174898496Y-115294229D01*
X174872783Y-115300652D01*
X174832418Y-115317125D01*
X174785679Y-115339458D01*
X174740845Y-115363457D01*
X174706193Y-115384930D01*
X174690002Y-115399685D01*
X174689938Y-115399845D01*
X174691330Y-115427152D01*
X174703818Y-115453219D01*
X174725743Y-115474392D01*
X174757743Y-115481474D01*
X174785092Y-115480649D01*
X174823826Y-115480042D01*
X174844158Y-115489116D01*
X174856369Y-115513092D01*
X174857909Y-115517613D01*
X174863203Y-115551806D01*
X174849047Y-115572568D01*
X174812148Y-115582462D01*
X174772289Y-115584292D01*
X174700562Y-115570727D01*
X174663432Y-115551355D01*
X174617576Y-115505845D01*
X174593256Y-115449983D01*
X174591073Y-115390957D01*
X174611629Y-115335953D01*
X174642549Y-115301486D01*
X174673420Y-115282189D01*
X174721942Y-115257759D01*
X174778485Y-115232985D01*
X174787910Y-115229199D01*
X174850019Y-115201791D01*
X174885822Y-115177634D01*
X174897337Y-115153619D01*
X174886580Y-115126635D01*
X174868114Y-115105543D01*
X174824469Y-115079572D01*
X174776446Y-115077624D01*
X174732406Y-115097637D01*
X174700709Y-115137551D01*
X174696549Y-115147848D01*
X174672327Y-115185724D01*
X174636965Y-115213842D01*
X174592343Y-115236917D01*
X174592343Y-115171485D01*
X174594969Y-115131506D01*
X174606230Y-115099997D01*
X174631199Y-115066378D01*
X174655169Y-115040484D01*
X174692441Y-115003817D01*
X174721401Y-114984121D01*
X174752505Y-114976220D01*
X174787713Y-114974914D01*
X174864876Y-114986335D01*
G36*
X174499833Y-114988663D02*
X174502048Y-115026850D01*
X174503784Y-115084886D01*
X174504899Y-115158180D01*
X174505257Y-115235055D01*
X174505257Y-115495196D01*
X174459326Y-115541127D01*
X174427675Y-115569429D01*
X174399890Y-115580893D01*
X174361915Y-115580168D01*
X174346840Y-115578321D01*
X174299726Y-115572948D01*
X174260756Y-115569869D01*
X174251257Y-115569585D01*
X174219233Y-115571445D01*
X174173432Y-115576114D01*
X174155674Y-115578321D01*
X174112057Y-115581735D01*
X174082745Y-115574320D01*
X174053680Y-115551427D01*
X174043188Y-115541127D01*
X173997257Y-115495196D01*
X173997257Y-115008602D01*
X174034226Y-114991758D01*
X174066059Y-114979282D01*
X174084683Y-114974914D01*
X174089458Y-114988718D01*
X174093921Y-115027286D01*
X174097775Y-115086356D01*
X174100722Y-115161663D01*
X174102143Y-115225286D01*
X174106114Y-115475657D01*
X174140759Y-115480556D01*
X174172268Y-115477131D01*
X174187708Y-115466041D01*
X174192023Y-115445308D01*
X174195708Y-115401145D01*
X174198469Y-115339146D01*
X174200012Y-115264909D01*
X174200235Y-115226706D01*
X174200457Y-115006783D01*
X174246166Y-114990849D01*
X174278518Y-114980015D01*
X174296115Y-114974962D01*
X174296623Y-114974914D01*
X174298388Y-114988648D01*
X174300329Y-115026730D01*
X174302282Y-115084482D01*
X174304084Y-115157227D01*
X174305343Y-115225286D01*
X174309314Y-115475657D01*
X174396400Y-115475657D01*
X174400396Y-115247240D01*
X174404392Y-115018822D01*
X174446847Y-114996868D01*
X174478192Y-114981793D01*
X174496744Y-114974951D01*
X174497279Y-114974914D01*
X174499833Y-114988663D01*
X174499833Y-114988663D01*
G37*
X174499833Y-114988663D02*
X174502048Y-115026850D01*
X174503784Y-115084886D01*
X174504899Y-115158180D01*
X174505257Y-115235055D01*
X174505257Y-115495196D01*
X174459326Y-115541127D01*
X174427675Y-115569429D01*
X174399890Y-115580893D01*
X174361915Y-115580168D01*
X174346840Y-115578321D01*
X174299726Y-115572948D01*
X174260756Y-115569869D01*
X174251257Y-115569585D01*
X174219233Y-115571445D01*
X174173432Y-115576114D01*
X174155674Y-115578321D01*
X174112057Y-115581735D01*
X174082745Y-115574320D01*
X174053680Y-115551427D01*
X174043188Y-115541127D01*
X173997257Y-115495196D01*
X173997257Y-115008602D01*
X174034226Y-114991758D01*
X174066059Y-114979282D01*
X174084683Y-114974914D01*
X174089458Y-114988718D01*
X174093921Y-115027286D01*
X174097775Y-115086356D01*
X174100722Y-115161663D01*
X174102143Y-115225286D01*
X174106114Y-115475657D01*
X174140759Y-115480556D01*
X174172268Y-115477131D01*
X174187708Y-115466041D01*
X174192023Y-115445308D01*
X174195708Y-115401145D01*
X174198469Y-115339146D01*
X174200012Y-115264909D01*
X174200235Y-115226706D01*
X174200457Y-115006783D01*
X174246166Y-114990849D01*
X174278518Y-114980015D01*
X174296115Y-114974962D01*
X174296623Y-114974914D01*
X174298388Y-114988648D01*
X174300329Y-115026730D01*
X174302282Y-115084482D01*
X174304084Y-115157227D01*
X174305343Y-115225286D01*
X174309314Y-115475657D01*
X174396400Y-115475657D01*
X174400396Y-115247240D01*
X174404392Y-115018822D01*
X174446847Y-114996868D01*
X174478192Y-114981793D01*
X174496744Y-114974951D01*
X174497279Y-114974914D01*
X174499833Y-114988663D01*
G36*
X173910117Y-115095358D02*
X173909933Y-115203837D01*
X173909219Y-115287287D01*
X173907675Y-115349704D01*
X173905001Y-115395085D01*
X173900894Y-115427429D01*
X173895055Y-115450733D01*
X173887182Y-115468995D01*
X173881221Y-115479418D01*
X173831855Y-115535945D01*
X173769264Y-115571377D01*
X173700013Y-115584090D01*
X173630668Y-115572463D01*
X173589375Y-115551568D01*
X173546025Y-115515422D01*
X173516481Y-115471276D01*
X173498655Y-115413462D01*
X173490463Y-115336313D01*
X173489302Y-115279714D01*
X173489458Y-115275647D01*
X173590857Y-115275647D01*
X173591476Y-115340550D01*
X173594314Y-115383514D01*
X173600840Y-115411622D01*
X173612523Y-115431953D01*
X173626483Y-115447288D01*
X173673365Y-115476890D01*
X173723701Y-115479419D01*
X173771276Y-115454705D01*
X173774979Y-115451356D01*
X173790783Y-115433935D01*
X173800693Y-115413209D01*
X173806058Y-115382362D01*
X173808228Y-115334577D01*
X173808571Y-115281748D01*
X173807827Y-115215381D01*
X173804748Y-115171106D01*
X173798061Y-115142009D01*
X173786496Y-115121173D01*
X173777013Y-115110107D01*
X173732960Y-115082198D01*
X173682224Y-115078843D01*
X173633796Y-115100159D01*
X173624450Y-115108073D01*
X173608540Y-115125647D01*
X173598610Y-115146587D01*
X173593278Y-115177782D01*
X173591163Y-115226122D01*
X173590857Y-115275647D01*
X173489458Y-115275647D01*
X173492810Y-115188568D01*
X173504726Y-115120086D01*
X173527135Y-115068600D01*
X173562124Y-115028443D01*
X173589375Y-115007861D01*
X173638907Y-114985625D01*
X173696316Y-114975304D01*
X173749682Y-114978067D01*
X173779543Y-114989212D01*
X173791261Y-114992383D01*
X173799037Y-114980557D01*
X173804465Y-114948866D01*
X173808571Y-114900593D01*
X173813067Y-114846829D01*
X173819313Y-114814482D01*
X173830676Y-114795985D01*
X173850528Y-114783770D01*
X173863000Y-114778362D01*
X173910171Y-114758601D01*
X173910117Y-115095358D01*
X173910117Y-115095358D01*
G37*
X173910117Y-115095358D02*
X173909933Y-115203837D01*
X173909219Y-115287287D01*
X173907675Y-115349704D01*
X173905001Y-115395085D01*
X173900894Y-115427429D01*
X173895055Y-115450733D01*
X173887182Y-115468995D01*
X173881221Y-115479418D01*
X173831855Y-115535945D01*
X173769264Y-115571377D01*
X173700013Y-115584090D01*
X173630668Y-115572463D01*
X173589375Y-115551568D01*
X173546025Y-115515422D01*
X173516481Y-115471276D01*
X173498655Y-115413462D01*
X173490463Y-115336313D01*
X173489302Y-115279714D01*
X173489458Y-115275647D01*
X173590857Y-115275647D01*
X173591476Y-115340550D01*
X173594314Y-115383514D01*
X173600840Y-115411622D01*
X173612523Y-115431953D01*
X173626483Y-115447288D01*
X173673365Y-115476890D01*
X173723701Y-115479419D01*
X173771276Y-115454705D01*
X173774979Y-115451356D01*
X173790783Y-115433935D01*
X173800693Y-115413209D01*
X173806058Y-115382362D01*
X173808228Y-115334577D01*
X173808571Y-115281748D01*
X173807827Y-115215381D01*
X173804748Y-115171106D01*
X173798061Y-115142009D01*
X173786496Y-115121173D01*
X173777013Y-115110107D01*
X173732960Y-115082198D01*
X173682224Y-115078843D01*
X173633796Y-115100159D01*
X173624450Y-115108073D01*
X173608540Y-115125647D01*
X173598610Y-115146587D01*
X173593278Y-115177782D01*
X173591163Y-115226122D01*
X173590857Y-115275647D01*
X173489458Y-115275647D01*
X173492810Y-115188568D01*
X173504726Y-115120086D01*
X173527135Y-115068600D01*
X173562124Y-115028443D01*
X173589375Y-115007861D01*
X173638907Y-114985625D01*
X173696316Y-114975304D01*
X173749682Y-114978067D01*
X173779543Y-114989212D01*
X173791261Y-114992383D01*
X173799037Y-114980557D01*
X173804465Y-114948866D01*
X173808571Y-114900593D01*
X173813067Y-114846829D01*
X173819313Y-114814482D01*
X173830676Y-114795985D01*
X173850528Y-114783770D01*
X173863000Y-114778362D01*
X173910171Y-114758601D01*
X173910117Y-115095358D01*
G36*
X173249926Y-114979755D02*
X173315858Y-115004084D01*
X173369273Y-115047117D01*
X173390164Y-115077409D01*
X173412939Y-115132994D01*
X173412466Y-115173186D01*
X173388562Y-115200217D01*
X173379717Y-115204813D01*
X173341530Y-115219144D01*
X173322028Y-115215472D01*
X173315422Y-115191407D01*
X173315086Y-115178114D01*
X173302992Y-115129210D01*
X173271471Y-115094999D01*
X173227659Y-115078476D01*
X173178695Y-115082634D01*
X173138894Y-115104227D01*
X173125450Y-115116544D01*
X173115921Y-115131487D01*
X173109485Y-115154075D01*
X173105317Y-115189328D01*
X173102597Y-115242266D01*
X173100502Y-115317907D01*
X173099960Y-115341857D01*
X173097981Y-115423790D01*
X173095731Y-115481455D01*
X173092357Y-115519608D01*
X173087006Y-115543004D01*
X173078824Y-115556398D01*
X173066959Y-115564545D01*
X173059362Y-115568144D01*
X173027102Y-115580452D01*
X173008111Y-115584514D01*
X173001836Y-115570948D01*
X172998006Y-115529934D01*
X172996600Y-115460999D01*
X172997598Y-115363669D01*
X172997908Y-115348657D01*
X173000101Y-115259859D01*
X173002693Y-115195019D01*
X173006382Y-115149067D01*
X173011864Y-115116935D01*
X173019835Y-115093553D01*
X173030993Y-115073852D01*
X173036830Y-115065410D01*
X173070296Y-115028057D01*
X173107727Y-114999003D01*
X173112309Y-114996467D01*
X173179426Y-114976443D01*
X173249926Y-114979755D01*
X173249926Y-114979755D01*
G37*
X173249926Y-114979755D02*
X173315858Y-115004084D01*
X173369273Y-115047117D01*
X173390164Y-115077409D01*
X173412939Y-115132994D01*
X173412466Y-115173186D01*
X173388562Y-115200217D01*
X173379717Y-115204813D01*
X173341530Y-115219144D01*
X173322028Y-115215472D01*
X173315422Y-115191407D01*
X173315086Y-115178114D01*
X173302992Y-115129210D01*
X173271471Y-115094999D01*
X173227659Y-115078476D01*
X173178695Y-115082634D01*
X173138894Y-115104227D01*
X173125450Y-115116544D01*
X173115921Y-115131487D01*
X173109485Y-115154075D01*
X173105317Y-115189328D01*
X173102597Y-115242266D01*
X173100502Y-115317907D01*
X173099960Y-115341857D01*
X173097981Y-115423790D01*
X173095731Y-115481455D01*
X173092357Y-115519608D01*
X173087006Y-115543004D01*
X173078824Y-115556398D01*
X173066959Y-115564545D01*
X173059362Y-115568144D01*
X173027102Y-115580452D01*
X173008111Y-115584514D01*
X173001836Y-115570948D01*
X172998006Y-115529934D01*
X172996600Y-115460999D01*
X172997598Y-115363669D01*
X172997908Y-115348657D01*
X173000101Y-115259859D01*
X173002693Y-115195019D01*
X173006382Y-115149067D01*
X173011864Y-115116935D01*
X173019835Y-115093553D01*
X173030993Y-115073852D01*
X173036830Y-115065410D01*
X173070296Y-115028057D01*
X173107727Y-114999003D01*
X173112309Y-114996467D01*
X173179426Y-114976443D01*
X173249926Y-114979755D01*
G36*
X172759744Y-114980968D02*
X172816616Y-115002087D01*
X172817267Y-115002493D01*
X172852440Y-115028380D01*
X172878407Y-115058633D01*
X172896670Y-115098058D01*
X172908732Y-115151462D01*
X172916096Y-115223651D01*
X172920264Y-115319432D01*
X172920629Y-115333078D01*
X172925876Y-115538842D01*
X172881716Y-115561678D01*
X172849763Y-115577110D01*
X172830470Y-115584423D01*
X172829578Y-115584514D01*
X172826239Y-115571022D01*
X172823587Y-115534626D01*
X172821956Y-115481452D01*
X172821600Y-115438393D01*
X172821592Y-115368641D01*
X172818403Y-115324837D01*
X172807288Y-115303944D01*
X172783501Y-115302925D01*
X172742296Y-115318741D01*
X172680086Y-115347815D01*
X172634341Y-115371963D01*
X172610813Y-115392913D01*
X172603896Y-115415747D01*
X172603886Y-115416877D01*
X172615299Y-115456212D01*
X172649092Y-115477462D01*
X172700809Y-115480539D01*
X172738061Y-115480006D01*
X172757703Y-115490735D01*
X172769952Y-115516505D01*
X172777002Y-115549337D01*
X172766842Y-115567966D01*
X172763017Y-115570632D01*
X172727001Y-115581340D01*
X172676566Y-115582856D01*
X172624626Y-115575759D01*
X172587822Y-115562788D01*
X172536938Y-115519585D01*
X172508014Y-115459446D01*
X172502286Y-115412462D01*
X172506657Y-115370082D01*
X172522475Y-115335488D01*
X172553797Y-115304763D01*
X172604678Y-115273990D01*
X172679176Y-115239252D01*
X172683714Y-115237288D01*
X172750821Y-115206287D01*
X172792232Y-115180862D01*
X172809981Y-115158014D01*
X172806107Y-115134745D01*
X172782643Y-115108056D01*
X172775627Y-115101914D01*
X172728630Y-115078100D01*
X172679933Y-115079103D01*
X172637522Y-115102451D01*
X172609384Y-115145675D01*
X172606769Y-115154160D01*
X172581308Y-115195308D01*
X172549001Y-115215128D01*
X172502286Y-115234770D01*
X172502286Y-115183950D01*
X172516496Y-115110082D01*
X172558675Y-115042327D01*
X172580624Y-115019661D01*
X172630517Y-114990569D01*
X172693967Y-114977400D01*
X172759744Y-114980968D01*
X172759744Y-114980968D01*
G37*
X172759744Y-114980968D02*
X172816616Y-115002087D01*
X172817267Y-115002493D01*
X172852440Y-115028380D01*
X172878407Y-115058633D01*
X172896670Y-115098058D01*
X172908732Y-115151462D01*
X172916096Y-115223651D01*
X172920264Y-115319432D01*
X172920629Y-115333078D01*
X172925876Y-115538842D01*
X172881716Y-115561678D01*
X172849763Y-115577110D01*
X172830470Y-115584423D01*
X172829578Y-115584514D01*
X172826239Y-115571022D01*
X172823587Y-115534626D01*
X172821956Y-115481452D01*
X172821600Y-115438393D01*
X172821592Y-115368641D01*
X172818403Y-115324837D01*
X172807288Y-115303944D01*
X172783501Y-115302925D01*
X172742296Y-115318741D01*
X172680086Y-115347815D01*
X172634341Y-115371963D01*
X172610813Y-115392913D01*
X172603896Y-115415747D01*
X172603886Y-115416877D01*
X172615299Y-115456212D01*
X172649092Y-115477462D01*
X172700809Y-115480539D01*
X172738061Y-115480006D01*
X172757703Y-115490735D01*
X172769952Y-115516505D01*
X172777002Y-115549337D01*
X172766842Y-115567966D01*
X172763017Y-115570632D01*
X172727001Y-115581340D01*
X172676566Y-115582856D01*
X172624626Y-115575759D01*
X172587822Y-115562788D01*
X172536938Y-115519585D01*
X172508014Y-115459446D01*
X172502286Y-115412462D01*
X172506657Y-115370082D01*
X172522475Y-115335488D01*
X172553797Y-115304763D01*
X172604678Y-115273990D01*
X172679176Y-115239252D01*
X172683714Y-115237288D01*
X172750821Y-115206287D01*
X172792232Y-115180862D01*
X172809981Y-115158014D01*
X172806107Y-115134745D01*
X172782643Y-115108056D01*
X172775627Y-115101914D01*
X172728630Y-115078100D01*
X172679933Y-115079103D01*
X172637522Y-115102451D01*
X172609384Y-115145675D01*
X172606769Y-115154160D01*
X172581308Y-115195308D01*
X172549001Y-115215128D01*
X172502286Y-115234770D01*
X172502286Y-115183950D01*
X172516496Y-115110082D01*
X172558675Y-115042327D01*
X172580624Y-115019661D01*
X172630517Y-114990569D01*
X172693967Y-114977400D01*
X172759744Y-114980968D01*
G36*
X172095886Y-114881289D02*
X172100139Y-114940613D01*
X172105025Y-114975572D01*
X172111795Y-114990820D01*
X172121702Y-114991015D01*
X172124914Y-114989195D01*
X172167644Y-114976015D01*
X172223227Y-114976785D01*
X172279737Y-114990333D01*
X172315082Y-115007861D01*
X172351321Y-115035861D01*
X172377813Y-115067549D01*
X172395999Y-115107813D01*
X172407322Y-115161543D01*
X172413222Y-115233626D01*
X172415143Y-115328951D01*
X172415177Y-115347237D01*
X172415200Y-115552646D01*
X172369491Y-115568580D01*
X172337027Y-115579420D01*
X172319215Y-115584468D01*
X172318691Y-115584514D01*
X172316937Y-115570828D01*
X172315444Y-115533076D01*
X172314326Y-115476224D01*
X172313697Y-115405234D01*
X172313600Y-115362073D01*
X172313398Y-115276973D01*
X172312358Y-115215981D01*
X172309831Y-115174177D01*
X172305164Y-115146642D01*
X172297707Y-115128456D01*
X172286811Y-115114698D01*
X172280007Y-115108073D01*
X172233272Y-115081375D01*
X172182272Y-115079375D01*
X172136001Y-115101955D01*
X172127444Y-115110107D01*
X172114893Y-115125436D01*
X172106188Y-115143618D01*
X172100631Y-115169909D01*
X172097526Y-115209562D01*
X172096176Y-115267832D01*
X172095886Y-115348173D01*
X172095886Y-115552646D01*
X172050177Y-115568580D01*
X172017713Y-115579420D01*
X171999901Y-115584468D01*
X171999377Y-115584514D01*
X171998037Y-115570623D01*
X171996828Y-115531439D01*
X171995801Y-115470700D01*
X171995002Y-115392141D01*
X171994481Y-115299498D01*
X171994286Y-115196509D01*
X171994286Y-114799342D01*
X172041457Y-114779444D01*
X172088629Y-114759547D01*
X172095886Y-114881289D01*
X172095886Y-114881289D01*
G37*
X172095886Y-114881289D02*
X172100139Y-114940613D01*
X172105025Y-114975572D01*
X172111795Y-114990820D01*
X172121702Y-114991015D01*
X172124914Y-114989195D01*
X172167644Y-114976015D01*
X172223227Y-114976785D01*
X172279737Y-114990333D01*
X172315082Y-115007861D01*
X172351321Y-115035861D01*
X172377813Y-115067549D01*
X172395999Y-115107813D01*
X172407322Y-115161543D01*
X172413222Y-115233626D01*
X172415143Y-115328951D01*
X172415177Y-115347237D01*
X172415200Y-115552646D01*
X172369491Y-115568580D01*
X172337027Y-115579420D01*
X172319215Y-115584468D01*
X172318691Y-115584514D01*
X172316937Y-115570828D01*
X172315444Y-115533076D01*
X172314326Y-115476224D01*
X172313697Y-115405234D01*
X172313600Y-115362073D01*
X172313398Y-115276973D01*
X172312358Y-115215981D01*
X172309831Y-115174177D01*
X172305164Y-115146642D01*
X172297707Y-115128456D01*
X172286811Y-115114698D01*
X172280007Y-115108073D01*
X172233272Y-115081375D01*
X172182272Y-115079375D01*
X172136001Y-115101955D01*
X172127444Y-115110107D01*
X172114893Y-115125436D01*
X172106188Y-115143618D01*
X172100631Y-115169909D01*
X172097526Y-115209562D01*
X172096176Y-115267832D01*
X172095886Y-115348173D01*
X172095886Y-115552646D01*
X172050177Y-115568580D01*
X172017713Y-115579420D01*
X171999901Y-115584468D01*
X171999377Y-115584514D01*
X171998037Y-115570623D01*
X171996828Y-115531439D01*
X171995801Y-115470700D01*
X171995002Y-115392141D01*
X171994481Y-115299498D01*
X171994286Y-115196509D01*
X171994286Y-114799342D01*
X172041457Y-114779444D01*
X172088629Y-114759547D01*
X172095886Y-114881289D01*
G36*
X170888303Y-114961239D02*
X170945527Y-114999735D01*
X170989749Y-115055335D01*
X171016167Y-115126086D01*
X171021510Y-115178162D01*
X171020903Y-115199893D01*
X171015822Y-115216531D01*
X171001855Y-115231437D01*
X170974589Y-115247973D01*
X170929612Y-115269498D01*
X170862511Y-115299374D01*
X170862171Y-115299524D01*
X170800407Y-115327813D01*
X170749759Y-115352933D01*
X170715404Y-115372179D01*
X170702518Y-115382848D01*
X170702514Y-115382934D01*
X170713872Y-115406166D01*
X170740431Y-115431774D01*
X170770923Y-115450221D01*
X170786370Y-115453886D01*
X170828515Y-115441212D01*
X170864808Y-115409471D01*
X170882517Y-115374572D01*
X170899552Y-115348845D01*
X170932922Y-115319546D01*
X170972149Y-115294235D01*
X171006756Y-115280471D01*
X171013993Y-115279714D01*
X171022139Y-115292160D01*
X171022630Y-115323972D01*
X171016643Y-115366866D01*
X171005357Y-115412558D01*
X170989950Y-115452761D01*
X170989171Y-115454322D01*
X170942804Y-115519062D01*
X170882711Y-115563097D01*
X170814465Y-115584711D01*
X170743638Y-115582185D01*
X170675804Y-115553804D01*
X170672788Y-115551808D01*
X170619427Y-115503448D01*
X170584340Y-115440352D01*
X170564922Y-115357387D01*
X170562316Y-115334078D01*
X170557701Y-115224055D01*
X170563233Y-115172748D01*
X170702514Y-115172748D01*
X170704324Y-115204753D01*
X170714222Y-115214093D01*
X170738898Y-115207105D01*
X170777795Y-115190587D01*
X170821275Y-115169881D01*
X170822356Y-115169333D01*
X170859209Y-115149949D01*
X170874000Y-115137013D01*
X170870353Y-115123451D01*
X170854995Y-115105632D01*
X170815923Y-115079845D01*
X170773846Y-115077950D01*
X170736103Y-115096717D01*
X170710034Y-115132915D01*
X170702514Y-115172748D01*
X170563233Y-115172748D01*
X170567194Y-115136027D01*
X170591550Y-115066212D01*
X170625456Y-115017302D01*
X170686653Y-114967878D01*
X170754063Y-114943359D01*
X170822880Y-114941797D01*
X170888303Y-114961239D01*
X170888303Y-114961239D01*
G37*
X170888303Y-114961239D02*
X170945527Y-114999735D01*
X170989749Y-115055335D01*
X171016167Y-115126086D01*
X171021510Y-115178162D01*
X171020903Y-115199893D01*
X171015822Y-115216531D01*
X171001855Y-115231437D01*
X170974589Y-115247973D01*
X170929612Y-115269498D01*
X170862511Y-115299374D01*
X170862171Y-115299524D01*
X170800407Y-115327813D01*
X170749759Y-115352933D01*
X170715404Y-115372179D01*
X170702518Y-115382848D01*
X170702514Y-115382934D01*
X170713872Y-115406166D01*
X170740431Y-115431774D01*
X170770923Y-115450221D01*
X170786370Y-115453886D01*
X170828515Y-115441212D01*
X170864808Y-115409471D01*
X170882517Y-115374572D01*
X170899552Y-115348845D01*
X170932922Y-115319546D01*
X170972149Y-115294235D01*
X171006756Y-115280471D01*
X171013993Y-115279714D01*
X171022139Y-115292160D01*
X171022630Y-115323972D01*
X171016643Y-115366866D01*
X171005357Y-115412558D01*
X170989950Y-115452761D01*
X170989171Y-115454322D01*
X170942804Y-115519062D01*
X170882711Y-115563097D01*
X170814465Y-115584711D01*
X170743638Y-115582185D01*
X170675804Y-115553804D01*
X170672788Y-115551808D01*
X170619427Y-115503448D01*
X170584340Y-115440352D01*
X170564922Y-115357387D01*
X170562316Y-115334078D01*
X170557701Y-115224055D01*
X170563233Y-115172748D01*
X170702514Y-115172748D01*
X170704324Y-115204753D01*
X170714222Y-115214093D01*
X170738898Y-115207105D01*
X170777795Y-115190587D01*
X170821275Y-115169881D01*
X170822356Y-115169333D01*
X170859209Y-115149949D01*
X170874000Y-115137013D01*
X170870353Y-115123451D01*
X170854995Y-115105632D01*
X170815923Y-115079845D01*
X170773846Y-115077950D01*
X170736103Y-115096717D01*
X170710034Y-115132915D01*
X170702514Y-115172748D01*
X170563233Y-115172748D01*
X170567194Y-115136027D01*
X170591550Y-115066212D01*
X170625456Y-115017302D01*
X170686653Y-114967878D01*
X170754063Y-114943359D01*
X170822880Y-114941797D01*
X170888303Y-114961239D01*
G36*
X169761115Y-114951962D02*
X169829145Y-114987733D01*
X169879351Y-115045301D01*
X169897185Y-115082312D01*
X169911063Y-115137882D01*
X169918167Y-115208096D01*
X169918840Y-115284727D01*
X169913427Y-115359552D01*
X169902270Y-115424342D01*
X169885714Y-115470873D01*
X169880626Y-115478887D01*
X169820355Y-115538707D01*
X169748769Y-115574535D01*
X169671092Y-115585020D01*
X169592548Y-115568810D01*
X169570689Y-115559092D01*
X169528122Y-115529143D01*
X169490763Y-115489433D01*
X169487232Y-115484397D01*
X169472881Y-115460124D01*
X169463394Y-115434178D01*
X169457790Y-115400022D01*
X169455086Y-115351119D01*
X169454299Y-115280935D01*
X169454286Y-115265200D01*
X169454322Y-115260192D01*
X169599429Y-115260192D01*
X169600273Y-115326430D01*
X169603596Y-115370386D01*
X169610583Y-115398779D01*
X169622416Y-115418325D01*
X169628457Y-115424857D01*
X169663186Y-115449680D01*
X169696903Y-115448548D01*
X169730995Y-115427016D01*
X169751329Y-115404029D01*
X169763371Y-115370478D01*
X169770134Y-115317569D01*
X169770598Y-115311399D01*
X169771752Y-115215513D01*
X169759688Y-115144299D01*
X169734570Y-115098194D01*
X169696560Y-115077635D01*
X169682992Y-115076514D01*
X169647364Y-115082152D01*
X169622994Y-115101686D01*
X169608093Y-115139042D01*
X169600875Y-115198150D01*
X169599429Y-115260192D01*
X169454322Y-115260192D01*
X169454826Y-115190413D01*
X169457096Y-115138159D01*
X169462068Y-115101949D01*
X169470713Y-115075299D01*
X169484005Y-115051722D01*
X169486943Y-115047338D01*
X169536313Y-114988249D01*
X169590109Y-114953947D01*
X169655602Y-114940331D01*
X169677842Y-114939665D01*
X169761115Y-114951962D01*
X169761115Y-114951962D01*
G37*
X169761115Y-114951962D02*
X169829145Y-114987733D01*
X169879351Y-115045301D01*
X169897185Y-115082312D01*
X169911063Y-115137882D01*
X169918167Y-115208096D01*
X169918840Y-115284727D01*
X169913427Y-115359552D01*
X169902270Y-115424342D01*
X169885714Y-115470873D01*
X169880626Y-115478887D01*
X169820355Y-115538707D01*
X169748769Y-115574535D01*
X169671092Y-115585020D01*
X169592548Y-115568810D01*
X169570689Y-115559092D01*
X169528122Y-115529143D01*
X169490763Y-115489433D01*
X169487232Y-115484397D01*
X169472881Y-115460124D01*
X169463394Y-115434178D01*
X169457790Y-115400022D01*
X169455086Y-115351119D01*
X169454299Y-115280935D01*
X169454286Y-115265200D01*
X169454322Y-115260192D01*
X169599429Y-115260192D01*
X169600273Y-115326430D01*
X169603596Y-115370386D01*
X169610583Y-115398779D01*
X169622416Y-115418325D01*
X169628457Y-115424857D01*
X169663186Y-115449680D01*
X169696903Y-115448548D01*
X169730995Y-115427016D01*
X169751329Y-115404029D01*
X169763371Y-115370478D01*
X169770134Y-115317569D01*
X169770598Y-115311399D01*
X169771752Y-115215513D01*
X169759688Y-115144299D01*
X169734570Y-115098194D01*
X169696560Y-115077635D01*
X169682992Y-115076514D01*
X169647364Y-115082152D01*
X169622994Y-115101686D01*
X169608093Y-115139042D01*
X169600875Y-115198150D01*
X169599429Y-115260192D01*
X169454322Y-115260192D01*
X169454826Y-115190413D01*
X169457096Y-115138159D01*
X169462068Y-115101949D01*
X169470713Y-115075299D01*
X169484005Y-115051722D01*
X169486943Y-115047338D01*
X169536313Y-114988249D01*
X169590109Y-114953947D01*
X169655602Y-114940331D01*
X169677842Y-114939665D01*
X169761115Y-114951962D01*
G36*
X171436093Y-114957780D02*
X171482672Y-114984723D01*
X171515057Y-115011466D01*
X171538742Y-115039484D01*
X171555059Y-115073748D01*
X171565339Y-115119227D01*
X171570914Y-115180892D01*
X171573116Y-115263711D01*
X171573371Y-115323246D01*
X171573371Y-115542391D01*
X171511686Y-115570044D01*
X171450000Y-115597697D01*
X171442743Y-115357670D01*
X171439744Y-115268028D01*
X171436598Y-115202962D01*
X171432701Y-115158026D01*
X171427447Y-115128770D01*
X171420231Y-115110748D01*
X171410450Y-115099511D01*
X171407312Y-115097079D01*
X171359761Y-115078083D01*
X171311697Y-115085600D01*
X171283086Y-115105543D01*
X171271447Y-115119675D01*
X171263391Y-115138220D01*
X171258271Y-115166334D01*
X171255441Y-115209173D01*
X171254256Y-115271895D01*
X171254057Y-115337261D01*
X171254018Y-115419268D01*
X171252614Y-115477316D01*
X171247914Y-115516465D01*
X171237987Y-115541780D01*
X171220903Y-115558323D01*
X171194732Y-115571156D01*
X171159775Y-115584491D01*
X171121596Y-115599007D01*
X171126141Y-115341389D01*
X171127971Y-115248519D01*
X171130112Y-115179889D01*
X171133181Y-115130711D01*
X171137794Y-115096198D01*
X171144568Y-115071562D01*
X171154119Y-115052016D01*
X171165634Y-115034770D01*
X171221190Y-114979680D01*
X171288980Y-114947822D01*
X171362713Y-114940191D01*
X171436093Y-114957780D01*
X171436093Y-114957780D01*
G37*
X171436093Y-114957780D02*
X171482672Y-114984723D01*
X171515057Y-115011466D01*
X171538742Y-115039484D01*
X171555059Y-115073748D01*
X171565339Y-115119227D01*
X171570914Y-115180892D01*
X171573116Y-115263711D01*
X171573371Y-115323246D01*
X171573371Y-115542391D01*
X171511686Y-115570044D01*
X171450000Y-115597697D01*
X171442743Y-115357670D01*
X171439744Y-115268028D01*
X171436598Y-115202962D01*
X171432701Y-115158026D01*
X171427447Y-115128770D01*
X171420231Y-115110748D01*
X171410450Y-115099511D01*
X171407312Y-115097079D01*
X171359761Y-115078083D01*
X171311697Y-115085600D01*
X171283086Y-115105543D01*
X171271447Y-115119675D01*
X171263391Y-115138220D01*
X171258271Y-115166334D01*
X171255441Y-115209173D01*
X171254256Y-115271895D01*
X171254057Y-115337261D01*
X171254018Y-115419268D01*
X171252614Y-115477316D01*
X171247914Y-115516465D01*
X171237987Y-115541780D01*
X171220903Y-115558323D01*
X171194732Y-115571156D01*
X171159775Y-115584491D01*
X171121596Y-115599007D01*
X171126141Y-115341389D01*
X171127971Y-115248519D01*
X171130112Y-115179889D01*
X171133181Y-115130711D01*
X171137794Y-115096198D01*
X171144568Y-115071562D01*
X171154119Y-115052016D01*
X171165634Y-115034770D01*
X171221190Y-114979680D01*
X171288980Y-114947822D01*
X171362713Y-114940191D01*
X171436093Y-114957780D01*
G36*
X170319744Y-114949918D02*
X170375201Y-114977568D01*
X170424148Y-115028480D01*
X170437629Y-115047338D01*
X170452314Y-115072015D01*
X170461842Y-115098816D01*
X170467293Y-115134587D01*
X170469747Y-115186169D01*
X170470286Y-115254267D01*
X170467852Y-115347588D01*
X170459394Y-115417657D01*
X170443174Y-115469931D01*
X170417454Y-115509869D01*
X170380497Y-115542929D01*
X170377782Y-115544886D01*
X170341360Y-115564908D01*
X170297502Y-115574815D01*
X170241724Y-115577257D01*
X170151048Y-115577257D01*
X170151010Y-115665283D01*
X170150166Y-115714308D01*
X170145024Y-115743065D01*
X170131587Y-115760311D01*
X170105858Y-115774808D01*
X170099679Y-115777769D01*
X170070764Y-115791648D01*
X170048376Y-115800414D01*
X170031729Y-115801171D01*
X170020036Y-115791023D01*
X170012510Y-115767073D01*
X170008366Y-115726426D01*
X170006815Y-115666186D01*
X170007071Y-115583455D01*
X170008349Y-115475339D01*
X170008748Y-115443000D01*
X170010185Y-115331524D01*
X170011472Y-115258603D01*
X170150971Y-115258603D01*
X170151755Y-115320499D01*
X170155240Y-115360997D01*
X170163124Y-115387708D01*
X170177105Y-115408244D01*
X170186597Y-115418260D01*
X170225404Y-115447567D01*
X170259763Y-115449952D01*
X170295216Y-115425750D01*
X170296114Y-115424857D01*
X170310539Y-115406153D01*
X170319313Y-115380732D01*
X170323739Y-115341584D01*
X170325118Y-115281697D01*
X170325143Y-115268430D01*
X170321812Y-115185901D01*
X170310969Y-115128691D01*
X170291340Y-115093766D01*
X170261650Y-115078094D01*
X170244491Y-115076514D01*
X170203766Y-115083926D01*
X170175832Y-115108330D01*
X170159017Y-115152980D01*
X170151650Y-115221130D01*
X170150971Y-115258603D01*
X170011472Y-115258603D01*
X170011708Y-115245245D01*
X170013677Y-115180333D01*
X170016450Y-115132958D01*
X170020388Y-115099290D01*
X170025849Y-115075498D01*
X170033192Y-115057753D01*
X170042777Y-115042224D01*
X170046887Y-115036381D01*
X170101405Y-114981185D01*
X170170336Y-114949890D01*
X170250072Y-114941165D01*
X170319744Y-114949918D01*
X170319744Y-114949918D01*
G37*
X170319744Y-114949918D02*
X170375201Y-114977568D01*
X170424148Y-115028480D01*
X170437629Y-115047338D01*
X170452314Y-115072015D01*
X170461842Y-115098816D01*
X170467293Y-115134587D01*
X170469747Y-115186169D01*
X170470286Y-115254267D01*
X170467852Y-115347588D01*
X170459394Y-115417657D01*
X170443174Y-115469931D01*
X170417454Y-115509869D01*
X170380497Y-115542929D01*
X170377782Y-115544886D01*
X170341360Y-115564908D01*
X170297502Y-115574815D01*
X170241724Y-115577257D01*
X170151048Y-115577257D01*
X170151010Y-115665283D01*
X170150166Y-115714308D01*
X170145024Y-115743065D01*
X170131587Y-115760311D01*
X170105858Y-115774808D01*
X170099679Y-115777769D01*
X170070764Y-115791648D01*
X170048376Y-115800414D01*
X170031729Y-115801171D01*
X170020036Y-115791023D01*
X170012510Y-115767073D01*
X170008366Y-115726426D01*
X170006815Y-115666186D01*
X170007071Y-115583455D01*
X170008349Y-115475339D01*
X170008748Y-115443000D01*
X170010185Y-115331524D01*
X170011472Y-115258603D01*
X170150971Y-115258603D01*
X170151755Y-115320499D01*
X170155240Y-115360997D01*
X170163124Y-115387708D01*
X170177105Y-115408244D01*
X170186597Y-115418260D01*
X170225404Y-115447567D01*
X170259763Y-115449952D01*
X170295216Y-115425750D01*
X170296114Y-115424857D01*
X170310539Y-115406153D01*
X170319313Y-115380732D01*
X170323739Y-115341584D01*
X170325118Y-115281697D01*
X170325143Y-115268430D01*
X170321812Y-115185901D01*
X170310969Y-115128691D01*
X170291340Y-115093766D01*
X170261650Y-115078094D01*
X170244491Y-115076514D01*
X170203766Y-115083926D01*
X170175832Y-115108330D01*
X170159017Y-115152980D01*
X170151650Y-115221130D01*
X170150971Y-115258603D01*
X170011472Y-115258603D01*
X170011708Y-115245245D01*
X170013677Y-115180333D01*
X170016450Y-115132958D01*
X170020388Y-115099290D01*
X170025849Y-115075498D01*
X170033192Y-115057753D01*
X170042777Y-115042224D01*
X170046887Y-115036381D01*
X170101405Y-114981185D01*
X170170336Y-114949890D01*
X170250072Y-114941165D01*
X170319744Y-114949918D01*
G04 #@! TD*
D11*
G04 #@! TO.P,D1,1*
G04 #@! TO.N,Net-(D1-Pad1)*
X177800000Y-97790000D03*
D12*
G04 #@! TO.P,D1,2*
G04 #@! TO.N,+BATT*
X175260000Y-97790000D03*
G04 #@! TD*
D13*
G04 #@! TO.P,R7,1*
G04 #@! TO.N,GNDREF*
X187960000Y-93980000D03*
D14*
G04 #@! TO.P,R7,2*
G04 #@! TO.N,-BATT*
X195580000Y-93980000D03*
G04 #@! TD*
G04 #@! TO.P,R1,2*
G04 #@! TO.N,IN_LEFT*
X176530000Y-72390000D03*
D13*
G04 #@! TO.P,R1,1*
G04 #@! TO.N,Net-(C1-Pad2)*
X176530000Y-80010000D03*
G04 #@! TD*
G04 #@! TO.P,R2,1*
G04 #@! TO.N,Net-(C2-Pad2)*
X191770000Y-80010000D03*
D14*
G04 #@! TO.P,R2,2*
G04 #@! TO.N,IN_RIGHT*
X191770000Y-72390000D03*
G04 #@! TD*
G04 #@! TO.P,R3,2*
G04 #@! TO.N,Net-(C1-Pad2)*
X173990000Y-78740000D03*
D13*
G04 #@! TO.P,R3,1*
G04 #@! TO.N,AMPLIFIED_LEFT*
X173990000Y-86360000D03*
G04 #@! TD*
G04 #@! TO.P,R4,1*
G04 #@! TO.N,AMPLIFIED_RIGHT*
X194310000Y-86360000D03*
D14*
G04 #@! TO.P,R4,2*
G04 #@! TO.N,Net-(C2-Pad2)*
X194310000Y-78740000D03*
G04 #@! TD*
G04 #@! TO.P,R5,2*
G04 #@! TO.N,-BATT*
X187960000Y-97790000D03*
D13*
G04 #@! TO.P,R5,1*
G04 #@! TO.N,Net-(D1-Pad1)*
X180340000Y-97790000D03*
G04 #@! TD*
G04 #@! TO.P,R6,1*
G04 #@! TO.N,+BATT*
X172720000Y-93980000D03*
D14*
G04 #@! TO.P,R6,2*
G04 #@! TO.N,GNDREF*
X180340000Y-93980000D03*
G04 #@! TD*
D15*
G04 #@! TO.P,D2,1*
G04 #@! TO.N,+BATT*
X177800000Y-101600000D03*
D16*
G04 #@! TO.P,D2,2*
G04 #@! TO.N,Net-(D2-Pad2)*
X185420000Y-101600000D03*
G04 #@! TD*
D17*
G04 #@! TO.P,J1,T*
G04 #@! TO.N,Net-(J1-PadT)*
X190890000Y-100410000D03*
G04 #@! TO.P,J1,TN*
G04 #@! TO.N,Net-(J1-PadTN)*
X190890000Y-102910000D03*
G04 #@! TO.P,J1,RN*
G04 #@! TO.N,Net-(J1-PadRN)*
X190890000Y-107910000D03*
G04 #@! TO.P,J1,R*
G04 #@! TO.N,Net-(J1-PadR)*
X190890000Y-110410000D03*
G04 #@! TO.P,J1,S*
G04 #@! TO.N,GNDREF*
X195890000Y-105410000D03*
G04 #@! TD*
G04 #@! TO.P,J2,T*
G04 #@! TO.N,IN_LEFT*
X179150000Y-72000000D03*
G04 #@! TO.P,J2,TN*
G04 #@! TO.N,Net-(J2-PadTN)*
X181650000Y-72000000D03*
G04 #@! TO.P,J2,RN*
G04 #@! TO.N,Net-(J2-PadRN)*
X186650000Y-72000000D03*
G04 #@! TO.P,J2,R*
G04 #@! TO.N,IN_RIGHT*
X189150000Y-72000000D03*
G04 #@! TO.P,J2,S*
G04 #@! TO.N,GNDREF*
X184150000Y-67000000D03*
G04 #@! TD*
D18*
G04 #@! TO.N,Net-(J2-PadTN)*
G04 #@! TO.C,L1*
G36*
X173985792Y-65243332D02*
X174048890Y-65252692D01*
X174110766Y-65268191D01*
X174170825Y-65289680D01*
X174228489Y-65316953D01*
X174283202Y-65349747D01*
X174334437Y-65387745D01*
X174381700Y-65430583D01*
X177139417Y-68188300D01*
X177182255Y-68235563D01*
X177220253Y-68286798D01*
X177253047Y-68341511D01*
X177280320Y-68399175D01*
X177301809Y-68459234D01*
X177317308Y-68521110D01*
X177326668Y-68584208D01*
X177329798Y-68647919D01*
X177326668Y-68711630D01*
X177317308Y-68774728D01*
X177301809Y-68836604D01*
X177280320Y-68896663D01*
X177253047Y-68954327D01*
X177220253Y-69009040D01*
X177182255Y-69060275D01*
X177139417Y-69107538D01*
X176220178Y-70026777D01*
X176172915Y-70069615D01*
X176121680Y-70107613D01*
X176066967Y-70140407D01*
X176009303Y-70167680D01*
X175949244Y-70189169D01*
X175887368Y-70204668D01*
X175824270Y-70214028D01*
X175760559Y-70217158D01*
X175696848Y-70214028D01*
X175633750Y-70204668D01*
X175571874Y-70189169D01*
X175511815Y-70167680D01*
X175454151Y-70140407D01*
X175399438Y-70107613D01*
X175348203Y-70069615D01*
X175300940Y-70026777D01*
X172543223Y-67269060D01*
X172500385Y-67221797D01*
X172462387Y-67170562D01*
X172429593Y-67115849D01*
X172402320Y-67058185D01*
X172380831Y-66998126D01*
X172365332Y-66936250D01*
X172355972Y-66873152D01*
X172352842Y-66809441D01*
X172355972Y-66745730D01*
X172365332Y-66682632D01*
X172380831Y-66620756D01*
X172402320Y-66560697D01*
X172429593Y-66503033D01*
X172462387Y-66448320D01*
X172500385Y-66397085D01*
X172543223Y-66349822D01*
X173462462Y-65430583D01*
X173509725Y-65387745D01*
X173560960Y-65349747D01*
X173615673Y-65316953D01*
X173673337Y-65289680D01*
X173733396Y-65268191D01*
X173795272Y-65252692D01*
X173858370Y-65243332D01*
X173922081Y-65240202D01*
X173985792Y-65243332D01*
X173985792Y-65243332D01*
G37*
D19*
G04 #@! TD*
G04 #@! TO.P,L1,2*
G04 #@! TO.N,Net-(J2-PadTN)*
X174841320Y-67728680D03*
D18*
G04 #@! TO.N,GNDREF*
G04 #@! TO.C,L1*
G36*
X171864472Y-67364652D02*
X171927570Y-67374012D01*
X171989446Y-67389511D01*
X172049505Y-67411000D01*
X172107169Y-67438273D01*
X172161882Y-67471067D01*
X172213117Y-67509065D01*
X172260380Y-67551903D01*
X175018097Y-70309620D01*
X175060935Y-70356883D01*
X175098933Y-70408118D01*
X175131727Y-70462831D01*
X175159000Y-70520495D01*
X175180489Y-70580554D01*
X175195988Y-70642430D01*
X175205348Y-70705528D01*
X175208478Y-70769239D01*
X175205348Y-70832950D01*
X175195988Y-70896048D01*
X175180489Y-70957924D01*
X175159000Y-71017983D01*
X175131727Y-71075647D01*
X175098933Y-71130360D01*
X175060935Y-71181595D01*
X175018097Y-71228858D01*
X174098858Y-72148097D01*
X174051595Y-72190935D01*
X174000360Y-72228933D01*
X173945647Y-72261727D01*
X173887983Y-72289000D01*
X173827924Y-72310489D01*
X173766048Y-72325988D01*
X173702950Y-72335348D01*
X173639239Y-72338478D01*
X173575528Y-72335348D01*
X173512430Y-72325988D01*
X173450554Y-72310489D01*
X173390495Y-72289000D01*
X173332831Y-72261727D01*
X173278118Y-72228933D01*
X173226883Y-72190935D01*
X173179620Y-72148097D01*
X170421903Y-69390380D01*
X170379065Y-69343117D01*
X170341067Y-69291882D01*
X170308273Y-69237169D01*
X170281000Y-69179505D01*
X170259511Y-69119446D01*
X170244012Y-69057570D01*
X170234652Y-68994472D01*
X170231522Y-68930761D01*
X170234652Y-68867050D01*
X170244012Y-68803952D01*
X170259511Y-68742076D01*
X170281000Y-68682017D01*
X170308273Y-68624353D01*
X170341067Y-68569640D01*
X170379065Y-68518405D01*
X170421903Y-68471142D01*
X171341142Y-67551903D01*
X171388405Y-67509065D01*
X171439640Y-67471067D01*
X171494353Y-67438273D01*
X171552017Y-67411000D01*
X171612076Y-67389511D01*
X171673952Y-67374012D01*
X171737050Y-67364652D01*
X171800761Y-67361522D01*
X171864472Y-67364652D01*
X171864472Y-67364652D01*
G37*
D19*
G04 #@! TD*
G04 #@! TO.P,L1,1*
G04 #@! TO.N,GNDREF*
X172720000Y-69850000D03*
D18*
G04 #@! TO.N,GNDREF*
G04 #@! TO.C,L2*
G36*
X196562950Y-67364652D02*
X196626048Y-67374012D01*
X196687924Y-67389511D01*
X196747983Y-67411000D01*
X196805647Y-67438273D01*
X196860360Y-67471067D01*
X196911595Y-67509065D01*
X196958858Y-67551903D01*
X197878097Y-68471142D01*
X197920935Y-68518405D01*
X197958933Y-68569640D01*
X197991727Y-68624353D01*
X198019000Y-68682017D01*
X198040489Y-68742076D01*
X198055988Y-68803952D01*
X198065348Y-68867050D01*
X198068478Y-68930761D01*
X198065348Y-68994472D01*
X198055988Y-69057570D01*
X198040489Y-69119446D01*
X198019000Y-69179505D01*
X197991727Y-69237169D01*
X197958933Y-69291882D01*
X197920935Y-69343117D01*
X197878097Y-69390380D01*
X195120380Y-72148097D01*
X195073117Y-72190935D01*
X195021882Y-72228933D01*
X194967169Y-72261727D01*
X194909505Y-72289000D01*
X194849446Y-72310489D01*
X194787570Y-72325988D01*
X194724472Y-72335348D01*
X194660761Y-72338478D01*
X194597050Y-72335348D01*
X194533952Y-72325988D01*
X194472076Y-72310489D01*
X194412017Y-72289000D01*
X194354353Y-72261727D01*
X194299640Y-72228933D01*
X194248405Y-72190935D01*
X194201142Y-72148097D01*
X193281903Y-71228858D01*
X193239065Y-71181595D01*
X193201067Y-71130360D01*
X193168273Y-71075647D01*
X193141000Y-71017983D01*
X193119511Y-70957924D01*
X193104012Y-70896048D01*
X193094652Y-70832950D01*
X193091522Y-70769239D01*
X193094652Y-70705528D01*
X193104012Y-70642430D01*
X193119511Y-70580554D01*
X193141000Y-70520495D01*
X193168273Y-70462831D01*
X193201067Y-70408118D01*
X193239065Y-70356883D01*
X193281903Y-70309620D01*
X196039620Y-67551903D01*
X196086883Y-67509065D01*
X196138118Y-67471067D01*
X196192831Y-67438273D01*
X196250495Y-67411000D01*
X196310554Y-67389511D01*
X196372430Y-67374012D01*
X196435528Y-67364652D01*
X196499239Y-67361522D01*
X196562950Y-67364652D01*
X196562950Y-67364652D01*
G37*
D19*
G04 #@! TD*
G04 #@! TO.P,L2,1*
G04 #@! TO.N,GNDREF*
X195580000Y-69850000D03*
D18*
G04 #@! TO.N,Net-(J2-PadRN)*
G04 #@! TO.C,L2*
G36*
X194441630Y-65243332D02*
X194504728Y-65252692D01*
X194566604Y-65268191D01*
X194626663Y-65289680D01*
X194684327Y-65316953D01*
X194739040Y-65349747D01*
X194790275Y-65387745D01*
X194837538Y-65430583D01*
X195756777Y-66349822D01*
X195799615Y-66397085D01*
X195837613Y-66448320D01*
X195870407Y-66503033D01*
X195897680Y-66560697D01*
X195919169Y-66620756D01*
X195934668Y-66682632D01*
X195944028Y-66745730D01*
X195947158Y-66809441D01*
X195944028Y-66873152D01*
X195934668Y-66936250D01*
X195919169Y-66998126D01*
X195897680Y-67058185D01*
X195870407Y-67115849D01*
X195837613Y-67170562D01*
X195799615Y-67221797D01*
X195756777Y-67269060D01*
X192999060Y-70026777D01*
X192951797Y-70069615D01*
X192900562Y-70107613D01*
X192845849Y-70140407D01*
X192788185Y-70167680D01*
X192728126Y-70189169D01*
X192666250Y-70204668D01*
X192603152Y-70214028D01*
X192539441Y-70217158D01*
X192475730Y-70214028D01*
X192412632Y-70204668D01*
X192350756Y-70189169D01*
X192290697Y-70167680D01*
X192233033Y-70140407D01*
X192178320Y-70107613D01*
X192127085Y-70069615D01*
X192079822Y-70026777D01*
X191160583Y-69107538D01*
X191117745Y-69060275D01*
X191079747Y-69009040D01*
X191046953Y-68954327D01*
X191019680Y-68896663D01*
X190998191Y-68836604D01*
X190982692Y-68774728D01*
X190973332Y-68711630D01*
X190970202Y-68647919D01*
X190973332Y-68584208D01*
X190982692Y-68521110D01*
X190998191Y-68459234D01*
X191019680Y-68399175D01*
X191046953Y-68341511D01*
X191079747Y-68286798D01*
X191117745Y-68235563D01*
X191160583Y-68188300D01*
X193918300Y-65430583D01*
X193965563Y-65387745D01*
X194016798Y-65349747D01*
X194071511Y-65316953D01*
X194129175Y-65289680D01*
X194189234Y-65268191D01*
X194251110Y-65252692D01*
X194314208Y-65243332D01*
X194377919Y-65240202D01*
X194441630Y-65243332D01*
X194441630Y-65243332D01*
G37*
D19*
G04 #@! TD*
G04 #@! TO.P,L2,2*
G04 #@! TO.N,Net-(J2-PadRN)*
X193458680Y-67728680D03*
D20*
G04 #@! TO.P,BT1,1*
G04 #@! TO.N,Net-(BT1-Pad1)*
X177800000Y-114300000D03*
G04 #@! TO.P,BT1,2*
G04 #@! TO.N,-BATT*
X190500000Y-114300000D03*
G04 #@! TD*
D21*
G04 #@! TO.P,C7,2*
G04 #@! TO.N,GNDREF*
X176530000Y-90170000D03*
D22*
G04 #@! TO.P,C7,1*
G04 #@! TO.N,+BATT*
X176530000Y-87670000D03*
G04 #@! TD*
G04 #@! TO.P,C8,1*
G04 #@! TO.N,GNDREF*
X191770000Y-90170000D03*
D21*
G04 #@! TO.P,C8,2*
G04 #@! TO.N,-BATT*
X191770000Y-87670000D03*
G04 #@! TD*
G04 #@! TO.P,C1,2*
G04 #@! TO.N,Net-(C1-Pad2)*
X176530000Y-85050000D03*
G04 #@! TO.P,C1,1*
G04 #@! TO.N,AMPLIFIED_LEFT*
X176530000Y-82550000D03*
G04 #@! TD*
G04 #@! TO.P,C2,1*
G04 #@! TO.N,AMPLIFIED_RIGHT*
X191770000Y-82550000D03*
G04 #@! TO.P,C2,2*
G04 #@! TO.N,Net-(C2-Pad2)*
X191770000Y-85050000D03*
G04 #@! TD*
G04 #@! TO.P,C3,2*
G04 #@! TO.N,AMPLIFIED_LEFT*
X182880000Y-87630000D03*
G04 #@! TO.P,C3,1*
G04 #@! TO.N,Net-(C3-Pad1)*
X182880000Y-90130000D03*
G04 #@! TD*
G04 #@! TO.P,C4,1*
G04 #@! TO.N,Net-(C4-Pad1)*
X185420000Y-90130000D03*
G04 #@! TO.P,C4,2*
G04 #@! TO.N,AMPLIFIED_RIGHT*
X185420000Y-87630000D03*
G04 #@! TD*
G04 #@! TO.P,C5,2*
G04 #@! TO.N,GNDREF*
X180340000Y-90130000D03*
G04 #@! TO.P,C5,1*
G04 #@! TO.N,+BATT*
X180340000Y-87630000D03*
G04 #@! TD*
G04 #@! TO.P,C6,1*
G04 #@! TO.N,GNDREF*
X187960000Y-90130000D03*
G04 #@! TO.P,C6,2*
G04 #@! TO.N,-BATT*
X187960000Y-87630000D03*
G04 #@! TD*
D23*
G04 #@! TO.P,U1,1*
G04 #@! TO.N,AMPLIFIED_RIGHT*
X187960000Y-83820000D03*
D24*
G04 #@! TO.P,U1,5*
G04 #@! TO.N,GNDREF*
X180340000Y-76200000D03*
G04 #@! TO.P,U1,2*
G04 #@! TO.N,Net-(C2-Pad2)*
X187960000Y-81280000D03*
G04 #@! TO.P,U1,6*
G04 #@! TO.N,Net-(C1-Pad2)*
X180340000Y-78740000D03*
G04 #@! TO.P,U1,3*
G04 #@! TO.N,GNDREF*
X187960000Y-78740000D03*
G04 #@! TO.P,U1,7*
G04 #@! TO.N,AMPLIFIED_LEFT*
X180340000Y-81280000D03*
G04 #@! TO.P,U1,4*
G04 #@! TO.N,-BATT*
X187960000Y-76200000D03*
G04 #@! TO.P,U1,8*
G04 #@! TO.N,+BATT*
X180340000Y-83820000D03*
G04 #@! TD*
D12*
G04 #@! TO.P,RV1,4*
G04 #@! TO.N,Net-(C4-Pad1)*
X179070000Y-105410000D03*
G04 #@! TO.P,RV1,5*
G04 #@! TO.N,Net-(J1-PadR)*
X179070000Y-107910000D03*
G04 #@! TO.P,RV1,6*
G04 #@! TO.N,GNDREF*
X179070000Y-110410000D03*
G04 #@! TO.P,RV1,1*
G04 #@! TO.N,Net-(C3-Pad1)*
X176570000Y-105410000D03*
G04 #@! TO.P,RV1,2*
G04 #@! TO.N,Net-(J1-PadT)*
X176570000Y-107910000D03*
G04 #@! TO.P,RV1,3*
G04 #@! TO.N,GNDREF*
X176570000Y-110410000D03*
G04 #@! TO.P,RV1,8*
G04 #@! TO.N,Net-(BT1-Pad1)*
X185320000Y-110410000D03*
G04 #@! TO.P,RV1,7*
G04 #@! TO.N,Net-(D2-Pad2)*
X185320000Y-105410000D03*
G04 #@! TD*
D25*
G04 #@! TO.N,+BATT*
X180340000Y-87630000D02*
X180340000Y-83820000D01*
X176570000Y-87630000D02*
X176530000Y-87670000D01*
X180340000Y-87630000D02*
X176570000Y-87630000D01*
X172720000Y-92848630D02*
X172720000Y-93980000D01*
X172720000Y-90430000D02*
X172720000Y-92848630D01*
X175480000Y-87670000D02*
X172720000Y-90430000D01*
X176530000Y-87670000D02*
X175480000Y-87670000D01*
X172720000Y-95250000D02*
X175260000Y-97790000D01*
X172720000Y-93980000D02*
X172720000Y-95250000D01*
X177800000Y-100330000D02*
X177800000Y-101600000D01*
X175260000Y-97790000D02*
X177800000Y-100330000D01*
G04 #@! TO.N,-BATT*
X189410000Y-76200000D02*
X187960000Y-76200000D01*
X194310000Y-76200000D02*
X189410000Y-76200000D01*
X195580000Y-77470000D02*
X194310000Y-76200000D01*
X195580000Y-87630000D02*
X195580000Y-77470000D01*
X191730000Y-87630000D02*
X191770000Y-87670000D01*
X187960000Y-87630000D02*
X191730000Y-87630000D01*
X195540000Y-87670000D02*
X195580000Y-87630000D01*
X191770000Y-87670000D02*
X195540000Y-87670000D01*
X198120000Y-90170000D02*
X195580000Y-87630000D01*
X198120000Y-92710000D02*
X198120000Y-90170000D01*
X198120000Y-97790000D02*
X198120000Y-92710000D01*
X197215001Y-98694999D02*
X198120000Y-97790000D01*
X190500000Y-114300000D02*
X197215001Y-107584999D01*
X197215001Y-107584999D02*
X197215001Y-98694999D01*
X195580000Y-93980000D02*
X198120000Y-93980000D01*
X191770000Y-97790000D02*
X195580000Y-93980000D01*
X187960000Y-97790000D02*
X191770000Y-97790000D01*
G04 #@! TO.N,Net-(D1-Pad1)*
X180340000Y-97790000D02*
X177800000Y-97790000D01*
G04 #@! TO.N,Net-(C2-Pad2)*
X193040000Y-78740000D02*
X191770000Y-80010000D01*
X194310000Y-78740000D02*
X193040000Y-78740000D01*
X192569999Y-84250001D02*
X191770000Y-85050000D01*
X193040000Y-83780000D02*
X192569999Y-84250001D01*
X191770000Y-80010000D02*
X193040000Y-81280000D01*
X193040000Y-81280000D02*
X193040000Y-83780000D01*
X190500000Y-81280000D02*
X191770000Y-80010000D01*
X187960000Y-81280000D02*
X190500000Y-81280000D01*
G04 #@! TO.N,Net-(C1-Pad2)*
X175260000Y-78740000D02*
X173990000Y-78740000D01*
X176530000Y-80010000D02*
X175260000Y-78740000D01*
X175260000Y-83780000D02*
X175730001Y-84250001D01*
X176530000Y-80010000D02*
X175260000Y-81280000D01*
X175730001Y-84250001D02*
X176530000Y-85050000D01*
X175260000Y-81280000D02*
X175260000Y-83780000D01*
X177800000Y-78740000D02*
X176530000Y-80010000D01*
X180340000Y-78740000D02*
X177800000Y-78740000D01*
G04 #@! TO.N,Net-(C4-Pad1)*
X185420000Y-90130000D02*
X185420000Y-99060000D01*
X184150000Y-100330000D02*
X184150000Y-104140000D01*
X185420000Y-99060000D02*
X184150000Y-100330000D01*
X184150000Y-104140000D02*
X182880000Y-105410000D01*
X182880000Y-105410000D02*
X179070000Y-105410000D01*
G04 #@! TO.N,Net-(J1-PadR)*
X188390000Y-107910000D02*
X190890000Y-110410000D01*
X179070000Y-107910000D02*
X188390000Y-107910000D01*
G04 #@! TO.N,Net-(C3-Pad1)*
X176570000Y-105410000D02*
X177800000Y-104180000D01*
X177800000Y-104180000D02*
X181570000Y-104180000D01*
X181570000Y-104180000D02*
X182880000Y-102870000D01*
X182880000Y-102870000D02*
X182880000Y-90130000D01*
G04 #@! TO.N,Net-(J1-PadT)*
X190420000Y-100410000D02*
X190890000Y-100410000D01*
X189230000Y-101600000D02*
X190420000Y-100410000D01*
X189230000Y-104140000D02*
X189230000Y-101600000D01*
X186690000Y-106680000D02*
X189230000Y-104140000D01*
X176570000Y-107910000D02*
X177800000Y-106680000D01*
X177800000Y-106680000D02*
X186690000Y-106680000D01*
G04 #@! TO.N,Net-(BT1-Pad1)*
X181430000Y-114300000D02*
X185320000Y-110410000D01*
X177800000Y-114300000D02*
X181430000Y-114300000D01*
G04 #@! TO.N,AMPLIFIED_RIGHT*
X186690000Y-83820000D02*
X187960000Y-83820000D01*
X185420000Y-87630000D02*
X185420000Y-85090000D01*
X185420000Y-85090000D02*
X186690000Y-83820000D01*
X187960000Y-83820000D02*
X189230000Y-83820000D01*
X190500000Y-85090000D02*
X190500000Y-86360000D01*
X190500000Y-86360000D02*
X194310000Y-86360000D01*
X190500000Y-83820000D02*
X191770000Y-82550000D01*
X189230000Y-83820000D02*
X190500000Y-83820000D01*
X190500000Y-85090000D02*
X190500000Y-83820000D01*
G04 #@! TO.N,AMPLIFIED_LEFT*
X182880000Y-82550000D02*
X182880000Y-86498630D01*
X182880000Y-86498630D02*
X182880000Y-87630000D01*
X180340000Y-81280000D02*
X181610000Y-81280000D01*
X181610000Y-81280000D02*
X182880000Y-82550000D01*
X177800000Y-81280000D02*
X180340000Y-81280000D01*
X176530000Y-82550000D02*
X177800000Y-81280000D01*
X177800000Y-83820000D02*
X176530000Y-82550000D01*
X173990000Y-86360000D02*
X177800000Y-86360000D01*
X177800000Y-86360000D02*
X177800000Y-83820000D01*
G04 #@! TO.N,IN_RIGHT*
X191380000Y-72000000D02*
X191770000Y-72390000D01*
X189150000Y-72000000D02*
X191380000Y-72000000D01*
G04 #@! TO.N,IN_LEFT*
X176920000Y-72000000D02*
X176530000Y-72390000D01*
X179150000Y-72000000D02*
X176920000Y-72000000D01*
G04 #@! TO.N,Net-(J2-PadRN)*
X188800000Y-69850000D02*
X187649999Y-71000001D01*
X187649999Y-71000001D02*
X186650000Y-72000000D01*
X193458680Y-67728680D02*
X191337360Y-69850000D01*
X191337360Y-69850000D02*
X188800000Y-69850000D01*
G04 #@! TO.N,Net-(J2-PadTN)*
X176962640Y-69850000D02*
X174841320Y-67728680D01*
X181650000Y-72000000D02*
X179500000Y-69850000D01*
X179500000Y-69850000D02*
X176962640Y-69850000D01*
G04 #@! TO.N,Net-(D2-Pad2)*
X185420000Y-105310000D02*
X185320000Y-105410000D01*
X185420000Y-101600000D02*
X185420000Y-105310000D01*
G04 #@! TD*
D26*
G04 #@! TO.N,GNDREF*
G36*
X177915000Y-64254343D02*
X177915000Y-64745657D01*
X178103018Y-65199571D01*
X178450429Y-65546982D01*
X178904343Y-65735000D01*
X179395657Y-65735000D01*
X179849571Y-65546982D01*
X180196982Y-65199571D01*
X180385000Y-64745657D01*
X180385000Y-64254343D01*
X180366632Y-64210000D01*
X187933368Y-64210000D01*
X187915000Y-64254343D01*
X187915000Y-64745657D01*
X188103018Y-65199571D01*
X188450429Y-65546982D01*
X188904343Y-65735000D01*
X189395657Y-65735000D01*
X189849571Y-65546982D01*
X190196982Y-65199571D01*
X190385000Y-64745657D01*
X190385000Y-64254343D01*
X190366632Y-64210000D01*
X196805334Y-64210000D01*
X197303698Y-64272958D01*
X197728893Y-64441305D01*
X198098858Y-64710101D01*
X198390356Y-65062462D01*
X198585067Y-65476244D01*
X198677093Y-65958662D01*
X198680001Y-66051195D01*
X198680001Y-68375020D01*
X198069546Y-67764565D01*
X197845040Y-67764565D01*
X195759605Y-69850000D01*
X196925801Y-71016196D01*
X197150307Y-71016196D01*
X198680001Y-69486502D01*
X198680001Y-89640137D01*
X198667929Y-89622071D01*
X198604476Y-89579673D01*
X196340000Y-87315199D01*
X196340000Y-77544846D01*
X196354888Y-77469999D01*
X196340000Y-77395152D01*
X196340000Y-77395148D01*
X196295904Y-77173463D01*
X196127929Y-76922071D01*
X196064473Y-76879671D01*
X194900331Y-75715530D01*
X194857929Y-75652071D01*
X194606537Y-75484096D01*
X194384852Y-75440000D01*
X194384847Y-75440000D01*
X194310000Y-75425112D01*
X194235153Y-75440000D01*
X189578043Y-75440000D01*
X189394577Y-75165423D01*
X188919909Y-74848260D01*
X188501333Y-74765000D01*
X187418667Y-74765000D01*
X187000091Y-74848260D01*
X186525423Y-75165423D01*
X186208260Y-75640091D01*
X186096887Y-76200000D01*
X186208260Y-76759909D01*
X186525423Y-77234577D01*
X186881499Y-77472499D01*
X186455500Y-77815104D01*
X186185633Y-78308181D01*
X186168096Y-78390961D01*
X186290085Y-78613000D01*
X187833000Y-78613000D01*
X187833000Y-78593000D01*
X188087000Y-78593000D01*
X188087000Y-78613000D01*
X189629915Y-78613000D01*
X189751904Y-78390961D01*
X189734367Y-78308181D01*
X189464500Y-77815104D01*
X189038501Y-77472499D01*
X189394577Y-77234577D01*
X189578043Y-76960000D01*
X193995199Y-76960000D01*
X194440198Y-77405000D01*
X194178515Y-77405000D01*
X193789109Y-77482458D01*
X193347519Y-77777519D01*
X193212226Y-77980000D01*
X193114846Y-77980000D01*
X193039999Y-77965112D01*
X192965152Y-77980000D01*
X192965148Y-77980000D01*
X192743463Y-78024096D01*
X192492071Y-78192071D01*
X192449671Y-78255527D01*
X192030198Y-78675000D01*
X191504452Y-78675000D01*
X191013783Y-78878242D01*
X190638242Y-79253783D01*
X190435000Y-79744452D01*
X190435000Y-80270199D01*
X190185199Y-80520000D01*
X189578043Y-80520000D01*
X189394577Y-80245423D01*
X189038501Y-80007501D01*
X189464500Y-79664896D01*
X189734367Y-79171819D01*
X189751904Y-79089039D01*
X189629915Y-78867000D01*
X188087000Y-78867000D01*
X188087000Y-78887000D01*
X187833000Y-78887000D01*
X187833000Y-78867000D01*
X186290085Y-78867000D01*
X186168096Y-79089039D01*
X186185633Y-79171819D01*
X186455500Y-79664896D01*
X186881499Y-80007501D01*
X186525423Y-80245423D01*
X186208260Y-80720091D01*
X186096887Y-81280000D01*
X186208260Y-81839909D01*
X186525423Y-82314577D01*
X186646106Y-82395215D01*
X186512235Y-82421843D01*
X186302191Y-82562191D01*
X186161843Y-82772235D01*
X186112560Y-83020000D01*
X186112560Y-83316237D01*
X186099671Y-83335527D01*
X184935528Y-84499671D01*
X184872072Y-84542071D01*
X184829672Y-84605527D01*
X184829671Y-84605528D01*
X184704097Y-84793463D01*
X184645112Y-85090000D01*
X184660001Y-85164851D01*
X184660000Y-86391570D01*
X184607138Y-86413466D01*
X184203466Y-86817138D01*
X184150000Y-86946216D01*
X184096534Y-86817138D01*
X183692862Y-86413466D01*
X183640000Y-86391570D01*
X183640000Y-82624846D01*
X183654888Y-82549999D01*
X183640000Y-82475152D01*
X183640000Y-82475148D01*
X183595904Y-82253463D01*
X183427929Y-82002071D01*
X183364473Y-81959671D01*
X182200331Y-80795530D01*
X182157929Y-80732071D01*
X182052815Y-80661836D01*
X181774577Y-80245423D01*
X181422242Y-80010000D01*
X181774577Y-79774577D01*
X182091740Y-79299909D01*
X182203113Y-78740000D01*
X182091740Y-78180091D01*
X181774577Y-77705423D01*
X181418501Y-77467501D01*
X181844500Y-77124896D01*
X182114367Y-76631819D01*
X182131904Y-76549039D01*
X182009915Y-76327000D01*
X180467000Y-76327000D01*
X180467000Y-76347000D01*
X180213000Y-76347000D01*
X180213000Y-76327000D01*
X178670085Y-76327000D01*
X178548096Y-76549039D01*
X178565633Y-76631819D01*
X178835500Y-77124896D01*
X179261499Y-77467501D01*
X178905423Y-77705423D01*
X178721957Y-77980000D01*
X177874846Y-77980000D01*
X177799999Y-77965112D01*
X177725152Y-77980000D01*
X177725148Y-77980000D01*
X177503463Y-78024096D01*
X177252071Y-78192071D01*
X177209671Y-78255527D01*
X176790198Y-78675000D01*
X176269801Y-78675000D01*
X175850331Y-78255530D01*
X175807929Y-78192071D01*
X175556537Y-78024096D01*
X175334852Y-77980000D01*
X175334847Y-77980000D01*
X175260000Y-77965112D01*
X175185153Y-77980000D01*
X175087774Y-77980000D01*
X174952481Y-77777519D01*
X174510891Y-77482458D01*
X174121485Y-77405000D01*
X173858515Y-77405000D01*
X173469109Y-77482458D01*
X173027519Y-77777519D01*
X172732458Y-78219109D01*
X172628846Y-78740000D01*
X172732458Y-79260891D01*
X173027519Y-79702481D01*
X173469109Y-79997542D01*
X173858515Y-80075000D01*
X174121485Y-80075000D01*
X174510891Y-79997542D01*
X174952481Y-79702481D01*
X175030667Y-79585468D01*
X175195000Y-79749801D01*
X175195000Y-80270199D01*
X174775530Y-80689669D01*
X174712071Y-80732071D01*
X174544096Y-80983464D01*
X174500000Y-81205149D01*
X174500000Y-81205153D01*
X174485112Y-81280000D01*
X174500000Y-81354847D01*
X174500001Y-83705148D01*
X174485112Y-83780000D01*
X174544097Y-84076537D01*
X174660003Y-84250002D01*
X174712072Y-84327929D01*
X174775528Y-84370329D01*
X175116897Y-84711698D01*
X175095000Y-84764561D01*
X175095000Y-85335439D01*
X175204585Y-85600000D01*
X175117975Y-85600000D01*
X174746217Y-85228242D01*
X174255548Y-85025000D01*
X173724452Y-85025000D01*
X173233783Y-85228242D01*
X172858242Y-85603783D01*
X172655000Y-86094452D01*
X172655000Y-86625548D01*
X172858242Y-87116217D01*
X173233783Y-87491758D01*
X173724452Y-87695000D01*
X174255548Y-87695000D01*
X174468338Y-87606859D01*
X172235530Y-89839669D01*
X172172071Y-89882071D01*
X172004096Y-90133464D01*
X171960000Y-90355149D01*
X171960000Y-90355153D01*
X171945112Y-90430000D01*
X171960000Y-90504847D01*
X171960001Y-92773774D01*
X171960000Y-92773779D01*
X171960000Y-92852025D01*
X171588242Y-93223783D01*
X171385000Y-93714452D01*
X171385000Y-94245548D01*
X171588242Y-94736217D01*
X171960001Y-95107976D01*
X171960001Y-95175149D01*
X171945112Y-95250000D01*
X171960001Y-95324852D01*
X172004097Y-95546537D01*
X172172072Y-95797929D01*
X172235528Y-95840329D01*
X173770360Y-97375162D01*
X173725000Y-97484670D01*
X173725000Y-98095330D01*
X173958690Y-98659507D01*
X174390493Y-99091310D01*
X174954670Y-99325000D01*
X175565330Y-99325000D01*
X175674838Y-99279640D01*
X176709203Y-100314006D01*
X176592191Y-100392191D01*
X176451843Y-100602235D01*
X176402560Y-100850000D01*
X176402560Y-102350000D01*
X176451843Y-102597765D01*
X176592191Y-102807809D01*
X176802235Y-102948157D01*
X177050000Y-102997440D01*
X178550000Y-102997440D01*
X178797765Y-102948157D01*
X179007809Y-102807809D01*
X179148157Y-102597765D01*
X179197440Y-102350000D01*
X179197440Y-100850000D01*
X179148157Y-100602235D01*
X179007809Y-100392191D01*
X178797765Y-100251843D01*
X178550000Y-100202560D01*
X178549540Y-100202560D01*
X178515904Y-100033463D01*
X178474102Y-99970902D01*
X178390329Y-99845526D01*
X178390327Y-99845524D01*
X178347929Y-99782071D01*
X178284476Y-99739673D01*
X177882243Y-99337440D01*
X178700000Y-99337440D01*
X178947765Y-99288157D01*
X179157809Y-99147809D01*
X179298157Y-98937765D01*
X179347440Y-98690000D01*
X179347440Y-98685415D01*
X179583783Y-98921758D01*
X180074452Y-99125000D01*
X180605548Y-99125000D01*
X181096217Y-98921758D01*
X181471758Y-98546217D01*
X181675000Y-98055548D01*
X181675000Y-97524452D01*
X181471758Y-97033783D01*
X181096217Y-96658242D01*
X180605548Y-96455000D01*
X180074452Y-96455000D01*
X179583783Y-96658242D01*
X179347440Y-96894585D01*
X179347440Y-96890000D01*
X179298157Y-96642235D01*
X179157809Y-96432191D01*
X178947765Y-96291843D01*
X178700000Y-96242560D01*
X176900000Y-96242560D01*
X176652235Y-96291843D01*
X176442191Y-96432191D01*
X176301843Y-96642235D01*
X176298725Y-96657908D01*
X176129507Y-96488690D01*
X175565330Y-96255000D01*
X174954670Y-96255000D01*
X174845162Y-96300360D01*
X173566388Y-95021587D01*
X173851758Y-94736217D01*
X174026924Y-94313329D01*
X179047284Y-94313329D01*
X179190203Y-94658396D01*
X179537337Y-95046764D01*
X180006669Y-95272727D01*
X180213000Y-95150206D01*
X180213000Y-94107000D01*
X180467000Y-94107000D01*
X180467000Y-95150206D01*
X180673331Y-95272727D01*
X181142663Y-95046764D01*
X181489797Y-94658396D01*
X181632716Y-94313329D01*
X181509374Y-94107000D01*
X180467000Y-94107000D01*
X180213000Y-94107000D01*
X179170626Y-94107000D01*
X179047284Y-94313329D01*
X174026924Y-94313329D01*
X174055000Y-94245548D01*
X174055000Y-93714452D01*
X174026925Y-93646671D01*
X179047284Y-93646671D01*
X179170626Y-93853000D01*
X180213000Y-93853000D01*
X180213000Y-92809794D01*
X180467000Y-92809794D01*
X180467000Y-93853000D01*
X181509374Y-93853000D01*
X181632716Y-93646671D01*
X181489797Y-93301604D01*
X181142663Y-92913236D01*
X180673331Y-92687273D01*
X180467000Y-92809794D01*
X180213000Y-92809794D01*
X180006669Y-92687273D01*
X179537337Y-92913236D01*
X179190203Y-93301604D01*
X179047284Y-93646671D01*
X174026925Y-93646671D01*
X173851758Y-93223783D01*
X173480000Y-92852025D01*
X173480000Y-91177745D01*
X175701861Y-91177745D01*
X175775995Y-91423864D01*
X176313223Y-91616965D01*
X176883454Y-91589778D01*
X177284005Y-91423864D01*
X177358139Y-91177745D01*
X177318140Y-91137745D01*
X179511861Y-91137745D01*
X179585995Y-91383864D01*
X180123223Y-91576965D01*
X180693454Y-91549778D01*
X181094005Y-91383864D01*
X181168139Y-91137745D01*
X180340000Y-90309605D01*
X179511861Y-91137745D01*
X177318140Y-91137745D01*
X176530000Y-90349605D01*
X175701861Y-91177745D01*
X173480000Y-91177745D01*
X173480000Y-90744801D01*
X174271578Y-89953223D01*
X175083035Y-89953223D01*
X175110222Y-90523454D01*
X175276136Y-90924005D01*
X175522255Y-90998139D01*
X176350395Y-90170000D01*
X176709605Y-90170000D01*
X177537745Y-90998139D01*
X177783864Y-90924005D01*
X177976965Y-90386777D01*
X177954388Y-89913223D01*
X178893035Y-89913223D01*
X178920222Y-90483454D01*
X179086136Y-90884005D01*
X179332255Y-90958139D01*
X180160395Y-90130000D01*
X179332255Y-89301861D01*
X179086136Y-89375995D01*
X178893035Y-89913223D01*
X177954388Y-89913223D01*
X177949778Y-89816546D01*
X177783864Y-89415995D01*
X177537745Y-89341861D01*
X176709605Y-90170000D01*
X176350395Y-90170000D01*
X175522255Y-89341861D01*
X175276136Y-89415995D01*
X175083035Y-89953223D01*
X174271578Y-89953223D01*
X175287059Y-88937744D01*
X175482235Y-89068157D01*
X175716187Y-89114693D01*
X175701861Y-89162255D01*
X176530000Y-89990395D01*
X177358139Y-89162255D01*
X177343813Y-89114693D01*
X177577765Y-89068157D01*
X177787809Y-88927809D01*
X177928157Y-88717765D01*
X177977440Y-88470000D01*
X177977440Y-88390000D01*
X179101570Y-88390000D01*
X179123466Y-88442862D01*
X179527138Y-88846534D01*
X179592299Y-88873525D01*
X179585995Y-88876136D01*
X179511861Y-89122255D01*
X180340000Y-89950395D01*
X181168139Y-89122255D01*
X181094005Y-88876136D01*
X181087254Y-88873710D01*
X181152862Y-88846534D01*
X181556534Y-88442862D01*
X181610000Y-88313784D01*
X181663466Y-88442862D01*
X182067138Y-88846534D01*
X182147932Y-88880000D01*
X182067138Y-88913466D01*
X181663466Y-89317138D01*
X181616475Y-89430583D01*
X181593864Y-89375995D01*
X181347745Y-89301861D01*
X180519605Y-90130000D01*
X181347745Y-90958139D01*
X181593864Y-90884005D01*
X181614874Y-90825552D01*
X181663466Y-90942862D01*
X182067138Y-91346534D01*
X182120001Y-91368431D01*
X182120000Y-102555198D01*
X181255199Y-103420000D01*
X177874848Y-103420000D01*
X177800000Y-103405112D01*
X177725152Y-103420000D01*
X177725148Y-103420000D01*
X177551605Y-103454520D01*
X177503462Y-103464096D01*
X177375391Y-103549671D01*
X177252071Y-103632071D01*
X177209671Y-103695527D01*
X176984838Y-103920360D01*
X176875330Y-103875000D01*
X176264670Y-103875000D01*
X175700493Y-104108690D01*
X175268690Y-104540493D01*
X175035000Y-105104670D01*
X175035000Y-105715330D01*
X175268690Y-106279507D01*
X175649183Y-106660000D01*
X175268690Y-107040493D01*
X175035000Y-107604670D01*
X175035000Y-108215330D01*
X175268690Y-108779507D01*
X175700493Y-109211310D01*
X175708290Y-109214539D01*
X175669446Y-109329841D01*
X176570000Y-110230395D01*
X177470554Y-109329841D01*
X177431710Y-109214539D01*
X177439507Y-109211310D01*
X177820000Y-108830817D01*
X178200493Y-109211310D01*
X178208290Y-109214539D01*
X178169446Y-109329841D01*
X179070000Y-110230395D01*
X179970554Y-109329841D01*
X179931710Y-109214539D01*
X179939507Y-109211310D01*
X180371310Y-108779507D01*
X180416669Y-108670000D01*
X188075199Y-108670000D01*
X189323823Y-109918625D01*
X189255000Y-110084778D01*
X189255000Y-110735222D01*
X189503914Y-111336153D01*
X189963847Y-111796086D01*
X190564778Y-112045000D01*
X191215222Y-112045000D01*
X191816153Y-111796086D01*
X192276086Y-111336153D01*
X192525000Y-110735222D01*
X192525000Y-110084778D01*
X192276086Y-109483847D01*
X191952239Y-109160000D01*
X192276086Y-108836153D01*
X192525000Y-108235222D01*
X192525000Y-107584778D01*
X192276086Y-106983847D01*
X191816153Y-106523914D01*
X191608607Y-106437946D01*
X191936982Y-106109571D01*
X192125000Y-105655657D01*
X192125000Y-105164343D01*
X192117179Y-105145461D01*
X194244092Y-105145461D01*
X194268144Y-105795460D01*
X194470613Y-106284264D01*
X194737468Y-106382927D01*
X195710395Y-105410000D01*
X194737468Y-104437073D01*
X194470613Y-104535736D01*
X194244092Y-105145461D01*
X192117179Y-105145461D01*
X191936982Y-104710429D01*
X191608607Y-104382054D01*
X191816153Y-104296086D01*
X192276086Y-103836153D01*
X192525000Y-103235222D01*
X192525000Y-102584778D01*
X192276086Y-101983847D01*
X191952239Y-101660000D01*
X192276086Y-101336153D01*
X192525000Y-100735222D01*
X192525000Y-100084778D01*
X192276086Y-99483847D01*
X191816153Y-99023914D01*
X191215222Y-98775000D01*
X190564778Y-98775000D01*
X189963847Y-99023914D01*
X189503914Y-99483847D01*
X189255000Y-100084778D01*
X189255000Y-100500199D01*
X188745528Y-101009671D01*
X188682072Y-101052071D01*
X188639672Y-101115527D01*
X188639671Y-101115528D01*
X188514097Y-101303463D01*
X188455112Y-101600000D01*
X188470001Y-101674852D01*
X188470000Y-103825197D01*
X186855000Y-105440198D01*
X186855000Y-105104670D01*
X186621310Y-104540493D01*
X186189507Y-104108690D01*
X186180000Y-104104752D01*
X186180000Y-102757909D01*
X186418529Y-102598529D01*
X186724641Y-102140400D01*
X186832133Y-101600000D01*
X186724641Y-101059600D01*
X186418529Y-100601471D01*
X185960400Y-100295359D01*
X185556407Y-100215000D01*
X185339802Y-100215000D01*
X185904473Y-99650329D01*
X185967929Y-99607929D01*
X186135904Y-99356537D01*
X186180000Y-99134852D01*
X186180000Y-99134848D01*
X186194888Y-99060001D01*
X186180000Y-98985154D01*
X186180000Y-94915275D01*
X187204331Y-94915275D01*
X187266169Y-95151042D01*
X187767122Y-95327419D01*
X188297440Y-95298664D01*
X188653831Y-95151042D01*
X188715669Y-94915275D01*
X187960000Y-94159605D01*
X187204331Y-94915275D01*
X186180000Y-94915275D01*
X186180000Y-93787122D01*
X186612581Y-93787122D01*
X186641336Y-94317440D01*
X186788958Y-94673831D01*
X187024725Y-94735669D01*
X187780395Y-93980000D01*
X188139605Y-93980000D01*
X188895275Y-94735669D01*
X189131042Y-94673831D01*
X189307419Y-94172878D01*
X189278664Y-93642560D01*
X189131042Y-93286169D01*
X188895275Y-93224331D01*
X188139605Y-93980000D01*
X187780395Y-93980000D01*
X187024725Y-93224331D01*
X186788958Y-93286169D01*
X186612581Y-93787122D01*
X186180000Y-93787122D01*
X186180000Y-93044725D01*
X187204331Y-93044725D01*
X187960000Y-93800395D01*
X188715669Y-93044725D01*
X188653831Y-92808958D01*
X188152878Y-92632581D01*
X187622560Y-92661336D01*
X187266169Y-92808958D01*
X187204331Y-93044725D01*
X186180000Y-93044725D01*
X186180000Y-91368430D01*
X186232862Y-91346534D01*
X186441651Y-91137745D01*
X187131861Y-91137745D01*
X187205995Y-91383864D01*
X187743223Y-91576965D01*
X188313454Y-91549778D01*
X188714005Y-91383864D01*
X188788139Y-91137745D01*
X187960000Y-90309605D01*
X187131861Y-91137745D01*
X186441651Y-91137745D01*
X186636534Y-90942862D01*
X186683525Y-90829417D01*
X186706136Y-90884005D01*
X186952255Y-90958139D01*
X187780395Y-90130000D01*
X188139605Y-90130000D01*
X188967745Y-90958139D01*
X189213864Y-90884005D01*
X189367795Y-90455750D01*
X190335000Y-90455750D01*
X190335000Y-91096309D01*
X190431673Y-91329698D01*
X190610301Y-91508327D01*
X190843690Y-91605000D01*
X191484250Y-91605000D01*
X191643000Y-91446250D01*
X191643000Y-90297000D01*
X191897000Y-90297000D01*
X191897000Y-91446250D01*
X192055750Y-91605000D01*
X192696310Y-91605000D01*
X192929699Y-91508327D01*
X193108327Y-91329698D01*
X193205000Y-91096309D01*
X193205000Y-90455750D01*
X193046250Y-90297000D01*
X191897000Y-90297000D01*
X191643000Y-90297000D01*
X190493750Y-90297000D01*
X190335000Y-90455750D01*
X189367795Y-90455750D01*
X189406965Y-90346777D01*
X189379778Y-89776546D01*
X189213864Y-89375995D01*
X188967745Y-89301861D01*
X188139605Y-90130000D01*
X187780395Y-90130000D01*
X186952255Y-89301861D01*
X186706136Y-89375995D01*
X186685126Y-89434448D01*
X186636534Y-89317138D01*
X186232862Y-88913466D01*
X186152068Y-88880000D01*
X186232862Y-88846534D01*
X186636534Y-88442862D01*
X186690000Y-88313784D01*
X186743466Y-88442862D01*
X187147138Y-88846534D01*
X187212299Y-88873525D01*
X187205995Y-88876136D01*
X187131861Y-89122255D01*
X187960000Y-89950395D01*
X188788139Y-89122255D01*
X188714005Y-88876136D01*
X188707254Y-88873710D01*
X188772862Y-88846534D01*
X189176534Y-88442862D01*
X189198430Y-88390000D01*
X190515001Y-88390000D01*
X190553466Y-88482862D01*
X190816759Y-88746155D01*
X190610301Y-88831673D01*
X190431673Y-89010302D01*
X190335000Y-89243691D01*
X190335000Y-89884250D01*
X190493750Y-90043000D01*
X191643000Y-90043000D01*
X191643000Y-90023000D01*
X191897000Y-90023000D01*
X191897000Y-90043000D01*
X193046250Y-90043000D01*
X193205000Y-89884250D01*
X193205000Y-89243691D01*
X193108327Y-89010302D01*
X192929699Y-88831673D01*
X192723241Y-88746155D01*
X192986534Y-88482862D01*
X193008430Y-88430000D01*
X194346048Y-88430000D01*
X194153910Y-88509586D01*
X193609586Y-89053910D01*
X193315000Y-89765105D01*
X193315000Y-90534895D01*
X193609586Y-91246090D01*
X194153910Y-91790414D01*
X194865105Y-92085000D01*
X195634895Y-92085000D01*
X196346090Y-91790414D01*
X196890414Y-91246090D01*
X197185000Y-90534895D01*
X197185000Y-90309803D01*
X197360001Y-90484804D01*
X197360000Y-92784851D01*
X197360001Y-92784856D01*
X197360001Y-93220000D01*
X196677774Y-93220000D01*
X196542481Y-93017519D01*
X196100891Y-92722458D01*
X195711485Y-92645000D01*
X195448515Y-92645000D01*
X195059109Y-92722458D01*
X194617519Y-93017519D01*
X194322458Y-93459109D01*
X194218846Y-93980000D01*
X194266355Y-94218843D01*
X191455199Y-97030000D01*
X189057774Y-97030000D01*
X188922481Y-96827519D01*
X188480891Y-96532458D01*
X188091485Y-96455000D01*
X187828515Y-96455000D01*
X187439109Y-96532458D01*
X186997519Y-96827519D01*
X186702458Y-97269109D01*
X186598846Y-97790000D01*
X186702458Y-98310891D01*
X186997519Y-98752481D01*
X187439109Y-99047542D01*
X187828515Y-99125000D01*
X188091485Y-99125000D01*
X188480891Y-99047542D01*
X188922481Y-98752481D01*
X189057774Y-98550000D01*
X191695153Y-98550000D01*
X191770000Y-98564888D01*
X191844847Y-98550000D01*
X191844852Y-98550000D01*
X192066537Y-98505904D01*
X192317929Y-98337929D01*
X192360331Y-98274470D01*
X195341157Y-95293645D01*
X195448515Y-95315000D01*
X195711485Y-95315000D01*
X196100891Y-95237542D01*
X196542481Y-94942481D01*
X196677774Y-94740000D01*
X197360001Y-94740000D01*
X197360000Y-97475198D01*
X196730529Y-98104670D01*
X196667073Y-98147070D01*
X196624673Y-98210526D01*
X196624672Y-98210527D01*
X196499098Y-98398462D01*
X196440113Y-98694999D01*
X196455002Y-98769851D01*
X196455002Y-99307277D01*
X196135657Y-99175000D01*
X195644343Y-99175000D01*
X195190429Y-99363018D01*
X194843018Y-99710429D01*
X194655000Y-100164343D01*
X194655000Y-100655657D01*
X194843018Y-101109571D01*
X195190429Y-101456982D01*
X195644343Y-101645000D01*
X196135657Y-101645000D01*
X196455002Y-101512723D01*
X196455001Y-103875718D01*
X196154539Y-103764092D01*
X195504540Y-103788144D01*
X195015736Y-103990613D01*
X194917073Y-104257468D01*
X195890000Y-105230395D01*
X195904143Y-105216253D01*
X196083748Y-105395858D01*
X196069605Y-105410000D01*
X196083748Y-105424143D01*
X195904143Y-105603748D01*
X195890000Y-105589605D01*
X194917073Y-106562532D01*
X195015736Y-106829387D01*
X195625461Y-107055908D01*
X196275460Y-107031856D01*
X196455001Y-106957488D01*
X196455001Y-107270196D01*
X191374059Y-112351140D01*
X190924678Y-112165000D01*
X190075322Y-112165000D01*
X189290620Y-112490034D01*
X188690034Y-113090620D01*
X188365000Y-113875322D01*
X188365000Y-114724678D01*
X188690034Y-115509380D01*
X189290620Y-116109966D01*
X189338986Y-116130000D01*
X178961014Y-116130000D01*
X179009380Y-116109966D01*
X179609966Y-115509380D01*
X179796105Y-115060000D01*
X181355153Y-115060000D01*
X181430000Y-115074888D01*
X181504847Y-115060000D01*
X181504852Y-115060000D01*
X181726537Y-115015904D01*
X181977929Y-114847929D01*
X182020331Y-114784470D01*
X184905162Y-111899640D01*
X185014670Y-111945000D01*
X185625330Y-111945000D01*
X186189507Y-111711310D01*
X186621310Y-111279507D01*
X186855000Y-110715330D01*
X186855000Y-110104670D01*
X186621310Y-109540493D01*
X186189507Y-109108690D01*
X185625330Y-108875000D01*
X185014670Y-108875000D01*
X184450493Y-109108690D01*
X184018690Y-109540493D01*
X183785000Y-110104670D01*
X183785000Y-110715330D01*
X183830360Y-110824838D01*
X181115199Y-113540000D01*
X179796105Y-113540000D01*
X179609966Y-113090620D01*
X179009380Y-112490034D01*
X178224678Y-112165000D01*
X177375322Y-112165000D01*
X176590620Y-112490034D01*
X175990034Y-113090620D01*
X175665000Y-113875322D01*
X175665000Y-114352129D01*
X175617571Y-114362618D01*
X175532755Y-114376194D01*
X175493864Y-114360345D01*
X175428175Y-114347669D01*
X175344240Y-114348149D01*
X175260953Y-114337728D01*
X175191213Y-114342749D01*
X175103814Y-114366770D01*
X175046237Y-114376020D01*
X175058517Y-114357609D01*
X175104326Y-114311059D01*
X175127126Y-114254743D01*
X175160839Y-114204196D01*
X175173527Y-114140129D01*
X175198035Y-114079593D01*
X175197548Y-114018836D01*
X175209351Y-113959237D01*
X175196557Y-113895194D01*
X175196033Y-113829885D01*
X175172333Y-113773940D01*
X175160430Y-113714360D01*
X175124101Y-113660088D01*
X175098625Y-113599952D01*
X175049650Y-113527914D01*
X175057966Y-113526314D01*
X175059417Y-113525724D01*
X175060986Y-113525726D01*
X175137186Y-113510686D01*
X175195892Y-113486471D01*
X175258174Y-113474082D01*
X175310195Y-113439323D01*
X175368034Y-113415465D01*
X175413004Y-113370627D01*
X175465805Y-113335347D01*
X175500565Y-113283325D01*
X175544871Y-113239150D01*
X175569259Y-113180518D01*
X175604540Y-113127716D01*
X175616746Y-113066351D01*
X175640774Y-113008585D01*
X175640868Y-112945084D01*
X175653257Y-112882799D01*
X175653257Y-112565492D01*
X175653229Y-112565353D01*
X175653257Y-112565213D01*
X175653240Y-112526197D01*
X175653052Y-112525253D01*
X175653236Y-112524311D01*
X175652914Y-112429127D01*
X175652267Y-112425932D01*
X175652861Y-112422724D01*
X175651910Y-112351688D01*
X175650319Y-112344213D01*
X175651532Y-112336670D01*
X175649669Y-112286150D01*
X175645631Y-112269149D01*
X175647474Y-112251769D01*
X175644415Y-112218133D01*
X175635350Y-112187425D01*
X175636490Y-112168170D01*
X175632166Y-112155691D01*
X175631739Y-112136967D01*
X175627200Y-112116587D01*
X175614339Y-112087435D01*
X175613542Y-112076161D01*
X175586559Y-112022143D01*
X175573716Y-111978635D01*
X175568632Y-111972345D01*
X175554728Y-111932220D01*
X175548427Y-111921464D01*
X175533902Y-111905111D01*
X175526405Y-111888118D01*
X175513412Y-111875704D01*
X175501953Y-111852764D01*
X175438439Y-111797636D01*
X175382594Y-111734763D01*
X175369249Y-111728287D01*
X175363368Y-111721941D01*
X175343192Y-111712672D01*
X175339536Y-111708957D01*
X175333162Y-111706257D01*
X175313368Y-111689077D01*
X175305020Y-111684315D01*
X175220551Y-111656122D01*
X175157937Y-111625735D01*
X175153381Y-111625465D01*
X175136455Y-111617689D01*
X175128374Y-111615760D01*
X175118599Y-111615389D01*
X175109592Y-111611574D01*
X175076645Y-111604749D01*
X175073871Y-111604727D01*
X175071310Y-111603668D01*
X175044660Y-111598383D01*
X175047417Y-111595359D01*
X175076564Y-111547037D01*
X175084565Y-111524872D01*
X175099132Y-111506348D01*
X175107356Y-111490159D01*
X175669446Y-111490159D01*
X175755852Y-111746643D01*
X176329336Y-111956458D01*
X176939460Y-111930839D01*
X177384148Y-111746643D01*
X177470554Y-111490159D01*
X178169446Y-111490159D01*
X178255852Y-111746643D01*
X178829336Y-111956458D01*
X179439460Y-111930839D01*
X179884148Y-111746643D01*
X179970554Y-111490159D01*
X179070000Y-110589605D01*
X178169446Y-111490159D01*
X177470554Y-111490159D01*
X176570000Y-110589605D01*
X175669446Y-111490159D01*
X175107356Y-111490159D01*
X175116275Y-111472603D01*
X175131174Y-111419532D01*
X175157356Y-111371029D01*
X175164178Y-111348869D01*
X175165459Y-111336384D01*
X175170990Y-111325119D01*
X175174902Y-111263771D01*
X175183770Y-111232182D01*
X175182521Y-111221737D01*
X175187286Y-111205763D01*
X175183065Y-111164854D01*
X175188175Y-111115070D01*
X175233357Y-111224148D01*
X175489841Y-111310554D01*
X176390395Y-110410000D01*
X176749605Y-110410000D01*
X177650159Y-111310554D01*
X177820000Y-111253337D01*
X177989841Y-111310554D01*
X178890395Y-110410000D01*
X179249605Y-110410000D01*
X180150159Y-111310554D01*
X180406643Y-111224148D01*
X180616458Y-110650664D01*
X180590839Y-110040540D01*
X180406643Y-109595852D01*
X180150159Y-109509446D01*
X179249605Y-110410000D01*
X178890395Y-110410000D01*
X177989841Y-109509446D01*
X177820000Y-109566663D01*
X177650159Y-109509446D01*
X176749605Y-110410000D01*
X176390395Y-110410000D01*
X175489841Y-109509446D01*
X175233357Y-109595852D01*
X175023542Y-110169336D01*
X175047784Y-110746675D01*
X175042925Y-110737684D01*
X175026543Y-110717911D01*
X175012546Y-110706532D01*
X175003100Y-110691163D01*
X174969702Y-110655128D01*
X174964509Y-110651365D01*
X174961042Y-110645966D01*
X174914066Y-110597243D01*
X174910864Y-110595018D01*
X174908718Y-110591762D01*
X174851604Y-110533923D01*
X174848988Y-110532151D01*
X174847223Y-110529529D01*
X174783406Y-110466144D01*
X174780422Y-110464165D01*
X174778391Y-110461218D01*
X174712192Y-110396896D01*
X174706555Y-110393246D01*
X174702631Y-110387796D01*
X174637785Y-110327338D01*
X174626070Y-110320090D01*
X174617554Y-110309262D01*
X174569903Y-110268470D01*
X174542398Y-110253025D01*
X174520576Y-110230248D01*
X174488885Y-110208077D01*
X174388009Y-110163739D01*
X174373726Y-110156648D01*
X174324336Y-110126633D01*
X174308261Y-110124148D01*
X174289299Y-110114734D01*
X174272331Y-110110140D01*
X174264908Y-110109634D01*
X174260277Y-110107598D01*
X174230036Y-110106951D01*
X174211714Y-110106005D01*
X174174474Y-110103464D01*
X174077552Y-110088480D01*
X174050736Y-110095023D01*
X174023195Y-110093144D01*
X174015134Y-110095857D01*
X174010492Y-110095617D01*
X173927395Y-110125116D01*
X173834954Y-110147671D01*
X173832737Y-110148703D01*
X173811186Y-110164483D01*
X173786519Y-110172783D01*
X173781986Y-110176737D01*
X173775166Y-110179158D01*
X173751817Y-110193074D01*
X173743865Y-110200245D01*
X173733899Y-110204157D01*
X173691511Y-110231350D01*
X173688645Y-110234112D01*
X173685348Y-110235452D01*
X173679778Y-110206831D01*
X173678258Y-110203117D01*
X173678225Y-110199104D01*
X173673219Y-110174968D01*
X173669380Y-110165909D01*
X173669002Y-110156077D01*
X173668682Y-110154739D01*
X173658656Y-110132940D01*
X173655963Y-110109097D01*
X173652667Y-110098765D01*
X173651301Y-110096295D01*
X173650961Y-110093499D01*
X173629805Y-110056012D01*
X173625715Y-110036218D01*
X173595647Y-109991931D01*
X173575778Y-109945049D01*
X173569305Y-109938681D01*
X173564333Y-109927871D01*
X173551682Y-109916156D01*
X173531819Y-109880239D01*
X173529614Y-109878481D01*
X173528228Y-109876026D01*
X173521551Y-109868259D01*
X173500480Y-109851760D01*
X173485448Y-109829620D01*
X173404042Y-109776094D01*
X173397767Y-109769920D01*
X173394028Y-109768407D01*
X173388944Y-109764427D01*
X173353949Y-109732430D01*
X173343017Y-109728465D01*
X173324937Y-109714308D01*
X173299157Y-109707129D01*
X173276796Y-109692426D01*
X173263072Y-109686860D01*
X173189557Y-109672802D01*
X173119199Y-109647282D01*
X173094766Y-109643549D01*
X173064611Y-109644899D01*
X173035396Y-109637294D01*
X172996589Y-109635029D01*
X172984409Y-109636721D01*
X172972401Y-109634076D01*
X172915557Y-109632912D01*
X172910744Y-109633767D01*
X172905958Y-109632788D01*
X172827414Y-109632358D01*
X172825853Y-109632660D01*
X172824292Y-109632348D01*
X172720382Y-109632286D01*
X172720191Y-109632324D01*
X172720000Y-109632286D01*
X172706944Y-109632286D01*
X172706675Y-109632339D01*
X172706405Y-109632286D01*
X172605528Y-109632371D01*
X172603715Y-109632733D01*
X172601903Y-109632385D01*
X172525980Y-109632879D01*
X172520641Y-109633977D01*
X172515271Y-109633038D01*
X172460636Y-109634308D01*
X172447366Y-109637270D01*
X172433887Y-109635490D01*
X172396877Y-109637902D01*
X172364594Y-109646540D01*
X172331185Y-109645608D01*
X172308138Y-109649528D01*
X172231000Y-109678989D01*
X172150619Y-109697833D01*
X172137870Y-109703627D01*
X172111335Y-109722690D01*
X172080442Y-109733318D01*
X172010688Y-109794996D01*
X171935065Y-109849325D01*
X171919079Y-109875102D01*
X171898941Y-109891874D01*
X171897046Y-109895481D01*
X171893370Y-109898732D01*
X171887255Y-109906769D01*
X171876589Y-109928623D01*
X171874084Y-109930958D01*
X171870102Y-109939694D01*
X171863832Y-109945872D01*
X171839498Y-110003423D01*
X171803454Y-110061543D01*
X171800567Y-110079163D01*
X171782821Y-110112948D01*
X171779676Y-110123592D01*
X171779273Y-110128010D01*
X171777725Y-110131182D01*
X171776934Y-110144064D01*
X171770500Y-110158176D01*
X171770410Y-110158558D01*
X171770094Y-110167569D01*
X171766583Y-110175873D01*
X171761415Y-110200895D01*
X171761387Y-110204704D01*
X171759944Y-110208231D01*
X171754658Y-110235425D01*
X171742961Y-110227753D01*
X171738612Y-110225995D01*
X171735221Y-110222756D01*
X171696754Y-110198312D01*
X171682413Y-110192754D01*
X171670797Y-110182666D01*
X171652261Y-110172084D01*
X171557042Y-110140277D01*
X171464592Y-110101155D01*
X171439351Y-110100963D01*
X171415411Y-110092966D01*
X171315274Y-110100018D01*
X171214884Y-110099254D01*
X171202182Y-110101680D01*
X171183362Y-110109308D01*
X171166312Y-110110509D01*
X171112924Y-110137160D01*
X171102368Y-110138292D01*
X171075353Y-110153032D01*
X170972790Y-110194150D01*
X170943954Y-110212945D01*
X170916663Y-110239620D01*
X170883161Y-110257900D01*
X170838597Y-110295120D01*
X170828676Y-110307424D01*
X170815188Y-110315659D01*
X170753661Y-110372349D01*
X170748900Y-110378879D01*
X170742109Y-110383261D01*
X170662381Y-110460468D01*
X170660791Y-110462767D01*
X170658453Y-110464304D01*
X170651319Y-110471332D01*
X170650378Y-110472718D01*
X170648986Y-110473643D01*
X170585722Y-110536610D01*
X170583927Y-110539282D01*
X170581264Y-110541091D01*
X170525070Y-110598137D01*
X170522842Y-110601526D01*
X170519516Y-110603846D01*
X170473829Y-110651395D01*
X170470069Y-110657273D01*
X170464432Y-110661387D01*
X170432695Y-110695867D01*
X170421479Y-110714258D01*
X170404961Y-110728083D01*
X170390611Y-110745916D01*
X170368000Y-110789220D01*
X170335756Y-110825797D01*
X170332088Y-110836512D01*
X170324894Y-110845273D01*
X170324848Y-110845360D01*
X170308311Y-110899817D01*
X170302673Y-110909062D01*
X170301499Y-110916578D01*
X170275029Y-110967272D01*
X170270725Y-111015773D01*
X170254882Y-111062054D01*
X170253059Y-111075632D01*
X170253379Y-111080715D01*
X170252290Y-111084301D01*
X170252913Y-111090640D01*
X170250341Y-111099171D01*
X170257227Y-111167862D01*
X170252954Y-111216010D01*
X170256473Y-111227221D01*
X170255949Y-111231566D01*
X170264892Y-111263556D01*
X170268752Y-111324854D01*
X170274048Y-111335664D01*
X170275249Y-111347640D01*
X170281972Y-111369665D01*
X170308230Y-111418586D01*
X170323179Y-111472061D01*
X170340143Y-111505545D01*
X170354832Y-111524267D01*
X170362904Y-111546655D01*
X170391806Y-111594612D01*
X170395240Y-111598382D01*
X170389196Y-111599570D01*
X170387509Y-111600264D01*
X170385682Y-111600270D01*
X170344072Y-111608688D01*
X170337839Y-111611294D01*
X170331086Y-111611456D01*
X170312251Y-111615675D01*
X170283857Y-111628243D01*
X170255178Y-111631450D01*
X170240895Y-111639328D01*
X170224258Y-111642145D01*
X170221135Y-111643335D01*
X170201888Y-111655413D01*
X170196671Y-111656449D01*
X170150535Y-111687255D01*
X170083905Y-111716748D01*
X170065470Y-111736091D01*
X170036520Y-111752059D01*
X170028909Y-111758475D01*
X170020122Y-111769475D01*
X170009617Y-111776067D01*
X170002475Y-111786120D01*
X169988997Y-111795120D01*
X169941490Y-111866172D01*
X169911620Y-111897513D01*
X169907917Y-111907098D01*
X169891539Y-111924659D01*
X169887478Y-111935519D01*
X169873050Y-111953580D01*
X169865878Y-111978395D01*
X169864994Y-111979640D01*
X169864666Y-111981073D01*
X169850200Y-112002709D01*
X169844537Y-112016369D01*
X169830048Y-112089097D01*
X169804074Y-112158555D01*
X169800077Y-112183089D01*
X169801143Y-112213675D01*
X169793180Y-112243225D01*
X169790565Y-112282264D01*
X169792258Y-112295264D01*
X169789359Y-112308052D01*
X169787841Y-112365227D01*
X169788813Y-112370894D01*
X169787641Y-112376522D01*
X169786939Y-112455463D01*
X169787380Y-112457788D01*
X169786915Y-112460105D01*
X169786744Y-112564443D01*
X169786847Y-112564967D01*
X169786743Y-112565492D01*
X169786743Y-112882799D01*
X169799132Y-112945082D01*
X169799226Y-113008585D01*
X169823254Y-113066351D01*
X169835460Y-113127716D01*
X169870741Y-113180518D01*
X169895129Y-113239150D01*
X169939435Y-113283325D01*
X169974195Y-113335347D01*
X170026996Y-113370627D01*
X170071966Y-113415465D01*
X170129805Y-113439323D01*
X170181826Y-113474082D01*
X170244108Y-113486471D01*
X170302814Y-113510686D01*
X170379014Y-113525726D01*
X170379568Y-113525725D01*
X170380077Y-113525934D01*
X170389294Y-113527738D01*
X170390332Y-113527735D01*
X170341606Y-113599245D01*
X170315935Y-113659665D01*
X170279421Y-113714213D01*
X170267585Y-113773461D01*
X170243955Y-113829075D01*
X170243360Y-113894721D01*
X170230500Y-113959090D01*
X170242238Y-114018360D01*
X170241690Y-114078781D01*
X170266259Y-114139652D01*
X170279012Y-114204048D01*
X170312541Y-114254317D01*
X170333657Y-114306635D01*
X170329849Y-114306157D01*
X170255107Y-114311500D01*
X170180456Y-114304962D01*
X170100720Y-114313687D01*
X170004245Y-114344096D01*
X169956679Y-114355225D01*
X169955870Y-114354985D01*
X169854610Y-114318828D01*
X169771337Y-114306531D01*
X169714653Y-114309353D01*
X169658685Y-114299952D01*
X169636445Y-114300618D01*
X169620486Y-114304292D01*
X169620000Y-114288836D01*
X169620000Y-103015105D01*
X171115000Y-103015105D01*
X171115000Y-103784895D01*
X171409586Y-104496090D01*
X171953910Y-105040414D01*
X172665105Y-105335000D01*
X173434895Y-105335000D01*
X174146090Y-105040414D01*
X174690414Y-104496090D01*
X174985000Y-103784895D01*
X174985000Y-103015105D01*
X174690414Y-102303910D01*
X174146090Y-101759586D01*
X173434895Y-101465000D01*
X172665105Y-101465000D01*
X171953910Y-101759586D01*
X171409586Y-102303910D01*
X171115000Y-103015105D01*
X169620000Y-103015105D01*
X169620000Y-75015105D01*
X171115000Y-75015105D01*
X171115000Y-75784895D01*
X171409586Y-76496090D01*
X171953910Y-77040414D01*
X172665105Y-77335000D01*
X173434895Y-77335000D01*
X174146090Y-77040414D01*
X174690414Y-76496090D01*
X174957634Y-75850961D01*
X178548096Y-75850961D01*
X178670085Y-76073000D01*
X180213000Y-76073000D01*
X180213000Y-74765000D01*
X180467000Y-74765000D01*
X180467000Y-76073000D01*
X182009915Y-76073000D01*
X182131904Y-75850961D01*
X182114367Y-75768181D01*
X181844500Y-75275104D01*
X181406483Y-74922834D01*
X180867000Y-74765000D01*
X180467000Y-74765000D01*
X180213000Y-74765000D01*
X179813000Y-74765000D01*
X179273517Y-74922834D01*
X178835500Y-75275104D01*
X178565633Y-75768181D01*
X178548096Y-75850961D01*
X174957634Y-75850961D01*
X174985000Y-75784895D01*
X174985000Y-75015105D01*
X174690414Y-74303910D01*
X174146090Y-73759586D01*
X173434895Y-73465000D01*
X172665105Y-73465000D01*
X171953910Y-73759586D01*
X171409586Y-74303910D01*
X171115000Y-75015105D01*
X169620000Y-75015105D01*
X169620000Y-71195801D01*
X171553804Y-71195801D01*
X171553804Y-71420307D01*
X173279541Y-73146044D01*
X173512930Y-73242717D01*
X173765549Y-73242716D01*
X173998938Y-73146043D01*
X174805435Y-72339546D01*
X174805435Y-72115040D01*
X172720000Y-70029605D01*
X171553804Y-71195801D01*
X169620000Y-71195801D01*
X169620000Y-69486503D01*
X171149693Y-71016196D01*
X171374199Y-71016196D01*
X172540395Y-69850000D01*
X170454960Y-67764565D01*
X170230454Y-67764565D01*
X169620000Y-68375019D01*
X169620000Y-67360454D01*
X170634565Y-67360454D01*
X170634565Y-67584960D01*
X172720000Y-69670395D01*
X172734143Y-69656253D01*
X172913748Y-69835858D01*
X172899605Y-69850000D01*
X174985040Y-71935435D01*
X175209546Y-71935435D01*
X175271610Y-71873371D01*
X175168846Y-72390000D01*
X175272458Y-72910891D01*
X175567519Y-73352481D01*
X176009109Y-73647542D01*
X176398515Y-73725000D01*
X176661485Y-73725000D01*
X177050891Y-73647542D01*
X177492481Y-73352481D01*
X177771965Y-72934204D01*
X178223847Y-73386086D01*
X178824778Y-73635000D01*
X179475222Y-73635000D01*
X180076153Y-73386086D01*
X180400000Y-73062239D01*
X180723847Y-73386086D01*
X181324778Y-73635000D01*
X181975222Y-73635000D01*
X182576153Y-73386086D01*
X183036086Y-72926153D01*
X183122054Y-72718607D01*
X183450429Y-73046982D01*
X183904343Y-73235000D01*
X184395657Y-73235000D01*
X184849571Y-73046982D01*
X185177946Y-72718607D01*
X185263914Y-72926153D01*
X185723847Y-73386086D01*
X186324778Y-73635000D01*
X186975222Y-73635000D01*
X187576153Y-73386086D01*
X187900000Y-73062239D01*
X188223847Y-73386086D01*
X188824778Y-73635000D01*
X189475222Y-73635000D01*
X190076153Y-73386086D01*
X190528035Y-72934204D01*
X190807519Y-73352481D01*
X191249109Y-73647542D01*
X191638515Y-73725000D01*
X191901485Y-73725000D01*
X192290891Y-73647542D01*
X192732481Y-73352481D01*
X193027542Y-72910891D01*
X193131154Y-72390000D01*
X193076462Y-72115040D01*
X193494565Y-72115040D01*
X193494565Y-72339546D01*
X194301062Y-73146043D01*
X194534451Y-73242716D01*
X194787070Y-73242717D01*
X195020459Y-73146044D01*
X196746196Y-71420307D01*
X196746196Y-71195801D01*
X195580000Y-70029605D01*
X193494565Y-72115040D01*
X193076462Y-72115040D01*
X193028390Y-71873371D01*
X193090454Y-71935435D01*
X193314960Y-71935435D01*
X195400395Y-69850000D01*
X195386253Y-69835858D01*
X195565858Y-69656253D01*
X195580000Y-69670395D01*
X197665435Y-67584960D01*
X197665435Y-67360454D01*
X196858938Y-66553957D01*
X196625549Y-66457284D01*
X196524549Y-66457284D01*
X196495836Y-66312932D01*
X196214587Y-65892012D01*
X195295348Y-64972773D01*
X194874428Y-64691524D01*
X194377919Y-64592762D01*
X193881410Y-64691524D01*
X193460490Y-64972773D01*
X190702773Y-67730490D01*
X190421524Y-68151410D01*
X190322762Y-68647919D01*
X190410698Y-69090000D01*
X188874846Y-69090000D01*
X188799999Y-69075112D01*
X188725152Y-69090000D01*
X188725148Y-69090000D01*
X188503463Y-69134096D01*
X188252071Y-69302071D01*
X188209671Y-69365527D01*
X187165529Y-70409670D01*
X187165526Y-70409672D01*
X187141375Y-70433823D01*
X186975222Y-70365000D01*
X186324778Y-70365000D01*
X185723847Y-70613914D01*
X185263914Y-71073847D01*
X185177946Y-71281393D01*
X184849571Y-70953018D01*
X184395657Y-70765000D01*
X183904343Y-70765000D01*
X183450429Y-70953018D01*
X183122054Y-71281393D01*
X183036086Y-71073847D01*
X182576153Y-70613914D01*
X181975222Y-70365000D01*
X181324778Y-70365000D01*
X181158625Y-70433823D01*
X180090331Y-69365530D01*
X180047929Y-69302071D01*
X179796537Y-69134096D01*
X179574852Y-69090000D01*
X179574847Y-69090000D01*
X179500000Y-69075112D01*
X179425153Y-69090000D01*
X177889302Y-69090000D01*
X177977238Y-68647919D01*
X177878476Y-68151410D01*
X177597227Y-67730490D01*
X176621080Y-66754343D01*
X177915000Y-66754343D01*
X177915000Y-67245657D01*
X178103018Y-67699571D01*
X178450429Y-68046982D01*
X178904343Y-68235000D01*
X179395657Y-68235000D01*
X179594751Y-68152532D01*
X183177073Y-68152532D01*
X183275736Y-68419387D01*
X183885461Y-68645908D01*
X184535460Y-68621856D01*
X185024264Y-68419387D01*
X185122927Y-68152532D01*
X184150000Y-67179605D01*
X183177073Y-68152532D01*
X179594751Y-68152532D01*
X179849571Y-68046982D01*
X180196982Y-67699571D01*
X180385000Y-67245657D01*
X180385000Y-66754343D01*
X180377179Y-66735461D01*
X182504092Y-66735461D01*
X182528144Y-67385460D01*
X182730613Y-67874264D01*
X182997468Y-67972927D01*
X183970395Y-67000000D01*
X184329605Y-67000000D01*
X185302532Y-67972927D01*
X185569387Y-67874264D01*
X185795908Y-67264539D01*
X185777030Y-66754343D01*
X187915000Y-66754343D01*
X187915000Y-67245657D01*
X188103018Y-67699571D01*
X188450429Y-68046982D01*
X188904343Y-68235000D01*
X189395657Y-68235000D01*
X189849571Y-68046982D01*
X190196982Y-67699571D01*
X190385000Y-67245657D01*
X190385000Y-66754343D01*
X190196982Y-66300429D01*
X189849571Y-65953018D01*
X189395657Y-65765000D01*
X188904343Y-65765000D01*
X188450429Y-65953018D01*
X188103018Y-66300429D01*
X187915000Y-66754343D01*
X185777030Y-66754343D01*
X185771856Y-66614540D01*
X185569387Y-66125736D01*
X185302532Y-66027073D01*
X184329605Y-67000000D01*
X183970395Y-67000000D01*
X182997468Y-66027073D01*
X182730613Y-66125736D01*
X182504092Y-66735461D01*
X180377179Y-66735461D01*
X180196982Y-66300429D01*
X179849571Y-65953018D01*
X179594752Y-65847468D01*
X183177073Y-65847468D01*
X184150000Y-66820395D01*
X185122927Y-65847468D01*
X185024264Y-65580613D01*
X184414539Y-65354092D01*
X183764540Y-65378144D01*
X183275736Y-65580613D01*
X183177073Y-65847468D01*
X179594752Y-65847468D01*
X179395657Y-65765000D01*
X178904343Y-65765000D01*
X178450429Y-65953018D01*
X178103018Y-66300429D01*
X177915000Y-66754343D01*
X176621080Y-66754343D01*
X174839510Y-64972773D01*
X174418590Y-64691524D01*
X173922081Y-64592762D01*
X173425572Y-64691524D01*
X173004652Y-64972773D01*
X172085413Y-65892012D01*
X171804164Y-66312932D01*
X171775451Y-66457284D01*
X171674451Y-66457284D01*
X171441062Y-66553957D01*
X170634565Y-67360454D01*
X169620000Y-67360454D01*
X169620000Y-66084666D01*
X169682958Y-65586302D01*
X169851305Y-65161107D01*
X170120101Y-64791142D01*
X170472462Y-64499644D01*
X170886244Y-64304933D01*
X171368662Y-64212907D01*
X171461164Y-64210000D01*
X177933368Y-64210000D01*
X177915000Y-64254343D01*
X177915000Y-64254343D01*
G37*
X177915000Y-64254343D02*
X177915000Y-64745657D01*
X178103018Y-65199571D01*
X178450429Y-65546982D01*
X178904343Y-65735000D01*
X179395657Y-65735000D01*
X179849571Y-65546982D01*
X180196982Y-65199571D01*
X180385000Y-64745657D01*
X180385000Y-64254343D01*
X180366632Y-64210000D01*
X187933368Y-64210000D01*
X187915000Y-64254343D01*
X187915000Y-64745657D01*
X188103018Y-65199571D01*
X188450429Y-65546982D01*
X188904343Y-65735000D01*
X189395657Y-65735000D01*
X189849571Y-65546982D01*
X190196982Y-65199571D01*
X190385000Y-64745657D01*
X190385000Y-64254343D01*
X190366632Y-64210000D01*
X196805334Y-64210000D01*
X197303698Y-64272958D01*
X197728893Y-64441305D01*
X198098858Y-64710101D01*
X198390356Y-65062462D01*
X198585067Y-65476244D01*
X198677093Y-65958662D01*
X198680001Y-66051195D01*
X198680001Y-68375020D01*
X198069546Y-67764565D01*
X197845040Y-67764565D01*
X195759605Y-69850000D01*
X196925801Y-71016196D01*
X197150307Y-71016196D01*
X198680001Y-69486502D01*
X198680001Y-89640137D01*
X198667929Y-89622071D01*
X198604476Y-89579673D01*
X196340000Y-87315199D01*
X196340000Y-77544846D01*
X196354888Y-77469999D01*
X196340000Y-77395152D01*
X196340000Y-77395148D01*
X196295904Y-77173463D01*
X196127929Y-76922071D01*
X196064473Y-76879671D01*
X194900331Y-75715530D01*
X194857929Y-75652071D01*
X194606537Y-75484096D01*
X194384852Y-75440000D01*
X194384847Y-75440000D01*
X194310000Y-75425112D01*
X194235153Y-75440000D01*
X189578043Y-75440000D01*
X189394577Y-75165423D01*
X188919909Y-74848260D01*
X188501333Y-74765000D01*
X187418667Y-74765000D01*
X187000091Y-74848260D01*
X186525423Y-75165423D01*
X186208260Y-75640091D01*
X186096887Y-76200000D01*
X186208260Y-76759909D01*
X186525423Y-77234577D01*
X186881499Y-77472499D01*
X186455500Y-77815104D01*
X186185633Y-78308181D01*
X186168096Y-78390961D01*
X186290085Y-78613000D01*
X187833000Y-78613000D01*
X187833000Y-78593000D01*
X188087000Y-78593000D01*
X188087000Y-78613000D01*
X189629915Y-78613000D01*
X189751904Y-78390961D01*
X189734367Y-78308181D01*
X189464500Y-77815104D01*
X189038501Y-77472499D01*
X189394577Y-77234577D01*
X189578043Y-76960000D01*
X193995199Y-76960000D01*
X194440198Y-77405000D01*
X194178515Y-77405000D01*
X193789109Y-77482458D01*
X193347519Y-77777519D01*
X193212226Y-77980000D01*
X193114846Y-77980000D01*
X193039999Y-77965112D01*
X192965152Y-77980000D01*
X192965148Y-77980000D01*
X192743463Y-78024096D01*
X192492071Y-78192071D01*
X192449671Y-78255527D01*
X192030198Y-78675000D01*
X191504452Y-78675000D01*
X191013783Y-78878242D01*
X190638242Y-79253783D01*
X190435000Y-79744452D01*
X190435000Y-80270199D01*
X190185199Y-80520000D01*
X189578043Y-80520000D01*
X189394577Y-80245423D01*
X189038501Y-80007501D01*
X189464500Y-79664896D01*
X189734367Y-79171819D01*
X189751904Y-79089039D01*
X189629915Y-78867000D01*
X188087000Y-78867000D01*
X188087000Y-78887000D01*
X187833000Y-78887000D01*
X187833000Y-78867000D01*
X186290085Y-78867000D01*
X186168096Y-79089039D01*
X186185633Y-79171819D01*
X186455500Y-79664896D01*
X186881499Y-80007501D01*
X186525423Y-80245423D01*
X186208260Y-80720091D01*
X186096887Y-81280000D01*
X186208260Y-81839909D01*
X186525423Y-82314577D01*
X186646106Y-82395215D01*
X186512235Y-82421843D01*
X186302191Y-82562191D01*
X186161843Y-82772235D01*
X186112560Y-83020000D01*
X186112560Y-83316237D01*
X186099671Y-83335527D01*
X184935528Y-84499671D01*
X184872072Y-84542071D01*
X184829672Y-84605527D01*
X184829671Y-84605528D01*
X184704097Y-84793463D01*
X184645112Y-85090000D01*
X184660001Y-85164851D01*
X184660000Y-86391570D01*
X184607138Y-86413466D01*
X184203466Y-86817138D01*
X184150000Y-86946216D01*
X184096534Y-86817138D01*
X183692862Y-86413466D01*
X183640000Y-86391570D01*
X183640000Y-82624846D01*
X183654888Y-82549999D01*
X183640000Y-82475152D01*
X183640000Y-82475148D01*
X183595904Y-82253463D01*
X183427929Y-82002071D01*
X183364473Y-81959671D01*
X182200331Y-80795530D01*
X182157929Y-80732071D01*
X182052815Y-80661836D01*
X181774577Y-80245423D01*
X181422242Y-80010000D01*
X181774577Y-79774577D01*
X182091740Y-79299909D01*
X182203113Y-78740000D01*
X182091740Y-78180091D01*
X181774577Y-77705423D01*
X181418501Y-77467501D01*
X181844500Y-77124896D01*
X182114367Y-76631819D01*
X182131904Y-76549039D01*
X182009915Y-76327000D01*
X180467000Y-76327000D01*
X180467000Y-76347000D01*
X180213000Y-76347000D01*
X180213000Y-76327000D01*
X178670085Y-76327000D01*
X178548096Y-76549039D01*
X178565633Y-76631819D01*
X178835500Y-77124896D01*
X179261499Y-77467501D01*
X178905423Y-77705423D01*
X178721957Y-77980000D01*
X177874846Y-77980000D01*
X177799999Y-77965112D01*
X177725152Y-77980000D01*
X177725148Y-77980000D01*
X177503463Y-78024096D01*
X177252071Y-78192071D01*
X177209671Y-78255527D01*
X176790198Y-78675000D01*
X176269801Y-78675000D01*
X175850331Y-78255530D01*
X175807929Y-78192071D01*
X175556537Y-78024096D01*
X175334852Y-77980000D01*
X175334847Y-77980000D01*
X175260000Y-77965112D01*
X175185153Y-77980000D01*
X175087774Y-77980000D01*
X174952481Y-77777519D01*
X174510891Y-77482458D01*
X174121485Y-77405000D01*
X173858515Y-77405000D01*
X173469109Y-77482458D01*
X173027519Y-77777519D01*
X172732458Y-78219109D01*
X172628846Y-78740000D01*
X172732458Y-79260891D01*
X173027519Y-79702481D01*
X173469109Y-79997542D01*
X173858515Y-80075000D01*
X174121485Y-80075000D01*
X174510891Y-79997542D01*
X174952481Y-79702481D01*
X175030667Y-79585468D01*
X175195000Y-79749801D01*
X175195000Y-80270199D01*
X174775530Y-80689669D01*
X174712071Y-80732071D01*
X174544096Y-80983464D01*
X174500000Y-81205149D01*
X174500000Y-81205153D01*
X174485112Y-81280000D01*
X174500000Y-81354847D01*
X174500001Y-83705148D01*
X174485112Y-83780000D01*
X174544097Y-84076537D01*
X174660003Y-84250002D01*
X174712072Y-84327929D01*
X174775528Y-84370329D01*
X175116897Y-84711698D01*
X175095000Y-84764561D01*
X175095000Y-85335439D01*
X175204585Y-85600000D01*
X175117975Y-85600000D01*
X174746217Y-85228242D01*
X174255548Y-85025000D01*
X173724452Y-85025000D01*
X173233783Y-85228242D01*
X172858242Y-85603783D01*
X172655000Y-86094452D01*
X172655000Y-86625548D01*
X172858242Y-87116217D01*
X173233783Y-87491758D01*
X173724452Y-87695000D01*
X174255548Y-87695000D01*
X174468338Y-87606859D01*
X172235530Y-89839669D01*
X172172071Y-89882071D01*
X172004096Y-90133464D01*
X171960000Y-90355149D01*
X171960000Y-90355153D01*
X171945112Y-90430000D01*
X171960000Y-90504847D01*
X171960001Y-92773774D01*
X171960000Y-92773779D01*
X171960000Y-92852025D01*
X171588242Y-93223783D01*
X171385000Y-93714452D01*
X171385000Y-94245548D01*
X171588242Y-94736217D01*
X171960001Y-95107976D01*
X171960001Y-95175149D01*
X171945112Y-95250000D01*
X171960001Y-95324852D01*
X172004097Y-95546537D01*
X172172072Y-95797929D01*
X172235528Y-95840329D01*
X173770360Y-97375162D01*
X173725000Y-97484670D01*
X173725000Y-98095330D01*
X173958690Y-98659507D01*
X174390493Y-99091310D01*
X174954670Y-99325000D01*
X175565330Y-99325000D01*
X175674838Y-99279640D01*
X176709203Y-100314006D01*
X176592191Y-100392191D01*
X176451843Y-100602235D01*
X176402560Y-100850000D01*
X176402560Y-102350000D01*
X176451843Y-102597765D01*
X176592191Y-102807809D01*
X176802235Y-102948157D01*
X177050000Y-102997440D01*
X178550000Y-102997440D01*
X178797765Y-102948157D01*
X179007809Y-102807809D01*
X179148157Y-102597765D01*
X179197440Y-102350000D01*
X179197440Y-100850000D01*
X179148157Y-100602235D01*
X179007809Y-100392191D01*
X178797765Y-100251843D01*
X178550000Y-100202560D01*
X178549540Y-100202560D01*
X178515904Y-100033463D01*
X178474102Y-99970902D01*
X178390329Y-99845526D01*
X178390327Y-99845524D01*
X178347929Y-99782071D01*
X178284476Y-99739673D01*
X177882243Y-99337440D01*
X178700000Y-99337440D01*
X178947765Y-99288157D01*
X179157809Y-99147809D01*
X179298157Y-98937765D01*
X179347440Y-98690000D01*
X179347440Y-98685415D01*
X179583783Y-98921758D01*
X180074452Y-99125000D01*
X180605548Y-99125000D01*
X181096217Y-98921758D01*
X181471758Y-98546217D01*
X181675000Y-98055548D01*
X181675000Y-97524452D01*
X181471758Y-97033783D01*
X181096217Y-96658242D01*
X180605548Y-96455000D01*
X180074452Y-96455000D01*
X179583783Y-96658242D01*
X179347440Y-96894585D01*
X179347440Y-96890000D01*
X179298157Y-96642235D01*
X179157809Y-96432191D01*
X178947765Y-96291843D01*
X178700000Y-96242560D01*
X176900000Y-96242560D01*
X176652235Y-96291843D01*
X176442191Y-96432191D01*
X176301843Y-96642235D01*
X176298725Y-96657908D01*
X176129507Y-96488690D01*
X175565330Y-96255000D01*
X174954670Y-96255000D01*
X174845162Y-96300360D01*
X173566388Y-95021587D01*
X173851758Y-94736217D01*
X174026924Y-94313329D01*
X179047284Y-94313329D01*
X179190203Y-94658396D01*
X179537337Y-95046764D01*
X180006669Y-95272727D01*
X180213000Y-95150206D01*
X180213000Y-94107000D01*
X180467000Y-94107000D01*
X180467000Y-95150206D01*
X180673331Y-95272727D01*
X181142663Y-95046764D01*
X181489797Y-94658396D01*
X181632716Y-94313329D01*
X181509374Y-94107000D01*
X180467000Y-94107000D01*
X180213000Y-94107000D01*
X179170626Y-94107000D01*
X179047284Y-94313329D01*
X174026924Y-94313329D01*
X174055000Y-94245548D01*
X174055000Y-93714452D01*
X174026925Y-93646671D01*
X179047284Y-93646671D01*
X179170626Y-93853000D01*
X180213000Y-93853000D01*
X180213000Y-92809794D01*
X180467000Y-92809794D01*
X180467000Y-93853000D01*
X181509374Y-93853000D01*
X181632716Y-93646671D01*
X181489797Y-93301604D01*
X181142663Y-92913236D01*
X180673331Y-92687273D01*
X180467000Y-92809794D01*
X180213000Y-92809794D01*
X180006669Y-92687273D01*
X179537337Y-92913236D01*
X179190203Y-93301604D01*
X179047284Y-93646671D01*
X174026925Y-93646671D01*
X173851758Y-93223783D01*
X173480000Y-92852025D01*
X173480000Y-91177745D01*
X175701861Y-91177745D01*
X175775995Y-91423864D01*
X176313223Y-91616965D01*
X176883454Y-91589778D01*
X177284005Y-91423864D01*
X177358139Y-91177745D01*
X177318140Y-91137745D01*
X179511861Y-91137745D01*
X179585995Y-91383864D01*
X180123223Y-91576965D01*
X180693454Y-91549778D01*
X181094005Y-91383864D01*
X181168139Y-91137745D01*
X180340000Y-90309605D01*
X179511861Y-91137745D01*
X177318140Y-91137745D01*
X176530000Y-90349605D01*
X175701861Y-91177745D01*
X173480000Y-91177745D01*
X173480000Y-90744801D01*
X174271578Y-89953223D01*
X175083035Y-89953223D01*
X175110222Y-90523454D01*
X175276136Y-90924005D01*
X175522255Y-90998139D01*
X176350395Y-90170000D01*
X176709605Y-90170000D01*
X177537745Y-90998139D01*
X177783864Y-90924005D01*
X177976965Y-90386777D01*
X177954388Y-89913223D01*
X178893035Y-89913223D01*
X178920222Y-90483454D01*
X179086136Y-90884005D01*
X179332255Y-90958139D01*
X180160395Y-90130000D01*
X179332255Y-89301861D01*
X179086136Y-89375995D01*
X178893035Y-89913223D01*
X177954388Y-89913223D01*
X177949778Y-89816546D01*
X177783864Y-89415995D01*
X177537745Y-89341861D01*
X176709605Y-90170000D01*
X176350395Y-90170000D01*
X175522255Y-89341861D01*
X175276136Y-89415995D01*
X175083035Y-89953223D01*
X174271578Y-89953223D01*
X175287059Y-88937744D01*
X175482235Y-89068157D01*
X175716187Y-89114693D01*
X175701861Y-89162255D01*
X176530000Y-89990395D01*
X177358139Y-89162255D01*
X177343813Y-89114693D01*
X177577765Y-89068157D01*
X177787809Y-88927809D01*
X177928157Y-88717765D01*
X177977440Y-88470000D01*
X177977440Y-88390000D01*
X179101570Y-88390000D01*
X179123466Y-88442862D01*
X179527138Y-88846534D01*
X179592299Y-88873525D01*
X179585995Y-88876136D01*
X179511861Y-89122255D01*
X180340000Y-89950395D01*
X181168139Y-89122255D01*
X181094005Y-88876136D01*
X181087254Y-88873710D01*
X181152862Y-88846534D01*
X181556534Y-88442862D01*
X181610000Y-88313784D01*
X181663466Y-88442862D01*
X182067138Y-88846534D01*
X182147932Y-88880000D01*
X182067138Y-88913466D01*
X181663466Y-89317138D01*
X181616475Y-89430583D01*
X181593864Y-89375995D01*
X181347745Y-89301861D01*
X180519605Y-90130000D01*
X181347745Y-90958139D01*
X181593864Y-90884005D01*
X181614874Y-90825552D01*
X181663466Y-90942862D01*
X182067138Y-91346534D01*
X182120001Y-91368431D01*
X182120000Y-102555198D01*
X181255199Y-103420000D01*
X177874848Y-103420000D01*
X177800000Y-103405112D01*
X177725152Y-103420000D01*
X177725148Y-103420000D01*
X177551605Y-103454520D01*
X177503462Y-103464096D01*
X177375391Y-103549671D01*
X177252071Y-103632071D01*
X177209671Y-103695527D01*
X176984838Y-103920360D01*
X176875330Y-103875000D01*
X176264670Y-103875000D01*
X175700493Y-104108690D01*
X175268690Y-104540493D01*
X175035000Y-105104670D01*
X175035000Y-105715330D01*
X175268690Y-106279507D01*
X175649183Y-106660000D01*
X175268690Y-107040493D01*
X175035000Y-107604670D01*
X175035000Y-108215330D01*
X175268690Y-108779507D01*
X175700493Y-109211310D01*
X175708290Y-109214539D01*
X175669446Y-109329841D01*
X176570000Y-110230395D01*
X177470554Y-109329841D01*
X177431710Y-109214539D01*
X177439507Y-109211310D01*
X177820000Y-108830817D01*
X178200493Y-109211310D01*
X178208290Y-109214539D01*
X178169446Y-109329841D01*
X179070000Y-110230395D01*
X179970554Y-109329841D01*
X179931710Y-109214539D01*
X179939507Y-109211310D01*
X180371310Y-108779507D01*
X180416669Y-108670000D01*
X188075199Y-108670000D01*
X189323823Y-109918625D01*
X189255000Y-110084778D01*
X189255000Y-110735222D01*
X189503914Y-111336153D01*
X189963847Y-111796086D01*
X190564778Y-112045000D01*
X191215222Y-112045000D01*
X191816153Y-111796086D01*
X192276086Y-111336153D01*
X192525000Y-110735222D01*
X192525000Y-110084778D01*
X192276086Y-109483847D01*
X191952239Y-109160000D01*
X192276086Y-108836153D01*
X192525000Y-108235222D01*
X192525000Y-107584778D01*
X192276086Y-106983847D01*
X191816153Y-106523914D01*
X191608607Y-106437946D01*
X191936982Y-106109571D01*
X192125000Y-105655657D01*
X192125000Y-105164343D01*
X192117179Y-105145461D01*
X194244092Y-105145461D01*
X194268144Y-105795460D01*
X194470613Y-106284264D01*
X194737468Y-106382927D01*
X195710395Y-105410000D01*
X194737468Y-104437073D01*
X194470613Y-104535736D01*
X194244092Y-105145461D01*
X192117179Y-105145461D01*
X191936982Y-104710429D01*
X191608607Y-104382054D01*
X191816153Y-104296086D01*
X192276086Y-103836153D01*
X192525000Y-103235222D01*
X192525000Y-102584778D01*
X192276086Y-101983847D01*
X191952239Y-101660000D01*
X192276086Y-101336153D01*
X192525000Y-100735222D01*
X192525000Y-100084778D01*
X192276086Y-99483847D01*
X191816153Y-99023914D01*
X191215222Y-98775000D01*
X190564778Y-98775000D01*
X189963847Y-99023914D01*
X189503914Y-99483847D01*
X189255000Y-100084778D01*
X189255000Y-100500199D01*
X188745528Y-101009671D01*
X188682072Y-101052071D01*
X188639672Y-101115527D01*
X188639671Y-101115528D01*
X188514097Y-101303463D01*
X188455112Y-101600000D01*
X188470001Y-101674852D01*
X188470000Y-103825197D01*
X186855000Y-105440198D01*
X186855000Y-105104670D01*
X186621310Y-104540493D01*
X186189507Y-104108690D01*
X186180000Y-104104752D01*
X186180000Y-102757909D01*
X186418529Y-102598529D01*
X186724641Y-102140400D01*
X186832133Y-101600000D01*
X186724641Y-101059600D01*
X186418529Y-100601471D01*
X185960400Y-100295359D01*
X185556407Y-100215000D01*
X185339802Y-100215000D01*
X185904473Y-99650329D01*
X185967929Y-99607929D01*
X186135904Y-99356537D01*
X186180000Y-99134852D01*
X186180000Y-99134848D01*
X186194888Y-99060001D01*
X186180000Y-98985154D01*
X186180000Y-94915275D01*
X187204331Y-94915275D01*
X187266169Y-95151042D01*
X187767122Y-95327419D01*
X188297440Y-95298664D01*
X188653831Y-95151042D01*
X188715669Y-94915275D01*
X187960000Y-94159605D01*
X187204331Y-94915275D01*
X186180000Y-94915275D01*
X186180000Y-93787122D01*
X186612581Y-93787122D01*
X186641336Y-94317440D01*
X186788958Y-94673831D01*
X187024725Y-94735669D01*
X187780395Y-93980000D01*
X188139605Y-93980000D01*
X188895275Y-94735669D01*
X189131042Y-94673831D01*
X189307419Y-94172878D01*
X189278664Y-93642560D01*
X189131042Y-93286169D01*
X188895275Y-93224331D01*
X188139605Y-93980000D01*
X187780395Y-93980000D01*
X187024725Y-93224331D01*
X186788958Y-93286169D01*
X186612581Y-93787122D01*
X186180000Y-93787122D01*
X186180000Y-93044725D01*
X187204331Y-93044725D01*
X187960000Y-93800395D01*
X188715669Y-93044725D01*
X188653831Y-92808958D01*
X188152878Y-92632581D01*
X187622560Y-92661336D01*
X187266169Y-92808958D01*
X187204331Y-93044725D01*
X186180000Y-93044725D01*
X186180000Y-91368430D01*
X186232862Y-91346534D01*
X186441651Y-91137745D01*
X187131861Y-91137745D01*
X187205995Y-91383864D01*
X187743223Y-91576965D01*
X188313454Y-91549778D01*
X188714005Y-91383864D01*
X188788139Y-91137745D01*
X187960000Y-90309605D01*
X187131861Y-91137745D01*
X186441651Y-91137745D01*
X186636534Y-90942862D01*
X186683525Y-90829417D01*
X186706136Y-90884005D01*
X186952255Y-90958139D01*
X187780395Y-90130000D01*
X188139605Y-90130000D01*
X188967745Y-90958139D01*
X189213864Y-90884005D01*
X189367795Y-90455750D01*
X190335000Y-90455750D01*
X190335000Y-91096309D01*
X190431673Y-91329698D01*
X190610301Y-91508327D01*
X190843690Y-91605000D01*
X191484250Y-91605000D01*
X191643000Y-91446250D01*
X191643000Y-90297000D01*
X191897000Y-90297000D01*
X191897000Y-91446250D01*
X192055750Y-91605000D01*
X192696310Y-91605000D01*
X192929699Y-91508327D01*
X193108327Y-91329698D01*
X193205000Y-91096309D01*
X193205000Y-90455750D01*
X193046250Y-90297000D01*
X191897000Y-90297000D01*
X191643000Y-90297000D01*
X190493750Y-90297000D01*
X190335000Y-90455750D01*
X189367795Y-90455750D01*
X189406965Y-90346777D01*
X189379778Y-89776546D01*
X189213864Y-89375995D01*
X188967745Y-89301861D01*
X188139605Y-90130000D01*
X187780395Y-90130000D01*
X186952255Y-89301861D01*
X186706136Y-89375995D01*
X186685126Y-89434448D01*
X186636534Y-89317138D01*
X186232862Y-88913466D01*
X186152068Y-88880000D01*
X186232862Y-88846534D01*
X186636534Y-88442862D01*
X186690000Y-88313784D01*
X186743466Y-88442862D01*
X187147138Y-88846534D01*
X187212299Y-88873525D01*
X187205995Y-88876136D01*
X187131861Y-89122255D01*
X187960000Y-89950395D01*
X188788139Y-89122255D01*
X188714005Y-88876136D01*
X188707254Y-88873710D01*
X188772862Y-88846534D01*
X189176534Y-88442862D01*
X189198430Y-88390000D01*
X190515001Y-88390000D01*
X190553466Y-88482862D01*
X190816759Y-88746155D01*
X190610301Y-88831673D01*
X190431673Y-89010302D01*
X190335000Y-89243691D01*
X190335000Y-89884250D01*
X190493750Y-90043000D01*
X191643000Y-90043000D01*
X191643000Y-90023000D01*
X191897000Y-90023000D01*
X191897000Y-90043000D01*
X193046250Y-90043000D01*
X193205000Y-89884250D01*
X193205000Y-89243691D01*
X193108327Y-89010302D01*
X192929699Y-88831673D01*
X192723241Y-88746155D01*
X192986534Y-88482862D01*
X193008430Y-88430000D01*
X194346048Y-88430000D01*
X194153910Y-88509586D01*
X193609586Y-89053910D01*
X193315000Y-89765105D01*
X193315000Y-90534895D01*
X193609586Y-91246090D01*
X194153910Y-91790414D01*
X194865105Y-92085000D01*
X195634895Y-92085000D01*
X196346090Y-91790414D01*
X196890414Y-91246090D01*
X197185000Y-90534895D01*
X197185000Y-90309803D01*
X197360001Y-90484804D01*
X197360000Y-92784851D01*
X197360001Y-92784856D01*
X197360001Y-93220000D01*
X196677774Y-93220000D01*
X196542481Y-93017519D01*
X196100891Y-92722458D01*
X195711485Y-92645000D01*
X195448515Y-92645000D01*
X195059109Y-92722458D01*
X194617519Y-93017519D01*
X194322458Y-93459109D01*
X194218846Y-93980000D01*
X194266355Y-94218843D01*
X191455199Y-97030000D01*
X189057774Y-97030000D01*
X188922481Y-96827519D01*
X188480891Y-96532458D01*
X188091485Y-96455000D01*
X187828515Y-96455000D01*
X187439109Y-96532458D01*
X186997519Y-96827519D01*
X186702458Y-97269109D01*
X186598846Y-97790000D01*
X186702458Y-98310891D01*
X186997519Y-98752481D01*
X187439109Y-99047542D01*
X187828515Y-99125000D01*
X188091485Y-99125000D01*
X188480891Y-99047542D01*
X188922481Y-98752481D01*
X189057774Y-98550000D01*
X191695153Y-98550000D01*
X191770000Y-98564888D01*
X191844847Y-98550000D01*
X191844852Y-98550000D01*
X192066537Y-98505904D01*
X192317929Y-98337929D01*
X192360331Y-98274470D01*
X195341157Y-95293645D01*
X195448515Y-95315000D01*
X195711485Y-95315000D01*
X196100891Y-95237542D01*
X196542481Y-94942481D01*
X196677774Y-94740000D01*
X197360001Y-94740000D01*
X197360000Y-97475198D01*
X196730529Y-98104670D01*
X196667073Y-98147070D01*
X196624673Y-98210526D01*
X196624672Y-98210527D01*
X196499098Y-98398462D01*
X196440113Y-98694999D01*
X196455002Y-98769851D01*
X196455002Y-99307277D01*
X196135657Y-99175000D01*
X195644343Y-99175000D01*
X195190429Y-99363018D01*
X194843018Y-99710429D01*
X194655000Y-100164343D01*
X194655000Y-100655657D01*
X194843018Y-101109571D01*
X195190429Y-101456982D01*
X195644343Y-101645000D01*
X196135657Y-101645000D01*
X196455002Y-101512723D01*
X196455001Y-103875718D01*
X196154539Y-103764092D01*
X195504540Y-103788144D01*
X195015736Y-103990613D01*
X194917073Y-104257468D01*
X195890000Y-105230395D01*
X195904143Y-105216253D01*
X196083748Y-105395858D01*
X196069605Y-105410000D01*
X196083748Y-105424143D01*
X195904143Y-105603748D01*
X195890000Y-105589605D01*
X194917073Y-106562532D01*
X195015736Y-106829387D01*
X195625461Y-107055908D01*
X196275460Y-107031856D01*
X196455001Y-106957488D01*
X196455001Y-107270196D01*
X191374059Y-112351140D01*
X190924678Y-112165000D01*
X190075322Y-112165000D01*
X189290620Y-112490034D01*
X188690034Y-113090620D01*
X188365000Y-113875322D01*
X188365000Y-114724678D01*
X188690034Y-115509380D01*
X189290620Y-116109966D01*
X189338986Y-116130000D01*
X178961014Y-116130000D01*
X179009380Y-116109966D01*
X179609966Y-115509380D01*
X179796105Y-115060000D01*
X181355153Y-115060000D01*
X181430000Y-115074888D01*
X181504847Y-115060000D01*
X181504852Y-115060000D01*
X181726537Y-115015904D01*
X181977929Y-114847929D01*
X182020331Y-114784470D01*
X184905162Y-111899640D01*
X185014670Y-111945000D01*
X185625330Y-111945000D01*
X186189507Y-111711310D01*
X186621310Y-111279507D01*
X186855000Y-110715330D01*
X186855000Y-110104670D01*
X186621310Y-109540493D01*
X186189507Y-109108690D01*
X185625330Y-108875000D01*
X185014670Y-108875000D01*
X184450493Y-109108690D01*
X184018690Y-109540493D01*
X183785000Y-110104670D01*
X183785000Y-110715330D01*
X183830360Y-110824838D01*
X181115199Y-113540000D01*
X179796105Y-113540000D01*
X179609966Y-113090620D01*
X179009380Y-112490034D01*
X178224678Y-112165000D01*
X177375322Y-112165000D01*
X176590620Y-112490034D01*
X175990034Y-113090620D01*
X175665000Y-113875322D01*
X175665000Y-114352129D01*
X175617571Y-114362618D01*
X175532755Y-114376194D01*
X175493864Y-114360345D01*
X175428175Y-114347669D01*
X175344240Y-114348149D01*
X175260953Y-114337728D01*
X175191213Y-114342749D01*
X175103814Y-114366770D01*
X175046237Y-114376020D01*
X175058517Y-114357609D01*
X175104326Y-114311059D01*
X175127126Y-114254743D01*
X175160839Y-114204196D01*
X175173527Y-114140129D01*
X175198035Y-114079593D01*
X175197548Y-114018836D01*
X175209351Y-113959237D01*
X175196557Y-113895194D01*
X175196033Y-113829885D01*
X175172333Y-113773940D01*
X175160430Y-113714360D01*
X175124101Y-113660088D01*
X175098625Y-113599952D01*
X175049650Y-113527914D01*
X175057966Y-113526314D01*
X175059417Y-113525724D01*
X175060986Y-113525726D01*
X175137186Y-113510686D01*
X175195892Y-113486471D01*
X175258174Y-113474082D01*
X175310195Y-113439323D01*
X175368034Y-113415465D01*
X175413004Y-113370627D01*
X175465805Y-113335347D01*
X175500565Y-113283325D01*
X175544871Y-113239150D01*
X175569259Y-113180518D01*
X175604540Y-113127716D01*
X175616746Y-113066351D01*
X175640774Y-113008585D01*
X175640868Y-112945084D01*
X175653257Y-112882799D01*
X175653257Y-112565492D01*
X175653229Y-112565353D01*
X175653257Y-112565213D01*
X175653240Y-112526197D01*
X175653052Y-112525253D01*
X175653236Y-112524311D01*
X175652914Y-112429127D01*
X175652267Y-112425932D01*
X175652861Y-112422724D01*
X175651910Y-112351688D01*
X175650319Y-112344213D01*
X175651532Y-112336670D01*
X175649669Y-112286150D01*
X175645631Y-112269149D01*
X175647474Y-112251769D01*
X175644415Y-112218133D01*
X175635350Y-112187425D01*
X175636490Y-112168170D01*
X175632166Y-112155691D01*
X175631739Y-112136967D01*
X175627200Y-112116587D01*
X175614339Y-112087435D01*
X175613542Y-112076161D01*
X175586559Y-112022143D01*
X175573716Y-111978635D01*
X175568632Y-111972345D01*
X175554728Y-111932220D01*
X175548427Y-111921464D01*
X175533902Y-111905111D01*
X175526405Y-111888118D01*
X175513412Y-111875704D01*
X175501953Y-111852764D01*
X175438439Y-111797636D01*
X175382594Y-111734763D01*
X175369249Y-111728287D01*
X175363368Y-111721941D01*
X175343192Y-111712672D01*
X175339536Y-111708957D01*
X175333162Y-111706257D01*
X175313368Y-111689077D01*
X175305020Y-111684315D01*
X175220551Y-111656122D01*
X175157937Y-111625735D01*
X175153381Y-111625465D01*
X175136455Y-111617689D01*
X175128374Y-111615760D01*
X175118599Y-111615389D01*
X175109592Y-111611574D01*
X175076645Y-111604749D01*
X175073871Y-111604727D01*
X175071310Y-111603668D01*
X175044660Y-111598383D01*
X175047417Y-111595359D01*
X175076564Y-111547037D01*
X175084565Y-111524872D01*
X175099132Y-111506348D01*
X175107356Y-111490159D01*
X175669446Y-111490159D01*
X175755852Y-111746643D01*
X176329336Y-111956458D01*
X176939460Y-111930839D01*
X177384148Y-111746643D01*
X177470554Y-111490159D01*
X178169446Y-111490159D01*
X178255852Y-111746643D01*
X178829336Y-111956458D01*
X179439460Y-111930839D01*
X179884148Y-111746643D01*
X179970554Y-111490159D01*
X179070000Y-110589605D01*
X178169446Y-111490159D01*
X177470554Y-111490159D01*
X176570000Y-110589605D01*
X175669446Y-111490159D01*
X175107356Y-111490159D01*
X175116275Y-111472603D01*
X175131174Y-111419532D01*
X175157356Y-111371029D01*
X175164178Y-111348869D01*
X175165459Y-111336384D01*
X175170990Y-111325119D01*
X175174902Y-111263771D01*
X175183770Y-111232182D01*
X175182521Y-111221737D01*
X175187286Y-111205763D01*
X175183065Y-111164854D01*
X175188175Y-111115070D01*
X175233357Y-111224148D01*
X175489841Y-111310554D01*
X176390395Y-110410000D01*
X176749605Y-110410000D01*
X177650159Y-111310554D01*
X177820000Y-111253337D01*
X177989841Y-111310554D01*
X178890395Y-110410000D01*
X179249605Y-110410000D01*
X180150159Y-111310554D01*
X180406643Y-111224148D01*
X180616458Y-110650664D01*
X180590839Y-110040540D01*
X180406643Y-109595852D01*
X180150159Y-109509446D01*
X179249605Y-110410000D01*
X178890395Y-110410000D01*
X177989841Y-109509446D01*
X177820000Y-109566663D01*
X177650159Y-109509446D01*
X176749605Y-110410000D01*
X176390395Y-110410000D01*
X175489841Y-109509446D01*
X175233357Y-109595852D01*
X175023542Y-110169336D01*
X175047784Y-110746675D01*
X175042925Y-110737684D01*
X175026543Y-110717911D01*
X175012546Y-110706532D01*
X175003100Y-110691163D01*
X174969702Y-110655128D01*
X174964509Y-110651365D01*
X174961042Y-110645966D01*
X174914066Y-110597243D01*
X174910864Y-110595018D01*
X174908718Y-110591762D01*
X174851604Y-110533923D01*
X174848988Y-110532151D01*
X174847223Y-110529529D01*
X174783406Y-110466144D01*
X174780422Y-110464165D01*
X174778391Y-110461218D01*
X174712192Y-110396896D01*
X174706555Y-110393246D01*
X174702631Y-110387796D01*
X174637785Y-110327338D01*
X174626070Y-110320090D01*
X174617554Y-110309262D01*
X174569903Y-110268470D01*
X174542398Y-110253025D01*
X174520576Y-110230248D01*
X174488885Y-110208077D01*
X174388009Y-110163739D01*
X174373726Y-110156648D01*
X174324336Y-110126633D01*
X174308261Y-110124148D01*
X174289299Y-110114734D01*
X174272331Y-110110140D01*
X174264908Y-110109634D01*
X174260277Y-110107598D01*
X174230036Y-110106951D01*
X174211714Y-110106005D01*
X174174474Y-110103464D01*
X174077552Y-110088480D01*
X174050736Y-110095023D01*
X174023195Y-110093144D01*
X174015134Y-110095857D01*
X174010492Y-110095617D01*
X173927395Y-110125116D01*
X173834954Y-110147671D01*
X173832737Y-110148703D01*
X173811186Y-110164483D01*
X173786519Y-110172783D01*
X173781986Y-110176737D01*
X173775166Y-110179158D01*
X173751817Y-110193074D01*
X173743865Y-110200245D01*
X173733899Y-110204157D01*
X173691511Y-110231350D01*
X173688645Y-110234112D01*
X173685348Y-110235452D01*
X173679778Y-110206831D01*
X173678258Y-110203117D01*
X173678225Y-110199104D01*
X173673219Y-110174968D01*
X173669380Y-110165909D01*
X173669002Y-110156077D01*
X173668682Y-110154739D01*
X173658656Y-110132940D01*
X173655963Y-110109097D01*
X173652667Y-110098765D01*
X173651301Y-110096295D01*
X173650961Y-110093499D01*
X173629805Y-110056012D01*
X173625715Y-110036218D01*
X173595647Y-109991931D01*
X173575778Y-109945049D01*
X173569305Y-109938681D01*
X173564333Y-109927871D01*
X173551682Y-109916156D01*
X173531819Y-109880239D01*
X173529614Y-109878481D01*
X173528228Y-109876026D01*
X173521551Y-109868259D01*
X173500480Y-109851760D01*
X173485448Y-109829620D01*
X173404042Y-109776094D01*
X173397767Y-109769920D01*
X173394028Y-109768407D01*
X173388944Y-109764427D01*
X173353949Y-109732430D01*
X173343017Y-109728465D01*
X173324937Y-109714308D01*
X173299157Y-109707129D01*
X173276796Y-109692426D01*
X173263072Y-109686860D01*
X173189557Y-109672802D01*
X173119199Y-109647282D01*
X173094766Y-109643549D01*
X173064611Y-109644899D01*
X173035396Y-109637294D01*
X172996589Y-109635029D01*
X172984409Y-109636721D01*
X172972401Y-109634076D01*
X172915557Y-109632912D01*
X172910744Y-109633767D01*
X172905958Y-109632788D01*
X172827414Y-109632358D01*
X172825853Y-109632660D01*
X172824292Y-109632348D01*
X172720382Y-109632286D01*
X172720191Y-109632324D01*
X172720000Y-109632286D01*
X172706944Y-109632286D01*
X172706675Y-109632339D01*
X172706405Y-109632286D01*
X172605528Y-109632371D01*
X172603715Y-109632733D01*
X172601903Y-109632385D01*
X172525980Y-109632879D01*
X172520641Y-109633977D01*
X172515271Y-109633038D01*
X172460636Y-109634308D01*
X172447366Y-109637270D01*
X172433887Y-109635490D01*
X172396877Y-109637902D01*
X172364594Y-109646540D01*
X172331185Y-109645608D01*
X172308138Y-109649528D01*
X172231000Y-109678989D01*
X172150619Y-109697833D01*
X172137870Y-109703627D01*
X172111335Y-109722690D01*
X172080442Y-109733318D01*
X172010688Y-109794996D01*
X171935065Y-109849325D01*
X171919079Y-109875102D01*
X171898941Y-109891874D01*
X171897046Y-109895481D01*
X171893370Y-109898732D01*
X171887255Y-109906769D01*
X171876589Y-109928623D01*
X171874084Y-109930958D01*
X171870102Y-109939694D01*
X171863832Y-109945872D01*
X171839498Y-110003423D01*
X171803454Y-110061543D01*
X171800567Y-110079163D01*
X171782821Y-110112948D01*
X171779676Y-110123592D01*
X171779273Y-110128010D01*
X171777725Y-110131182D01*
X171776934Y-110144064D01*
X171770500Y-110158176D01*
X171770410Y-110158558D01*
X171770094Y-110167569D01*
X171766583Y-110175873D01*
X171761415Y-110200895D01*
X171761387Y-110204704D01*
X171759944Y-110208231D01*
X171754658Y-110235425D01*
X171742961Y-110227753D01*
X171738612Y-110225995D01*
X171735221Y-110222756D01*
X171696754Y-110198312D01*
X171682413Y-110192754D01*
X171670797Y-110182666D01*
X171652261Y-110172084D01*
X171557042Y-110140277D01*
X171464592Y-110101155D01*
X171439351Y-110100963D01*
X171415411Y-110092966D01*
X171315274Y-110100018D01*
X171214884Y-110099254D01*
X171202182Y-110101680D01*
X171183362Y-110109308D01*
X171166312Y-110110509D01*
X171112924Y-110137160D01*
X171102368Y-110138292D01*
X171075353Y-110153032D01*
X170972790Y-110194150D01*
X170943954Y-110212945D01*
X170916663Y-110239620D01*
X170883161Y-110257900D01*
X170838597Y-110295120D01*
X170828676Y-110307424D01*
X170815188Y-110315659D01*
X170753661Y-110372349D01*
X170748900Y-110378879D01*
X170742109Y-110383261D01*
X170662381Y-110460468D01*
X170660791Y-110462767D01*
X170658453Y-110464304D01*
X170651319Y-110471332D01*
X170650378Y-110472718D01*
X170648986Y-110473643D01*
X170585722Y-110536610D01*
X170583927Y-110539282D01*
X170581264Y-110541091D01*
X170525070Y-110598137D01*
X170522842Y-110601526D01*
X170519516Y-110603846D01*
X170473829Y-110651395D01*
X170470069Y-110657273D01*
X170464432Y-110661387D01*
X170432695Y-110695867D01*
X170421479Y-110714258D01*
X170404961Y-110728083D01*
X170390611Y-110745916D01*
X170368000Y-110789220D01*
X170335756Y-110825797D01*
X170332088Y-110836512D01*
X170324894Y-110845273D01*
X170324848Y-110845360D01*
X170308311Y-110899817D01*
X170302673Y-110909062D01*
X170301499Y-110916578D01*
X170275029Y-110967272D01*
X170270725Y-111015773D01*
X170254882Y-111062054D01*
X170253059Y-111075632D01*
X170253379Y-111080715D01*
X170252290Y-111084301D01*
X170252913Y-111090640D01*
X170250341Y-111099171D01*
X170257227Y-111167862D01*
X170252954Y-111216010D01*
X170256473Y-111227221D01*
X170255949Y-111231566D01*
X170264892Y-111263556D01*
X170268752Y-111324854D01*
X170274048Y-111335664D01*
X170275249Y-111347640D01*
X170281972Y-111369665D01*
X170308230Y-111418586D01*
X170323179Y-111472061D01*
X170340143Y-111505545D01*
X170354832Y-111524267D01*
X170362904Y-111546655D01*
X170391806Y-111594612D01*
X170395240Y-111598382D01*
X170389196Y-111599570D01*
X170387509Y-111600264D01*
X170385682Y-111600270D01*
X170344072Y-111608688D01*
X170337839Y-111611294D01*
X170331086Y-111611456D01*
X170312251Y-111615675D01*
X170283857Y-111628243D01*
X170255178Y-111631450D01*
X170240895Y-111639328D01*
X170224258Y-111642145D01*
X170221135Y-111643335D01*
X170201888Y-111655413D01*
X170196671Y-111656449D01*
X170150535Y-111687255D01*
X170083905Y-111716748D01*
X170065470Y-111736091D01*
X170036520Y-111752059D01*
X170028909Y-111758475D01*
X170020122Y-111769475D01*
X170009617Y-111776067D01*
X170002475Y-111786120D01*
X169988997Y-111795120D01*
X169941490Y-111866172D01*
X169911620Y-111897513D01*
X169907917Y-111907098D01*
X169891539Y-111924659D01*
X169887478Y-111935519D01*
X169873050Y-111953580D01*
X169865878Y-111978395D01*
X169864994Y-111979640D01*
X169864666Y-111981073D01*
X169850200Y-112002709D01*
X169844537Y-112016369D01*
X169830048Y-112089097D01*
X169804074Y-112158555D01*
X169800077Y-112183089D01*
X169801143Y-112213675D01*
X169793180Y-112243225D01*
X169790565Y-112282264D01*
X169792258Y-112295264D01*
X169789359Y-112308052D01*
X169787841Y-112365227D01*
X169788813Y-112370894D01*
X169787641Y-112376522D01*
X169786939Y-112455463D01*
X169787380Y-112457788D01*
X169786915Y-112460105D01*
X169786744Y-112564443D01*
X169786847Y-112564967D01*
X169786743Y-112565492D01*
X169786743Y-112882799D01*
X169799132Y-112945082D01*
X169799226Y-113008585D01*
X169823254Y-113066351D01*
X169835460Y-113127716D01*
X169870741Y-113180518D01*
X169895129Y-113239150D01*
X169939435Y-113283325D01*
X169974195Y-113335347D01*
X170026996Y-113370627D01*
X170071966Y-113415465D01*
X170129805Y-113439323D01*
X170181826Y-113474082D01*
X170244108Y-113486471D01*
X170302814Y-113510686D01*
X170379014Y-113525726D01*
X170379568Y-113525725D01*
X170380077Y-113525934D01*
X170389294Y-113527738D01*
X170390332Y-113527735D01*
X170341606Y-113599245D01*
X170315935Y-113659665D01*
X170279421Y-113714213D01*
X170267585Y-113773461D01*
X170243955Y-113829075D01*
X170243360Y-113894721D01*
X170230500Y-113959090D01*
X170242238Y-114018360D01*
X170241690Y-114078781D01*
X170266259Y-114139652D01*
X170279012Y-114204048D01*
X170312541Y-114254317D01*
X170333657Y-114306635D01*
X170329849Y-114306157D01*
X170255107Y-114311500D01*
X170180456Y-114304962D01*
X170100720Y-114313687D01*
X170004245Y-114344096D01*
X169956679Y-114355225D01*
X169955870Y-114354985D01*
X169854610Y-114318828D01*
X169771337Y-114306531D01*
X169714653Y-114309353D01*
X169658685Y-114299952D01*
X169636445Y-114300618D01*
X169620486Y-114304292D01*
X169620000Y-114288836D01*
X169620000Y-103015105D01*
X171115000Y-103015105D01*
X171115000Y-103784895D01*
X171409586Y-104496090D01*
X171953910Y-105040414D01*
X172665105Y-105335000D01*
X173434895Y-105335000D01*
X174146090Y-105040414D01*
X174690414Y-104496090D01*
X174985000Y-103784895D01*
X174985000Y-103015105D01*
X174690414Y-102303910D01*
X174146090Y-101759586D01*
X173434895Y-101465000D01*
X172665105Y-101465000D01*
X171953910Y-101759586D01*
X171409586Y-102303910D01*
X171115000Y-103015105D01*
X169620000Y-103015105D01*
X169620000Y-75015105D01*
X171115000Y-75015105D01*
X171115000Y-75784895D01*
X171409586Y-76496090D01*
X171953910Y-77040414D01*
X172665105Y-77335000D01*
X173434895Y-77335000D01*
X174146090Y-77040414D01*
X174690414Y-76496090D01*
X174957634Y-75850961D01*
X178548096Y-75850961D01*
X178670085Y-76073000D01*
X180213000Y-76073000D01*
X180213000Y-74765000D01*
X180467000Y-74765000D01*
X180467000Y-76073000D01*
X182009915Y-76073000D01*
X182131904Y-75850961D01*
X182114367Y-75768181D01*
X181844500Y-75275104D01*
X181406483Y-74922834D01*
X180867000Y-74765000D01*
X180467000Y-74765000D01*
X180213000Y-74765000D01*
X179813000Y-74765000D01*
X179273517Y-74922834D01*
X178835500Y-75275104D01*
X178565633Y-75768181D01*
X178548096Y-75850961D01*
X174957634Y-75850961D01*
X174985000Y-75784895D01*
X174985000Y-75015105D01*
X174690414Y-74303910D01*
X174146090Y-73759586D01*
X173434895Y-73465000D01*
X172665105Y-73465000D01*
X171953910Y-73759586D01*
X171409586Y-74303910D01*
X171115000Y-75015105D01*
X169620000Y-75015105D01*
X169620000Y-71195801D01*
X171553804Y-71195801D01*
X171553804Y-71420307D01*
X173279541Y-73146044D01*
X173512930Y-73242717D01*
X173765549Y-73242716D01*
X173998938Y-73146043D01*
X174805435Y-72339546D01*
X174805435Y-72115040D01*
X172720000Y-70029605D01*
X171553804Y-71195801D01*
X169620000Y-71195801D01*
X169620000Y-69486503D01*
X171149693Y-71016196D01*
X171374199Y-71016196D01*
X172540395Y-69850000D01*
X170454960Y-67764565D01*
X170230454Y-67764565D01*
X169620000Y-68375019D01*
X169620000Y-67360454D01*
X170634565Y-67360454D01*
X170634565Y-67584960D01*
X172720000Y-69670395D01*
X172734143Y-69656253D01*
X172913748Y-69835858D01*
X172899605Y-69850000D01*
X174985040Y-71935435D01*
X175209546Y-71935435D01*
X175271610Y-71873371D01*
X175168846Y-72390000D01*
X175272458Y-72910891D01*
X175567519Y-73352481D01*
X176009109Y-73647542D01*
X176398515Y-73725000D01*
X176661485Y-73725000D01*
X177050891Y-73647542D01*
X177492481Y-73352481D01*
X177771965Y-72934204D01*
X178223847Y-73386086D01*
X178824778Y-73635000D01*
X179475222Y-73635000D01*
X180076153Y-73386086D01*
X180400000Y-73062239D01*
X180723847Y-73386086D01*
X181324778Y-73635000D01*
X181975222Y-73635000D01*
X182576153Y-73386086D01*
X183036086Y-72926153D01*
X183122054Y-72718607D01*
X183450429Y-73046982D01*
X183904343Y-73235000D01*
X184395657Y-73235000D01*
X184849571Y-73046982D01*
X185177946Y-72718607D01*
X185263914Y-72926153D01*
X185723847Y-73386086D01*
X186324778Y-73635000D01*
X186975222Y-73635000D01*
X187576153Y-73386086D01*
X187900000Y-73062239D01*
X188223847Y-73386086D01*
X188824778Y-73635000D01*
X189475222Y-73635000D01*
X190076153Y-73386086D01*
X190528035Y-72934204D01*
X190807519Y-73352481D01*
X191249109Y-73647542D01*
X191638515Y-73725000D01*
X191901485Y-73725000D01*
X192290891Y-73647542D01*
X192732481Y-73352481D01*
X193027542Y-72910891D01*
X193131154Y-72390000D01*
X193076462Y-72115040D01*
X193494565Y-72115040D01*
X193494565Y-72339546D01*
X194301062Y-73146043D01*
X194534451Y-73242716D01*
X194787070Y-73242717D01*
X195020459Y-73146044D01*
X196746196Y-71420307D01*
X196746196Y-71195801D01*
X195580000Y-70029605D01*
X193494565Y-72115040D01*
X193076462Y-72115040D01*
X193028390Y-71873371D01*
X193090454Y-71935435D01*
X193314960Y-71935435D01*
X195400395Y-69850000D01*
X195386253Y-69835858D01*
X195565858Y-69656253D01*
X195580000Y-69670395D01*
X197665435Y-67584960D01*
X197665435Y-67360454D01*
X196858938Y-66553957D01*
X196625549Y-66457284D01*
X196524549Y-66457284D01*
X196495836Y-66312932D01*
X196214587Y-65892012D01*
X195295348Y-64972773D01*
X194874428Y-64691524D01*
X194377919Y-64592762D01*
X193881410Y-64691524D01*
X193460490Y-64972773D01*
X190702773Y-67730490D01*
X190421524Y-68151410D01*
X190322762Y-68647919D01*
X190410698Y-69090000D01*
X188874846Y-69090000D01*
X188799999Y-69075112D01*
X188725152Y-69090000D01*
X188725148Y-69090000D01*
X188503463Y-69134096D01*
X188252071Y-69302071D01*
X188209671Y-69365527D01*
X187165529Y-70409670D01*
X187165526Y-70409672D01*
X187141375Y-70433823D01*
X186975222Y-70365000D01*
X186324778Y-70365000D01*
X185723847Y-70613914D01*
X185263914Y-71073847D01*
X185177946Y-71281393D01*
X184849571Y-70953018D01*
X184395657Y-70765000D01*
X183904343Y-70765000D01*
X183450429Y-70953018D01*
X183122054Y-71281393D01*
X183036086Y-71073847D01*
X182576153Y-70613914D01*
X181975222Y-70365000D01*
X181324778Y-70365000D01*
X181158625Y-70433823D01*
X180090331Y-69365530D01*
X180047929Y-69302071D01*
X179796537Y-69134096D01*
X179574852Y-69090000D01*
X179574847Y-69090000D01*
X179500000Y-69075112D01*
X179425153Y-69090000D01*
X177889302Y-69090000D01*
X177977238Y-68647919D01*
X177878476Y-68151410D01*
X177597227Y-67730490D01*
X176621080Y-66754343D01*
X177915000Y-66754343D01*
X177915000Y-67245657D01*
X178103018Y-67699571D01*
X178450429Y-68046982D01*
X178904343Y-68235000D01*
X179395657Y-68235000D01*
X179594751Y-68152532D01*
X183177073Y-68152532D01*
X183275736Y-68419387D01*
X183885461Y-68645908D01*
X184535460Y-68621856D01*
X185024264Y-68419387D01*
X185122927Y-68152532D01*
X184150000Y-67179605D01*
X183177073Y-68152532D01*
X179594751Y-68152532D01*
X179849571Y-68046982D01*
X180196982Y-67699571D01*
X180385000Y-67245657D01*
X180385000Y-66754343D01*
X180377179Y-66735461D01*
X182504092Y-66735461D01*
X182528144Y-67385460D01*
X182730613Y-67874264D01*
X182997468Y-67972927D01*
X183970395Y-67000000D01*
X184329605Y-67000000D01*
X185302532Y-67972927D01*
X185569387Y-67874264D01*
X185795908Y-67264539D01*
X185777030Y-66754343D01*
X187915000Y-66754343D01*
X187915000Y-67245657D01*
X188103018Y-67699571D01*
X188450429Y-68046982D01*
X188904343Y-68235000D01*
X189395657Y-68235000D01*
X189849571Y-68046982D01*
X190196982Y-67699571D01*
X190385000Y-67245657D01*
X190385000Y-66754343D01*
X190196982Y-66300429D01*
X189849571Y-65953018D01*
X189395657Y-65765000D01*
X188904343Y-65765000D01*
X188450429Y-65953018D01*
X188103018Y-66300429D01*
X187915000Y-66754343D01*
X185777030Y-66754343D01*
X185771856Y-66614540D01*
X185569387Y-66125736D01*
X185302532Y-66027073D01*
X184329605Y-67000000D01*
X183970395Y-67000000D01*
X182997468Y-66027073D01*
X182730613Y-66125736D01*
X182504092Y-66735461D01*
X180377179Y-66735461D01*
X180196982Y-66300429D01*
X179849571Y-65953018D01*
X179594752Y-65847468D01*
X183177073Y-65847468D01*
X184150000Y-66820395D01*
X185122927Y-65847468D01*
X185024264Y-65580613D01*
X184414539Y-65354092D01*
X183764540Y-65378144D01*
X183275736Y-65580613D01*
X183177073Y-65847468D01*
X179594752Y-65847468D01*
X179395657Y-65765000D01*
X178904343Y-65765000D01*
X178450429Y-65953018D01*
X178103018Y-66300429D01*
X177915000Y-66754343D01*
X176621080Y-66754343D01*
X174839510Y-64972773D01*
X174418590Y-64691524D01*
X173922081Y-64592762D01*
X173425572Y-64691524D01*
X173004652Y-64972773D01*
X172085413Y-65892012D01*
X171804164Y-66312932D01*
X171775451Y-66457284D01*
X171674451Y-66457284D01*
X171441062Y-66553957D01*
X170634565Y-67360454D01*
X169620000Y-67360454D01*
X169620000Y-66084666D01*
X169682958Y-65586302D01*
X169851305Y-65161107D01*
X170120101Y-64791142D01*
X170472462Y-64499644D01*
X170886244Y-64304933D01*
X171368662Y-64212907D01*
X171461164Y-64210000D01*
X177933368Y-64210000D01*
X177915000Y-64254343D01*
G04 #@! TD*
M02*
