G04 #@! TF.GenerationSoftware,KiCad,Pcbnew,5.0.1*
G04 #@! TF.CreationDate,2018-10-18T13:56:00+02:00*
G04 #@! TF.ProjectId,MicroFlux,4D6963726F466C75782E6B696361645F,rev?*
G04 #@! TF.SameCoordinates,Original*
G04 #@! TF.FileFunction,Other,Fab,Top*
%FSLAX46Y46*%
G04 Gerber Fmt 4.6, Leading zero omitted, Abs format (unit mm)*
G04 Created by KiCad (PCBNEW 5.0.1) date Thu 18 Oct 2018 01:56:00 PM CEST*
%MOMM*%
%LPD*%
G01*
G04 APERTURE LIST*
%ADD10C,0.100000*%
%ADD11C,0.050000*%
%ADD12C,0.150000*%
%ADD13C,0.200000*%
%ADD14C,0.108000*%
%ADD15C,0.091200*%
%ADD16C,0.090000*%
G04 APERTURE END LIST*
D10*
G04 #@! TO.C,D1*
X179030016Y-96320334D02*
G75*
G03X179030000Y-99259694I-2500016J-1469666D01*
G01*
X179030000Y-97790000D02*
G75*
G03X179030000Y-97790000I-2500000J0D01*
G01*
X179030000Y-99259694D02*
X179030000Y-96320306D01*
G04 #@! TO.C,R7*
X189970000Y-93180000D02*
X189970000Y-94780000D01*
X189970000Y-94780000D02*
X193570000Y-94780000D01*
X193570000Y-94780000D02*
X193570000Y-93180000D01*
X193570000Y-93180000D02*
X189970000Y-93180000D01*
X187960000Y-93980000D02*
X189970000Y-93980000D01*
X195580000Y-93980000D02*
X193570000Y-93980000D01*
G04 #@! TO.C,R1*
X176530000Y-72390000D02*
X176530000Y-74400000D01*
X176530000Y-80010000D02*
X176530000Y-78000000D01*
X175730000Y-74400000D02*
X175730000Y-78000000D01*
X177330000Y-74400000D02*
X175730000Y-74400000D01*
X177330000Y-78000000D02*
X177330000Y-74400000D01*
X175730000Y-78000000D02*
X177330000Y-78000000D01*
G04 #@! TO.C,R2*
X190970000Y-78000000D02*
X192570000Y-78000000D01*
X192570000Y-78000000D02*
X192570000Y-74400000D01*
X192570000Y-74400000D02*
X190970000Y-74400000D01*
X190970000Y-74400000D02*
X190970000Y-78000000D01*
X191770000Y-80010000D02*
X191770000Y-78000000D01*
X191770000Y-72390000D02*
X191770000Y-74400000D01*
G04 #@! TO.C,R3*
X173990000Y-78740000D02*
X173990000Y-80750000D01*
X173990000Y-86360000D02*
X173990000Y-84350000D01*
X173190000Y-80750000D02*
X173190000Y-84350000D01*
X174790000Y-80750000D02*
X173190000Y-80750000D01*
X174790000Y-84350000D02*
X174790000Y-80750000D01*
X173190000Y-84350000D02*
X174790000Y-84350000D01*
G04 #@! TO.C,R4*
X193510000Y-84350000D02*
X195110000Y-84350000D01*
X195110000Y-84350000D02*
X195110000Y-80750000D01*
X195110000Y-80750000D02*
X193510000Y-80750000D01*
X193510000Y-80750000D02*
X193510000Y-84350000D01*
X194310000Y-86360000D02*
X194310000Y-84350000D01*
X194310000Y-78740000D02*
X194310000Y-80750000D01*
G04 #@! TO.C,R5*
X187960000Y-97790000D02*
X185950000Y-97790000D01*
X180340000Y-97790000D02*
X182350000Y-97790000D01*
X185950000Y-96990000D02*
X182350000Y-96990000D01*
X185950000Y-98590000D02*
X185950000Y-96990000D01*
X182350000Y-98590000D02*
X185950000Y-98590000D01*
X182350000Y-96990000D02*
X182350000Y-98590000D01*
G04 #@! TO.C,R6*
X174730000Y-93180000D02*
X174730000Y-94780000D01*
X174730000Y-94780000D02*
X178330000Y-94780000D01*
X178330000Y-94780000D02*
X178330000Y-93180000D01*
X178330000Y-93180000D02*
X174730000Y-93180000D01*
X172720000Y-93980000D02*
X174730000Y-93980000D01*
X180340000Y-93980000D02*
X178330000Y-93980000D01*
G04 #@! TO.C,D2*
X180090000Y-100800000D02*
X180090000Y-102400000D01*
X180090000Y-102400000D02*
X183130000Y-102400000D01*
X183130000Y-102400000D02*
X183130000Y-100800000D01*
X183130000Y-100800000D02*
X180090000Y-100800000D01*
X177800000Y-101600000D02*
X180090000Y-101600000D01*
X185420000Y-101600000D02*
X183130000Y-101600000D01*
X180546000Y-100800000D02*
X180546000Y-102400000D01*
X180646000Y-100800000D02*
X180646000Y-102400000D01*
X180446000Y-100800000D02*
X180446000Y-102400000D01*
D11*
G04 #@! TO.C,J1*
X199390000Y-111410000D02*
X199390000Y-99410000D01*
X199390000Y-99410000D02*
X188390000Y-99410000D01*
X188390000Y-99410000D02*
X188390000Y-111410000D01*
X188390000Y-111410000D02*
X199390000Y-111410000D01*
X199390000Y-108410000D02*
X202390000Y-108410000D01*
X202390000Y-108410000D02*
X202390000Y-102410000D01*
X202390000Y-102410000D02*
X199390000Y-102410000D01*
X190890000Y-110410000D02*
X194140000Y-110410000D01*
X194140000Y-110410000D02*
X194390000Y-110160000D01*
X194390000Y-110160000D02*
X194640000Y-110410000D01*
X190890000Y-107910000D02*
X193140000Y-107910000D01*
X193140000Y-107910000D02*
X193140000Y-110410000D01*
X193140000Y-110410000D02*
X193390000Y-110160000D01*
X193140000Y-110410000D02*
X192890000Y-110160000D01*
X190890000Y-100410000D02*
X193390000Y-100410000D01*
X193390000Y-100410000D02*
X193640000Y-100660000D01*
X193640000Y-100660000D02*
X193890000Y-100410000D01*
X190890000Y-102910000D02*
X192390000Y-102910000D01*
X192390000Y-102910000D02*
X192390000Y-100410000D01*
X192640000Y-100660000D02*
X192390000Y-100410000D01*
X192390000Y-100410000D02*
X192140000Y-100660000D01*
G04 #@! TO.C,J2*
X190150000Y-63500000D02*
X178150000Y-63500000D01*
X178150000Y-63500000D02*
X178150000Y-74500000D01*
X178150000Y-74500000D02*
X190150000Y-74500000D01*
X190150000Y-74500000D02*
X190150000Y-63500000D01*
X187150000Y-63500000D02*
X187150000Y-60500000D01*
X187150000Y-60500000D02*
X181150000Y-60500000D01*
X181150000Y-60500000D02*
X181150000Y-63500000D01*
X189150000Y-72000000D02*
X189150000Y-68750000D01*
X189150000Y-68750000D02*
X188900000Y-68500000D01*
X188900000Y-68500000D02*
X189150000Y-68250000D01*
X186650000Y-72000000D02*
X186650000Y-69750000D01*
X186650000Y-69750000D02*
X189150000Y-69750000D01*
X189150000Y-69750000D02*
X188900000Y-69500000D01*
X189150000Y-69750000D02*
X188900000Y-70000000D01*
X179150000Y-72000000D02*
X179150000Y-69500000D01*
X179150000Y-69500000D02*
X179400000Y-69250000D01*
X179400000Y-69250000D02*
X179150000Y-69000000D01*
X181650000Y-72000000D02*
X181650000Y-70500000D01*
X181650000Y-70500000D02*
X179150000Y-70500000D01*
X179400000Y-70250000D02*
X179150000Y-70500000D01*
X179150000Y-70500000D02*
X179400000Y-70750000D01*
D10*
G04 #@! TO.C,L1*
X177280660Y-68789340D02*
G75*
G03X177280660Y-68789340I-3500000J0D01*
G01*
G04 #@! TO.C,L2*
X198019340Y-68789340D02*
G75*
G03X198019340Y-68789340I-3500000J0D01*
G01*
G04 #@! TO.C,C7*
X177867500Y-87036395D02*
X177367500Y-87036395D01*
X177617500Y-86786395D02*
X177617500Y-87286395D01*
X179030000Y-88920000D02*
G75*
G03X179030000Y-88920000I-2500000J0D01*
G01*
G04 #@! TO.C,C8*
X194270000Y-88920000D02*
G75*
G03X194270000Y-88920000I-2500000J0D01*
G01*
X190682500Y-91053605D02*
X190682500Y-90553605D01*
X190432500Y-90803605D02*
X190932500Y-90803605D01*
G04 #@! TO.C,C1*
X177330000Y-85300000D02*
X177330000Y-82300000D01*
X175730000Y-85300000D02*
X177330000Y-85300000D01*
X175730000Y-82300000D02*
X175730000Y-85300000D01*
X177330000Y-82300000D02*
X175730000Y-82300000D01*
G04 #@! TO.C,C2*
X192570000Y-82300000D02*
X190970000Y-82300000D01*
X190970000Y-82300000D02*
X190970000Y-85300000D01*
X190970000Y-85300000D02*
X192570000Y-85300000D01*
X192570000Y-85300000D02*
X192570000Y-82300000D01*
G04 #@! TO.C,C3*
X182080000Y-87380000D02*
X182080000Y-90380000D01*
X183680000Y-87380000D02*
X182080000Y-87380000D01*
X183680000Y-90380000D02*
X183680000Y-87380000D01*
X182080000Y-90380000D02*
X183680000Y-90380000D01*
G04 #@! TO.C,C4*
X184620000Y-90380000D02*
X186220000Y-90380000D01*
X186220000Y-90380000D02*
X186220000Y-87380000D01*
X186220000Y-87380000D02*
X184620000Y-87380000D01*
X184620000Y-87380000D02*
X184620000Y-90380000D01*
G04 #@! TO.C,C5*
X181140000Y-90380000D02*
X181140000Y-87380000D01*
X179540000Y-90380000D02*
X181140000Y-90380000D01*
X179540000Y-87380000D02*
X179540000Y-90380000D01*
X181140000Y-87380000D02*
X179540000Y-87380000D01*
G04 #@! TO.C,C6*
X187160000Y-90380000D02*
X188760000Y-90380000D01*
X188760000Y-90380000D02*
X188760000Y-87380000D01*
X188760000Y-87380000D02*
X187160000Y-87380000D01*
X187160000Y-87380000D02*
X187160000Y-90380000D01*
G04 #@! TO.C,U1*
X186325000Y-85090000D02*
X180975000Y-85090000D01*
X180975000Y-85090000D02*
X180975000Y-74930000D01*
X180975000Y-74930000D02*
X187325000Y-74930000D01*
X187325000Y-74930000D02*
X187325000Y-84090000D01*
X187325000Y-84090000D02*
X186325000Y-85090000D01*
G04 #@! TO.C,RV1*
X156570000Y-110910000D02*
X166570000Y-110910000D01*
X156570000Y-104910000D02*
X156570000Y-110910000D01*
X166570000Y-104910000D02*
X156570000Y-104910000D01*
X166570000Y-110910000D02*
X166570000Y-104910000D01*
X166570000Y-111410000D02*
X171570000Y-111410000D01*
X166570000Y-104410000D02*
X166570000Y-111410000D01*
X171570000Y-104410000D02*
X166570000Y-104410000D01*
X171570000Y-111410000D02*
X171570000Y-104410000D01*
X171570000Y-112660000D02*
X187370000Y-112660000D01*
X171570000Y-103160000D02*
X171570000Y-112660000D01*
X187370000Y-103160000D02*
X171570000Y-103160000D01*
X187370000Y-112660000D02*
X187370000Y-103160000D01*
G04 #@! TD*
G04 #@! TO.C,D1*
D12*
X175887142Y-94282380D02*
X175410952Y-94282380D01*
X175410952Y-93282380D01*
X176220476Y-93758571D02*
X176553809Y-93758571D01*
X176696666Y-94282380D02*
X176220476Y-94282380D01*
X176220476Y-93282380D01*
X176696666Y-93282380D01*
X177125238Y-94282380D02*
X177125238Y-93282380D01*
X177363333Y-93282380D01*
X177506190Y-93330000D01*
X177601428Y-93425238D01*
X177649047Y-93520476D01*
X177696666Y-93710952D01*
X177696666Y-93853809D01*
X177649047Y-94044285D01*
X177601428Y-94139523D01*
X177506190Y-94234761D01*
X177363333Y-94282380D01*
X177125238Y-94282380D01*
D13*
X175959523Y-98151904D02*
X175959523Y-97351904D01*
X176150000Y-97351904D01*
X176264285Y-97390000D01*
X176340476Y-97466190D01*
X176378571Y-97542380D01*
X176416666Y-97694761D01*
X176416666Y-97809047D01*
X176378571Y-97961428D01*
X176340476Y-98037619D01*
X176264285Y-98113809D01*
X176150000Y-98151904D01*
X175959523Y-98151904D01*
X177178571Y-98151904D02*
X176721428Y-98151904D01*
X176950000Y-98151904D02*
X176950000Y-97351904D01*
X176873809Y-97466190D01*
X176797619Y-97542380D01*
X176721428Y-97580476D01*
G04 #@! TO.C,R7*
D12*
X192079523Y-96352380D02*
X191746190Y-95876190D01*
X191508095Y-96352380D02*
X191508095Y-95352380D01*
X191889047Y-95352380D01*
X191984285Y-95400000D01*
X192031904Y-95447619D01*
X192079523Y-95542857D01*
X192079523Y-95685714D01*
X192031904Y-95780952D01*
X191984285Y-95828571D01*
X191889047Y-95876190D01*
X191508095Y-95876190D01*
D14*
X191650000Y-94305714D02*
X191410000Y-93962857D01*
X191238571Y-94305714D02*
X191238571Y-93585714D01*
X191512857Y-93585714D01*
X191581428Y-93620000D01*
X191615714Y-93654285D01*
X191650000Y-93722857D01*
X191650000Y-93825714D01*
X191615714Y-93894285D01*
X191581428Y-93928571D01*
X191512857Y-93962857D01*
X191238571Y-93962857D01*
X191890000Y-93585714D02*
X192370000Y-93585714D01*
X192061428Y-94305714D01*
G04 #@! TO.C,R1*
D12*
X177902380Y-77009523D02*
X177902380Y-76342857D01*
X178902380Y-76771428D01*
X177902380Y-75485714D02*
X177902380Y-75961904D01*
X178378571Y-76009523D01*
X178330952Y-75961904D01*
X178283333Y-75866666D01*
X178283333Y-75628571D01*
X178330952Y-75533333D01*
X178378571Y-75485714D01*
X178473809Y-75438095D01*
X178711904Y-75438095D01*
X178807142Y-75485714D01*
X178854761Y-75533333D01*
X178902380Y-75628571D01*
X178902380Y-75866666D01*
X178854761Y-75961904D01*
X178807142Y-76009523D01*
D14*
X176855714Y-76320000D02*
X176512857Y-76560000D01*
X176855714Y-76731428D02*
X176135714Y-76731428D01*
X176135714Y-76457142D01*
X176170000Y-76388571D01*
X176204285Y-76354285D01*
X176272857Y-76320000D01*
X176375714Y-76320000D01*
X176444285Y-76354285D01*
X176478571Y-76388571D01*
X176512857Y-76457142D01*
X176512857Y-76731428D01*
X176855714Y-75634285D02*
X176855714Y-76045714D01*
X176855714Y-75840000D02*
X176135714Y-75840000D01*
X176238571Y-75908571D01*
X176307142Y-75977142D01*
X176341428Y-76045714D01*
G04 #@! TO.C,R2*
D12*
X193142380Y-77009523D02*
X193142380Y-76342857D01*
X194142380Y-76771428D01*
X193142380Y-75485714D02*
X193142380Y-75961904D01*
X193618571Y-76009523D01*
X193570952Y-75961904D01*
X193523333Y-75866666D01*
X193523333Y-75628571D01*
X193570952Y-75533333D01*
X193618571Y-75485714D01*
X193713809Y-75438095D01*
X193951904Y-75438095D01*
X194047142Y-75485714D01*
X194094761Y-75533333D01*
X194142380Y-75628571D01*
X194142380Y-75866666D01*
X194094761Y-75961904D01*
X194047142Y-76009523D01*
D14*
X192095714Y-76320000D02*
X191752857Y-76560000D01*
X192095714Y-76731428D02*
X191375714Y-76731428D01*
X191375714Y-76457142D01*
X191410000Y-76388571D01*
X191444285Y-76354285D01*
X191512857Y-76320000D01*
X191615714Y-76320000D01*
X191684285Y-76354285D01*
X191718571Y-76388571D01*
X191752857Y-76457142D01*
X191752857Y-76731428D01*
X191444285Y-76045714D02*
X191410000Y-76011428D01*
X191375714Y-75942857D01*
X191375714Y-75771428D01*
X191410000Y-75702857D01*
X191444285Y-75668571D01*
X191512857Y-75634285D01*
X191581428Y-75634285D01*
X191684285Y-75668571D01*
X192095714Y-76080000D01*
X192095714Y-75634285D01*
G04 #@! TO.C,R3*
D12*
X176362380Y-83621428D02*
X176362380Y-84192857D01*
X176362380Y-83907142D02*
X175362380Y-83907142D01*
X175505238Y-84002380D01*
X175600476Y-84097619D01*
X175648095Y-84192857D01*
X175362380Y-83002380D02*
X175362380Y-82907142D01*
X175410000Y-82811904D01*
X175457619Y-82764285D01*
X175552857Y-82716666D01*
X175743333Y-82669047D01*
X175981428Y-82669047D01*
X176171904Y-82716666D01*
X176267142Y-82764285D01*
X176314761Y-82811904D01*
X176362380Y-82907142D01*
X176362380Y-83002380D01*
X176314761Y-83097619D01*
X176267142Y-83145238D01*
X176171904Y-83192857D01*
X175981428Y-83240476D01*
X175743333Y-83240476D01*
X175552857Y-83192857D01*
X175457619Y-83145238D01*
X175410000Y-83097619D01*
X175362380Y-83002380D01*
X175362380Y-82050000D02*
X175362380Y-81954761D01*
X175410000Y-81859523D01*
X175457619Y-81811904D01*
X175552857Y-81764285D01*
X175743333Y-81716666D01*
X175981428Y-81716666D01*
X176171904Y-81764285D01*
X176267142Y-81811904D01*
X176314761Y-81859523D01*
X176362380Y-81954761D01*
X176362380Y-82050000D01*
X176314761Y-82145238D01*
X176267142Y-82192857D01*
X176171904Y-82240476D01*
X175981428Y-82288095D01*
X175743333Y-82288095D01*
X175552857Y-82240476D01*
X175457619Y-82192857D01*
X175410000Y-82145238D01*
X175362380Y-82050000D01*
X176362380Y-81288095D02*
X175362380Y-81288095D01*
X175981428Y-81192857D02*
X176362380Y-80907142D01*
X175695714Y-80907142D02*
X176076666Y-81288095D01*
D14*
X174315714Y-82670000D02*
X173972857Y-82910000D01*
X174315714Y-83081428D02*
X173595714Y-83081428D01*
X173595714Y-82807142D01*
X173630000Y-82738571D01*
X173664285Y-82704285D01*
X173732857Y-82670000D01*
X173835714Y-82670000D01*
X173904285Y-82704285D01*
X173938571Y-82738571D01*
X173972857Y-82807142D01*
X173972857Y-83081428D01*
X173595714Y-82430000D02*
X173595714Y-81984285D01*
X173870000Y-82224285D01*
X173870000Y-82121428D01*
X173904285Y-82052857D01*
X173938571Y-82018571D01*
X174007142Y-81984285D01*
X174178571Y-81984285D01*
X174247142Y-82018571D01*
X174281428Y-82052857D01*
X174315714Y-82121428D01*
X174315714Y-82327142D01*
X174281428Y-82395714D01*
X174247142Y-82430000D01*
G04 #@! TO.C,R4*
D12*
X196682380Y-83621428D02*
X196682380Y-84192857D01*
X196682380Y-83907142D02*
X195682380Y-83907142D01*
X195825238Y-84002380D01*
X195920476Y-84097619D01*
X195968095Y-84192857D01*
X195682380Y-83002380D02*
X195682380Y-82907142D01*
X195730000Y-82811904D01*
X195777619Y-82764285D01*
X195872857Y-82716666D01*
X196063333Y-82669047D01*
X196301428Y-82669047D01*
X196491904Y-82716666D01*
X196587142Y-82764285D01*
X196634761Y-82811904D01*
X196682380Y-82907142D01*
X196682380Y-83002380D01*
X196634761Y-83097619D01*
X196587142Y-83145238D01*
X196491904Y-83192857D01*
X196301428Y-83240476D01*
X196063333Y-83240476D01*
X195872857Y-83192857D01*
X195777619Y-83145238D01*
X195730000Y-83097619D01*
X195682380Y-83002380D01*
X195682380Y-82050000D02*
X195682380Y-81954761D01*
X195730000Y-81859523D01*
X195777619Y-81811904D01*
X195872857Y-81764285D01*
X196063333Y-81716666D01*
X196301428Y-81716666D01*
X196491904Y-81764285D01*
X196587142Y-81811904D01*
X196634761Y-81859523D01*
X196682380Y-81954761D01*
X196682380Y-82050000D01*
X196634761Y-82145238D01*
X196587142Y-82192857D01*
X196491904Y-82240476D01*
X196301428Y-82288095D01*
X196063333Y-82288095D01*
X195872857Y-82240476D01*
X195777619Y-82192857D01*
X195730000Y-82145238D01*
X195682380Y-82050000D01*
X196682380Y-81288095D02*
X195682380Y-81288095D01*
X196301428Y-81192857D02*
X196682380Y-80907142D01*
X196015714Y-80907142D02*
X196396666Y-81288095D01*
D14*
X194635714Y-82670000D02*
X194292857Y-82910000D01*
X194635714Y-83081428D02*
X193915714Y-83081428D01*
X193915714Y-82807142D01*
X193950000Y-82738571D01*
X193984285Y-82704285D01*
X194052857Y-82670000D01*
X194155714Y-82670000D01*
X194224285Y-82704285D01*
X194258571Y-82738571D01*
X194292857Y-82807142D01*
X194292857Y-83081428D01*
X194155714Y-82052857D02*
X194635714Y-82052857D01*
X193881428Y-82224285D02*
X194395714Y-82395714D01*
X194395714Y-81950000D01*
G04 #@! TO.C,R5*
D12*
X184459523Y-100162380D02*
X184126190Y-99686190D01*
X183888095Y-100162380D02*
X183888095Y-99162380D01*
X184269047Y-99162380D01*
X184364285Y-99210000D01*
X184411904Y-99257619D01*
X184459523Y-99352857D01*
X184459523Y-99495714D01*
X184411904Y-99590952D01*
X184364285Y-99638571D01*
X184269047Y-99686190D01*
X183888095Y-99686190D01*
D14*
X184030000Y-98115714D02*
X183790000Y-97772857D01*
X183618571Y-98115714D02*
X183618571Y-97395714D01*
X183892857Y-97395714D01*
X183961428Y-97430000D01*
X183995714Y-97464285D01*
X184030000Y-97532857D01*
X184030000Y-97635714D01*
X183995714Y-97704285D01*
X183961428Y-97738571D01*
X183892857Y-97772857D01*
X183618571Y-97772857D01*
X184681428Y-97395714D02*
X184338571Y-97395714D01*
X184304285Y-97738571D01*
X184338571Y-97704285D01*
X184407142Y-97670000D01*
X184578571Y-97670000D01*
X184647142Y-97704285D01*
X184681428Y-97738571D01*
X184715714Y-97807142D01*
X184715714Y-97978571D01*
X184681428Y-98047142D01*
X184647142Y-98081428D01*
X184578571Y-98115714D01*
X184407142Y-98115714D01*
X184338571Y-98081428D01*
X184304285Y-98047142D01*
G04 #@! TO.C,R6*
D12*
X176839523Y-96352380D02*
X176506190Y-95876190D01*
X176268095Y-96352380D02*
X176268095Y-95352380D01*
X176649047Y-95352380D01*
X176744285Y-95400000D01*
X176791904Y-95447619D01*
X176839523Y-95542857D01*
X176839523Y-95685714D01*
X176791904Y-95780952D01*
X176744285Y-95828571D01*
X176649047Y-95876190D01*
X176268095Y-95876190D01*
D14*
X176410000Y-94305714D02*
X176170000Y-93962857D01*
X175998571Y-94305714D02*
X175998571Y-93585714D01*
X176272857Y-93585714D01*
X176341428Y-93620000D01*
X176375714Y-93654285D01*
X176410000Y-93722857D01*
X176410000Y-93825714D01*
X176375714Y-93894285D01*
X176341428Y-93928571D01*
X176272857Y-93962857D01*
X175998571Y-93962857D01*
X177027142Y-93585714D02*
X176890000Y-93585714D01*
X176821428Y-93620000D01*
X176787142Y-93654285D01*
X176718571Y-93757142D01*
X176684285Y-93894285D01*
X176684285Y-94168571D01*
X176718571Y-94237142D01*
X176752857Y-94271428D01*
X176821428Y-94305714D01*
X176958571Y-94305714D01*
X177027142Y-94271428D01*
X177061428Y-94237142D01*
X177095714Y-94168571D01*
X177095714Y-93997142D01*
X177061428Y-93928571D01*
X177027142Y-93894285D01*
X176958571Y-93860000D01*
X176821428Y-93860000D01*
X176752857Y-93894285D01*
X176718571Y-93928571D01*
X176684285Y-93997142D01*
G04 #@! TO.C,D2*
D12*
X177800476Y-103972380D02*
X177800476Y-102972380D01*
X178038571Y-102972380D01*
X178181428Y-103020000D01*
X178276666Y-103115238D01*
X178324285Y-103210476D01*
X178371904Y-103400952D01*
X178371904Y-103543809D01*
X178324285Y-103734285D01*
X178276666Y-103829523D01*
X178181428Y-103924761D01*
X178038571Y-103972380D01*
X177800476Y-103972380D01*
X178562380Y-104067619D02*
X179324285Y-104067619D01*
X179514761Y-103924761D02*
X179657619Y-103972380D01*
X179895714Y-103972380D01*
X179990952Y-103924761D01*
X180038571Y-103877142D01*
X180086190Y-103781904D01*
X180086190Y-103686666D01*
X180038571Y-103591428D01*
X179990952Y-103543809D01*
X179895714Y-103496190D01*
X179705238Y-103448571D01*
X179610000Y-103400952D01*
X179562380Y-103353333D01*
X179514761Y-103258095D01*
X179514761Y-103162857D01*
X179562380Y-103067619D01*
X179610000Y-103020000D01*
X179705238Y-102972380D01*
X179943333Y-102972380D01*
X180086190Y-103020000D01*
X180943333Y-103924761D02*
X180848095Y-103972380D01*
X180657619Y-103972380D01*
X180562380Y-103924761D01*
X180514761Y-103877142D01*
X180467142Y-103781904D01*
X180467142Y-103496190D01*
X180514761Y-103400952D01*
X180562380Y-103353333D01*
X180657619Y-103305714D01*
X180848095Y-103305714D01*
X180943333Y-103353333D01*
X181371904Y-103972380D02*
X181371904Y-102972380D01*
X181800476Y-103972380D02*
X181800476Y-103448571D01*
X181752857Y-103353333D01*
X181657619Y-103305714D01*
X181514761Y-103305714D01*
X181419523Y-103353333D01*
X181371904Y-103400952D01*
X182419523Y-103972380D02*
X182324285Y-103924761D01*
X182276666Y-103877142D01*
X182229047Y-103781904D01*
X182229047Y-103496190D01*
X182276666Y-103400952D01*
X182324285Y-103353333D01*
X182419523Y-103305714D01*
X182562380Y-103305714D01*
X182657619Y-103353333D01*
X182705238Y-103400952D01*
X182752857Y-103496190D01*
X182752857Y-103781904D01*
X182705238Y-103877142D01*
X182657619Y-103924761D01*
X182562380Y-103972380D01*
X182419523Y-103972380D01*
X183038571Y-103305714D02*
X183419523Y-103305714D01*
X183181428Y-102972380D02*
X183181428Y-103829523D01*
X183229047Y-103924761D01*
X183324285Y-103972380D01*
X183419523Y-103972380D01*
X183610000Y-103305714D02*
X183990952Y-103305714D01*
X183752857Y-102972380D02*
X183752857Y-103829523D01*
X183800476Y-103924761D01*
X183895714Y-103972380D01*
X183990952Y-103972380D01*
X184324285Y-103972380D02*
X184324285Y-102972380D01*
X184419523Y-103591428D02*
X184705238Y-103972380D01*
X184705238Y-103305714D02*
X184324285Y-103686666D01*
X185038571Y-103305714D02*
X185276666Y-103972380D01*
X185514761Y-103305714D02*
X185276666Y-103972380D01*
X185181428Y-104210476D01*
X185133809Y-104258095D01*
X185038571Y-104305714D01*
D15*
X181389238Y-101875047D02*
X181389238Y-101267047D01*
X181534000Y-101267047D01*
X181620857Y-101296000D01*
X181678761Y-101353904D01*
X181707714Y-101411809D01*
X181736666Y-101527619D01*
X181736666Y-101614476D01*
X181707714Y-101730285D01*
X181678761Y-101788190D01*
X181620857Y-101846095D01*
X181534000Y-101875047D01*
X181389238Y-101875047D01*
X181968285Y-101324952D02*
X181997238Y-101296000D01*
X182055142Y-101267047D01*
X182199904Y-101267047D01*
X182257809Y-101296000D01*
X182286761Y-101324952D01*
X182315714Y-101382857D01*
X182315714Y-101440761D01*
X182286761Y-101527619D01*
X181939333Y-101875047D01*
X182315714Y-101875047D01*
D12*
X177538095Y-100302380D02*
X177538095Y-99302380D01*
X178109523Y-100302380D02*
X177680952Y-99730952D01*
X178109523Y-99302380D02*
X177538095Y-99873809D01*
G04 #@! TO.C,J1*
X193556666Y-108886190D02*
X193556666Y-108410000D01*
X193842380Y-108981428D02*
X192842380Y-108648095D01*
X193842380Y-108314761D01*
X193175714Y-107552857D02*
X193842380Y-107552857D01*
X193175714Y-107981428D02*
X193699523Y-107981428D01*
X193794761Y-107933809D01*
X193842380Y-107838571D01*
X193842380Y-107695714D01*
X193794761Y-107600476D01*
X193747142Y-107552857D01*
X193842380Y-106648095D02*
X192842380Y-106648095D01*
X193794761Y-106648095D02*
X193842380Y-106743333D01*
X193842380Y-106933809D01*
X193794761Y-107029047D01*
X193747142Y-107076666D01*
X193651904Y-107124285D01*
X193366190Y-107124285D01*
X193270952Y-107076666D01*
X193223333Y-107029047D01*
X193175714Y-106933809D01*
X193175714Y-106743333D01*
X193223333Y-106648095D01*
X193842380Y-106171904D02*
X193175714Y-106171904D01*
X192842380Y-106171904D02*
X192890000Y-106219523D01*
X192937619Y-106171904D01*
X192890000Y-106124285D01*
X192842380Y-106171904D01*
X192937619Y-106171904D01*
X193842380Y-105552857D02*
X193794761Y-105648095D01*
X193747142Y-105695714D01*
X193651904Y-105743333D01*
X193366190Y-105743333D01*
X193270952Y-105695714D01*
X193223333Y-105648095D01*
X193175714Y-105552857D01*
X193175714Y-105410000D01*
X193223333Y-105314761D01*
X193270952Y-105267142D01*
X193366190Y-105219523D01*
X193651904Y-105219523D01*
X193747142Y-105267142D01*
X193794761Y-105314761D01*
X193842380Y-105410000D01*
X193842380Y-105552857D01*
X192842380Y-103838571D02*
X192842380Y-103648095D01*
X192890000Y-103552857D01*
X192985238Y-103457619D01*
X193175714Y-103410000D01*
X193509047Y-103410000D01*
X193699523Y-103457619D01*
X193794761Y-103552857D01*
X193842380Y-103648095D01*
X193842380Y-103838571D01*
X193794761Y-103933809D01*
X193699523Y-104029047D01*
X193509047Y-104076666D01*
X193175714Y-104076666D01*
X192985238Y-104029047D01*
X192890000Y-103933809D01*
X192842380Y-103838571D01*
X193175714Y-102552857D02*
X193842380Y-102552857D01*
X193175714Y-102981428D02*
X193699523Y-102981428D01*
X193794761Y-102933809D01*
X193842380Y-102838571D01*
X193842380Y-102695714D01*
X193794761Y-102600476D01*
X193747142Y-102552857D01*
X193175714Y-102219523D02*
X193175714Y-101838571D01*
X192842380Y-102076666D02*
X193699523Y-102076666D01*
X193794761Y-102029047D01*
X193842380Y-101933809D01*
X193842380Y-101838571D01*
G04 #@! TO.C,J2*
X181245238Y-69666666D02*
X181721428Y-69666666D01*
X181150000Y-69952380D02*
X181483333Y-68952380D01*
X181816666Y-69952380D01*
X182578571Y-69285714D02*
X182578571Y-69952380D01*
X182150000Y-69285714D02*
X182150000Y-69809523D01*
X182197619Y-69904761D01*
X182292857Y-69952380D01*
X182435714Y-69952380D01*
X182530952Y-69904761D01*
X182578571Y-69857142D01*
X183483333Y-69952380D02*
X183483333Y-68952380D01*
X183483333Y-69904761D02*
X183388095Y-69952380D01*
X183197619Y-69952380D01*
X183102380Y-69904761D01*
X183054761Y-69857142D01*
X183007142Y-69761904D01*
X183007142Y-69476190D01*
X183054761Y-69380952D01*
X183102380Y-69333333D01*
X183197619Y-69285714D01*
X183388095Y-69285714D01*
X183483333Y-69333333D01*
X183959523Y-69952380D02*
X183959523Y-69285714D01*
X183959523Y-68952380D02*
X183911904Y-69000000D01*
X183959523Y-69047619D01*
X184007142Y-69000000D01*
X183959523Y-68952380D01*
X183959523Y-69047619D01*
X184578571Y-69952380D02*
X184483333Y-69904761D01*
X184435714Y-69857142D01*
X184388095Y-69761904D01*
X184388095Y-69476190D01*
X184435714Y-69380952D01*
X184483333Y-69333333D01*
X184578571Y-69285714D01*
X184721428Y-69285714D01*
X184816666Y-69333333D01*
X184864285Y-69380952D01*
X184911904Y-69476190D01*
X184911904Y-69761904D01*
X184864285Y-69857142D01*
X184816666Y-69904761D01*
X184721428Y-69952380D01*
X184578571Y-69952380D01*
X186102380Y-69952380D02*
X186102380Y-68952380D01*
X186578571Y-69285714D02*
X186578571Y-69952380D01*
X186578571Y-69380952D02*
X186626190Y-69333333D01*
X186721428Y-69285714D01*
X186864285Y-69285714D01*
X186959523Y-69333333D01*
X187007142Y-69428571D01*
X187007142Y-69952380D01*
G04 #@! TO.C,L1*
X176482817Y-73444459D02*
X176078756Y-73848520D01*
X176280787Y-73646489D02*
X175573680Y-72939383D01*
X175607352Y-73107741D01*
X175607352Y-73242428D01*
X175573680Y-73343444D01*
X176213443Y-72299619D02*
X176280787Y-72232276D01*
X176381802Y-72198604D01*
X176449146Y-72198604D01*
X176550161Y-72232276D01*
X176718520Y-72333291D01*
X176886878Y-72501650D01*
X176987894Y-72670009D01*
X177021565Y-72771024D01*
X177021565Y-72838367D01*
X176987894Y-72939383D01*
X176920550Y-73006726D01*
X176819535Y-73040398D01*
X176752191Y-73040398D01*
X176651176Y-73006726D01*
X176482817Y-72905711D01*
X176314459Y-72737352D01*
X176213443Y-72568993D01*
X176179772Y-72467978D01*
X176179772Y-72400635D01*
X176213443Y-72299619D01*
X177459298Y-72467978D02*
X176987894Y-71996574D01*
X177055237Y-72063917D02*
X177055237Y-71996574D01*
X177088909Y-71895558D01*
X177189924Y-71794543D01*
X177290939Y-71760871D01*
X177391955Y-71794543D01*
X177762344Y-72164932D01*
X177391955Y-71794543D02*
X177358283Y-71693528D01*
X177391955Y-71592513D01*
X177492970Y-71491497D01*
X177593985Y-71457826D01*
X177695000Y-71491497D01*
X178065390Y-71861887D01*
X178402107Y-71525169D02*
X177695000Y-70818062D01*
X178031718Y-71154780D02*
X178435779Y-70750719D01*
X178806168Y-71121108D02*
X178099061Y-70414001D01*
X173982690Y-69227072D02*
X173645972Y-69563790D01*
X172938866Y-68856683D01*
X174588782Y-68620981D02*
X174184721Y-69025042D01*
X174386751Y-68823011D02*
X173679644Y-68115904D01*
X173713316Y-68284263D01*
X173713316Y-68418950D01*
X173679644Y-68519965D01*
G04 #@! TO.C,L2*
X196581734Y-64773983D02*
X196177673Y-64369922D01*
X196379704Y-64571953D02*
X197086810Y-63864846D01*
X196918452Y-63898518D01*
X196783765Y-63898518D01*
X196682749Y-63864846D01*
X197726574Y-64504609D02*
X197793917Y-64571953D01*
X197827589Y-64672968D01*
X197827589Y-64740312D01*
X197793917Y-64841327D01*
X197692902Y-65009686D01*
X197524543Y-65178044D01*
X197356184Y-65279060D01*
X197255169Y-65312731D01*
X197187826Y-65312731D01*
X197086810Y-65279060D01*
X197019467Y-65211716D01*
X196985795Y-65110701D01*
X196985795Y-65043357D01*
X197019467Y-64942342D01*
X197120482Y-64773983D01*
X197288841Y-64605625D01*
X197457200Y-64504609D01*
X197558215Y-64470938D01*
X197625558Y-64470938D01*
X197726574Y-64504609D01*
X197558215Y-65750464D02*
X198029619Y-65279060D01*
X197962276Y-65346403D02*
X198029619Y-65346403D01*
X198130635Y-65380075D01*
X198231650Y-65481090D01*
X198265322Y-65582105D01*
X198231650Y-65683121D01*
X197861261Y-66053510D01*
X198231650Y-65683121D02*
X198332665Y-65649449D01*
X198433680Y-65683121D01*
X198534696Y-65784136D01*
X198568367Y-65885151D01*
X198534696Y-65986166D01*
X198164306Y-66356556D01*
X198501024Y-66693273D02*
X199208131Y-65986166D01*
X198871413Y-66322884D02*
X199275474Y-66726945D01*
X198905085Y-67097334D02*
X199612192Y-66390227D01*
X194081607Y-68991370D02*
X193744889Y-68654652D01*
X194451996Y-67947546D01*
X194923401Y-68553637D02*
X194990744Y-68553637D01*
X195091759Y-68587309D01*
X195260118Y-68755668D01*
X195293790Y-68856683D01*
X195293790Y-68924027D01*
X195260118Y-69025042D01*
X195192775Y-69092385D01*
X195058088Y-69159729D01*
X194249965Y-69159729D01*
X194687698Y-69597462D01*
G04 #@! TO.C,C7*
X173137142Y-89110476D02*
X173184761Y-89158095D01*
X173232380Y-89300952D01*
X173232380Y-89396190D01*
X173184761Y-89539047D01*
X173089523Y-89634285D01*
X172994285Y-89681904D01*
X172803809Y-89729523D01*
X172660952Y-89729523D01*
X172470476Y-89681904D01*
X172375238Y-89634285D01*
X172280000Y-89539047D01*
X172232380Y-89396190D01*
X172232380Y-89300952D01*
X172280000Y-89158095D01*
X172327619Y-89110476D01*
X173232380Y-88681904D02*
X172232380Y-88681904D01*
X172232380Y-88300952D01*
X172280000Y-88205714D01*
X172327619Y-88158095D01*
X172422857Y-88110476D01*
X172565714Y-88110476D01*
X172660952Y-88158095D01*
X172708571Y-88205714D01*
X172756190Y-88300952D01*
X172756190Y-88681904D01*
X176887142Y-89086666D02*
X176934761Y-89134285D01*
X176982380Y-89277142D01*
X176982380Y-89372380D01*
X176934761Y-89515238D01*
X176839523Y-89610476D01*
X176744285Y-89658095D01*
X176553809Y-89705714D01*
X176410952Y-89705714D01*
X176220476Y-89658095D01*
X176125238Y-89610476D01*
X176030000Y-89515238D01*
X175982380Y-89372380D01*
X175982380Y-89277142D01*
X176030000Y-89134285D01*
X176077619Y-89086666D01*
X175982380Y-88753333D02*
X175982380Y-88086666D01*
X176982380Y-88515238D01*
G04 #@! TO.C,C8*
X195877142Y-89110476D02*
X195924761Y-89158095D01*
X195972380Y-89300952D01*
X195972380Y-89396190D01*
X195924761Y-89539047D01*
X195829523Y-89634285D01*
X195734285Y-89681904D01*
X195543809Y-89729523D01*
X195400952Y-89729523D01*
X195210476Y-89681904D01*
X195115238Y-89634285D01*
X195020000Y-89539047D01*
X194972380Y-89396190D01*
X194972380Y-89300952D01*
X195020000Y-89158095D01*
X195067619Y-89110476D01*
X195972380Y-88681904D02*
X194972380Y-88681904D01*
X194972380Y-88300952D01*
X195020000Y-88205714D01*
X195067619Y-88158095D01*
X195162857Y-88110476D01*
X195305714Y-88110476D01*
X195400952Y-88158095D01*
X195448571Y-88205714D01*
X195496190Y-88300952D01*
X195496190Y-88681904D01*
X192127142Y-89086666D02*
X192174761Y-89134285D01*
X192222380Y-89277142D01*
X192222380Y-89372380D01*
X192174761Y-89515238D01*
X192079523Y-89610476D01*
X191984285Y-89658095D01*
X191793809Y-89705714D01*
X191650952Y-89705714D01*
X191460476Y-89658095D01*
X191365238Y-89610476D01*
X191270000Y-89515238D01*
X191222380Y-89372380D01*
X191222380Y-89277142D01*
X191270000Y-89134285D01*
X191317619Y-89086666D01*
X191650952Y-88515238D02*
X191603333Y-88610476D01*
X191555714Y-88658095D01*
X191460476Y-88705714D01*
X191412857Y-88705714D01*
X191317619Y-88658095D01*
X191270000Y-88610476D01*
X191222380Y-88515238D01*
X191222380Y-88324761D01*
X191270000Y-88229523D01*
X191317619Y-88181904D01*
X191412857Y-88134285D01*
X191460476Y-88134285D01*
X191555714Y-88181904D01*
X191603333Y-88229523D01*
X191650952Y-88324761D01*
X191650952Y-88515238D01*
X191698571Y-88610476D01*
X191746190Y-88658095D01*
X191841428Y-88705714D01*
X192031904Y-88705714D01*
X192127142Y-88658095D01*
X192174761Y-88610476D01*
X192222380Y-88515238D01*
X192222380Y-88324761D01*
X192174761Y-88229523D01*
X192127142Y-88181904D01*
X192031904Y-88134285D01*
X191841428Y-88134285D01*
X191746190Y-88181904D01*
X191698571Y-88229523D01*
X191650952Y-88324761D01*
G04 #@! TO.C,C1*
X174932380Y-84442857D02*
X174932380Y-85014285D01*
X174932380Y-84728571D02*
X173932380Y-84728571D01*
X174075238Y-84823809D01*
X174170476Y-84919047D01*
X174218095Y-85014285D01*
X173932380Y-83823809D02*
X173932380Y-83728571D01*
X173980000Y-83633333D01*
X174027619Y-83585714D01*
X174122857Y-83538095D01*
X174313333Y-83490476D01*
X174551428Y-83490476D01*
X174741904Y-83538095D01*
X174837142Y-83585714D01*
X174884761Y-83633333D01*
X174932380Y-83728571D01*
X174932380Y-83823809D01*
X174884761Y-83919047D01*
X174837142Y-83966666D01*
X174741904Y-84014285D01*
X174551428Y-84061904D01*
X174313333Y-84061904D01*
X174122857Y-84014285D01*
X174027619Y-83966666D01*
X173980000Y-83919047D01*
X173932380Y-83823809D01*
X174265714Y-83061904D02*
X175265714Y-83061904D01*
X174313333Y-83061904D02*
X174265714Y-82966666D01*
X174265714Y-82776190D01*
X174313333Y-82680952D01*
X174360952Y-82633333D01*
X174456190Y-82585714D01*
X174741904Y-82585714D01*
X174837142Y-82633333D01*
X174884761Y-82680952D01*
X174932380Y-82776190D01*
X174932380Y-82966666D01*
X174884761Y-83061904D01*
D16*
X176744285Y-83900000D02*
X176772857Y-83928571D01*
X176801428Y-84014285D01*
X176801428Y-84071428D01*
X176772857Y-84157142D01*
X176715714Y-84214285D01*
X176658571Y-84242857D01*
X176544285Y-84271428D01*
X176458571Y-84271428D01*
X176344285Y-84242857D01*
X176287142Y-84214285D01*
X176230000Y-84157142D01*
X176201428Y-84071428D01*
X176201428Y-84014285D01*
X176230000Y-83928571D01*
X176258571Y-83900000D01*
X176801428Y-83328571D02*
X176801428Y-83671428D01*
X176801428Y-83500000D02*
X176201428Y-83500000D01*
X176287142Y-83557142D01*
X176344285Y-83614285D01*
X176372857Y-83671428D01*
G04 #@! TO.C,C2*
D12*
X190172380Y-84442857D02*
X190172380Y-85014285D01*
X190172380Y-84728571D02*
X189172380Y-84728571D01*
X189315238Y-84823809D01*
X189410476Y-84919047D01*
X189458095Y-85014285D01*
X189172380Y-83823809D02*
X189172380Y-83728571D01*
X189220000Y-83633333D01*
X189267619Y-83585714D01*
X189362857Y-83538095D01*
X189553333Y-83490476D01*
X189791428Y-83490476D01*
X189981904Y-83538095D01*
X190077142Y-83585714D01*
X190124761Y-83633333D01*
X190172380Y-83728571D01*
X190172380Y-83823809D01*
X190124761Y-83919047D01*
X190077142Y-83966666D01*
X189981904Y-84014285D01*
X189791428Y-84061904D01*
X189553333Y-84061904D01*
X189362857Y-84014285D01*
X189267619Y-83966666D01*
X189220000Y-83919047D01*
X189172380Y-83823809D01*
X189505714Y-83061904D02*
X190505714Y-83061904D01*
X189553333Y-83061904D02*
X189505714Y-82966666D01*
X189505714Y-82776190D01*
X189553333Y-82680952D01*
X189600952Y-82633333D01*
X189696190Y-82585714D01*
X189981904Y-82585714D01*
X190077142Y-82633333D01*
X190124761Y-82680952D01*
X190172380Y-82776190D01*
X190172380Y-82966666D01*
X190124761Y-83061904D01*
D16*
X191984285Y-83900000D02*
X192012857Y-83928571D01*
X192041428Y-84014285D01*
X192041428Y-84071428D01*
X192012857Y-84157142D01*
X191955714Y-84214285D01*
X191898571Y-84242857D01*
X191784285Y-84271428D01*
X191698571Y-84271428D01*
X191584285Y-84242857D01*
X191527142Y-84214285D01*
X191470000Y-84157142D01*
X191441428Y-84071428D01*
X191441428Y-84014285D01*
X191470000Y-83928571D01*
X191498571Y-83900000D01*
X191498571Y-83671428D02*
X191470000Y-83642857D01*
X191441428Y-83585714D01*
X191441428Y-83442857D01*
X191470000Y-83385714D01*
X191498571Y-83357142D01*
X191555714Y-83328571D01*
X191612857Y-83328571D01*
X191698571Y-83357142D01*
X192041428Y-83700000D01*
X192041428Y-83328571D01*
G04 #@! TO.C,C3*
D12*
X185287142Y-88570476D02*
X185334761Y-88618095D01*
X185382380Y-88760952D01*
X185382380Y-88856190D01*
X185334761Y-88999047D01*
X185239523Y-89094285D01*
X185144285Y-89141904D01*
X184953809Y-89189523D01*
X184810952Y-89189523D01*
X184620476Y-89141904D01*
X184525238Y-89094285D01*
X184430000Y-88999047D01*
X184382380Y-88856190D01*
X184382380Y-88760952D01*
X184430000Y-88618095D01*
X184477619Y-88570476D01*
D16*
X183094285Y-88980000D02*
X183122857Y-89008571D01*
X183151428Y-89094285D01*
X183151428Y-89151428D01*
X183122857Y-89237142D01*
X183065714Y-89294285D01*
X183008571Y-89322857D01*
X182894285Y-89351428D01*
X182808571Y-89351428D01*
X182694285Y-89322857D01*
X182637142Y-89294285D01*
X182580000Y-89237142D01*
X182551428Y-89151428D01*
X182551428Y-89094285D01*
X182580000Y-89008571D01*
X182608571Y-88980000D01*
X182551428Y-88780000D02*
X182551428Y-88408571D01*
X182780000Y-88608571D01*
X182780000Y-88522857D01*
X182808571Y-88465714D01*
X182837142Y-88437142D01*
X182894285Y-88408571D01*
X183037142Y-88408571D01*
X183094285Y-88437142D01*
X183122857Y-88465714D01*
X183151428Y-88522857D01*
X183151428Y-88694285D01*
X183122857Y-88751428D01*
X183094285Y-88780000D01*
G04 #@! TO.C,C4*
D12*
X187827142Y-88570476D02*
X187874761Y-88618095D01*
X187922380Y-88760952D01*
X187922380Y-88856190D01*
X187874761Y-88999047D01*
X187779523Y-89094285D01*
X187684285Y-89141904D01*
X187493809Y-89189523D01*
X187350952Y-89189523D01*
X187160476Y-89141904D01*
X187065238Y-89094285D01*
X186970000Y-88999047D01*
X186922380Y-88856190D01*
X186922380Y-88760952D01*
X186970000Y-88618095D01*
X187017619Y-88570476D01*
D16*
X185634285Y-88980000D02*
X185662857Y-89008571D01*
X185691428Y-89094285D01*
X185691428Y-89151428D01*
X185662857Y-89237142D01*
X185605714Y-89294285D01*
X185548571Y-89322857D01*
X185434285Y-89351428D01*
X185348571Y-89351428D01*
X185234285Y-89322857D01*
X185177142Y-89294285D01*
X185120000Y-89237142D01*
X185091428Y-89151428D01*
X185091428Y-89094285D01*
X185120000Y-89008571D01*
X185148571Y-88980000D01*
X185291428Y-88465714D02*
X185691428Y-88465714D01*
X185062857Y-88608571D02*
X185491428Y-88751428D01*
X185491428Y-88380000D01*
G04 #@! TO.C,C5*
D12*
X178647142Y-88570476D02*
X178694761Y-88618095D01*
X178742380Y-88760952D01*
X178742380Y-88856190D01*
X178694761Y-88999047D01*
X178599523Y-89094285D01*
X178504285Y-89141904D01*
X178313809Y-89189523D01*
X178170952Y-89189523D01*
X177980476Y-89141904D01*
X177885238Y-89094285D01*
X177790000Y-88999047D01*
X177742380Y-88856190D01*
X177742380Y-88760952D01*
X177790000Y-88618095D01*
X177837619Y-88570476D01*
D16*
X180554285Y-88980000D02*
X180582857Y-89008571D01*
X180611428Y-89094285D01*
X180611428Y-89151428D01*
X180582857Y-89237142D01*
X180525714Y-89294285D01*
X180468571Y-89322857D01*
X180354285Y-89351428D01*
X180268571Y-89351428D01*
X180154285Y-89322857D01*
X180097142Y-89294285D01*
X180040000Y-89237142D01*
X180011428Y-89151428D01*
X180011428Y-89094285D01*
X180040000Y-89008571D01*
X180068571Y-88980000D01*
X180011428Y-88437142D02*
X180011428Y-88722857D01*
X180297142Y-88751428D01*
X180268571Y-88722857D01*
X180240000Y-88665714D01*
X180240000Y-88522857D01*
X180268571Y-88465714D01*
X180297142Y-88437142D01*
X180354285Y-88408571D01*
X180497142Y-88408571D01*
X180554285Y-88437142D01*
X180582857Y-88465714D01*
X180611428Y-88522857D01*
X180611428Y-88665714D01*
X180582857Y-88722857D01*
X180554285Y-88751428D01*
G04 #@! TO.C,C6*
D12*
X190367142Y-88570476D02*
X190414761Y-88618095D01*
X190462380Y-88760952D01*
X190462380Y-88856190D01*
X190414761Y-88999047D01*
X190319523Y-89094285D01*
X190224285Y-89141904D01*
X190033809Y-89189523D01*
X189890952Y-89189523D01*
X189700476Y-89141904D01*
X189605238Y-89094285D01*
X189510000Y-88999047D01*
X189462380Y-88856190D01*
X189462380Y-88760952D01*
X189510000Y-88618095D01*
X189557619Y-88570476D01*
D16*
X188174285Y-88980000D02*
X188202857Y-89008571D01*
X188231428Y-89094285D01*
X188231428Y-89151428D01*
X188202857Y-89237142D01*
X188145714Y-89294285D01*
X188088571Y-89322857D01*
X187974285Y-89351428D01*
X187888571Y-89351428D01*
X187774285Y-89322857D01*
X187717142Y-89294285D01*
X187660000Y-89237142D01*
X187631428Y-89151428D01*
X187631428Y-89094285D01*
X187660000Y-89008571D01*
X187688571Y-88980000D01*
X187631428Y-88465714D02*
X187631428Y-88580000D01*
X187660000Y-88637142D01*
X187688571Y-88665714D01*
X187774285Y-88722857D01*
X187888571Y-88751428D01*
X188117142Y-88751428D01*
X188174285Y-88722857D01*
X188202857Y-88694285D01*
X188231428Y-88637142D01*
X188231428Y-88522857D01*
X188202857Y-88465714D01*
X188174285Y-88437142D01*
X188117142Y-88408571D01*
X187974285Y-88408571D01*
X187917142Y-88437142D01*
X187888571Y-88465714D01*
X187860000Y-88522857D01*
X187860000Y-88637142D01*
X187888571Y-88694285D01*
X187917142Y-88722857D01*
X187974285Y-88751428D01*
G04 #@! TO.C,U1*
D12*
X182459523Y-74322380D02*
X181983333Y-74322380D01*
X181983333Y-73322380D01*
X182792857Y-74322380D02*
X182792857Y-73322380D01*
X183126190Y-74036666D01*
X183459523Y-73322380D01*
X183459523Y-74322380D01*
X183840476Y-73322380D02*
X184459523Y-73322380D01*
X184126190Y-73703333D01*
X184269047Y-73703333D01*
X184364285Y-73750952D01*
X184411904Y-73798571D01*
X184459523Y-73893809D01*
X184459523Y-74131904D01*
X184411904Y-74227142D01*
X184364285Y-74274761D01*
X184269047Y-74322380D01*
X183983333Y-74322380D01*
X183888095Y-74274761D01*
X183840476Y-74227142D01*
X185364285Y-73322380D02*
X184888095Y-73322380D01*
X184840476Y-73798571D01*
X184888095Y-73750952D01*
X184983333Y-73703333D01*
X185221428Y-73703333D01*
X185316666Y-73750952D01*
X185364285Y-73798571D01*
X185411904Y-73893809D01*
X185411904Y-74131904D01*
X185364285Y-74227142D01*
X185316666Y-74274761D01*
X185221428Y-74322380D01*
X184983333Y-74322380D01*
X184888095Y-74274761D01*
X184840476Y-74227142D01*
X185983333Y-73750952D02*
X185888095Y-73703333D01*
X185840476Y-73655714D01*
X185792857Y-73560476D01*
X185792857Y-73512857D01*
X185840476Y-73417619D01*
X185888095Y-73370000D01*
X185983333Y-73322380D01*
X186173809Y-73322380D01*
X186269047Y-73370000D01*
X186316666Y-73417619D01*
X186364285Y-73512857D01*
X186364285Y-73560476D01*
X186316666Y-73655714D01*
X186269047Y-73703333D01*
X186173809Y-73750952D01*
X185983333Y-73750952D01*
X185888095Y-73798571D01*
X185840476Y-73846190D01*
X185792857Y-73941428D01*
X185792857Y-74131904D01*
X185840476Y-74227142D01*
X185888095Y-74274761D01*
X185983333Y-74322380D01*
X186173809Y-74322380D01*
X186269047Y-74274761D01*
X186316666Y-74227142D01*
X186364285Y-74131904D01*
X186364285Y-73941428D01*
X186316666Y-73846190D01*
X186269047Y-73798571D01*
X186173809Y-73750952D01*
X183388095Y-79462380D02*
X183388095Y-80271904D01*
X183435714Y-80367142D01*
X183483333Y-80414761D01*
X183578571Y-80462380D01*
X183769047Y-80462380D01*
X183864285Y-80414761D01*
X183911904Y-80367142D01*
X183959523Y-80271904D01*
X183959523Y-79462380D01*
X184959523Y-80462380D02*
X184388095Y-80462380D01*
X184673809Y-80462380D02*
X184673809Y-79462380D01*
X184578571Y-79605238D01*
X184483333Y-79700476D01*
X184388095Y-79748095D01*
G04 #@! TO.C,RV1*
X172403333Y-102076666D02*
X172879523Y-102076666D01*
X172308095Y-102362380D02*
X172641428Y-101362380D01*
X172974761Y-102362380D01*
X173450952Y-102362380D02*
X173355714Y-102314761D01*
X173308095Y-102219523D01*
X173308095Y-101362380D01*
X173831904Y-101695714D02*
X173831904Y-102695714D01*
X173831904Y-101743333D02*
X173927142Y-101695714D01*
X174117619Y-101695714D01*
X174212857Y-101743333D01*
X174260476Y-101790952D01*
X174308095Y-101886190D01*
X174308095Y-102171904D01*
X174260476Y-102267142D01*
X174212857Y-102314761D01*
X174117619Y-102362380D01*
X173927142Y-102362380D01*
X173831904Y-102314761D01*
X174689047Y-102314761D02*
X174784285Y-102362380D01*
X174974761Y-102362380D01*
X175070000Y-102314761D01*
X175117619Y-102219523D01*
X175117619Y-102171904D01*
X175070000Y-102076666D01*
X174974761Y-102029047D01*
X174831904Y-102029047D01*
X174736666Y-101981428D01*
X174689047Y-101886190D01*
X174689047Y-101838571D01*
X174736666Y-101743333D01*
X174831904Y-101695714D01*
X174974761Y-101695714D01*
X175070000Y-101743333D01*
X175308095Y-102457619D02*
X176070000Y-102457619D01*
X176879523Y-102362380D02*
X176546190Y-101886190D01*
X176308095Y-102362380D02*
X176308095Y-101362380D01*
X176689047Y-101362380D01*
X176784285Y-101410000D01*
X176831904Y-101457619D01*
X176879523Y-101552857D01*
X176879523Y-101695714D01*
X176831904Y-101790952D01*
X176784285Y-101838571D01*
X176689047Y-101886190D01*
X176308095Y-101886190D01*
X177308095Y-102362380D02*
X177308095Y-101362380D01*
X177879523Y-102362380D02*
X177450952Y-101790952D01*
X177879523Y-101362380D02*
X177308095Y-101933809D01*
X178498571Y-101362380D02*
X178593809Y-101362380D01*
X178689047Y-101410000D01*
X178736666Y-101457619D01*
X178784285Y-101552857D01*
X178831904Y-101743333D01*
X178831904Y-101981428D01*
X178784285Y-102171904D01*
X178736666Y-102267142D01*
X178689047Y-102314761D01*
X178593809Y-102362380D01*
X178498571Y-102362380D01*
X178403333Y-102314761D01*
X178355714Y-102267142D01*
X178308095Y-102171904D01*
X178260476Y-101981428D01*
X178260476Y-101743333D01*
X178308095Y-101552857D01*
X178355714Y-101457619D01*
X178403333Y-101410000D01*
X178498571Y-101362380D01*
X179308095Y-102362380D02*
X179498571Y-102362380D01*
X179593809Y-102314761D01*
X179641428Y-102267142D01*
X179736666Y-102124285D01*
X179784285Y-101933809D01*
X179784285Y-101552857D01*
X179736666Y-101457619D01*
X179689047Y-101410000D01*
X179593809Y-101362380D01*
X179403333Y-101362380D01*
X179308095Y-101410000D01*
X179260476Y-101457619D01*
X179212857Y-101552857D01*
X179212857Y-101790952D01*
X179260476Y-101886190D01*
X179308095Y-101933809D01*
X179403333Y-101981428D01*
X179593809Y-101981428D01*
X179689047Y-101933809D01*
X179736666Y-101886190D01*
X179784285Y-101790952D01*
X180117619Y-101362380D02*
X180784285Y-101362380D01*
X180355714Y-102362380D01*
X175749761Y-108362380D02*
X175416428Y-107886190D01*
X175178333Y-108362380D02*
X175178333Y-107362380D01*
X175559285Y-107362380D01*
X175654523Y-107410000D01*
X175702142Y-107457619D01*
X175749761Y-107552857D01*
X175749761Y-107695714D01*
X175702142Y-107790952D01*
X175654523Y-107838571D01*
X175559285Y-107886190D01*
X175178333Y-107886190D01*
X176035476Y-107362380D02*
X176368809Y-108362380D01*
X176702142Y-107362380D01*
X177559285Y-108362380D02*
X176987857Y-108362380D01*
X177273571Y-108362380D02*
X177273571Y-107362380D01*
X177178333Y-107505238D01*
X177083095Y-107600476D01*
X176987857Y-107648095D01*
G04 #@! TD*
M02*
