G04 #@! TF.GenerationSoftware,KiCad,Pcbnew,5.0.1*
G04 #@! TF.CreationDate,2018-10-21T21:20:25+02:00*
G04 #@! TF.ProjectId,MicroFlux,4D6963726F466C75782E6B696361645F,rev?*
G04 #@! TF.SameCoordinates,Original*
G04 #@! TF.FileFunction,Copper,L1,Top,Signal*
G04 #@! TF.FilePolarity,Positive*
%FSLAX46Y46*%
G04 Gerber Fmt 4.6, Leading zero omitted, Abs format (unit mm)*
G04 Created by KiCad (PCBNEW 5.0.1) date Sun 21 Oct 2018 09:20:25 PM CEST*
%MOMM*%
%LPD*%
G01*
G04 APERTURE LIST*
G04 #@! TA.AperFunction,EtchedComponent*
%ADD10C,0.010000*%
G04 #@! TD*
G04 #@! TA.AperFunction,ComponentPad*
%ADD11C,1.600000*%
G04 #@! TD*
G04 #@! TA.AperFunction,ComponentPad*
%ADD12R,1.800000X1.800000*%
G04 #@! TD*
G04 #@! TA.AperFunction,ComponentPad*
%ADD13C,1.800000*%
G04 #@! TD*
G04 #@! TA.AperFunction,ComponentPad*
%ADD14R,2.200000X2.200000*%
G04 #@! TD*
G04 #@! TA.AperFunction,ComponentPad*
%ADD15O,2.200000X2.200000*%
G04 #@! TD*
G04 #@! TA.AperFunction,ComponentPad*
%ADD16C,1.400000*%
G04 #@! TD*
G04 #@! TA.AperFunction,ComponentPad*
%ADD17O,1.400000X1.400000*%
G04 #@! TD*
G04 #@! TA.AperFunction,ComponentPad*
%ADD18C,2.000000*%
G04 #@! TD*
G04 #@! TA.AperFunction,Conductor*
%ADD19C,0.100000*%
G04 #@! TD*
G04 #@! TA.AperFunction,ConnectorPad*
%ADD20C,2.600000*%
G04 #@! TD*
G04 #@! TA.AperFunction,ComponentPad*
%ADD21C,3.000000*%
G04 #@! TD*
G04 #@! TA.AperFunction,ComponentPad*
%ADD22O,2.400000X1.600000*%
G04 #@! TD*
G04 #@! TA.AperFunction,ComponentPad*
%ADD23R,2.400000X1.600000*%
G04 #@! TD*
G04 #@! TA.AperFunction,Conductor*
%ADD24C,0.250000*%
G04 #@! TD*
G04 #@! TA.AperFunction,Conductor*
%ADD25C,0.254000*%
G04 #@! TD*
G04 APERTURE END LIST*
D10*
G04 #@! TO.C,REF\002A\002A*
G36*
X169327348Y-112926090D02*
X169327778Y-112847546D01*
X169328942Y-112790702D01*
X169331207Y-112751895D01*
X169334940Y-112727462D01*
X169340506Y-112713738D01*
X169348273Y-112707060D01*
X169358605Y-112703764D01*
X169359943Y-112703444D01*
X169384079Y-112698438D01*
X169431701Y-112689171D01*
X169497741Y-112676608D01*
X169577128Y-112661713D01*
X169664796Y-112645449D01*
X169667875Y-112644881D01*
X169753789Y-112628590D01*
X169829696Y-112613348D01*
X169891045Y-112600139D01*
X169933282Y-112589946D01*
X169951855Y-112583752D01*
X169952184Y-112583457D01*
X169961253Y-112565212D01*
X169976367Y-112527595D01*
X169994262Y-112478729D01*
X169994358Y-112478457D01*
X170017493Y-112416907D01*
X170046965Y-112344343D01*
X170076597Y-112275943D01*
X170078062Y-112272706D01*
X170128626Y-112161298D01*
X169960160Y-111914601D01*
X169908803Y-111838923D01*
X169862889Y-111770369D01*
X169825030Y-111712912D01*
X169797837Y-111670524D01*
X169783921Y-111647175D01*
X169782889Y-111644958D01*
X169787484Y-111627990D01*
X169809655Y-111596299D01*
X169850447Y-111548648D01*
X169910905Y-111483802D01*
X169975227Y-111417603D01*
X170038612Y-111353786D01*
X170096451Y-111296671D01*
X170145175Y-111249695D01*
X170181210Y-111216297D01*
X170200984Y-111199915D01*
X170202002Y-111199306D01*
X170215572Y-111197495D01*
X170237733Y-111204317D01*
X170271478Y-111221460D01*
X170319800Y-111250607D01*
X170385692Y-111293445D01*
X170470517Y-111350552D01*
X170545177Y-111401234D01*
X170612140Y-111446539D01*
X170667516Y-111483850D01*
X170707420Y-111510548D01*
X170727962Y-111524015D01*
X170729356Y-111524863D01*
X170749038Y-111523219D01*
X170787293Y-111510755D01*
X170836889Y-111489952D01*
X170852728Y-111482538D01*
X170923290Y-111450186D01*
X171003353Y-111415672D01*
X171072629Y-111387635D01*
X171124045Y-111367432D01*
X171163119Y-111351385D01*
X171183541Y-111342112D01*
X171185114Y-111340959D01*
X171187721Y-111323904D01*
X171194863Y-111283702D01*
X171205523Y-111225698D01*
X171218685Y-111155237D01*
X171233333Y-111077665D01*
X171248449Y-110998328D01*
X171263018Y-110922569D01*
X171276022Y-110855736D01*
X171286445Y-110803172D01*
X171293270Y-110770224D01*
X171295199Y-110762143D01*
X171299962Y-110753795D01*
X171310718Y-110747494D01*
X171331098Y-110742955D01*
X171364734Y-110739896D01*
X171415255Y-110738033D01*
X171486292Y-110737082D01*
X171581476Y-110736760D01*
X171620492Y-110736743D01*
X171937799Y-110736743D01*
X171952839Y-110812943D01*
X171960995Y-110855337D01*
X171972899Y-110918600D01*
X171987116Y-110995038D01*
X172002210Y-111076957D01*
X172006355Y-111099600D01*
X172021053Y-111175194D01*
X172035505Y-111241047D01*
X172048375Y-111291634D01*
X172058322Y-111321426D01*
X172061287Y-111326388D01*
X172082283Y-111338574D01*
X172122967Y-111356047D01*
X172175322Y-111375423D01*
X172186600Y-111379266D01*
X172256523Y-111404661D01*
X172335418Y-111436183D01*
X172406266Y-111467031D01*
X172406595Y-111467183D01*
X172517733Y-111518553D01*
X172766253Y-111349601D01*
X173014772Y-111180648D01*
X173232058Y-111397571D01*
X173296726Y-111463181D01*
X173353733Y-111523021D01*
X173400033Y-111573733D01*
X173432584Y-111611954D01*
X173448343Y-111634325D01*
X173449343Y-111637534D01*
X173441469Y-111656374D01*
X173419578Y-111694820D01*
X173386267Y-111748670D01*
X173344131Y-111813724D01*
X173296943Y-111884060D01*
X173248810Y-111955445D01*
X173206928Y-112019092D01*
X173173871Y-112070959D01*
X173152218Y-112107005D01*
X173144543Y-112123133D01*
X173151037Y-112142811D01*
X173168150Y-112180125D01*
X173192326Y-112227379D01*
X173195013Y-112232388D01*
X173226927Y-112296023D01*
X173242579Y-112339659D01*
X173242745Y-112366798D01*
X173228204Y-112380943D01*
X173228000Y-112381025D01*
X173210779Y-112388095D01*
X173169899Y-112404958D01*
X173108525Y-112430305D01*
X173029819Y-112462829D01*
X172936947Y-112501222D01*
X172833072Y-112544178D01*
X172732502Y-112585778D01*
X172621516Y-112631496D01*
X172518703Y-112673474D01*
X172427215Y-112710452D01*
X172350201Y-112741173D01*
X172290815Y-112764378D01*
X172252209Y-112778810D01*
X172237800Y-112783257D01*
X172221272Y-112772104D01*
X172194930Y-112742931D01*
X172165887Y-112704029D01*
X172074039Y-112593243D01*
X171968759Y-112506649D01*
X171852266Y-112445284D01*
X171726776Y-112410185D01*
X171594507Y-112402392D01*
X171533457Y-112408057D01*
X171406795Y-112438922D01*
X171294941Y-112492080D01*
X171199001Y-112564233D01*
X171120076Y-112652083D01*
X171059270Y-112752335D01*
X171017687Y-112861690D01*
X170996428Y-112976853D01*
X170996599Y-113094525D01*
X171019301Y-113211410D01*
X171065638Y-113324211D01*
X171136713Y-113429631D01*
X171176911Y-113473632D01*
X171280129Y-113558021D01*
X171392925Y-113616778D01*
X171512010Y-113650296D01*
X171634095Y-113658965D01*
X171755893Y-113643177D01*
X171874116Y-113603322D01*
X171985475Y-113539793D01*
X172086684Y-113452979D01*
X172165887Y-113355971D01*
X172196162Y-113315563D01*
X172222219Y-113287018D01*
X172237825Y-113276743D01*
X172254843Y-113282123D01*
X172295500Y-113297425D01*
X172356642Y-113321388D01*
X172435119Y-113352756D01*
X172527780Y-113390268D01*
X172631472Y-113432667D01*
X172732526Y-113474337D01*
X172843607Y-113520310D01*
X172946541Y-113562893D01*
X173038165Y-113600779D01*
X173115316Y-113632660D01*
X173174831Y-113657229D01*
X173213544Y-113673180D01*
X173228000Y-113679090D01*
X173242685Y-113693052D01*
X173242642Y-113720060D01*
X173227099Y-113763587D01*
X173195284Y-113827110D01*
X173195013Y-113827612D01*
X173170323Y-113875440D01*
X173152338Y-113914103D01*
X173144614Y-113935905D01*
X173144543Y-113936867D01*
X173152378Y-113953279D01*
X173174165Y-113989513D01*
X173207328Y-114041526D01*
X173249291Y-114105275D01*
X173296943Y-114175940D01*
X173345191Y-114247884D01*
X173387151Y-114312726D01*
X173420227Y-114366265D01*
X173441821Y-114404303D01*
X173449343Y-114422467D01*
X173439457Y-114439192D01*
X173411826Y-114472820D01*
X173369495Y-114519990D01*
X173315505Y-114577342D01*
X173252899Y-114641516D01*
X173231983Y-114662503D01*
X173014623Y-114879501D01*
X172772220Y-114714332D01*
X172697781Y-114664136D01*
X172630972Y-114620081D01*
X172575665Y-114584638D01*
X172535729Y-114560281D01*
X172515036Y-114549478D01*
X172513563Y-114549162D01*
X172494058Y-114554857D01*
X172454822Y-114570174D01*
X172402430Y-114592463D01*
X172367355Y-114608107D01*
X172300201Y-114637359D01*
X172232358Y-114664906D01*
X172175034Y-114686263D01*
X172157572Y-114692065D01*
X172110938Y-114708548D01*
X172074905Y-114724660D01*
X172061287Y-114733510D01*
X172052952Y-114753040D01*
X172041137Y-114795666D01*
X172027181Y-114855855D01*
X172012422Y-114928078D01*
X172006355Y-114960400D01*
X171991273Y-115042478D01*
X171976669Y-115121205D01*
X171963980Y-115188891D01*
X171954642Y-115237840D01*
X171952839Y-115247057D01*
X171937799Y-115323257D01*
X171620492Y-115323257D01*
X171516154Y-115323086D01*
X171437213Y-115322384D01*
X171380038Y-115320866D01*
X171340999Y-115318251D01*
X171316465Y-115314254D01*
X171302805Y-115308591D01*
X171296389Y-115300980D01*
X171295199Y-115297857D01*
X171290980Y-115279022D01*
X171282562Y-115237412D01*
X171270961Y-115178370D01*
X171257195Y-115107243D01*
X171242280Y-115029375D01*
X171227232Y-114950113D01*
X171213069Y-114874802D01*
X171200806Y-114808787D01*
X171191461Y-114757413D01*
X171186050Y-114726025D01*
X171185114Y-114719041D01*
X171172596Y-114712715D01*
X171139246Y-114698710D01*
X171091377Y-114679645D01*
X171072629Y-114672366D01*
X171000195Y-114643004D01*
X170920170Y-114608429D01*
X170852728Y-114577463D01*
X170801159Y-114554677D01*
X170758785Y-114539518D01*
X170732834Y-114534458D01*
X170729356Y-114535264D01*
X170712936Y-114545959D01*
X170676417Y-114570380D01*
X170623687Y-114605905D01*
X170558635Y-114649913D01*
X170485151Y-114699783D01*
X170470645Y-114709644D01*
X170384704Y-114767508D01*
X170319261Y-114810044D01*
X170271304Y-114838946D01*
X170237820Y-114855910D01*
X170215795Y-114862633D01*
X170202217Y-114860810D01*
X170202131Y-114860764D01*
X170184297Y-114846414D01*
X170149817Y-114814677D01*
X170102268Y-114768990D01*
X170045222Y-114712796D01*
X169982255Y-114649532D01*
X169975227Y-114642398D01*
X169898020Y-114562670D01*
X169841330Y-114501143D01*
X169804110Y-114456579D01*
X169785315Y-114427743D01*
X169782889Y-114415042D01*
X169793471Y-114396506D01*
X169817916Y-114358039D01*
X169853612Y-114303614D01*
X169897947Y-114237202D01*
X169948311Y-114162775D01*
X169960160Y-114145399D01*
X170128626Y-113898703D01*
X170078062Y-113787294D01*
X170048595Y-113719543D01*
X170018959Y-113646817D01*
X169995330Y-113584297D01*
X169994358Y-113581543D01*
X169976457Y-113532640D01*
X169961320Y-113494943D01*
X169952210Y-113476575D01*
X169952184Y-113476544D01*
X169935717Y-113470715D01*
X169895219Y-113460808D01*
X169835242Y-113447805D01*
X169760340Y-113432691D01*
X169675064Y-113416448D01*
X169667875Y-113415119D01*
X169580014Y-113398825D01*
X169500260Y-113383867D01*
X169433681Y-113371209D01*
X169385347Y-113361814D01*
X169360325Y-113356646D01*
X169359943Y-113356556D01*
X169349299Y-113353411D01*
X169341262Y-113347296D01*
X169335467Y-113334547D01*
X169331547Y-113311500D01*
X169329135Y-113274491D01*
X169327865Y-113219856D01*
X169327371Y-113143933D01*
X169327286Y-113043056D01*
X169327286Y-113030000D01*
X169327348Y-112926090D01*
X169327348Y-112926090D01*
G37*
X169327348Y-112926090D02*
X169327778Y-112847546D01*
X169328942Y-112790702D01*
X169331207Y-112751895D01*
X169334940Y-112727462D01*
X169340506Y-112713738D01*
X169348273Y-112707060D01*
X169358605Y-112703764D01*
X169359943Y-112703444D01*
X169384079Y-112698438D01*
X169431701Y-112689171D01*
X169497741Y-112676608D01*
X169577128Y-112661713D01*
X169664796Y-112645449D01*
X169667875Y-112644881D01*
X169753789Y-112628590D01*
X169829696Y-112613348D01*
X169891045Y-112600139D01*
X169933282Y-112589946D01*
X169951855Y-112583752D01*
X169952184Y-112583457D01*
X169961253Y-112565212D01*
X169976367Y-112527595D01*
X169994262Y-112478729D01*
X169994358Y-112478457D01*
X170017493Y-112416907D01*
X170046965Y-112344343D01*
X170076597Y-112275943D01*
X170078062Y-112272706D01*
X170128626Y-112161298D01*
X169960160Y-111914601D01*
X169908803Y-111838923D01*
X169862889Y-111770369D01*
X169825030Y-111712912D01*
X169797837Y-111670524D01*
X169783921Y-111647175D01*
X169782889Y-111644958D01*
X169787484Y-111627990D01*
X169809655Y-111596299D01*
X169850447Y-111548648D01*
X169910905Y-111483802D01*
X169975227Y-111417603D01*
X170038612Y-111353786D01*
X170096451Y-111296671D01*
X170145175Y-111249695D01*
X170181210Y-111216297D01*
X170200984Y-111199915D01*
X170202002Y-111199306D01*
X170215572Y-111197495D01*
X170237733Y-111204317D01*
X170271478Y-111221460D01*
X170319800Y-111250607D01*
X170385692Y-111293445D01*
X170470517Y-111350552D01*
X170545177Y-111401234D01*
X170612140Y-111446539D01*
X170667516Y-111483850D01*
X170707420Y-111510548D01*
X170727962Y-111524015D01*
X170729356Y-111524863D01*
X170749038Y-111523219D01*
X170787293Y-111510755D01*
X170836889Y-111489952D01*
X170852728Y-111482538D01*
X170923290Y-111450186D01*
X171003353Y-111415672D01*
X171072629Y-111387635D01*
X171124045Y-111367432D01*
X171163119Y-111351385D01*
X171183541Y-111342112D01*
X171185114Y-111340959D01*
X171187721Y-111323904D01*
X171194863Y-111283702D01*
X171205523Y-111225698D01*
X171218685Y-111155237D01*
X171233333Y-111077665D01*
X171248449Y-110998328D01*
X171263018Y-110922569D01*
X171276022Y-110855736D01*
X171286445Y-110803172D01*
X171293270Y-110770224D01*
X171295199Y-110762143D01*
X171299962Y-110753795D01*
X171310718Y-110747494D01*
X171331098Y-110742955D01*
X171364734Y-110739896D01*
X171415255Y-110738033D01*
X171486292Y-110737082D01*
X171581476Y-110736760D01*
X171620492Y-110736743D01*
X171937799Y-110736743D01*
X171952839Y-110812943D01*
X171960995Y-110855337D01*
X171972899Y-110918600D01*
X171987116Y-110995038D01*
X172002210Y-111076957D01*
X172006355Y-111099600D01*
X172021053Y-111175194D01*
X172035505Y-111241047D01*
X172048375Y-111291634D01*
X172058322Y-111321426D01*
X172061287Y-111326388D01*
X172082283Y-111338574D01*
X172122967Y-111356047D01*
X172175322Y-111375423D01*
X172186600Y-111379266D01*
X172256523Y-111404661D01*
X172335418Y-111436183D01*
X172406266Y-111467031D01*
X172406595Y-111467183D01*
X172517733Y-111518553D01*
X172766253Y-111349601D01*
X173014772Y-111180648D01*
X173232058Y-111397571D01*
X173296726Y-111463181D01*
X173353733Y-111523021D01*
X173400033Y-111573733D01*
X173432584Y-111611954D01*
X173448343Y-111634325D01*
X173449343Y-111637534D01*
X173441469Y-111656374D01*
X173419578Y-111694820D01*
X173386267Y-111748670D01*
X173344131Y-111813724D01*
X173296943Y-111884060D01*
X173248810Y-111955445D01*
X173206928Y-112019092D01*
X173173871Y-112070959D01*
X173152218Y-112107005D01*
X173144543Y-112123133D01*
X173151037Y-112142811D01*
X173168150Y-112180125D01*
X173192326Y-112227379D01*
X173195013Y-112232388D01*
X173226927Y-112296023D01*
X173242579Y-112339659D01*
X173242745Y-112366798D01*
X173228204Y-112380943D01*
X173228000Y-112381025D01*
X173210779Y-112388095D01*
X173169899Y-112404958D01*
X173108525Y-112430305D01*
X173029819Y-112462829D01*
X172936947Y-112501222D01*
X172833072Y-112544178D01*
X172732502Y-112585778D01*
X172621516Y-112631496D01*
X172518703Y-112673474D01*
X172427215Y-112710452D01*
X172350201Y-112741173D01*
X172290815Y-112764378D01*
X172252209Y-112778810D01*
X172237800Y-112783257D01*
X172221272Y-112772104D01*
X172194930Y-112742931D01*
X172165887Y-112704029D01*
X172074039Y-112593243D01*
X171968759Y-112506649D01*
X171852266Y-112445284D01*
X171726776Y-112410185D01*
X171594507Y-112402392D01*
X171533457Y-112408057D01*
X171406795Y-112438922D01*
X171294941Y-112492080D01*
X171199001Y-112564233D01*
X171120076Y-112652083D01*
X171059270Y-112752335D01*
X171017687Y-112861690D01*
X170996428Y-112976853D01*
X170996599Y-113094525D01*
X171019301Y-113211410D01*
X171065638Y-113324211D01*
X171136713Y-113429631D01*
X171176911Y-113473632D01*
X171280129Y-113558021D01*
X171392925Y-113616778D01*
X171512010Y-113650296D01*
X171634095Y-113658965D01*
X171755893Y-113643177D01*
X171874116Y-113603322D01*
X171985475Y-113539793D01*
X172086684Y-113452979D01*
X172165887Y-113355971D01*
X172196162Y-113315563D01*
X172222219Y-113287018D01*
X172237825Y-113276743D01*
X172254843Y-113282123D01*
X172295500Y-113297425D01*
X172356642Y-113321388D01*
X172435119Y-113352756D01*
X172527780Y-113390268D01*
X172631472Y-113432667D01*
X172732526Y-113474337D01*
X172843607Y-113520310D01*
X172946541Y-113562893D01*
X173038165Y-113600779D01*
X173115316Y-113632660D01*
X173174831Y-113657229D01*
X173213544Y-113673180D01*
X173228000Y-113679090D01*
X173242685Y-113693052D01*
X173242642Y-113720060D01*
X173227099Y-113763587D01*
X173195284Y-113827110D01*
X173195013Y-113827612D01*
X173170323Y-113875440D01*
X173152338Y-113914103D01*
X173144614Y-113935905D01*
X173144543Y-113936867D01*
X173152378Y-113953279D01*
X173174165Y-113989513D01*
X173207328Y-114041526D01*
X173249291Y-114105275D01*
X173296943Y-114175940D01*
X173345191Y-114247884D01*
X173387151Y-114312726D01*
X173420227Y-114366265D01*
X173441821Y-114404303D01*
X173449343Y-114422467D01*
X173439457Y-114439192D01*
X173411826Y-114472820D01*
X173369495Y-114519990D01*
X173315505Y-114577342D01*
X173252899Y-114641516D01*
X173231983Y-114662503D01*
X173014623Y-114879501D01*
X172772220Y-114714332D01*
X172697781Y-114664136D01*
X172630972Y-114620081D01*
X172575665Y-114584638D01*
X172535729Y-114560281D01*
X172515036Y-114549478D01*
X172513563Y-114549162D01*
X172494058Y-114554857D01*
X172454822Y-114570174D01*
X172402430Y-114592463D01*
X172367355Y-114608107D01*
X172300201Y-114637359D01*
X172232358Y-114664906D01*
X172175034Y-114686263D01*
X172157572Y-114692065D01*
X172110938Y-114708548D01*
X172074905Y-114724660D01*
X172061287Y-114733510D01*
X172052952Y-114753040D01*
X172041137Y-114795666D01*
X172027181Y-114855855D01*
X172012422Y-114928078D01*
X172006355Y-114960400D01*
X171991273Y-115042478D01*
X171976669Y-115121205D01*
X171963980Y-115188891D01*
X171954642Y-115237840D01*
X171952839Y-115247057D01*
X171937799Y-115323257D01*
X171620492Y-115323257D01*
X171516154Y-115323086D01*
X171437213Y-115322384D01*
X171380038Y-115320866D01*
X171340999Y-115318251D01*
X171316465Y-115314254D01*
X171302805Y-115308591D01*
X171296389Y-115300980D01*
X171295199Y-115297857D01*
X171290980Y-115279022D01*
X171282562Y-115237412D01*
X171270961Y-115178370D01*
X171257195Y-115107243D01*
X171242280Y-115029375D01*
X171227232Y-114950113D01*
X171213069Y-114874802D01*
X171200806Y-114808787D01*
X171191461Y-114757413D01*
X171186050Y-114726025D01*
X171185114Y-114719041D01*
X171172596Y-114712715D01*
X171139246Y-114698710D01*
X171091377Y-114679645D01*
X171072629Y-114672366D01*
X171000195Y-114643004D01*
X170920170Y-114608429D01*
X170852728Y-114577463D01*
X170801159Y-114554677D01*
X170758785Y-114539518D01*
X170732834Y-114534458D01*
X170729356Y-114535264D01*
X170712936Y-114545959D01*
X170676417Y-114570380D01*
X170623687Y-114605905D01*
X170558635Y-114649913D01*
X170485151Y-114699783D01*
X170470645Y-114709644D01*
X170384704Y-114767508D01*
X170319261Y-114810044D01*
X170271304Y-114838946D01*
X170237820Y-114855910D01*
X170215795Y-114862633D01*
X170202217Y-114860810D01*
X170202131Y-114860764D01*
X170184297Y-114846414D01*
X170149817Y-114814677D01*
X170102268Y-114768990D01*
X170045222Y-114712796D01*
X169982255Y-114649532D01*
X169975227Y-114642398D01*
X169898020Y-114562670D01*
X169841330Y-114501143D01*
X169804110Y-114456579D01*
X169785315Y-114427743D01*
X169782889Y-114415042D01*
X169793471Y-114396506D01*
X169817916Y-114358039D01*
X169853612Y-114303614D01*
X169897947Y-114237202D01*
X169948311Y-114162775D01*
X169960160Y-114145399D01*
X170128626Y-113898703D01*
X170078062Y-113787294D01*
X170048595Y-113719543D01*
X170018959Y-113646817D01*
X169995330Y-113584297D01*
X169994358Y-113581543D01*
X169976457Y-113532640D01*
X169961320Y-113494943D01*
X169952210Y-113476575D01*
X169952184Y-113476544D01*
X169935717Y-113470715D01*
X169895219Y-113460808D01*
X169835242Y-113447805D01*
X169760340Y-113432691D01*
X169675064Y-113416448D01*
X169667875Y-113415119D01*
X169580014Y-113398825D01*
X169500260Y-113383867D01*
X169433681Y-113371209D01*
X169385347Y-113361814D01*
X169360325Y-113356646D01*
X169359943Y-113356556D01*
X169349299Y-113353411D01*
X169341262Y-113347296D01*
X169335467Y-113334547D01*
X169331547Y-113311500D01*
X169329135Y-113274491D01*
X169327865Y-113219856D01*
X169327371Y-113143933D01*
X169327286Y-113043056D01*
X169327286Y-113030000D01*
X169327348Y-112926090D01*
G36*
X174051966Y-109876405D02*
X174089497Y-109818979D01*
X174123096Y-109791281D01*
X174184064Y-109769338D01*
X174232308Y-109767595D01*
X174296816Y-109771543D01*
X174361934Y-109920314D01*
X174395202Y-109992651D01*
X174421964Y-110039916D01*
X174445144Y-110064493D01*
X174467667Y-110068763D01*
X174492455Y-110055111D01*
X174508886Y-110040057D01*
X174535235Y-109996254D01*
X174537081Y-109948611D01*
X174516546Y-109904855D01*
X174475752Y-109872711D01*
X174461347Y-109866962D01*
X174416356Y-109839424D01*
X174397182Y-109807742D01*
X174380779Y-109764286D01*
X174442966Y-109764286D01*
X174485283Y-109768128D01*
X174520969Y-109783177D01*
X174561943Y-109814720D01*
X174567267Y-109819408D01*
X174603720Y-109854494D01*
X174623283Y-109884653D01*
X174632283Y-109922385D01*
X174635230Y-109953665D01*
X174635965Y-110009615D01*
X174626660Y-110049445D01*
X174612846Y-110074292D01*
X174582467Y-110113344D01*
X174549613Y-110140375D01*
X174508294Y-110157483D01*
X174452521Y-110166762D01*
X174376305Y-110170307D01*
X174337622Y-110170590D01*
X174291247Y-110169628D01*
X174291247Y-110081993D01*
X174316126Y-110080977D01*
X174320200Y-110078444D01*
X174314665Y-110061726D01*
X174300017Y-110025751D01*
X174279190Y-109977669D01*
X174274714Y-109967614D01*
X174243814Y-109906848D01*
X174216657Y-109873368D01*
X174191220Y-109866010D01*
X174165481Y-109883609D01*
X174154109Y-109898144D01*
X174131364Y-109950590D01*
X174135122Y-109999678D01*
X174162884Y-110040773D01*
X174212152Y-110069242D01*
X174251257Y-110078369D01*
X174291247Y-110081993D01*
X174291247Y-110169628D01*
X174247249Y-110168715D01*
X174180384Y-110161804D01*
X174131695Y-110148116D01*
X174095849Y-110125904D01*
X174067513Y-110093426D01*
X174058355Y-110079267D01*
X174034507Y-110014947D01*
X174033006Y-109944527D01*
X174051966Y-109876405D01*
X174051966Y-109876405D01*
G37*
X174051966Y-109876405D02*
X174089497Y-109818979D01*
X174123096Y-109791281D01*
X174184064Y-109769338D01*
X174232308Y-109767595D01*
X174296816Y-109771543D01*
X174361934Y-109920314D01*
X174395202Y-109992651D01*
X174421964Y-110039916D01*
X174445144Y-110064493D01*
X174467667Y-110068763D01*
X174492455Y-110055111D01*
X174508886Y-110040057D01*
X174535235Y-109996254D01*
X174537081Y-109948611D01*
X174516546Y-109904855D01*
X174475752Y-109872711D01*
X174461347Y-109866962D01*
X174416356Y-109839424D01*
X174397182Y-109807742D01*
X174380779Y-109764286D01*
X174442966Y-109764286D01*
X174485283Y-109768128D01*
X174520969Y-109783177D01*
X174561943Y-109814720D01*
X174567267Y-109819408D01*
X174603720Y-109854494D01*
X174623283Y-109884653D01*
X174632283Y-109922385D01*
X174635230Y-109953665D01*
X174635965Y-110009615D01*
X174626660Y-110049445D01*
X174612846Y-110074292D01*
X174582467Y-110113344D01*
X174549613Y-110140375D01*
X174508294Y-110157483D01*
X174452521Y-110166762D01*
X174376305Y-110170307D01*
X174337622Y-110170590D01*
X174291247Y-110169628D01*
X174291247Y-110081993D01*
X174316126Y-110080977D01*
X174320200Y-110078444D01*
X174314665Y-110061726D01*
X174300017Y-110025751D01*
X174279190Y-109977669D01*
X174274714Y-109967614D01*
X174243814Y-109906848D01*
X174216657Y-109873368D01*
X174191220Y-109866010D01*
X174165481Y-109883609D01*
X174154109Y-109898144D01*
X174131364Y-109950590D01*
X174135122Y-109999678D01*
X174162884Y-110040773D01*
X174212152Y-110069242D01*
X174251257Y-110078369D01*
X174291247Y-110081993D01*
X174291247Y-110169628D01*
X174247249Y-110168715D01*
X174180384Y-110161804D01*
X174131695Y-110148116D01*
X174095849Y-110125904D01*
X174067513Y-110093426D01*
X174058355Y-110079267D01*
X174034507Y-110014947D01*
X174033006Y-109944527D01*
X174051966Y-109876405D01*
G36*
X174043752Y-110377400D02*
X174051334Y-110360052D01*
X174084128Y-110318644D01*
X174131547Y-110283235D01*
X174182151Y-110261336D01*
X174207098Y-110257771D01*
X174241927Y-110269721D01*
X174260357Y-110295933D01*
X174271516Y-110324036D01*
X174273572Y-110336905D01*
X174258649Y-110343171D01*
X174226175Y-110355544D01*
X174211502Y-110360972D01*
X174160744Y-110391410D01*
X174135427Y-110435480D01*
X174136206Y-110491990D01*
X174137203Y-110496175D01*
X174151507Y-110526345D01*
X174179393Y-110548524D01*
X174224287Y-110563673D01*
X174289615Y-110572750D01*
X174378804Y-110576714D01*
X174426261Y-110577086D01*
X174501071Y-110577270D01*
X174552069Y-110578478D01*
X174584471Y-110581691D01*
X174603495Y-110587891D01*
X174614356Y-110598060D01*
X174622272Y-110613181D01*
X174622670Y-110614054D01*
X174634981Y-110643172D01*
X174639514Y-110657597D01*
X174625809Y-110659814D01*
X174587925Y-110661711D01*
X174530715Y-110663153D01*
X174459027Y-110664002D01*
X174406565Y-110664171D01*
X174305047Y-110663308D01*
X174228032Y-110659930D01*
X174171023Y-110652858D01*
X174129526Y-110640912D01*
X174099043Y-110622910D01*
X174075080Y-110597673D01*
X174058355Y-110572753D01*
X174036097Y-110512829D01*
X174031076Y-110443089D01*
X174043752Y-110377400D01*
X174043752Y-110377400D01*
G37*
X174043752Y-110377400D02*
X174051334Y-110360052D01*
X174084128Y-110318644D01*
X174131547Y-110283235D01*
X174182151Y-110261336D01*
X174207098Y-110257771D01*
X174241927Y-110269721D01*
X174260357Y-110295933D01*
X174271516Y-110324036D01*
X174273572Y-110336905D01*
X174258649Y-110343171D01*
X174226175Y-110355544D01*
X174211502Y-110360972D01*
X174160744Y-110391410D01*
X174135427Y-110435480D01*
X174136206Y-110491990D01*
X174137203Y-110496175D01*
X174151507Y-110526345D01*
X174179393Y-110548524D01*
X174224287Y-110563673D01*
X174289615Y-110572750D01*
X174378804Y-110576714D01*
X174426261Y-110577086D01*
X174501071Y-110577270D01*
X174552069Y-110578478D01*
X174584471Y-110581691D01*
X174603495Y-110587891D01*
X174614356Y-110598060D01*
X174622272Y-110613181D01*
X174622670Y-110614054D01*
X174634981Y-110643172D01*
X174639514Y-110657597D01*
X174625809Y-110659814D01*
X174587925Y-110661711D01*
X174530715Y-110663153D01*
X174459027Y-110664002D01*
X174406565Y-110664171D01*
X174305047Y-110663308D01*
X174228032Y-110659930D01*
X174171023Y-110652858D01*
X174129526Y-110640912D01*
X174099043Y-110622910D01*
X174075080Y-110597673D01*
X174058355Y-110572753D01*
X174036097Y-110512829D01*
X174031076Y-110443089D01*
X174043752Y-110377400D01*
G36*
X174041335Y-110885124D02*
X174060344Y-110843333D01*
X174083378Y-110810531D01*
X174109133Y-110786497D01*
X174142358Y-110769903D01*
X174187800Y-110759423D01*
X174250207Y-110753729D01*
X174334327Y-110751493D01*
X174389721Y-110751257D01*
X174605826Y-110751257D01*
X174622670Y-110788226D01*
X174634981Y-110817344D01*
X174639514Y-110831769D01*
X174626025Y-110834528D01*
X174589653Y-110836718D01*
X174536542Y-110838058D01*
X174494372Y-110838343D01*
X174433447Y-110839566D01*
X174385115Y-110842864D01*
X174355518Y-110847679D01*
X174349229Y-110851504D01*
X174355652Y-110877217D01*
X174372125Y-110917582D01*
X174394458Y-110964321D01*
X174418457Y-111009155D01*
X174439930Y-111043807D01*
X174454685Y-111059998D01*
X174454845Y-111060062D01*
X174482152Y-111058670D01*
X174508219Y-111046182D01*
X174529392Y-111024257D01*
X174536474Y-110992257D01*
X174535649Y-110964908D01*
X174535042Y-110926174D01*
X174544116Y-110905842D01*
X174568092Y-110893631D01*
X174572613Y-110892091D01*
X174606806Y-110886797D01*
X174627568Y-110900953D01*
X174637462Y-110937852D01*
X174639292Y-110977711D01*
X174625727Y-111049438D01*
X174606355Y-111086568D01*
X174560845Y-111132424D01*
X174504983Y-111156744D01*
X174445957Y-111158927D01*
X174390953Y-111138371D01*
X174356486Y-111107451D01*
X174337189Y-111076580D01*
X174312759Y-111028058D01*
X174287985Y-110971515D01*
X174284199Y-110962090D01*
X174256791Y-110899981D01*
X174232634Y-110864178D01*
X174208619Y-110852663D01*
X174181635Y-110863420D01*
X174160543Y-110881886D01*
X174134572Y-110925531D01*
X174132624Y-110973554D01*
X174152637Y-111017594D01*
X174192551Y-111049291D01*
X174202848Y-111053451D01*
X174240724Y-111077673D01*
X174268842Y-111113035D01*
X174291917Y-111157657D01*
X174226485Y-111157657D01*
X174186506Y-111155031D01*
X174154997Y-111143770D01*
X174121378Y-111118801D01*
X174095484Y-111094831D01*
X174058817Y-111057559D01*
X174039121Y-111028599D01*
X174031220Y-110997495D01*
X174029914Y-110962287D01*
X174041335Y-110885124D01*
X174041335Y-110885124D01*
G37*
X174041335Y-110885124D02*
X174060344Y-110843333D01*
X174083378Y-110810531D01*
X174109133Y-110786497D01*
X174142358Y-110769903D01*
X174187800Y-110759423D01*
X174250207Y-110753729D01*
X174334327Y-110751493D01*
X174389721Y-110751257D01*
X174605826Y-110751257D01*
X174622670Y-110788226D01*
X174634981Y-110817344D01*
X174639514Y-110831769D01*
X174626025Y-110834528D01*
X174589653Y-110836718D01*
X174536542Y-110838058D01*
X174494372Y-110838343D01*
X174433447Y-110839566D01*
X174385115Y-110842864D01*
X174355518Y-110847679D01*
X174349229Y-110851504D01*
X174355652Y-110877217D01*
X174372125Y-110917582D01*
X174394458Y-110964321D01*
X174418457Y-111009155D01*
X174439930Y-111043807D01*
X174454685Y-111059998D01*
X174454845Y-111060062D01*
X174482152Y-111058670D01*
X174508219Y-111046182D01*
X174529392Y-111024257D01*
X174536474Y-110992257D01*
X174535649Y-110964908D01*
X174535042Y-110926174D01*
X174544116Y-110905842D01*
X174568092Y-110893631D01*
X174572613Y-110892091D01*
X174606806Y-110886797D01*
X174627568Y-110900953D01*
X174637462Y-110937852D01*
X174639292Y-110977711D01*
X174625727Y-111049438D01*
X174606355Y-111086568D01*
X174560845Y-111132424D01*
X174504983Y-111156744D01*
X174445957Y-111158927D01*
X174390953Y-111138371D01*
X174356486Y-111107451D01*
X174337189Y-111076580D01*
X174312759Y-111028058D01*
X174287985Y-110971515D01*
X174284199Y-110962090D01*
X174256791Y-110899981D01*
X174232634Y-110864178D01*
X174208619Y-110852663D01*
X174181635Y-110863420D01*
X174160543Y-110881886D01*
X174134572Y-110925531D01*
X174132624Y-110973554D01*
X174152637Y-111017594D01*
X174192551Y-111049291D01*
X174202848Y-111053451D01*
X174240724Y-111077673D01*
X174268842Y-111113035D01*
X174291917Y-111157657D01*
X174226485Y-111157657D01*
X174186506Y-111155031D01*
X174154997Y-111143770D01*
X174121378Y-111118801D01*
X174095484Y-111094831D01*
X174058817Y-111057559D01*
X174039121Y-111028599D01*
X174031220Y-110997495D01*
X174029914Y-110962287D01*
X174041335Y-110885124D01*
G36*
X174043663Y-111250167D02*
X174081850Y-111247952D01*
X174139886Y-111246216D01*
X174213180Y-111245101D01*
X174290055Y-111244743D01*
X174550196Y-111244743D01*
X174596127Y-111290674D01*
X174624429Y-111322325D01*
X174635893Y-111350110D01*
X174635168Y-111388085D01*
X174633321Y-111403160D01*
X174627948Y-111450274D01*
X174624869Y-111489244D01*
X174624585Y-111498743D01*
X174626445Y-111530767D01*
X174631114Y-111576568D01*
X174633321Y-111594326D01*
X174636735Y-111637943D01*
X174629320Y-111667255D01*
X174606427Y-111696320D01*
X174596127Y-111706812D01*
X174550196Y-111752743D01*
X174063602Y-111752743D01*
X174046758Y-111715774D01*
X174034282Y-111683941D01*
X174029914Y-111665317D01*
X174043718Y-111660542D01*
X174082286Y-111656079D01*
X174141356Y-111652225D01*
X174216663Y-111649278D01*
X174280286Y-111647857D01*
X174530657Y-111643886D01*
X174535556Y-111609241D01*
X174532131Y-111577732D01*
X174521041Y-111562292D01*
X174500308Y-111557977D01*
X174456145Y-111554292D01*
X174394146Y-111551531D01*
X174319909Y-111549988D01*
X174281706Y-111549765D01*
X174061783Y-111549543D01*
X174045849Y-111503834D01*
X174035015Y-111471482D01*
X174029962Y-111453885D01*
X174029914Y-111453377D01*
X174043648Y-111451612D01*
X174081730Y-111449671D01*
X174139482Y-111447718D01*
X174212227Y-111445916D01*
X174280286Y-111444657D01*
X174530657Y-111440686D01*
X174530657Y-111353600D01*
X174302240Y-111349604D01*
X174073822Y-111345608D01*
X174051868Y-111303153D01*
X174036793Y-111271808D01*
X174029951Y-111253256D01*
X174029914Y-111252721D01*
X174043663Y-111250167D01*
X174043663Y-111250167D01*
G37*
X174043663Y-111250167D02*
X174081850Y-111247952D01*
X174139886Y-111246216D01*
X174213180Y-111245101D01*
X174290055Y-111244743D01*
X174550196Y-111244743D01*
X174596127Y-111290674D01*
X174624429Y-111322325D01*
X174635893Y-111350110D01*
X174635168Y-111388085D01*
X174633321Y-111403160D01*
X174627948Y-111450274D01*
X174624869Y-111489244D01*
X174624585Y-111498743D01*
X174626445Y-111530767D01*
X174631114Y-111576568D01*
X174633321Y-111594326D01*
X174636735Y-111637943D01*
X174629320Y-111667255D01*
X174606427Y-111696320D01*
X174596127Y-111706812D01*
X174550196Y-111752743D01*
X174063602Y-111752743D01*
X174046758Y-111715774D01*
X174034282Y-111683941D01*
X174029914Y-111665317D01*
X174043718Y-111660542D01*
X174082286Y-111656079D01*
X174141356Y-111652225D01*
X174216663Y-111649278D01*
X174280286Y-111647857D01*
X174530657Y-111643886D01*
X174535556Y-111609241D01*
X174532131Y-111577732D01*
X174521041Y-111562292D01*
X174500308Y-111557977D01*
X174456145Y-111554292D01*
X174394146Y-111551531D01*
X174319909Y-111549988D01*
X174281706Y-111549765D01*
X174061783Y-111549543D01*
X174045849Y-111503834D01*
X174035015Y-111471482D01*
X174029962Y-111453885D01*
X174029914Y-111453377D01*
X174043648Y-111451612D01*
X174081730Y-111449671D01*
X174139482Y-111447718D01*
X174212227Y-111445916D01*
X174280286Y-111444657D01*
X174530657Y-111440686D01*
X174530657Y-111353600D01*
X174302240Y-111349604D01*
X174073822Y-111345608D01*
X174051868Y-111303153D01*
X174036793Y-111271808D01*
X174029951Y-111253256D01*
X174029914Y-111252721D01*
X174043663Y-111250167D01*
G36*
X174150358Y-111839883D02*
X174258837Y-111840067D01*
X174342287Y-111840781D01*
X174404704Y-111842325D01*
X174450085Y-111844999D01*
X174482429Y-111849106D01*
X174505733Y-111854945D01*
X174523995Y-111862818D01*
X174534418Y-111868779D01*
X174590945Y-111918145D01*
X174626377Y-111980736D01*
X174639090Y-112049987D01*
X174627463Y-112119332D01*
X174606568Y-112160625D01*
X174570422Y-112203975D01*
X174526276Y-112233519D01*
X174468462Y-112251345D01*
X174391313Y-112259537D01*
X174334714Y-112260698D01*
X174330647Y-112260542D01*
X174330647Y-112159143D01*
X174395550Y-112158524D01*
X174438514Y-112155686D01*
X174466622Y-112149160D01*
X174486953Y-112137477D01*
X174502288Y-112123517D01*
X174531890Y-112076635D01*
X174534419Y-112026299D01*
X174509705Y-111978724D01*
X174506356Y-111975021D01*
X174488935Y-111959217D01*
X174468209Y-111949307D01*
X174437362Y-111943942D01*
X174389577Y-111941772D01*
X174336748Y-111941429D01*
X174270381Y-111942173D01*
X174226106Y-111945252D01*
X174197009Y-111951939D01*
X174176173Y-111963504D01*
X174165107Y-111972987D01*
X174137198Y-112017040D01*
X174133843Y-112067776D01*
X174155159Y-112116204D01*
X174163073Y-112125550D01*
X174180647Y-112141460D01*
X174201587Y-112151390D01*
X174232782Y-112156722D01*
X174281122Y-112158837D01*
X174330647Y-112159143D01*
X174330647Y-112260542D01*
X174243568Y-112257190D01*
X174175086Y-112245274D01*
X174123600Y-112222865D01*
X174083443Y-112187876D01*
X174062861Y-112160625D01*
X174040625Y-112111093D01*
X174030304Y-112053684D01*
X174033067Y-112000318D01*
X174044212Y-111970457D01*
X174047383Y-111958739D01*
X174035557Y-111950963D01*
X174003866Y-111945535D01*
X173955593Y-111941429D01*
X173901829Y-111936933D01*
X173869482Y-111930687D01*
X173850985Y-111919324D01*
X173838770Y-111899472D01*
X173833362Y-111887000D01*
X173813601Y-111839829D01*
X174150358Y-111839883D01*
X174150358Y-111839883D01*
G37*
X174150358Y-111839883D02*
X174258837Y-111840067D01*
X174342287Y-111840781D01*
X174404704Y-111842325D01*
X174450085Y-111844999D01*
X174482429Y-111849106D01*
X174505733Y-111854945D01*
X174523995Y-111862818D01*
X174534418Y-111868779D01*
X174590945Y-111918145D01*
X174626377Y-111980736D01*
X174639090Y-112049987D01*
X174627463Y-112119332D01*
X174606568Y-112160625D01*
X174570422Y-112203975D01*
X174526276Y-112233519D01*
X174468462Y-112251345D01*
X174391313Y-112259537D01*
X174334714Y-112260698D01*
X174330647Y-112260542D01*
X174330647Y-112159143D01*
X174395550Y-112158524D01*
X174438514Y-112155686D01*
X174466622Y-112149160D01*
X174486953Y-112137477D01*
X174502288Y-112123517D01*
X174531890Y-112076635D01*
X174534419Y-112026299D01*
X174509705Y-111978724D01*
X174506356Y-111975021D01*
X174488935Y-111959217D01*
X174468209Y-111949307D01*
X174437362Y-111943942D01*
X174389577Y-111941772D01*
X174336748Y-111941429D01*
X174270381Y-111942173D01*
X174226106Y-111945252D01*
X174197009Y-111951939D01*
X174176173Y-111963504D01*
X174165107Y-111972987D01*
X174137198Y-112017040D01*
X174133843Y-112067776D01*
X174155159Y-112116204D01*
X174163073Y-112125550D01*
X174180647Y-112141460D01*
X174201587Y-112151390D01*
X174232782Y-112156722D01*
X174281122Y-112158837D01*
X174330647Y-112159143D01*
X174330647Y-112260542D01*
X174243568Y-112257190D01*
X174175086Y-112245274D01*
X174123600Y-112222865D01*
X174083443Y-112187876D01*
X174062861Y-112160625D01*
X174040625Y-112111093D01*
X174030304Y-112053684D01*
X174033067Y-112000318D01*
X174044212Y-111970457D01*
X174047383Y-111958739D01*
X174035557Y-111950963D01*
X174003866Y-111945535D01*
X173955593Y-111941429D01*
X173901829Y-111936933D01*
X173869482Y-111930687D01*
X173850985Y-111919324D01*
X173838770Y-111899472D01*
X173833362Y-111887000D01*
X173813601Y-111839829D01*
X174150358Y-111839883D01*
G36*
X174034755Y-112500074D02*
X174059084Y-112434142D01*
X174102117Y-112380727D01*
X174132409Y-112359836D01*
X174187994Y-112337061D01*
X174228186Y-112337534D01*
X174255217Y-112361438D01*
X174259813Y-112370283D01*
X174274144Y-112408470D01*
X174270472Y-112427972D01*
X174246407Y-112434578D01*
X174233114Y-112434914D01*
X174184210Y-112447008D01*
X174149999Y-112478529D01*
X174133476Y-112522341D01*
X174137634Y-112571305D01*
X174159227Y-112611106D01*
X174171544Y-112624550D01*
X174186487Y-112634079D01*
X174209075Y-112640515D01*
X174244328Y-112644683D01*
X174297266Y-112647403D01*
X174372907Y-112649498D01*
X174396857Y-112650040D01*
X174478790Y-112652019D01*
X174536455Y-112654269D01*
X174574608Y-112657643D01*
X174598004Y-112662994D01*
X174611398Y-112671176D01*
X174619545Y-112683041D01*
X174623144Y-112690638D01*
X174635452Y-112722898D01*
X174639514Y-112741889D01*
X174625948Y-112748164D01*
X174584934Y-112751994D01*
X174515999Y-112753400D01*
X174418669Y-112752402D01*
X174403657Y-112752092D01*
X174314859Y-112749899D01*
X174250019Y-112747307D01*
X174204067Y-112743618D01*
X174171935Y-112738136D01*
X174148553Y-112730165D01*
X174128852Y-112719007D01*
X174120410Y-112713170D01*
X174083057Y-112679704D01*
X174054003Y-112642273D01*
X174051467Y-112637691D01*
X174031443Y-112570574D01*
X174034755Y-112500074D01*
X174034755Y-112500074D01*
G37*
X174034755Y-112500074D02*
X174059084Y-112434142D01*
X174102117Y-112380727D01*
X174132409Y-112359836D01*
X174187994Y-112337061D01*
X174228186Y-112337534D01*
X174255217Y-112361438D01*
X174259813Y-112370283D01*
X174274144Y-112408470D01*
X174270472Y-112427972D01*
X174246407Y-112434578D01*
X174233114Y-112434914D01*
X174184210Y-112447008D01*
X174149999Y-112478529D01*
X174133476Y-112522341D01*
X174137634Y-112571305D01*
X174159227Y-112611106D01*
X174171544Y-112624550D01*
X174186487Y-112634079D01*
X174209075Y-112640515D01*
X174244328Y-112644683D01*
X174297266Y-112647403D01*
X174372907Y-112649498D01*
X174396857Y-112650040D01*
X174478790Y-112652019D01*
X174536455Y-112654269D01*
X174574608Y-112657643D01*
X174598004Y-112662994D01*
X174611398Y-112671176D01*
X174619545Y-112683041D01*
X174623144Y-112690638D01*
X174635452Y-112722898D01*
X174639514Y-112741889D01*
X174625948Y-112748164D01*
X174584934Y-112751994D01*
X174515999Y-112753400D01*
X174418669Y-112752402D01*
X174403657Y-112752092D01*
X174314859Y-112749899D01*
X174250019Y-112747307D01*
X174204067Y-112743618D01*
X174171935Y-112738136D01*
X174148553Y-112730165D01*
X174128852Y-112719007D01*
X174120410Y-112713170D01*
X174083057Y-112679704D01*
X174054003Y-112642273D01*
X174051467Y-112637691D01*
X174031443Y-112570574D01*
X174034755Y-112500074D01*
G36*
X174035968Y-112990256D02*
X174057087Y-112933384D01*
X174057493Y-112932733D01*
X174083380Y-112897560D01*
X174113633Y-112871593D01*
X174153058Y-112853330D01*
X174206462Y-112841268D01*
X174278651Y-112833904D01*
X174374432Y-112829736D01*
X174388078Y-112829371D01*
X174593842Y-112824124D01*
X174616678Y-112868284D01*
X174632110Y-112900237D01*
X174639423Y-112919530D01*
X174639514Y-112920422D01*
X174626022Y-112923761D01*
X174589626Y-112926413D01*
X174536452Y-112928044D01*
X174493393Y-112928400D01*
X174423641Y-112928408D01*
X174379837Y-112931597D01*
X174358944Y-112942712D01*
X174357925Y-112966499D01*
X174373741Y-113007704D01*
X174402815Y-113069914D01*
X174426963Y-113115659D01*
X174447913Y-113139187D01*
X174470747Y-113146104D01*
X174471877Y-113146114D01*
X174511212Y-113134701D01*
X174532462Y-113100908D01*
X174535539Y-113049191D01*
X174535006Y-113011939D01*
X174545735Y-112992297D01*
X174571505Y-112980048D01*
X174604337Y-112972998D01*
X174622966Y-112983158D01*
X174625632Y-112986983D01*
X174636340Y-113022999D01*
X174637856Y-113073434D01*
X174630759Y-113125374D01*
X174617788Y-113162178D01*
X174574585Y-113213062D01*
X174514446Y-113241986D01*
X174467462Y-113247714D01*
X174425082Y-113243343D01*
X174390488Y-113227525D01*
X174359763Y-113196203D01*
X174328990Y-113145322D01*
X174294252Y-113070824D01*
X174292288Y-113066286D01*
X174261287Y-112999179D01*
X174235862Y-112957768D01*
X174213014Y-112940019D01*
X174189745Y-112943893D01*
X174163056Y-112967357D01*
X174156914Y-112974373D01*
X174133100Y-113021370D01*
X174134103Y-113070067D01*
X174157451Y-113112478D01*
X174200675Y-113140616D01*
X174209160Y-113143231D01*
X174250308Y-113168692D01*
X174270128Y-113200999D01*
X174289770Y-113247714D01*
X174238950Y-113247714D01*
X174165082Y-113233504D01*
X174097327Y-113191325D01*
X174074661Y-113169376D01*
X174045569Y-113119483D01*
X174032400Y-113056033D01*
X174035968Y-112990256D01*
X174035968Y-112990256D01*
G37*
X174035968Y-112990256D02*
X174057087Y-112933384D01*
X174057493Y-112932733D01*
X174083380Y-112897560D01*
X174113633Y-112871593D01*
X174153058Y-112853330D01*
X174206462Y-112841268D01*
X174278651Y-112833904D01*
X174374432Y-112829736D01*
X174388078Y-112829371D01*
X174593842Y-112824124D01*
X174616678Y-112868284D01*
X174632110Y-112900237D01*
X174639423Y-112919530D01*
X174639514Y-112920422D01*
X174626022Y-112923761D01*
X174589626Y-112926413D01*
X174536452Y-112928044D01*
X174493393Y-112928400D01*
X174423641Y-112928408D01*
X174379837Y-112931597D01*
X174358944Y-112942712D01*
X174357925Y-112966499D01*
X174373741Y-113007704D01*
X174402815Y-113069914D01*
X174426963Y-113115659D01*
X174447913Y-113139187D01*
X174470747Y-113146104D01*
X174471877Y-113146114D01*
X174511212Y-113134701D01*
X174532462Y-113100908D01*
X174535539Y-113049191D01*
X174535006Y-113011939D01*
X174545735Y-112992297D01*
X174571505Y-112980048D01*
X174604337Y-112972998D01*
X174622966Y-112983158D01*
X174625632Y-112986983D01*
X174636340Y-113022999D01*
X174637856Y-113073434D01*
X174630759Y-113125374D01*
X174617788Y-113162178D01*
X174574585Y-113213062D01*
X174514446Y-113241986D01*
X174467462Y-113247714D01*
X174425082Y-113243343D01*
X174390488Y-113227525D01*
X174359763Y-113196203D01*
X174328990Y-113145322D01*
X174294252Y-113070824D01*
X174292288Y-113066286D01*
X174261287Y-112999179D01*
X174235862Y-112957768D01*
X174213014Y-112940019D01*
X174189745Y-112943893D01*
X174163056Y-112967357D01*
X174156914Y-112974373D01*
X174133100Y-113021370D01*
X174134103Y-113070067D01*
X174157451Y-113112478D01*
X174200675Y-113140616D01*
X174209160Y-113143231D01*
X174250308Y-113168692D01*
X174270128Y-113200999D01*
X174289770Y-113247714D01*
X174238950Y-113247714D01*
X174165082Y-113233504D01*
X174097327Y-113191325D01*
X174074661Y-113169376D01*
X174045569Y-113119483D01*
X174032400Y-113056033D01*
X174035968Y-112990256D01*
G36*
X173936289Y-113654114D02*
X173995613Y-113649861D01*
X174030572Y-113644975D01*
X174045820Y-113638205D01*
X174046015Y-113628298D01*
X174044195Y-113625086D01*
X174031015Y-113582356D01*
X174031785Y-113526773D01*
X174045333Y-113470263D01*
X174062861Y-113434918D01*
X174090861Y-113398679D01*
X174122549Y-113372187D01*
X174162813Y-113354001D01*
X174216543Y-113342678D01*
X174288626Y-113336778D01*
X174383951Y-113334857D01*
X174402237Y-113334823D01*
X174607646Y-113334800D01*
X174623580Y-113380509D01*
X174634420Y-113412973D01*
X174639468Y-113430785D01*
X174639514Y-113431309D01*
X174625828Y-113433063D01*
X174588076Y-113434556D01*
X174531224Y-113435674D01*
X174460234Y-113436303D01*
X174417073Y-113436400D01*
X174331973Y-113436602D01*
X174270981Y-113437642D01*
X174229177Y-113440169D01*
X174201642Y-113444836D01*
X174183456Y-113452293D01*
X174169698Y-113463189D01*
X174163073Y-113469993D01*
X174136375Y-113516728D01*
X174134375Y-113567728D01*
X174156955Y-113613999D01*
X174165107Y-113622556D01*
X174180436Y-113635107D01*
X174198618Y-113643812D01*
X174224909Y-113649369D01*
X174264562Y-113652474D01*
X174322832Y-113653824D01*
X174403173Y-113654114D01*
X174607646Y-113654114D01*
X174623580Y-113699823D01*
X174634420Y-113732287D01*
X174639468Y-113750099D01*
X174639514Y-113750623D01*
X174625623Y-113751963D01*
X174586439Y-113753172D01*
X174525700Y-113754199D01*
X174447141Y-113754998D01*
X174354498Y-113755519D01*
X174251509Y-113755714D01*
X173854342Y-113755714D01*
X173834444Y-113708543D01*
X173814547Y-113661371D01*
X173936289Y-113654114D01*
X173936289Y-113654114D01*
G37*
X173936289Y-113654114D02*
X173995613Y-113649861D01*
X174030572Y-113644975D01*
X174045820Y-113638205D01*
X174046015Y-113628298D01*
X174044195Y-113625086D01*
X174031015Y-113582356D01*
X174031785Y-113526773D01*
X174045333Y-113470263D01*
X174062861Y-113434918D01*
X174090861Y-113398679D01*
X174122549Y-113372187D01*
X174162813Y-113354001D01*
X174216543Y-113342678D01*
X174288626Y-113336778D01*
X174383951Y-113334857D01*
X174402237Y-113334823D01*
X174607646Y-113334800D01*
X174623580Y-113380509D01*
X174634420Y-113412973D01*
X174639468Y-113430785D01*
X174639514Y-113431309D01*
X174625828Y-113433063D01*
X174588076Y-113434556D01*
X174531224Y-113435674D01*
X174460234Y-113436303D01*
X174417073Y-113436400D01*
X174331973Y-113436602D01*
X174270981Y-113437642D01*
X174229177Y-113440169D01*
X174201642Y-113444836D01*
X174183456Y-113452293D01*
X174169698Y-113463189D01*
X174163073Y-113469993D01*
X174136375Y-113516728D01*
X174134375Y-113567728D01*
X174156955Y-113613999D01*
X174165107Y-113622556D01*
X174180436Y-113635107D01*
X174198618Y-113643812D01*
X174224909Y-113649369D01*
X174264562Y-113652474D01*
X174322832Y-113653824D01*
X174403173Y-113654114D01*
X174607646Y-113654114D01*
X174623580Y-113699823D01*
X174634420Y-113732287D01*
X174639468Y-113750099D01*
X174639514Y-113750623D01*
X174625623Y-113751963D01*
X174586439Y-113753172D01*
X174525700Y-113754199D01*
X174447141Y-113754998D01*
X174354498Y-113755519D01*
X174251509Y-113755714D01*
X173854342Y-113755714D01*
X173834444Y-113708543D01*
X173814547Y-113661371D01*
X173936289Y-113654114D01*
G36*
X174016239Y-114861697D02*
X174054735Y-114804473D01*
X174110335Y-114760251D01*
X174181086Y-114733833D01*
X174233162Y-114728490D01*
X174254893Y-114729097D01*
X174271531Y-114734178D01*
X174286437Y-114748145D01*
X174302973Y-114775411D01*
X174324498Y-114820388D01*
X174354374Y-114887489D01*
X174354524Y-114887829D01*
X174382813Y-114949593D01*
X174407933Y-115000241D01*
X174427179Y-115034596D01*
X174437848Y-115047482D01*
X174437934Y-115047486D01*
X174461166Y-115036128D01*
X174486774Y-115009569D01*
X174505221Y-114979077D01*
X174508886Y-114963630D01*
X174496212Y-114921485D01*
X174464471Y-114885192D01*
X174429572Y-114867483D01*
X174403845Y-114850448D01*
X174374546Y-114817078D01*
X174349235Y-114777851D01*
X174335471Y-114743244D01*
X174334714Y-114736007D01*
X174347160Y-114727861D01*
X174378972Y-114727370D01*
X174421866Y-114733357D01*
X174467558Y-114744643D01*
X174507761Y-114760050D01*
X174509322Y-114760829D01*
X174574062Y-114807196D01*
X174618097Y-114867289D01*
X174639711Y-114935535D01*
X174637185Y-115006362D01*
X174608804Y-115074196D01*
X174606808Y-115077212D01*
X174558448Y-115130573D01*
X174495352Y-115165660D01*
X174412387Y-115185078D01*
X174389078Y-115187684D01*
X174279055Y-115192299D01*
X174227748Y-115186767D01*
X174227748Y-115047486D01*
X174259753Y-115045676D01*
X174269093Y-115035778D01*
X174262105Y-115011102D01*
X174245587Y-114972205D01*
X174224881Y-114928725D01*
X174224333Y-114927644D01*
X174204949Y-114890791D01*
X174192013Y-114876000D01*
X174178451Y-114879647D01*
X174160632Y-114895005D01*
X174134845Y-114934077D01*
X174132950Y-114976154D01*
X174151717Y-115013897D01*
X174187915Y-115039966D01*
X174227748Y-115047486D01*
X174227748Y-115186767D01*
X174191027Y-115182806D01*
X174121212Y-115158450D01*
X174072302Y-115124544D01*
X174022878Y-115063347D01*
X173998359Y-114995937D01*
X173996797Y-114927120D01*
X174016239Y-114861697D01*
X174016239Y-114861697D01*
G37*
X174016239Y-114861697D02*
X174054735Y-114804473D01*
X174110335Y-114760251D01*
X174181086Y-114733833D01*
X174233162Y-114728490D01*
X174254893Y-114729097D01*
X174271531Y-114734178D01*
X174286437Y-114748145D01*
X174302973Y-114775411D01*
X174324498Y-114820388D01*
X174354374Y-114887489D01*
X174354524Y-114887829D01*
X174382813Y-114949593D01*
X174407933Y-115000241D01*
X174427179Y-115034596D01*
X174437848Y-115047482D01*
X174437934Y-115047486D01*
X174461166Y-115036128D01*
X174486774Y-115009569D01*
X174505221Y-114979077D01*
X174508886Y-114963630D01*
X174496212Y-114921485D01*
X174464471Y-114885192D01*
X174429572Y-114867483D01*
X174403845Y-114850448D01*
X174374546Y-114817078D01*
X174349235Y-114777851D01*
X174335471Y-114743244D01*
X174334714Y-114736007D01*
X174347160Y-114727861D01*
X174378972Y-114727370D01*
X174421866Y-114733357D01*
X174467558Y-114744643D01*
X174507761Y-114760050D01*
X174509322Y-114760829D01*
X174574062Y-114807196D01*
X174618097Y-114867289D01*
X174639711Y-114935535D01*
X174637185Y-115006362D01*
X174608804Y-115074196D01*
X174606808Y-115077212D01*
X174558448Y-115130573D01*
X174495352Y-115165660D01*
X174412387Y-115185078D01*
X174389078Y-115187684D01*
X174279055Y-115192299D01*
X174227748Y-115186767D01*
X174227748Y-115047486D01*
X174259753Y-115045676D01*
X174269093Y-115035778D01*
X174262105Y-115011102D01*
X174245587Y-114972205D01*
X174224881Y-114928725D01*
X174224333Y-114927644D01*
X174204949Y-114890791D01*
X174192013Y-114876000D01*
X174178451Y-114879647D01*
X174160632Y-114895005D01*
X174134845Y-114934077D01*
X174132950Y-114976154D01*
X174151717Y-115013897D01*
X174187915Y-115039966D01*
X174227748Y-115047486D01*
X174227748Y-115186767D01*
X174191027Y-115182806D01*
X174121212Y-115158450D01*
X174072302Y-115124544D01*
X174022878Y-115063347D01*
X173998359Y-114995937D01*
X173996797Y-114927120D01*
X174016239Y-114861697D01*
G36*
X174006962Y-115988885D02*
X174042733Y-115920855D01*
X174100301Y-115870649D01*
X174137312Y-115852815D01*
X174192882Y-115838937D01*
X174263096Y-115831833D01*
X174339727Y-115831160D01*
X174414552Y-115836573D01*
X174479342Y-115847730D01*
X174525873Y-115864286D01*
X174533887Y-115869374D01*
X174593707Y-115929645D01*
X174629535Y-116001231D01*
X174640020Y-116078908D01*
X174623810Y-116157452D01*
X174614092Y-116179311D01*
X174584143Y-116221878D01*
X174544433Y-116259237D01*
X174539397Y-116262768D01*
X174515124Y-116277119D01*
X174489178Y-116286606D01*
X174455022Y-116292210D01*
X174406119Y-116294914D01*
X174335935Y-116295701D01*
X174320200Y-116295714D01*
X174315192Y-116295678D01*
X174315192Y-116150571D01*
X174381430Y-116149727D01*
X174425386Y-116146404D01*
X174453779Y-116139417D01*
X174473325Y-116127584D01*
X174479857Y-116121543D01*
X174504680Y-116086814D01*
X174503548Y-116053097D01*
X174482016Y-116019005D01*
X174459029Y-115998671D01*
X174425478Y-115986629D01*
X174372569Y-115979866D01*
X174366399Y-115979402D01*
X174270513Y-115978248D01*
X174199299Y-115990312D01*
X174153194Y-116015430D01*
X174132635Y-116053440D01*
X174131514Y-116067008D01*
X174137152Y-116102636D01*
X174156686Y-116127006D01*
X174194042Y-116141907D01*
X174253150Y-116149125D01*
X174315192Y-116150571D01*
X174315192Y-116295678D01*
X174245413Y-116295174D01*
X174193159Y-116292904D01*
X174156949Y-116287932D01*
X174130299Y-116279287D01*
X174106722Y-116265995D01*
X174102338Y-116263057D01*
X174043249Y-116213687D01*
X174008947Y-116159891D01*
X173995331Y-116094398D01*
X173994665Y-116072158D01*
X174006962Y-115988885D01*
X174006962Y-115988885D01*
G37*
X174006962Y-115988885D02*
X174042733Y-115920855D01*
X174100301Y-115870649D01*
X174137312Y-115852815D01*
X174192882Y-115838937D01*
X174263096Y-115831833D01*
X174339727Y-115831160D01*
X174414552Y-115836573D01*
X174479342Y-115847730D01*
X174525873Y-115864286D01*
X174533887Y-115869374D01*
X174593707Y-115929645D01*
X174629535Y-116001231D01*
X174640020Y-116078908D01*
X174623810Y-116157452D01*
X174614092Y-116179311D01*
X174584143Y-116221878D01*
X174544433Y-116259237D01*
X174539397Y-116262768D01*
X174515124Y-116277119D01*
X174489178Y-116286606D01*
X174455022Y-116292210D01*
X174406119Y-116294914D01*
X174335935Y-116295701D01*
X174320200Y-116295714D01*
X174315192Y-116295678D01*
X174315192Y-116150571D01*
X174381430Y-116149727D01*
X174425386Y-116146404D01*
X174453779Y-116139417D01*
X174473325Y-116127584D01*
X174479857Y-116121543D01*
X174504680Y-116086814D01*
X174503548Y-116053097D01*
X174482016Y-116019005D01*
X174459029Y-115998671D01*
X174425478Y-115986629D01*
X174372569Y-115979866D01*
X174366399Y-115979402D01*
X174270513Y-115978248D01*
X174199299Y-115990312D01*
X174153194Y-116015430D01*
X174132635Y-116053440D01*
X174131514Y-116067008D01*
X174137152Y-116102636D01*
X174156686Y-116127006D01*
X174194042Y-116141907D01*
X174253150Y-116149125D01*
X174315192Y-116150571D01*
X174315192Y-116295678D01*
X174245413Y-116295174D01*
X174193159Y-116292904D01*
X174156949Y-116287932D01*
X174130299Y-116279287D01*
X174106722Y-116265995D01*
X174102338Y-116263057D01*
X174043249Y-116213687D01*
X174008947Y-116159891D01*
X173995331Y-116094398D01*
X173994665Y-116072158D01*
X174006962Y-115988885D01*
G36*
X174012780Y-114313907D02*
X174039723Y-114267328D01*
X174066466Y-114234943D01*
X174094484Y-114211258D01*
X174128748Y-114194941D01*
X174174227Y-114184661D01*
X174235892Y-114179086D01*
X174318711Y-114176884D01*
X174378246Y-114176629D01*
X174597391Y-114176629D01*
X174625044Y-114238314D01*
X174652697Y-114300000D01*
X174412670Y-114307257D01*
X174323028Y-114310256D01*
X174257962Y-114313402D01*
X174213026Y-114317299D01*
X174183770Y-114322553D01*
X174165748Y-114329769D01*
X174154511Y-114339550D01*
X174152079Y-114342688D01*
X174133083Y-114390239D01*
X174140600Y-114438303D01*
X174160543Y-114466914D01*
X174174675Y-114478553D01*
X174193220Y-114486609D01*
X174221334Y-114491729D01*
X174264173Y-114494559D01*
X174326895Y-114495744D01*
X174392261Y-114495943D01*
X174474268Y-114495982D01*
X174532316Y-114497386D01*
X174571465Y-114502086D01*
X174596780Y-114512013D01*
X174613323Y-114529097D01*
X174626156Y-114555268D01*
X174639491Y-114590225D01*
X174654007Y-114628404D01*
X174396389Y-114623859D01*
X174303519Y-114622029D01*
X174234889Y-114619888D01*
X174185711Y-114616819D01*
X174151198Y-114612206D01*
X174126562Y-114605432D01*
X174107016Y-114595881D01*
X174089770Y-114584366D01*
X174034680Y-114528810D01*
X174002822Y-114461020D01*
X173995191Y-114387287D01*
X174012780Y-114313907D01*
X174012780Y-114313907D01*
G37*
X174012780Y-114313907D02*
X174039723Y-114267328D01*
X174066466Y-114234943D01*
X174094484Y-114211258D01*
X174128748Y-114194941D01*
X174174227Y-114184661D01*
X174235892Y-114179086D01*
X174318711Y-114176884D01*
X174378246Y-114176629D01*
X174597391Y-114176629D01*
X174625044Y-114238314D01*
X174652697Y-114300000D01*
X174412670Y-114307257D01*
X174323028Y-114310256D01*
X174257962Y-114313402D01*
X174213026Y-114317299D01*
X174183770Y-114322553D01*
X174165748Y-114329769D01*
X174154511Y-114339550D01*
X174152079Y-114342688D01*
X174133083Y-114390239D01*
X174140600Y-114438303D01*
X174160543Y-114466914D01*
X174174675Y-114478553D01*
X174193220Y-114486609D01*
X174221334Y-114491729D01*
X174264173Y-114494559D01*
X174326895Y-114495744D01*
X174392261Y-114495943D01*
X174474268Y-114495982D01*
X174532316Y-114497386D01*
X174571465Y-114502086D01*
X174596780Y-114512013D01*
X174613323Y-114529097D01*
X174626156Y-114555268D01*
X174639491Y-114590225D01*
X174654007Y-114628404D01*
X174396389Y-114623859D01*
X174303519Y-114622029D01*
X174234889Y-114619888D01*
X174185711Y-114616819D01*
X174151198Y-114612206D01*
X174126562Y-114605432D01*
X174107016Y-114595881D01*
X174089770Y-114584366D01*
X174034680Y-114528810D01*
X174002822Y-114461020D01*
X173995191Y-114387287D01*
X174012780Y-114313907D01*
G36*
X174004918Y-115430256D02*
X174032568Y-115374799D01*
X174083480Y-115325852D01*
X174102338Y-115312371D01*
X174127015Y-115297686D01*
X174153816Y-115288158D01*
X174189587Y-115282707D01*
X174241169Y-115280253D01*
X174309267Y-115279714D01*
X174402588Y-115282148D01*
X174472657Y-115290606D01*
X174524931Y-115306826D01*
X174564869Y-115332546D01*
X174597929Y-115369503D01*
X174599886Y-115372218D01*
X174619908Y-115408640D01*
X174629815Y-115452498D01*
X174632257Y-115508276D01*
X174632257Y-115598952D01*
X174720283Y-115598990D01*
X174769308Y-115599834D01*
X174798065Y-115604976D01*
X174815311Y-115618413D01*
X174829808Y-115644142D01*
X174832769Y-115650321D01*
X174846648Y-115679236D01*
X174855414Y-115701624D01*
X174856171Y-115718271D01*
X174846023Y-115729964D01*
X174822073Y-115737490D01*
X174781426Y-115741634D01*
X174721186Y-115743185D01*
X174638455Y-115742929D01*
X174530339Y-115741651D01*
X174498000Y-115741252D01*
X174386524Y-115739815D01*
X174313603Y-115738528D01*
X174313603Y-115599029D01*
X174375499Y-115598245D01*
X174415997Y-115594760D01*
X174442708Y-115586876D01*
X174463244Y-115572895D01*
X174473260Y-115563403D01*
X174502567Y-115524596D01*
X174504952Y-115490237D01*
X174480750Y-115454784D01*
X174479857Y-115453886D01*
X174461153Y-115439461D01*
X174435732Y-115430687D01*
X174396584Y-115426261D01*
X174336697Y-115424882D01*
X174323430Y-115424857D01*
X174240901Y-115428188D01*
X174183691Y-115439031D01*
X174148766Y-115458660D01*
X174133094Y-115488350D01*
X174131514Y-115505509D01*
X174138926Y-115546234D01*
X174163330Y-115574168D01*
X174207980Y-115590983D01*
X174276130Y-115598350D01*
X174313603Y-115599029D01*
X174313603Y-115738528D01*
X174300245Y-115738292D01*
X174235333Y-115736323D01*
X174187958Y-115733550D01*
X174154290Y-115729612D01*
X174130498Y-115724151D01*
X174112753Y-115716808D01*
X174097224Y-115707223D01*
X174091381Y-115703113D01*
X174036185Y-115648595D01*
X174004890Y-115579664D01*
X173996165Y-115499928D01*
X174004918Y-115430256D01*
X174004918Y-115430256D01*
G37*
X174004918Y-115430256D02*
X174032568Y-115374799D01*
X174083480Y-115325852D01*
X174102338Y-115312371D01*
X174127015Y-115297686D01*
X174153816Y-115288158D01*
X174189587Y-115282707D01*
X174241169Y-115280253D01*
X174309267Y-115279714D01*
X174402588Y-115282148D01*
X174472657Y-115290606D01*
X174524931Y-115306826D01*
X174564869Y-115332546D01*
X174597929Y-115369503D01*
X174599886Y-115372218D01*
X174619908Y-115408640D01*
X174629815Y-115452498D01*
X174632257Y-115508276D01*
X174632257Y-115598952D01*
X174720283Y-115598990D01*
X174769308Y-115599834D01*
X174798065Y-115604976D01*
X174815311Y-115618413D01*
X174829808Y-115644142D01*
X174832769Y-115650321D01*
X174846648Y-115679236D01*
X174855414Y-115701624D01*
X174856171Y-115718271D01*
X174846023Y-115729964D01*
X174822073Y-115737490D01*
X174781426Y-115741634D01*
X174721186Y-115743185D01*
X174638455Y-115742929D01*
X174530339Y-115741651D01*
X174498000Y-115741252D01*
X174386524Y-115739815D01*
X174313603Y-115738528D01*
X174313603Y-115599029D01*
X174375499Y-115598245D01*
X174415997Y-115594760D01*
X174442708Y-115586876D01*
X174463244Y-115572895D01*
X174473260Y-115563403D01*
X174502567Y-115524596D01*
X174504952Y-115490237D01*
X174480750Y-115454784D01*
X174479857Y-115453886D01*
X174461153Y-115439461D01*
X174435732Y-115430687D01*
X174396584Y-115426261D01*
X174336697Y-115424882D01*
X174323430Y-115424857D01*
X174240901Y-115428188D01*
X174183691Y-115439031D01*
X174148766Y-115458660D01*
X174133094Y-115488350D01*
X174131514Y-115505509D01*
X174138926Y-115546234D01*
X174163330Y-115574168D01*
X174207980Y-115590983D01*
X174276130Y-115598350D01*
X174313603Y-115599029D01*
X174313603Y-115738528D01*
X174300245Y-115738292D01*
X174235333Y-115736323D01*
X174187958Y-115733550D01*
X174154290Y-115729612D01*
X174130498Y-115724151D01*
X174112753Y-115716808D01*
X174097224Y-115707223D01*
X174091381Y-115703113D01*
X174036185Y-115648595D01*
X174004890Y-115579664D01*
X173996165Y-115499928D01*
X174004918Y-115430256D01*
G04 #@! TD*
D11*
G04 #@! TO.P,C7,2*
G04 #@! TO.N,GNDREF*
X177800000Y-90170000D03*
G04 #@! TO.P,C7,1*
G04 #@! TO.N,+BATT*
X177800000Y-87670000D03*
G04 #@! TD*
G04 #@! TO.P,C8,1*
G04 #@! TO.N,GNDREF*
X190500000Y-90170000D03*
G04 #@! TO.P,C8,2*
G04 #@! TO.N,-BATT*
X190500000Y-87670000D03*
G04 #@! TD*
D12*
G04 #@! TO.P,D1,1*
G04 #@! TO.N,Net-(D1-Pad1)*
X177800000Y-97790000D03*
D13*
G04 #@! TO.P,D1,2*
G04 #@! TO.N,+BATT*
X175260000Y-97790000D03*
G04 #@! TD*
D14*
G04 #@! TO.P,D2,1*
G04 #@! TO.N,+BATT*
X177800000Y-101600000D03*
D15*
G04 #@! TO.P,D2,2*
G04 #@! TO.N,Net-(D2-Pad2)*
X185420000Y-101600000D03*
G04 #@! TD*
D16*
G04 #@! TO.P,R7,1*
G04 #@! TO.N,GNDREF*
X187960000Y-93980000D03*
D17*
G04 #@! TO.P,R7,2*
G04 #@! TO.N,-BATT*
X195580000Y-93980000D03*
G04 #@! TD*
G04 #@! TO.P,R1,2*
G04 #@! TO.N,IN_LEFT*
X176530000Y-72390000D03*
D16*
G04 #@! TO.P,R1,1*
G04 #@! TO.N,Net-(C1-Pad2)*
X176530000Y-80010000D03*
G04 #@! TD*
G04 #@! TO.P,R2,1*
G04 #@! TO.N,Net-(C2-Pad2)*
X191770000Y-80010000D03*
D17*
G04 #@! TO.P,R2,2*
G04 #@! TO.N,IN_RIGHT*
X191770000Y-72390000D03*
G04 #@! TD*
G04 #@! TO.P,R3,2*
G04 #@! TO.N,Net-(C1-Pad2)*
X173990000Y-78740000D03*
D16*
G04 #@! TO.P,R3,1*
G04 #@! TO.N,AMPLIFIED_LEFT*
X173990000Y-86360000D03*
G04 #@! TD*
G04 #@! TO.P,R4,1*
G04 #@! TO.N,AMPLIFIED_RIGHT*
X194310000Y-86360000D03*
D17*
G04 #@! TO.P,R4,2*
G04 #@! TO.N,Net-(C2-Pad2)*
X194310000Y-78740000D03*
G04 #@! TD*
G04 #@! TO.P,R5,2*
G04 #@! TO.N,-BATT*
X187960000Y-97790000D03*
D16*
G04 #@! TO.P,R5,1*
G04 #@! TO.N,Net-(D1-Pad1)*
X180340000Y-97790000D03*
G04 #@! TD*
G04 #@! TO.P,R6,1*
G04 #@! TO.N,+BATT*
X172720000Y-93980000D03*
D17*
G04 #@! TO.P,R6,2*
G04 #@! TO.N,GNDREF*
X180340000Y-93980000D03*
G04 #@! TD*
D18*
G04 #@! TO.P,J1,S*
G04 #@! TO.N,GNDREF*
X195890000Y-105410000D03*
G04 #@! TO.P,J1,R*
G04 #@! TO.N,Net-(J1-PadR)*
X190890000Y-110410000D03*
G04 #@! TO.P,J1,RN*
G04 #@! TO.N,Net-(J1-PadRN)*
X190890000Y-107910000D03*
G04 #@! TO.P,J1,TN*
G04 #@! TO.N,Net-(J1-PadTN)*
X190890000Y-102910000D03*
G04 #@! TO.P,J1,T*
G04 #@! TO.N,Net-(J1-PadT)*
X190890000Y-100410000D03*
G04 #@! TD*
G04 #@! TO.P,J2,S*
G04 #@! TO.N,GNDREF*
X184150000Y-67000000D03*
G04 #@! TO.P,J2,R*
G04 #@! TO.N,IN_RIGHT*
X189150000Y-72000000D03*
G04 #@! TO.P,J2,RN*
G04 #@! TO.N,Net-(J2-PadRN)*
X186650000Y-72000000D03*
G04 #@! TO.P,J2,TN*
G04 #@! TO.N,Net-(J2-PadTN)*
X181650000Y-72000000D03*
G04 #@! TO.P,J2,T*
G04 #@! TO.N,IN_LEFT*
X179150000Y-72000000D03*
G04 #@! TD*
D19*
G04 #@! TO.N,Net-(J2-PadTN)*
G04 #@! TO.C,L1*
G36*
X173985792Y-65243332D02*
X174048890Y-65252692D01*
X174110766Y-65268191D01*
X174170825Y-65289680D01*
X174228489Y-65316953D01*
X174283202Y-65349747D01*
X174334437Y-65387745D01*
X174381700Y-65430583D01*
X177139417Y-68188300D01*
X177182255Y-68235563D01*
X177220253Y-68286798D01*
X177253047Y-68341511D01*
X177280320Y-68399175D01*
X177301809Y-68459234D01*
X177317308Y-68521110D01*
X177326668Y-68584208D01*
X177329798Y-68647919D01*
X177326668Y-68711630D01*
X177317308Y-68774728D01*
X177301809Y-68836604D01*
X177280320Y-68896663D01*
X177253047Y-68954327D01*
X177220253Y-69009040D01*
X177182255Y-69060275D01*
X177139417Y-69107538D01*
X176220178Y-70026777D01*
X176172915Y-70069615D01*
X176121680Y-70107613D01*
X176066967Y-70140407D01*
X176009303Y-70167680D01*
X175949244Y-70189169D01*
X175887368Y-70204668D01*
X175824270Y-70214028D01*
X175760559Y-70217158D01*
X175696848Y-70214028D01*
X175633750Y-70204668D01*
X175571874Y-70189169D01*
X175511815Y-70167680D01*
X175454151Y-70140407D01*
X175399438Y-70107613D01*
X175348203Y-70069615D01*
X175300940Y-70026777D01*
X172543223Y-67269060D01*
X172500385Y-67221797D01*
X172462387Y-67170562D01*
X172429593Y-67115849D01*
X172402320Y-67058185D01*
X172380831Y-66998126D01*
X172365332Y-66936250D01*
X172355972Y-66873152D01*
X172352842Y-66809441D01*
X172355972Y-66745730D01*
X172365332Y-66682632D01*
X172380831Y-66620756D01*
X172402320Y-66560697D01*
X172429593Y-66503033D01*
X172462387Y-66448320D01*
X172500385Y-66397085D01*
X172543223Y-66349822D01*
X173462462Y-65430583D01*
X173509725Y-65387745D01*
X173560960Y-65349747D01*
X173615673Y-65316953D01*
X173673337Y-65289680D01*
X173733396Y-65268191D01*
X173795272Y-65252692D01*
X173858370Y-65243332D01*
X173922081Y-65240202D01*
X173985792Y-65243332D01*
X173985792Y-65243332D01*
G37*
D20*
G04 #@! TD*
G04 #@! TO.P,L1,2*
G04 #@! TO.N,Net-(J2-PadTN)*
X174841320Y-67728680D03*
D19*
G04 #@! TO.N,GNDREF*
G04 #@! TO.C,L1*
G36*
X171864472Y-67364652D02*
X171927570Y-67374012D01*
X171989446Y-67389511D01*
X172049505Y-67411000D01*
X172107169Y-67438273D01*
X172161882Y-67471067D01*
X172213117Y-67509065D01*
X172260380Y-67551903D01*
X175018097Y-70309620D01*
X175060935Y-70356883D01*
X175098933Y-70408118D01*
X175131727Y-70462831D01*
X175159000Y-70520495D01*
X175180489Y-70580554D01*
X175195988Y-70642430D01*
X175205348Y-70705528D01*
X175208478Y-70769239D01*
X175205348Y-70832950D01*
X175195988Y-70896048D01*
X175180489Y-70957924D01*
X175159000Y-71017983D01*
X175131727Y-71075647D01*
X175098933Y-71130360D01*
X175060935Y-71181595D01*
X175018097Y-71228858D01*
X174098858Y-72148097D01*
X174051595Y-72190935D01*
X174000360Y-72228933D01*
X173945647Y-72261727D01*
X173887983Y-72289000D01*
X173827924Y-72310489D01*
X173766048Y-72325988D01*
X173702950Y-72335348D01*
X173639239Y-72338478D01*
X173575528Y-72335348D01*
X173512430Y-72325988D01*
X173450554Y-72310489D01*
X173390495Y-72289000D01*
X173332831Y-72261727D01*
X173278118Y-72228933D01*
X173226883Y-72190935D01*
X173179620Y-72148097D01*
X170421903Y-69390380D01*
X170379065Y-69343117D01*
X170341067Y-69291882D01*
X170308273Y-69237169D01*
X170281000Y-69179505D01*
X170259511Y-69119446D01*
X170244012Y-69057570D01*
X170234652Y-68994472D01*
X170231522Y-68930761D01*
X170234652Y-68867050D01*
X170244012Y-68803952D01*
X170259511Y-68742076D01*
X170281000Y-68682017D01*
X170308273Y-68624353D01*
X170341067Y-68569640D01*
X170379065Y-68518405D01*
X170421903Y-68471142D01*
X171341142Y-67551903D01*
X171388405Y-67509065D01*
X171439640Y-67471067D01*
X171494353Y-67438273D01*
X171552017Y-67411000D01*
X171612076Y-67389511D01*
X171673952Y-67374012D01*
X171737050Y-67364652D01*
X171800761Y-67361522D01*
X171864472Y-67364652D01*
X171864472Y-67364652D01*
G37*
D20*
G04 #@! TD*
G04 #@! TO.P,L1,1*
G04 #@! TO.N,GNDREF*
X172720000Y-69850000D03*
D19*
G04 #@! TO.N,GNDREF*
G04 #@! TO.C,L2*
G36*
X196562950Y-67364652D02*
X196626048Y-67374012D01*
X196687924Y-67389511D01*
X196747983Y-67411000D01*
X196805647Y-67438273D01*
X196860360Y-67471067D01*
X196911595Y-67509065D01*
X196958858Y-67551903D01*
X197878097Y-68471142D01*
X197920935Y-68518405D01*
X197958933Y-68569640D01*
X197991727Y-68624353D01*
X198019000Y-68682017D01*
X198040489Y-68742076D01*
X198055988Y-68803952D01*
X198065348Y-68867050D01*
X198068478Y-68930761D01*
X198065348Y-68994472D01*
X198055988Y-69057570D01*
X198040489Y-69119446D01*
X198019000Y-69179505D01*
X197991727Y-69237169D01*
X197958933Y-69291882D01*
X197920935Y-69343117D01*
X197878097Y-69390380D01*
X195120380Y-72148097D01*
X195073117Y-72190935D01*
X195021882Y-72228933D01*
X194967169Y-72261727D01*
X194909505Y-72289000D01*
X194849446Y-72310489D01*
X194787570Y-72325988D01*
X194724472Y-72335348D01*
X194660761Y-72338478D01*
X194597050Y-72335348D01*
X194533952Y-72325988D01*
X194472076Y-72310489D01*
X194412017Y-72289000D01*
X194354353Y-72261727D01*
X194299640Y-72228933D01*
X194248405Y-72190935D01*
X194201142Y-72148097D01*
X193281903Y-71228858D01*
X193239065Y-71181595D01*
X193201067Y-71130360D01*
X193168273Y-71075647D01*
X193141000Y-71017983D01*
X193119511Y-70957924D01*
X193104012Y-70896048D01*
X193094652Y-70832950D01*
X193091522Y-70769239D01*
X193094652Y-70705528D01*
X193104012Y-70642430D01*
X193119511Y-70580554D01*
X193141000Y-70520495D01*
X193168273Y-70462831D01*
X193201067Y-70408118D01*
X193239065Y-70356883D01*
X193281903Y-70309620D01*
X196039620Y-67551903D01*
X196086883Y-67509065D01*
X196138118Y-67471067D01*
X196192831Y-67438273D01*
X196250495Y-67411000D01*
X196310554Y-67389511D01*
X196372430Y-67374012D01*
X196435528Y-67364652D01*
X196499239Y-67361522D01*
X196562950Y-67364652D01*
X196562950Y-67364652D01*
G37*
D20*
G04 #@! TD*
G04 #@! TO.P,L2,1*
G04 #@! TO.N,GNDREF*
X195580000Y-69850000D03*
D19*
G04 #@! TO.N,Net-(J2-PadRN)*
G04 #@! TO.C,L2*
G36*
X194441630Y-65243332D02*
X194504728Y-65252692D01*
X194566604Y-65268191D01*
X194626663Y-65289680D01*
X194684327Y-65316953D01*
X194739040Y-65349747D01*
X194790275Y-65387745D01*
X194837538Y-65430583D01*
X195756777Y-66349822D01*
X195799615Y-66397085D01*
X195837613Y-66448320D01*
X195870407Y-66503033D01*
X195897680Y-66560697D01*
X195919169Y-66620756D01*
X195934668Y-66682632D01*
X195944028Y-66745730D01*
X195947158Y-66809441D01*
X195944028Y-66873152D01*
X195934668Y-66936250D01*
X195919169Y-66998126D01*
X195897680Y-67058185D01*
X195870407Y-67115849D01*
X195837613Y-67170562D01*
X195799615Y-67221797D01*
X195756777Y-67269060D01*
X192999060Y-70026777D01*
X192951797Y-70069615D01*
X192900562Y-70107613D01*
X192845849Y-70140407D01*
X192788185Y-70167680D01*
X192728126Y-70189169D01*
X192666250Y-70204668D01*
X192603152Y-70214028D01*
X192539441Y-70217158D01*
X192475730Y-70214028D01*
X192412632Y-70204668D01*
X192350756Y-70189169D01*
X192290697Y-70167680D01*
X192233033Y-70140407D01*
X192178320Y-70107613D01*
X192127085Y-70069615D01*
X192079822Y-70026777D01*
X191160583Y-69107538D01*
X191117745Y-69060275D01*
X191079747Y-69009040D01*
X191046953Y-68954327D01*
X191019680Y-68896663D01*
X190998191Y-68836604D01*
X190982692Y-68774728D01*
X190973332Y-68711630D01*
X190970202Y-68647919D01*
X190973332Y-68584208D01*
X190982692Y-68521110D01*
X190998191Y-68459234D01*
X191019680Y-68399175D01*
X191046953Y-68341511D01*
X191079747Y-68286798D01*
X191117745Y-68235563D01*
X191160583Y-68188300D01*
X193918300Y-65430583D01*
X193965563Y-65387745D01*
X194016798Y-65349747D01*
X194071511Y-65316953D01*
X194129175Y-65289680D01*
X194189234Y-65268191D01*
X194251110Y-65252692D01*
X194314208Y-65243332D01*
X194377919Y-65240202D01*
X194441630Y-65243332D01*
X194441630Y-65243332D01*
G37*
D20*
G04 #@! TD*
G04 #@! TO.P,L2,2*
G04 #@! TO.N,Net-(J2-PadRN)*
X193458680Y-67728680D03*
D21*
G04 #@! TO.P,BT1,2*
G04 #@! TO.N,-BATT*
X190500000Y-114300000D03*
G04 #@! TO.P,BT1,1*
G04 #@! TO.N,Net-(BT1-Pad1)*
X177800000Y-114300000D03*
G04 #@! TD*
D11*
G04 #@! TO.P,C1,2*
G04 #@! TO.N,Net-(C1-Pad2)*
X176530000Y-85050000D03*
G04 #@! TO.P,C1,1*
G04 #@! TO.N,AMPLIFIED_LEFT*
X176530000Y-82550000D03*
G04 #@! TD*
G04 #@! TO.P,C2,1*
G04 #@! TO.N,AMPLIFIED_RIGHT*
X191770000Y-82550000D03*
G04 #@! TO.P,C2,2*
G04 #@! TO.N,Net-(C2-Pad2)*
X191770000Y-85050000D03*
G04 #@! TD*
G04 #@! TO.P,C3,2*
G04 #@! TO.N,AMPLIFIED_LEFT*
X182880000Y-87630000D03*
G04 #@! TO.P,C3,1*
G04 #@! TO.N,Net-(C3-Pad1)*
X182880000Y-90130000D03*
G04 #@! TD*
G04 #@! TO.P,C4,1*
G04 #@! TO.N,Net-(C4-Pad1)*
X185420000Y-90130000D03*
G04 #@! TO.P,C4,2*
G04 #@! TO.N,AMPLIFIED_RIGHT*
X185420000Y-87630000D03*
G04 #@! TD*
G04 #@! TO.P,C5,2*
G04 #@! TO.N,GNDREF*
X180340000Y-90130000D03*
G04 #@! TO.P,C5,1*
G04 #@! TO.N,+BATT*
X180340000Y-87630000D03*
G04 #@! TD*
G04 #@! TO.P,C6,1*
G04 #@! TO.N,GNDREF*
X187960000Y-90130000D03*
G04 #@! TO.P,C6,2*
G04 #@! TO.N,-BATT*
X187960000Y-87630000D03*
G04 #@! TD*
D22*
G04 #@! TO.P,U1,8*
G04 #@! TO.N,+BATT*
X180340000Y-83820000D03*
G04 #@! TO.P,U1,4*
G04 #@! TO.N,-BATT*
X187960000Y-76200000D03*
G04 #@! TO.P,U1,7*
G04 #@! TO.N,AMPLIFIED_LEFT*
X180340000Y-81280000D03*
G04 #@! TO.P,U1,3*
G04 #@! TO.N,GNDREF*
X187960000Y-78740000D03*
G04 #@! TO.P,U1,6*
G04 #@! TO.N,Net-(C1-Pad2)*
X180340000Y-78740000D03*
G04 #@! TO.P,U1,2*
G04 #@! TO.N,Net-(C2-Pad2)*
X187960000Y-81280000D03*
G04 #@! TO.P,U1,5*
G04 #@! TO.N,GNDREF*
X180340000Y-76200000D03*
D23*
G04 #@! TO.P,U1,1*
G04 #@! TO.N,AMPLIFIED_RIGHT*
X187960000Y-83820000D03*
G04 #@! TD*
D13*
G04 #@! TO.P,RV1,4*
G04 #@! TO.N,Net-(C4-Pad1)*
X179070000Y-105410000D03*
G04 #@! TO.P,RV1,5*
G04 #@! TO.N,Net-(J1-PadR)*
X179070000Y-107910000D03*
G04 #@! TO.P,RV1,6*
G04 #@! TO.N,GNDREF*
X179070000Y-110410000D03*
G04 #@! TO.P,RV1,1*
G04 #@! TO.N,Net-(C3-Pad1)*
X176570000Y-105410000D03*
G04 #@! TO.P,RV1,2*
G04 #@! TO.N,Net-(J1-PadT)*
X176570000Y-107910000D03*
G04 #@! TO.P,RV1,3*
G04 #@! TO.N,GNDREF*
X176570000Y-110410000D03*
G04 #@! TO.P,RV1,8*
G04 #@! TO.N,Net-(BT1-Pad1)*
X185320000Y-110410000D03*
G04 #@! TO.P,RV1,7*
G04 #@! TO.N,Net-(D2-Pad2)*
X185320000Y-105410000D03*
G04 #@! TD*
D24*
G04 #@! TO.N,+BATT*
X180340000Y-87630000D02*
X180340000Y-83820000D01*
X176570000Y-87630000D02*
X176530000Y-87670000D01*
X180340000Y-87630000D02*
X176570000Y-87630000D01*
X172720000Y-92848630D02*
X172720000Y-93980000D01*
X172720000Y-90430000D02*
X172720000Y-92848630D01*
X175480000Y-87670000D02*
X172720000Y-90430000D01*
X176530000Y-87670000D02*
X175480000Y-87670000D01*
X172720000Y-95250000D02*
X175260000Y-97790000D01*
X172720000Y-93980000D02*
X172720000Y-95250000D01*
X177800000Y-100330000D02*
X177800000Y-101600000D01*
X175260000Y-97790000D02*
X177800000Y-100330000D01*
G04 #@! TO.N,-BATT*
X189410000Y-76200000D02*
X187960000Y-76200000D01*
X194310000Y-76200000D02*
X189410000Y-76200000D01*
X195580000Y-77470000D02*
X194310000Y-76200000D01*
X195580000Y-87630000D02*
X195580000Y-77470000D01*
X191730000Y-87630000D02*
X191770000Y-87670000D01*
X187960000Y-87630000D02*
X191730000Y-87630000D01*
X195540000Y-87670000D02*
X195580000Y-87630000D01*
X191770000Y-87670000D02*
X195540000Y-87670000D01*
X198120000Y-90170000D02*
X195580000Y-87630000D01*
X198120000Y-92710000D02*
X198120000Y-90170000D01*
X198120000Y-97790000D02*
X198120000Y-92710000D01*
X197215001Y-98694999D02*
X198120000Y-97790000D01*
X190500000Y-114300000D02*
X197215001Y-107584999D01*
X197215001Y-107584999D02*
X197215001Y-98694999D01*
X195580000Y-93980000D02*
X198120000Y-93980000D01*
X191770000Y-97790000D02*
X195580000Y-93980000D01*
X187960000Y-97790000D02*
X191770000Y-97790000D01*
G04 #@! TO.N,Net-(D1-Pad1)*
X180340000Y-97790000D02*
X177800000Y-97790000D01*
G04 #@! TO.N,Net-(C2-Pad2)*
X193040000Y-78740000D02*
X191770000Y-80010000D01*
X194310000Y-78740000D02*
X193040000Y-78740000D01*
X192569999Y-84250001D02*
X191770000Y-85050000D01*
X193040000Y-83780000D02*
X192569999Y-84250001D01*
X191770000Y-80010000D02*
X193040000Y-81280000D01*
X193040000Y-81280000D02*
X193040000Y-83780000D01*
X190500000Y-81280000D02*
X191770000Y-80010000D01*
X187960000Y-81280000D02*
X190500000Y-81280000D01*
G04 #@! TO.N,Net-(C1-Pad2)*
X175260000Y-78740000D02*
X173990000Y-78740000D01*
X176530000Y-80010000D02*
X175260000Y-78740000D01*
X175260000Y-83780000D02*
X175730001Y-84250001D01*
X176530000Y-80010000D02*
X175260000Y-81280000D01*
X175730001Y-84250001D02*
X176530000Y-85050000D01*
X175260000Y-81280000D02*
X175260000Y-83780000D01*
X177800000Y-78740000D02*
X176530000Y-80010000D01*
X180340000Y-78740000D02*
X177800000Y-78740000D01*
G04 #@! TO.N,Net-(C4-Pad1)*
X179705000Y-104775000D02*
X179070000Y-105410000D01*
X179705000Y-104140000D02*
X179705000Y-104775000D01*
X185420000Y-90130000D02*
X185420000Y-98425000D01*
X185420000Y-98425000D02*
X179705000Y-104140000D01*
G04 #@! TO.N,Net-(J1-PadR)*
X188390000Y-107910000D02*
X190890000Y-110410000D01*
X179070000Y-107910000D02*
X188390000Y-107910000D01*
G04 #@! TO.N,Net-(C3-Pad1)*
X182880000Y-99695000D02*
X179070000Y-103505000D01*
X182880000Y-90130000D02*
X182880000Y-99695000D01*
X179070000Y-103505000D02*
X178475000Y-103505000D01*
X178475000Y-103505000D02*
X176570000Y-105410000D01*
G04 #@! TO.N,Net-(J1-PadT)*
X190420000Y-100410000D02*
X190890000Y-100410000D01*
X189230000Y-101600000D02*
X190420000Y-100410000D01*
X189230000Y-104140000D02*
X189230000Y-101600000D01*
X186690000Y-106680000D02*
X189230000Y-104140000D01*
X176570000Y-107910000D02*
X177800000Y-106680000D01*
X177800000Y-106680000D02*
X186690000Y-106680000D01*
G04 #@! TO.N,Net-(BT1-Pad1)*
X181430000Y-114300000D02*
X185320000Y-110410000D01*
X177800000Y-114300000D02*
X181430000Y-114300000D01*
G04 #@! TO.N,AMPLIFIED_RIGHT*
X186690000Y-83820000D02*
X187960000Y-83820000D01*
X185420000Y-87630000D02*
X185420000Y-85090000D01*
X185420000Y-85090000D02*
X186690000Y-83820000D01*
X187960000Y-83820000D02*
X189230000Y-83820000D01*
X190500000Y-85090000D02*
X190500000Y-86360000D01*
X190500000Y-86360000D02*
X194310000Y-86360000D01*
X190500000Y-83820000D02*
X191770000Y-82550000D01*
X189230000Y-83820000D02*
X190500000Y-83820000D01*
X190500000Y-85090000D02*
X190500000Y-83820000D01*
G04 #@! TO.N,AMPLIFIED_LEFT*
X182880000Y-82550000D02*
X182880000Y-86498630D01*
X182880000Y-86498630D02*
X182880000Y-87630000D01*
X180340000Y-81280000D02*
X181610000Y-81280000D01*
X181610000Y-81280000D02*
X182880000Y-82550000D01*
X177800000Y-81280000D02*
X180340000Y-81280000D01*
X176530000Y-82550000D02*
X177800000Y-81280000D01*
X177800000Y-83820000D02*
X176530000Y-82550000D01*
X173990000Y-86360000D02*
X177800000Y-86360000D01*
X177800000Y-86360000D02*
X177800000Y-83820000D01*
G04 #@! TO.N,IN_RIGHT*
X191380000Y-72000000D02*
X191770000Y-72390000D01*
X189150000Y-72000000D02*
X191380000Y-72000000D01*
G04 #@! TO.N,IN_LEFT*
X176920000Y-72000000D02*
X176530000Y-72390000D01*
X179150000Y-72000000D02*
X176920000Y-72000000D01*
G04 #@! TO.N,Net-(J2-PadRN)*
X188800000Y-69850000D02*
X187649999Y-71000001D01*
X187649999Y-71000001D02*
X186650000Y-72000000D01*
X193458680Y-67728680D02*
X191337360Y-69850000D01*
X191337360Y-69850000D02*
X188800000Y-69850000D01*
G04 #@! TO.N,Net-(J2-PadTN)*
X176962640Y-69850000D02*
X174841320Y-67728680D01*
X181650000Y-72000000D02*
X179500000Y-69850000D01*
X179500000Y-69850000D02*
X176962640Y-69850000D01*
G04 #@! TO.N,Net-(D2-Pad2)*
X185420000Y-105310000D02*
X185320000Y-105410000D01*
X185420000Y-101600000D02*
X185420000Y-105310000D01*
G04 #@! TD*
D25*
G04 #@! TO.N,GNDREF*
G36*
X177915000Y-64254343D02*
X177915000Y-64745657D01*
X178103018Y-65199571D01*
X178450429Y-65546982D01*
X178904343Y-65735000D01*
X179395657Y-65735000D01*
X179849571Y-65546982D01*
X180196982Y-65199571D01*
X180385000Y-64745657D01*
X180385000Y-64254343D01*
X180366632Y-64210000D01*
X187933368Y-64210000D01*
X187915000Y-64254343D01*
X187915000Y-64745657D01*
X188103018Y-65199571D01*
X188450429Y-65546982D01*
X188904343Y-65735000D01*
X189395657Y-65735000D01*
X189849571Y-65546982D01*
X190196982Y-65199571D01*
X190385000Y-64745657D01*
X190385000Y-64254343D01*
X190366632Y-64210000D01*
X196805334Y-64210000D01*
X197303698Y-64272958D01*
X197728893Y-64441305D01*
X198098858Y-64710101D01*
X198390356Y-65062462D01*
X198585067Y-65476244D01*
X198677093Y-65958662D01*
X198680001Y-66051195D01*
X198680001Y-68375020D01*
X198069546Y-67764565D01*
X197845040Y-67764565D01*
X195759605Y-69850000D01*
X196925801Y-71016196D01*
X197150307Y-71016196D01*
X198680001Y-69486502D01*
X198680001Y-89640137D01*
X198667929Y-89622071D01*
X198604476Y-89579673D01*
X196340000Y-87315199D01*
X196340000Y-77544846D01*
X196354888Y-77469999D01*
X196340000Y-77395152D01*
X196340000Y-77395148D01*
X196295904Y-77173463D01*
X196127929Y-76922071D01*
X196064473Y-76879671D01*
X194900331Y-75715530D01*
X194857929Y-75652071D01*
X194606537Y-75484096D01*
X194384852Y-75440000D01*
X194384847Y-75440000D01*
X194310000Y-75425112D01*
X194235153Y-75440000D01*
X189578043Y-75440000D01*
X189394577Y-75165423D01*
X188919909Y-74848260D01*
X188501333Y-74765000D01*
X187418667Y-74765000D01*
X187000091Y-74848260D01*
X186525423Y-75165423D01*
X186208260Y-75640091D01*
X186096887Y-76200000D01*
X186208260Y-76759909D01*
X186525423Y-77234577D01*
X186881499Y-77472499D01*
X186455500Y-77815104D01*
X186185633Y-78308181D01*
X186168096Y-78390961D01*
X186290085Y-78613000D01*
X187833000Y-78613000D01*
X187833000Y-78593000D01*
X188087000Y-78593000D01*
X188087000Y-78613000D01*
X189629915Y-78613000D01*
X189751904Y-78390961D01*
X189734367Y-78308181D01*
X189464500Y-77815104D01*
X189038501Y-77472499D01*
X189394577Y-77234577D01*
X189578043Y-76960000D01*
X193995199Y-76960000D01*
X194440198Y-77405000D01*
X194178515Y-77405000D01*
X193789109Y-77482458D01*
X193347519Y-77777519D01*
X193212226Y-77980000D01*
X193114846Y-77980000D01*
X193039999Y-77965112D01*
X192965152Y-77980000D01*
X192965148Y-77980000D01*
X192743463Y-78024096D01*
X192492071Y-78192071D01*
X192449671Y-78255527D01*
X192030198Y-78675000D01*
X191504452Y-78675000D01*
X191013783Y-78878242D01*
X190638242Y-79253783D01*
X190435000Y-79744452D01*
X190435000Y-80270199D01*
X190185199Y-80520000D01*
X189578043Y-80520000D01*
X189394577Y-80245423D01*
X189038501Y-80007501D01*
X189464500Y-79664896D01*
X189734367Y-79171819D01*
X189751904Y-79089039D01*
X189629915Y-78867000D01*
X188087000Y-78867000D01*
X188087000Y-78887000D01*
X187833000Y-78887000D01*
X187833000Y-78867000D01*
X186290085Y-78867000D01*
X186168096Y-79089039D01*
X186185633Y-79171819D01*
X186455500Y-79664896D01*
X186881499Y-80007501D01*
X186525423Y-80245423D01*
X186208260Y-80720091D01*
X186096887Y-81280000D01*
X186208260Y-81839909D01*
X186525423Y-82314577D01*
X186646106Y-82395215D01*
X186512235Y-82421843D01*
X186302191Y-82562191D01*
X186161843Y-82772235D01*
X186112560Y-83020000D01*
X186112560Y-83316237D01*
X186099671Y-83335527D01*
X184935528Y-84499671D01*
X184872072Y-84542071D01*
X184829672Y-84605527D01*
X184829671Y-84605528D01*
X184704097Y-84793463D01*
X184645112Y-85090000D01*
X184660001Y-85164851D01*
X184660000Y-86391570D01*
X184607138Y-86413466D01*
X184203466Y-86817138D01*
X184150000Y-86946216D01*
X184096534Y-86817138D01*
X183692862Y-86413466D01*
X183640000Y-86391570D01*
X183640000Y-82624846D01*
X183654888Y-82549999D01*
X183640000Y-82475152D01*
X183640000Y-82475148D01*
X183595904Y-82253463D01*
X183427929Y-82002071D01*
X183364473Y-81959671D01*
X182200331Y-80795530D01*
X182157929Y-80732071D01*
X182052815Y-80661836D01*
X181774577Y-80245423D01*
X181422242Y-80010000D01*
X181774577Y-79774577D01*
X182091740Y-79299909D01*
X182203113Y-78740000D01*
X182091740Y-78180091D01*
X181774577Y-77705423D01*
X181418501Y-77467501D01*
X181844500Y-77124896D01*
X182114367Y-76631819D01*
X182131904Y-76549039D01*
X182009915Y-76327000D01*
X180467000Y-76327000D01*
X180467000Y-76347000D01*
X180213000Y-76347000D01*
X180213000Y-76327000D01*
X178670085Y-76327000D01*
X178548096Y-76549039D01*
X178565633Y-76631819D01*
X178835500Y-77124896D01*
X179261499Y-77467501D01*
X178905423Y-77705423D01*
X178721957Y-77980000D01*
X177874846Y-77980000D01*
X177799999Y-77965112D01*
X177725152Y-77980000D01*
X177725148Y-77980000D01*
X177503463Y-78024096D01*
X177252071Y-78192071D01*
X177209671Y-78255527D01*
X176790198Y-78675000D01*
X176269801Y-78675000D01*
X175850331Y-78255530D01*
X175807929Y-78192071D01*
X175556537Y-78024096D01*
X175334852Y-77980000D01*
X175334847Y-77980000D01*
X175260000Y-77965112D01*
X175185153Y-77980000D01*
X175087774Y-77980000D01*
X174952481Y-77777519D01*
X174510891Y-77482458D01*
X174121485Y-77405000D01*
X173858515Y-77405000D01*
X173469109Y-77482458D01*
X173027519Y-77777519D01*
X172732458Y-78219109D01*
X172628846Y-78740000D01*
X172732458Y-79260891D01*
X173027519Y-79702481D01*
X173469109Y-79997542D01*
X173858515Y-80075000D01*
X174121485Y-80075000D01*
X174510891Y-79997542D01*
X174952481Y-79702481D01*
X175030667Y-79585468D01*
X175195000Y-79749801D01*
X175195000Y-80270199D01*
X174775530Y-80689669D01*
X174712071Y-80732071D01*
X174544096Y-80983464D01*
X174500000Y-81205149D01*
X174500000Y-81205153D01*
X174485112Y-81280000D01*
X174500000Y-81354847D01*
X174500001Y-83705148D01*
X174485112Y-83780000D01*
X174544097Y-84076537D01*
X174660003Y-84250002D01*
X174712072Y-84327929D01*
X174775528Y-84370329D01*
X175116897Y-84711698D01*
X175095000Y-84764561D01*
X175095000Y-85335439D01*
X175204585Y-85600000D01*
X175117975Y-85600000D01*
X174746217Y-85228242D01*
X174255548Y-85025000D01*
X173724452Y-85025000D01*
X173233783Y-85228242D01*
X172858242Y-85603783D01*
X172655000Y-86094452D01*
X172655000Y-86625548D01*
X172858242Y-87116217D01*
X173233783Y-87491758D01*
X173724452Y-87695000D01*
X174255548Y-87695000D01*
X174468338Y-87606859D01*
X172235530Y-89839669D01*
X172172071Y-89882071D01*
X172004096Y-90133464D01*
X171960000Y-90355149D01*
X171960000Y-90355153D01*
X171945112Y-90430000D01*
X171960000Y-90504847D01*
X171960001Y-92773774D01*
X171960000Y-92773779D01*
X171960000Y-92852025D01*
X171588242Y-93223783D01*
X171385000Y-93714452D01*
X171385000Y-94245548D01*
X171588242Y-94736217D01*
X171960001Y-95107976D01*
X171960001Y-95175149D01*
X171945112Y-95250000D01*
X171960001Y-95324852D01*
X172004097Y-95546537D01*
X172172072Y-95797929D01*
X172235528Y-95840329D01*
X173770360Y-97375162D01*
X173725000Y-97484670D01*
X173725000Y-98095330D01*
X173958690Y-98659507D01*
X174390493Y-99091310D01*
X174954670Y-99325000D01*
X175565330Y-99325000D01*
X175674838Y-99279640D01*
X176359203Y-99964005D01*
X176242191Y-100042191D01*
X176101843Y-100252235D01*
X176052560Y-100500000D01*
X176052560Y-102700000D01*
X176101843Y-102947765D01*
X176242191Y-103157809D01*
X176452235Y-103298157D01*
X176700000Y-103347440D01*
X177557758Y-103347440D01*
X176984839Y-103920360D01*
X176875330Y-103875000D01*
X176264670Y-103875000D01*
X175700493Y-104108690D01*
X175268690Y-104540493D01*
X175035000Y-105104670D01*
X175035000Y-105715330D01*
X175268690Y-106279507D01*
X175649183Y-106660000D01*
X175268690Y-107040493D01*
X175035000Y-107604670D01*
X175035000Y-108215330D01*
X175268690Y-108779507D01*
X175700493Y-109211310D01*
X175708290Y-109214539D01*
X175669446Y-109329841D01*
X176570000Y-110230395D01*
X177470554Y-109329841D01*
X177431710Y-109214539D01*
X177439507Y-109211310D01*
X177820000Y-108830817D01*
X178200493Y-109211310D01*
X178208290Y-109214539D01*
X178169446Y-109329841D01*
X179070000Y-110230395D01*
X179970554Y-109329841D01*
X179931710Y-109214539D01*
X179939507Y-109211310D01*
X180371310Y-108779507D01*
X180416669Y-108670000D01*
X188075199Y-108670000D01*
X189323823Y-109918625D01*
X189255000Y-110084778D01*
X189255000Y-110735222D01*
X189503914Y-111336153D01*
X189963847Y-111796086D01*
X190564778Y-112045000D01*
X191215222Y-112045000D01*
X191816153Y-111796086D01*
X192276086Y-111336153D01*
X192525000Y-110735222D01*
X192525000Y-110084778D01*
X192276086Y-109483847D01*
X191952239Y-109160000D01*
X192276086Y-108836153D01*
X192525000Y-108235222D01*
X192525000Y-107584778D01*
X192276086Y-106983847D01*
X191816153Y-106523914D01*
X191608607Y-106437946D01*
X191936982Y-106109571D01*
X192125000Y-105655657D01*
X192125000Y-105164343D01*
X192117179Y-105145461D01*
X194244092Y-105145461D01*
X194268144Y-105795460D01*
X194470613Y-106284264D01*
X194737468Y-106382927D01*
X195710395Y-105410000D01*
X194737468Y-104437073D01*
X194470613Y-104535736D01*
X194244092Y-105145461D01*
X192117179Y-105145461D01*
X191936982Y-104710429D01*
X191608607Y-104382054D01*
X191816153Y-104296086D01*
X192276086Y-103836153D01*
X192525000Y-103235222D01*
X192525000Y-102584778D01*
X192276086Y-101983847D01*
X191952239Y-101660000D01*
X192276086Y-101336153D01*
X192525000Y-100735222D01*
X192525000Y-100084778D01*
X192276086Y-99483847D01*
X191816153Y-99023914D01*
X191215222Y-98775000D01*
X190564778Y-98775000D01*
X189963847Y-99023914D01*
X189503914Y-99483847D01*
X189255000Y-100084778D01*
X189255000Y-100500199D01*
X188745528Y-101009671D01*
X188682072Y-101052071D01*
X188639672Y-101115527D01*
X188639671Y-101115528D01*
X188514097Y-101303463D01*
X188455112Y-101600000D01*
X188470001Y-101674852D01*
X188470000Y-103825197D01*
X186855000Y-105440198D01*
X186855000Y-105104670D01*
X186621310Y-104540493D01*
X186189507Y-104108690D01*
X186180000Y-104104752D01*
X186180000Y-103178850D01*
X186670865Y-102850865D01*
X187054334Y-102276963D01*
X187188990Y-101600000D01*
X187054334Y-100923037D01*
X186670865Y-100349135D01*
X186096963Y-99965666D01*
X185590880Y-99865000D01*
X185249120Y-99865000D01*
X185006552Y-99913250D01*
X185904473Y-99015329D01*
X185967929Y-98972929D01*
X186135904Y-98721537D01*
X186180000Y-98499852D01*
X186180000Y-98499848D01*
X186194888Y-98425000D01*
X186180000Y-98350152D01*
X186180000Y-94915275D01*
X187204331Y-94915275D01*
X187266169Y-95151042D01*
X187767122Y-95327419D01*
X188297440Y-95298664D01*
X188653831Y-95151042D01*
X188715669Y-94915275D01*
X187960000Y-94159605D01*
X187204331Y-94915275D01*
X186180000Y-94915275D01*
X186180000Y-93787122D01*
X186612581Y-93787122D01*
X186641336Y-94317440D01*
X186788958Y-94673831D01*
X187024725Y-94735669D01*
X187780395Y-93980000D01*
X188139605Y-93980000D01*
X188895275Y-94735669D01*
X189131042Y-94673831D01*
X189307419Y-94172878D01*
X189278664Y-93642560D01*
X189131042Y-93286169D01*
X188895275Y-93224331D01*
X188139605Y-93980000D01*
X187780395Y-93980000D01*
X187024725Y-93224331D01*
X186788958Y-93286169D01*
X186612581Y-93787122D01*
X186180000Y-93787122D01*
X186180000Y-93044725D01*
X187204331Y-93044725D01*
X187960000Y-93800395D01*
X188715669Y-93044725D01*
X188653831Y-92808958D01*
X188152878Y-92632581D01*
X187622560Y-92661336D01*
X187266169Y-92808958D01*
X187204331Y-93044725D01*
X186180000Y-93044725D01*
X186180000Y-91368430D01*
X186232862Y-91346534D01*
X186441651Y-91137745D01*
X187131861Y-91137745D01*
X187205995Y-91383864D01*
X187743223Y-91576965D01*
X188313454Y-91549778D01*
X188714005Y-91383864D01*
X188776090Y-91177745D01*
X189671861Y-91177745D01*
X189745995Y-91423864D01*
X190283223Y-91616965D01*
X190853454Y-91589778D01*
X191254005Y-91423864D01*
X191328139Y-91177745D01*
X190500000Y-90349605D01*
X189671861Y-91177745D01*
X188776090Y-91177745D01*
X188788139Y-91137745D01*
X187960000Y-90309605D01*
X187131861Y-91137745D01*
X186441651Y-91137745D01*
X186636534Y-90942862D01*
X186683525Y-90829417D01*
X186706136Y-90884005D01*
X186952255Y-90958139D01*
X187780395Y-90130000D01*
X188139605Y-90130000D01*
X188967745Y-90958139D01*
X189213864Y-90884005D01*
X189221160Y-90863707D01*
X189246136Y-90924005D01*
X189492255Y-90998139D01*
X190320395Y-90170000D01*
X190679605Y-90170000D01*
X191507745Y-90998139D01*
X191753864Y-90924005D01*
X191946965Y-90386777D01*
X191919778Y-89816546D01*
X191753864Y-89415995D01*
X191507745Y-89341861D01*
X190679605Y-90170000D01*
X190320395Y-90170000D01*
X189492255Y-89341861D01*
X189246136Y-89415995D01*
X189238840Y-89436293D01*
X189213864Y-89375995D01*
X188967745Y-89301861D01*
X188139605Y-90130000D01*
X187780395Y-90130000D01*
X186952255Y-89301861D01*
X186706136Y-89375995D01*
X186685126Y-89434448D01*
X186636534Y-89317138D01*
X186232862Y-88913466D01*
X186152068Y-88880000D01*
X186232862Y-88846534D01*
X186636534Y-88442862D01*
X186690000Y-88313784D01*
X186743466Y-88442862D01*
X187147138Y-88846534D01*
X187212299Y-88873525D01*
X187205995Y-88876136D01*
X187131861Y-89122255D01*
X187960000Y-89950395D01*
X188788139Y-89122255D01*
X188714005Y-88876136D01*
X188707254Y-88873710D01*
X188772862Y-88846534D01*
X189176534Y-88442862D01*
X189198430Y-88390000D01*
X189245001Y-88390000D01*
X189283466Y-88482862D01*
X189687138Y-88886534D01*
X189752299Y-88913525D01*
X189745995Y-88916136D01*
X189671861Y-89162255D01*
X190500000Y-89990395D01*
X191328139Y-89162255D01*
X191254005Y-88916136D01*
X191247254Y-88913710D01*
X191312862Y-88886534D01*
X191716534Y-88482862D01*
X191735136Y-88437953D01*
X191770000Y-88444888D01*
X191844848Y-88430000D01*
X194346048Y-88430000D01*
X194153910Y-88509586D01*
X193609586Y-89053910D01*
X193315000Y-89765105D01*
X193315000Y-90534895D01*
X193609586Y-91246090D01*
X194153910Y-91790414D01*
X194865105Y-92085000D01*
X195634895Y-92085000D01*
X196346090Y-91790414D01*
X196890414Y-91246090D01*
X197185000Y-90534895D01*
X197185000Y-90309803D01*
X197360001Y-90484804D01*
X197360000Y-92784851D01*
X197360001Y-92784856D01*
X197360001Y-93220000D01*
X196677774Y-93220000D01*
X196542481Y-93017519D01*
X196100891Y-92722458D01*
X195711485Y-92645000D01*
X195448515Y-92645000D01*
X195059109Y-92722458D01*
X194617519Y-93017519D01*
X194322458Y-93459109D01*
X194218846Y-93980000D01*
X194266355Y-94218843D01*
X191455199Y-97030000D01*
X189057774Y-97030000D01*
X188922481Y-96827519D01*
X188480891Y-96532458D01*
X188091485Y-96455000D01*
X187828515Y-96455000D01*
X187439109Y-96532458D01*
X186997519Y-96827519D01*
X186702458Y-97269109D01*
X186598846Y-97790000D01*
X186702458Y-98310891D01*
X186997519Y-98752481D01*
X187439109Y-99047542D01*
X187828515Y-99125000D01*
X188091485Y-99125000D01*
X188480891Y-99047542D01*
X188922481Y-98752481D01*
X189057774Y-98550000D01*
X191695153Y-98550000D01*
X191770000Y-98564888D01*
X191844847Y-98550000D01*
X191844852Y-98550000D01*
X192066537Y-98505904D01*
X192317929Y-98337929D01*
X192360331Y-98274470D01*
X195341157Y-95293645D01*
X195448515Y-95315000D01*
X195711485Y-95315000D01*
X196100891Y-95237542D01*
X196542481Y-94942481D01*
X196677774Y-94740000D01*
X197360001Y-94740000D01*
X197360000Y-97475198D01*
X196730529Y-98104670D01*
X196667073Y-98147070D01*
X196624673Y-98210526D01*
X196624672Y-98210527D01*
X196499098Y-98398462D01*
X196440113Y-98694999D01*
X196455002Y-98769851D01*
X196455002Y-99307277D01*
X196135657Y-99175000D01*
X195644343Y-99175000D01*
X195190429Y-99363018D01*
X194843018Y-99710429D01*
X194655000Y-100164343D01*
X194655000Y-100655657D01*
X194843018Y-101109571D01*
X195190429Y-101456982D01*
X195644343Y-101645000D01*
X196135657Y-101645000D01*
X196455002Y-101512723D01*
X196455001Y-103875718D01*
X196154539Y-103764092D01*
X195504540Y-103788144D01*
X195015736Y-103990613D01*
X194917073Y-104257468D01*
X195890000Y-105230395D01*
X195904143Y-105216253D01*
X196083748Y-105395858D01*
X196069605Y-105410000D01*
X196083748Y-105424143D01*
X195904143Y-105603748D01*
X195890000Y-105589605D01*
X194917073Y-106562532D01*
X195015736Y-106829387D01*
X195625461Y-107055908D01*
X196275460Y-107031856D01*
X196455001Y-106957488D01*
X196455001Y-107270196D01*
X191374059Y-112351140D01*
X190924678Y-112165000D01*
X190075322Y-112165000D01*
X189290620Y-112490034D01*
X188690034Y-113090620D01*
X188365000Y-113875322D01*
X188365000Y-114724678D01*
X188690034Y-115509380D01*
X189290620Y-116109966D01*
X189338986Y-116130000D01*
X178961014Y-116130000D01*
X179009380Y-116109966D01*
X179609966Y-115509380D01*
X179796105Y-115060000D01*
X181355153Y-115060000D01*
X181430000Y-115074888D01*
X181504847Y-115060000D01*
X181504852Y-115060000D01*
X181726537Y-115015904D01*
X181977929Y-114847929D01*
X182020331Y-114784470D01*
X184905162Y-111899640D01*
X185014670Y-111945000D01*
X185625330Y-111945000D01*
X186189507Y-111711310D01*
X186621310Y-111279507D01*
X186855000Y-110715330D01*
X186855000Y-110104670D01*
X186621310Y-109540493D01*
X186189507Y-109108690D01*
X185625330Y-108875000D01*
X185014670Y-108875000D01*
X184450493Y-109108690D01*
X184018690Y-109540493D01*
X183785000Y-110104670D01*
X183785000Y-110715330D01*
X183830360Y-110824838D01*
X181115199Y-113540000D01*
X179796105Y-113540000D01*
X179609966Y-113090620D01*
X179009380Y-112490034D01*
X178224678Y-112165000D01*
X177375322Y-112165000D01*
X176590620Y-112490034D01*
X175990034Y-113090620D01*
X175665000Y-113875322D01*
X175665000Y-114724678D01*
X175990034Y-115509380D01*
X176590620Y-116109966D01*
X176638986Y-116130000D01*
X175343950Y-116130000D01*
X175378455Y-116069516D01*
X175413424Y-116026031D01*
X175422635Y-115994541D01*
X175457969Y-115936075D01*
X175459201Y-115927975D01*
X175463262Y-115920856D01*
X175477773Y-115806054D01*
X175483534Y-115786358D01*
X175482368Y-115775620D01*
X175483647Y-115767212D01*
X175495292Y-115714102D01*
X175493364Y-115703312D01*
X175495510Y-115689198D01*
X175494753Y-115672551D01*
X175469739Y-115571123D01*
X175451360Y-115468282D01*
X175442594Y-115445894D01*
X175436515Y-115436400D01*
X175434961Y-115430100D01*
X175428511Y-115421336D01*
X175423624Y-115402291D01*
X175409745Y-115373376D01*
X175406962Y-115367568D01*
X175394080Y-115350382D01*
X175387390Y-115329973D01*
X175372893Y-115304244D01*
X175372235Y-115303477D01*
X175371917Y-115302518D01*
X175329384Y-115253289D01*
X175323203Y-115239150D01*
X175287598Y-115204900D01*
X175267398Y-115181374D01*
X175257189Y-115167754D01*
X175254167Y-115165963D01*
X175246997Y-115157613D01*
X175250389Y-115140870D01*
X175276778Y-115029173D01*
X175279304Y-114958346D01*
X175261855Y-114850701D01*
X175257194Y-114808634D01*
X175266620Y-114765259D01*
X175293731Y-114647197D01*
X175293096Y-114643427D01*
X175293907Y-114639693D01*
X175272373Y-114520479D01*
X175262257Y-114460464D01*
X175271729Y-114403974D01*
X175292433Y-114281616D01*
X175292324Y-114281141D01*
X175292405Y-114280659D01*
X175264410Y-114159223D01*
X175236701Y-114038199D01*
X175219157Y-113999062D01*
X175249950Y-113942894D01*
X175250255Y-113940103D01*
X175251581Y-113937634D01*
X175257463Y-113879112D01*
X175275127Y-113824513D01*
X175271688Y-113781515D01*
X175272833Y-113777325D01*
X175270256Y-113756969D01*
X175277062Y-113694655D01*
X175277016Y-113694131D01*
X175276303Y-113691687D01*
X175276556Y-113689170D01*
X175259870Y-113633762D01*
X175257101Y-113599142D01*
X175257134Y-113599075D01*
X175260489Y-113550446D01*
X175275127Y-113505199D01*
X175271688Y-113462201D01*
X175272833Y-113458011D01*
X175270256Y-113437655D01*
X175277062Y-113375341D01*
X175277016Y-113374817D01*
X175273450Y-113362595D01*
X175274322Y-113349952D01*
X175259076Y-113304528D01*
X175255217Y-113256278D01*
X175252684Y-113247339D01*
X175264867Y-113212018D01*
X175271964Y-113160077D01*
X175268735Y-113106823D01*
X175270241Y-113097851D01*
X175272901Y-113089254D01*
X175272467Y-113084587D01*
X175277567Y-113054205D01*
X175276051Y-113003770D01*
X175270665Y-112980387D01*
X175270482Y-112976443D01*
X175279127Y-112938971D01*
X175272204Y-112897641D01*
X175276209Y-112855468D01*
X175276118Y-112854576D01*
X175268547Y-112829927D01*
X175267921Y-112786401D01*
X175274757Y-112742882D01*
X175275197Y-112740956D01*
X175275126Y-112740536D01*
X175278988Y-112715947D01*
X175266144Y-112662748D01*
X175265358Y-112608027D01*
X175261296Y-112589036D01*
X175245649Y-112552743D01*
X175245617Y-112550249D01*
X175241003Y-112539496D01*
X175233410Y-112494762D01*
X175221102Y-112462502D01*
X175207674Y-112441124D01*
X175201524Y-112416636D01*
X175198028Y-112409257D01*
X175198515Y-112408294D01*
X175211204Y-112362817D01*
X175217542Y-112351179D01*
X175219446Y-112333279D01*
X175224444Y-112315367D01*
X175258652Y-112225163D01*
X175270279Y-112155818D01*
X175266933Y-112045143D01*
X175268571Y-111934428D01*
X175255858Y-111865177D01*
X175245494Y-111839070D01*
X175246043Y-111832053D01*
X175249775Y-111824210D01*
X175257190Y-111794899D01*
X175262529Y-111691158D01*
X175274783Y-111588001D01*
X175271369Y-111544385D01*
X175267360Y-111530148D01*
X175268435Y-111515393D01*
X175267096Y-111504621D01*
X175266531Y-111499074D01*
X175267547Y-111490159D01*
X175669446Y-111490159D01*
X175755852Y-111746643D01*
X176329336Y-111956458D01*
X176939460Y-111930839D01*
X177384148Y-111746643D01*
X177470554Y-111490159D01*
X178169446Y-111490159D01*
X178255852Y-111746643D01*
X178829336Y-111956458D01*
X179439460Y-111930839D01*
X179884148Y-111746643D01*
X179970554Y-111490159D01*
X179070000Y-110589605D01*
X178169446Y-111490159D01*
X177470554Y-111490159D01*
X176570000Y-110589605D01*
X175669446Y-111490159D01*
X175267547Y-111490159D01*
X175268897Y-111478328D01*
X175270418Y-111465916D01*
X175267946Y-111432768D01*
X175275051Y-111400301D01*
X175275776Y-111362326D01*
X175274759Y-111356649D01*
X175275892Y-111350993D01*
X175253326Y-111236721D01*
X175252879Y-111230725D01*
X175489841Y-111310554D01*
X176390395Y-110410000D01*
X176749605Y-110410000D01*
X177650159Y-111310554D01*
X177820000Y-111253337D01*
X177989841Y-111310554D01*
X178890395Y-110410000D01*
X179249605Y-110410000D01*
X180150159Y-111310554D01*
X180406643Y-111224148D01*
X180616458Y-110650664D01*
X180590839Y-110040540D01*
X180406643Y-109595852D01*
X180150159Y-109509446D01*
X179249605Y-110410000D01*
X178890395Y-110410000D01*
X177989841Y-109509446D01*
X177820000Y-109566663D01*
X177650159Y-109509446D01*
X176749605Y-110410000D01*
X176390395Y-110410000D01*
X175489841Y-109509446D01*
X175233357Y-109595852D01*
X175210311Y-109658842D01*
X175205606Y-109648596D01*
X175197986Y-109623087D01*
X175194770Y-109619134D01*
X175190216Y-109598325D01*
X175177782Y-109580465D01*
X175160215Y-109536365D01*
X175140652Y-109506207D01*
X175089472Y-109453614D01*
X175047540Y-109393382D01*
X175011087Y-109358296D01*
X174998960Y-109350524D01*
X174990215Y-109339080D01*
X174984891Y-109334392D01*
X174966412Y-109323673D01*
X174952349Y-109307587D01*
X174911375Y-109276044D01*
X174837704Y-109239570D01*
X174789310Y-109206785D01*
X174782660Y-109201412D01*
X174780390Y-109200742D01*
X174769652Y-109193468D01*
X174733967Y-109178419D01*
X174700155Y-109171469D01*
X174687586Y-109165246D01*
X174661295Y-109163481D01*
X174637551Y-109158601D01*
X174543151Y-109130750D01*
X174500834Y-109126908D01*
X174471702Y-109130002D01*
X174442966Y-109124286D01*
X174380779Y-109124286D01*
X174336934Y-109133007D01*
X174335912Y-109132738D01*
X174271404Y-109128790D01*
X174240244Y-109133029D01*
X174209200Y-109128012D01*
X174160957Y-109129755D01*
X174064920Y-109152491D01*
X173967332Y-109167153D01*
X173906363Y-109189096D01*
X173812499Y-109245594D01*
X173730575Y-109289615D01*
X173728534Y-109290485D01*
X173728065Y-109290964D01*
X173715996Y-109297449D01*
X173682397Y-109325147D01*
X173621322Y-109399902D01*
X173553765Y-109468849D01*
X173516234Y-109526275D01*
X173479628Y-109617258D01*
X173435401Y-109704800D01*
X173416441Y-109772922D01*
X173409428Y-109866128D01*
X173393151Y-109958165D01*
X173394652Y-110028585D01*
X173417618Y-110132427D01*
X173431194Y-110217246D01*
X173415345Y-110256136D01*
X173402669Y-110321825D01*
X173403149Y-110405760D01*
X173392728Y-110489047D01*
X173397749Y-110558788D01*
X173421770Y-110646188D01*
X173431020Y-110703762D01*
X173412607Y-110691482D01*
X173366059Y-110645674D01*
X173309742Y-110622874D01*
X173259195Y-110589161D01*
X173195130Y-110576473D01*
X173134593Y-110551965D01*
X173073836Y-110552452D01*
X173014237Y-110540649D01*
X172950194Y-110553443D01*
X172884885Y-110553967D01*
X172828940Y-110577667D01*
X172769360Y-110589570D01*
X172715087Y-110625900D01*
X172654952Y-110651375D01*
X172582914Y-110700350D01*
X172581314Y-110692033D01*
X172580724Y-110690582D01*
X172580726Y-110689014D01*
X172565686Y-110612814D01*
X172541471Y-110554108D01*
X172529082Y-110491826D01*
X172494323Y-110439805D01*
X172470465Y-110381966D01*
X172425627Y-110336996D01*
X172390347Y-110284195D01*
X172338325Y-110249435D01*
X172294150Y-110205129D01*
X172235518Y-110180741D01*
X172182716Y-110145460D01*
X172121351Y-110133254D01*
X172063585Y-110109226D01*
X172000082Y-110109132D01*
X171937799Y-110096743D01*
X171620492Y-110096743D01*
X171620353Y-110096771D01*
X171620213Y-110096743D01*
X171581197Y-110096760D01*
X171580253Y-110096948D01*
X171579311Y-110096764D01*
X171484127Y-110097086D01*
X171480932Y-110097733D01*
X171477724Y-110097139D01*
X171406688Y-110098090D01*
X171399213Y-110099681D01*
X171391670Y-110098468D01*
X171341150Y-110100331D01*
X171324149Y-110104369D01*
X171306769Y-110102526D01*
X171273133Y-110105585D01*
X171242425Y-110114650D01*
X171223170Y-110113510D01*
X171210691Y-110117834D01*
X171191967Y-110118261D01*
X171171587Y-110122800D01*
X171142435Y-110135661D01*
X171131161Y-110136458D01*
X171077143Y-110163441D01*
X171033635Y-110176284D01*
X171027345Y-110181368D01*
X170987220Y-110195272D01*
X170976464Y-110201573D01*
X170960111Y-110216098D01*
X170943118Y-110223595D01*
X170930704Y-110236588D01*
X170907764Y-110248047D01*
X170852636Y-110311561D01*
X170789763Y-110367406D01*
X170783287Y-110380751D01*
X170776941Y-110386632D01*
X170767672Y-110406808D01*
X170763957Y-110410464D01*
X170761257Y-110416838D01*
X170744077Y-110436632D01*
X170739315Y-110444980D01*
X170711122Y-110529449D01*
X170680735Y-110592063D01*
X170680465Y-110596619D01*
X170672689Y-110613545D01*
X170670760Y-110621626D01*
X170670389Y-110631401D01*
X170666574Y-110640408D01*
X170659749Y-110673355D01*
X170659727Y-110676129D01*
X170658668Y-110678690D01*
X170653383Y-110705340D01*
X170650359Y-110702583D01*
X170602037Y-110673436D01*
X170579872Y-110665435D01*
X170561348Y-110650868D01*
X170527603Y-110633725D01*
X170474535Y-110618827D01*
X170426029Y-110592643D01*
X170403868Y-110585822D01*
X170391384Y-110584541D01*
X170380119Y-110579010D01*
X170318771Y-110575098D01*
X170287182Y-110566230D01*
X170276737Y-110567479D01*
X170260763Y-110562714D01*
X170219857Y-110566934D01*
X170155458Y-110560324D01*
X170143434Y-110563918D01*
X170130910Y-110563119D01*
X170117341Y-110564930D01*
X170113101Y-110566378D01*
X170108628Y-110566154D01*
X170060318Y-110583394D01*
X170012366Y-110588341D01*
X169961768Y-110615688D01*
X169958909Y-110616145D01*
X169949657Y-110621832D01*
X169916199Y-110631831D01*
X169912440Y-110634890D01*
X169881020Y-110645618D01*
X169877657Y-110648578D01*
X169873439Y-110650083D01*
X169872421Y-110650692D01*
X169835952Y-110683689D01*
X169792684Y-110707075D01*
X169772911Y-110723457D01*
X169761532Y-110737454D01*
X169746163Y-110746900D01*
X169710128Y-110780298D01*
X169706365Y-110785491D01*
X169700966Y-110788958D01*
X169652243Y-110835934D01*
X169650018Y-110839136D01*
X169646762Y-110841282D01*
X169620000Y-110867709D01*
X169620000Y-103015105D01*
X171115000Y-103015105D01*
X171115000Y-103784895D01*
X171409586Y-104496090D01*
X171953910Y-105040414D01*
X172665105Y-105335000D01*
X173434895Y-105335000D01*
X174146090Y-105040414D01*
X174690414Y-104496090D01*
X174985000Y-103784895D01*
X174985000Y-103015105D01*
X174690414Y-102303910D01*
X174146090Y-101759586D01*
X173434895Y-101465000D01*
X172665105Y-101465000D01*
X171953910Y-101759586D01*
X171409586Y-102303910D01*
X171115000Y-103015105D01*
X169620000Y-103015105D01*
X169620000Y-75015105D01*
X171115000Y-75015105D01*
X171115000Y-75784895D01*
X171409586Y-76496090D01*
X171953910Y-77040414D01*
X172665105Y-77335000D01*
X173434895Y-77335000D01*
X174146090Y-77040414D01*
X174690414Y-76496090D01*
X174957634Y-75850961D01*
X178548096Y-75850961D01*
X178670085Y-76073000D01*
X180213000Y-76073000D01*
X180213000Y-74765000D01*
X180467000Y-74765000D01*
X180467000Y-76073000D01*
X182009915Y-76073000D01*
X182131904Y-75850961D01*
X182114367Y-75768181D01*
X181844500Y-75275104D01*
X181406483Y-74922834D01*
X180867000Y-74765000D01*
X180467000Y-74765000D01*
X180213000Y-74765000D01*
X179813000Y-74765000D01*
X179273517Y-74922834D01*
X178835500Y-75275104D01*
X178565633Y-75768181D01*
X178548096Y-75850961D01*
X174957634Y-75850961D01*
X174985000Y-75784895D01*
X174985000Y-75015105D01*
X174690414Y-74303910D01*
X174146090Y-73759586D01*
X173434895Y-73465000D01*
X172665105Y-73465000D01*
X171953910Y-73759586D01*
X171409586Y-74303910D01*
X171115000Y-75015105D01*
X169620000Y-75015105D01*
X169620000Y-71195801D01*
X171553804Y-71195801D01*
X171553804Y-71420307D01*
X173279541Y-73146044D01*
X173512930Y-73242717D01*
X173765549Y-73242716D01*
X173998938Y-73146043D01*
X174805435Y-72339546D01*
X174805435Y-72115040D01*
X172720000Y-70029605D01*
X171553804Y-71195801D01*
X169620000Y-71195801D01*
X169620000Y-69486503D01*
X171149693Y-71016196D01*
X171374199Y-71016196D01*
X172540395Y-69850000D01*
X170454960Y-67764565D01*
X170230454Y-67764565D01*
X169620000Y-68375019D01*
X169620000Y-67360454D01*
X170634565Y-67360454D01*
X170634565Y-67584960D01*
X172720000Y-69670395D01*
X172734143Y-69656253D01*
X172913748Y-69835858D01*
X172899605Y-69850000D01*
X174985040Y-71935435D01*
X175209546Y-71935435D01*
X175271610Y-71873371D01*
X175168846Y-72390000D01*
X175272458Y-72910891D01*
X175567519Y-73352481D01*
X176009109Y-73647542D01*
X176398515Y-73725000D01*
X176661485Y-73725000D01*
X177050891Y-73647542D01*
X177492481Y-73352481D01*
X177771965Y-72934204D01*
X178223847Y-73386086D01*
X178824778Y-73635000D01*
X179475222Y-73635000D01*
X180076153Y-73386086D01*
X180400000Y-73062239D01*
X180723847Y-73386086D01*
X181324778Y-73635000D01*
X181975222Y-73635000D01*
X182576153Y-73386086D01*
X183036086Y-72926153D01*
X183122054Y-72718607D01*
X183450429Y-73046982D01*
X183904343Y-73235000D01*
X184395657Y-73235000D01*
X184849571Y-73046982D01*
X185177946Y-72718607D01*
X185263914Y-72926153D01*
X185723847Y-73386086D01*
X186324778Y-73635000D01*
X186975222Y-73635000D01*
X187576153Y-73386086D01*
X187900000Y-73062239D01*
X188223847Y-73386086D01*
X188824778Y-73635000D01*
X189475222Y-73635000D01*
X190076153Y-73386086D01*
X190528035Y-72934204D01*
X190807519Y-73352481D01*
X191249109Y-73647542D01*
X191638515Y-73725000D01*
X191901485Y-73725000D01*
X192290891Y-73647542D01*
X192732481Y-73352481D01*
X193027542Y-72910891D01*
X193131154Y-72390000D01*
X193076462Y-72115040D01*
X193494565Y-72115040D01*
X193494565Y-72339546D01*
X194301062Y-73146043D01*
X194534451Y-73242716D01*
X194787070Y-73242717D01*
X195020459Y-73146044D01*
X196746196Y-71420307D01*
X196746196Y-71195801D01*
X195580000Y-70029605D01*
X193494565Y-72115040D01*
X193076462Y-72115040D01*
X193028390Y-71873371D01*
X193090454Y-71935435D01*
X193314960Y-71935435D01*
X195400395Y-69850000D01*
X195386253Y-69835858D01*
X195565858Y-69656253D01*
X195580000Y-69670395D01*
X197665435Y-67584960D01*
X197665435Y-67360454D01*
X196858938Y-66553957D01*
X196625549Y-66457284D01*
X196524549Y-66457284D01*
X196495836Y-66312932D01*
X196214587Y-65892012D01*
X195295348Y-64972773D01*
X194874428Y-64691524D01*
X194377919Y-64592762D01*
X193881410Y-64691524D01*
X193460490Y-64972773D01*
X190702773Y-67730490D01*
X190421524Y-68151410D01*
X190322762Y-68647919D01*
X190410698Y-69090000D01*
X188874846Y-69090000D01*
X188799999Y-69075112D01*
X188725152Y-69090000D01*
X188725148Y-69090000D01*
X188503463Y-69134096D01*
X188252071Y-69302071D01*
X188209671Y-69365527D01*
X187165529Y-70409670D01*
X187165526Y-70409672D01*
X187141375Y-70433823D01*
X186975222Y-70365000D01*
X186324778Y-70365000D01*
X185723847Y-70613914D01*
X185263914Y-71073847D01*
X185177946Y-71281393D01*
X184849571Y-70953018D01*
X184395657Y-70765000D01*
X183904343Y-70765000D01*
X183450429Y-70953018D01*
X183122054Y-71281393D01*
X183036086Y-71073847D01*
X182576153Y-70613914D01*
X181975222Y-70365000D01*
X181324778Y-70365000D01*
X181158625Y-70433823D01*
X180090331Y-69365530D01*
X180047929Y-69302071D01*
X179796537Y-69134096D01*
X179574852Y-69090000D01*
X179574847Y-69090000D01*
X179500000Y-69075112D01*
X179425153Y-69090000D01*
X177889302Y-69090000D01*
X177977238Y-68647919D01*
X177878476Y-68151410D01*
X177597227Y-67730490D01*
X176621080Y-66754343D01*
X177915000Y-66754343D01*
X177915000Y-67245657D01*
X178103018Y-67699571D01*
X178450429Y-68046982D01*
X178904343Y-68235000D01*
X179395657Y-68235000D01*
X179594751Y-68152532D01*
X183177073Y-68152532D01*
X183275736Y-68419387D01*
X183885461Y-68645908D01*
X184535460Y-68621856D01*
X185024264Y-68419387D01*
X185122927Y-68152532D01*
X184150000Y-67179605D01*
X183177073Y-68152532D01*
X179594751Y-68152532D01*
X179849571Y-68046982D01*
X180196982Y-67699571D01*
X180385000Y-67245657D01*
X180385000Y-66754343D01*
X180377179Y-66735461D01*
X182504092Y-66735461D01*
X182528144Y-67385460D01*
X182730613Y-67874264D01*
X182997468Y-67972927D01*
X183970395Y-67000000D01*
X184329605Y-67000000D01*
X185302532Y-67972927D01*
X185569387Y-67874264D01*
X185795908Y-67264539D01*
X185777030Y-66754343D01*
X187915000Y-66754343D01*
X187915000Y-67245657D01*
X188103018Y-67699571D01*
X188450429Y-68046982D01*
X188904343Y-68235000D01*
X189395657Y-68235000D01*
X189849571Y-68046982D01*
X190196982Y-67699571D01*
X190385000Y-67245657D01*
X190385000Y-66754343D01*
X190196982Y-66300429D01*
X189849571Y-65953018D01*
X189395657Y-65765000D01*
X188904343Y-65765000D01*
X188450429Y-65953018D01*
X188103018Y-66300429D01*
X187915000Y-66754343D01*
X185777030Y-66754343D01*
X185771856Y-66614540D01*
X185569387Y-66125736D01*
X185302532Y-66027073D01*
X184329605Y-67000000D01*
X183970395Y-67000000D01*
X182997468Y-66027073D01*
X182730613Y-66125736D01*
X182504092Y-66735461D01*
X180377179Y-66735461D01*
X180196982Y-66300429D01*
X179849571Y-65953018D01*
X179594752Y-65847468D01*
X183177073Y-65847468D01*
X184150000Y-66820395D01*
X185122927Y-65847468D01*
X185024264Y-65580613D01*
X184414539Y-65354092D01*
X183764540Y-65378144D01*
X183275736Y-65580613D01*
X183177073Y-65847468D01*
X179594752Y-65847468D01*
X179395657Y-65765000D01*
X178904343Y-65765000D01*
X178450429Y-65953018D01*
X178103018Y-66300429D01*
X177915000Y-66754343D01*
X176621080Y-66754343D01*
X174839510Y-64972773D01*
X174418590Y-64691524D01*
X173922081Y-64592762D01*
X173425572Y-64691524D01*
X173004652Y-64972773D01*
X172085413Y-65892012D01*
X171804164Y-66312932D01*
X171775451Y-66457284D01*
X171674451Y-66457284D01*
X171441062Y-66553957D01*
X170634565Y-67360454D01*
X169620000Y-67360454D01*
X169620000Y-66084666D01*
X169682958Y-65586302D01*
X169851305Y-65161107D01*
X170120101Y-64791142D01*
X170472462Y-64499644D01*
X170886244Y-64304933D01*
X171368662Y-64212907D01*
X171461164Y-64210000D01*
X177933368Y-64210000D01*
X177915000Y-64254343D01*
X177915000Y-64254343D01*
G37*
X177915000Y-64254343D02*
X177915000Y-64745657D01*
X178103018Y-65199571D01*
X178450429Y-65546982D01*
X178904343Y-65735000D01*
X179395657Y-65735000D01*
X179849571Y-65546982D01*
X180196982Y-65199571D01*
X180385000Y-64745657D01*
X180385000Y-64254343D01*
X180366632Y-64210000D01*
X187933368Y-64210000D01*
X187915000Y-64254343D01*
X187915000Y-64745657D01*
X188103018Y-65199571D01*
X188450429Y-65546982D01*
X188904343Y-65735000D01*
X189395657Y-65735000D01*
X189849571Y-65546982D01*
X190196982Y-65199571D01*
X190385000Y-64745657D01*
X190385000Y-64254343D01*
X190366632Y-64210000D01*
X196805334Y-64210000D01*
X197303698Y-64272958D01*
X197728893Y-64441305D01*
X198098858Y-64710101D01*
X198390356Y-65062462D01*
X198585067Y-65476244D01*
X198677093Y-65958662D01*
X198680001Y-66051195D01*
X198680001Y-68375020D01*
X198069546Y-67764565D01*
X197845040Y-67764565D01*
X195759605Y-69850000D01*
X196925801Y-71016196D01*
X197150307Y-71016196D01*
X198680001Y-69486502D01*
X198680001Y-89640137D01*
X198667929Y-89622071D01*
X198604476Y-89579673D01*
X196340000Y-87315199D01*
X196340000Y-77544846D01*
X196354888Y-77469999D01*
X196340000Y-77395152D01*
X196340000Y-77395148D01*
X196295904Y-77173463D01*
X196127929Y-76922071D01*
X196064473Y-76879671D01*
X194900331Y-75715530D01*
X194857929Y-75652071D01*
X194606537Y-75484096D01*
X194384852Y-75440000D01*
X194384847Y-75440000D01*
X194310000Y-75425112D01*
X194235153Y-75440000D01*
X189578043Y-75440000D01*
X189394577Y-75165423D01*
X188919909Y-74848260D01*
X188501333Y-74765000D01*
X187418667Y-74765000D01*
X187000091Y-74848260D01*
X186525423Y-75165423D01*
X186208260Y-75640091D01*
X186096887Y-76200000D01*
X186208260Y-76759909D01*
X186525423Y-77234577D01*
X186881499Y-77472499D01*
X186455500Y-77815104D01*
X186185633Y-78308181D01*
X186168096Y-78390961D01*
X186290085Y-78613000D01*
X187833000Y-78613000D01*
X187833000Y-78593000D01*
X188087000Y-78593000D01*
X188087000Y-78613000D01*
X189629915Y-78613000D01*
X189751904Y-78390961D01*
X189734367Y-78308181D01*
X189464500Y-77815104D01*
X189038501Y-77472499D01*
X189394577Y-77234577D01*
X189578043Y-76960000D01*
X193995199Y-76960000D01*
X194440198Y-77405000D01*
X194178515Y-77405000D01*
X193789109Y-77482458D01*
X193347519Y-77777519D01*
X193212226Y-77980000D01*
X193114846Y-77980000D01*
X193039999Y-77965112D01*
X192965152Y-77980000D01*
X192965148Y-77980000D01*
X192743463Y-78024096D01*
X192492071Y-78192071D01*
X192449671Y-78255527D01*
X192030198Y-78675000D01*
X191504452Y-78675000D01*
X191013783Y-78878242D01*
X190638242Y-79253783D01*
X190435000Y-79744452D01*
X190435000Y-80270199D01*
X190185199Y-80520000D01*
X189578043Y-80520000D01*
X189394577Y-80245423D01*
X189038501Y-80007501D01*
X189464500Y-79664896D01*
X189734367Y-79171819D01*
X189751904Y-79089039D01*
X189629915Y-78867000D01*
X188087000Y-78867000D01*
X188087000Y-78887000D01*
X187833000Y-78887000D01*
X187833000Y-78867000D01*
X186290085Y-78867000D01*
X186168096Y-79089039D01*
X186185633Y-79171819D01*
X186455500Y-79664896D01*
X186881499Y-80007501D01*
X186525423Y-80245423D01*
X186208260Y-80720091D01*
X186096887Y-81280000D01*
X186208260Y-81839909D01*
X186525423Y-82314577D01*
X186646106Y-82395215D01*
X186512235Y-82421843D01*
X186302191Y-82562191D01*
X186161843Y-82772235D01*
X186112560Y-83020000D01*
X186112560Y-83316237D01*
X186099671Y-83335527D01*
X184935528Y-84499671D01*
X184872072Y-84542071D01*
X184829672Y-84605527D01*
X184829671Y-84605528D01*
X184704097Y-84793463D01*
X184645112Y-85090000D01*
X184660001Y-85164851D01*
X184660000Y-86391570D01*
X184607138Y-86413466D01*
X184203466Y-86817138D01*
X184150000Y-86946216D01*
X184096534Y-86817138D01*
X183692862Y-86413466D01*
X183640000Y-86391570D01*
X183640000Y-82624846D01*
X183654888Y-82549999D01*
X183640000Y-82475152D01*
X183640000Y-82475148D01*
X183595904Y-82253463D01*
X183427929Y-82002071D01*
X183364473Y-81959671D01*
X182200331Y-80795530D01*
X182157929Y-80732071D01*
X182052815Y-80661836D01*
X181774577Y-80245423D01*
X181422242Y-80010000D01*
X181774577Y-79774577D01*
X182091740Y-79299909D01*
X182203113Y-78740000D01*
X182091740Y-78180091D01*
X181774577Y-77705423D01*
X181418501Y-77467501D01*
X181844500Y-77124896D01*
X182114367Y-76631819D01*
X182131904Y-76549039D01*
X182009915Y-76327000D01*
X180467000Y-76327000D01*
X180467000Y-76347000D01*
X180213000Y-76347000D01*
X180213000Y-76327000D01*
X178670085Y-76327000D01*
X178548096Y-76549039D01*
X178565633Y-76631819D01*
X178835500Y-77124896D01*
X179261499Y-77467501D01*
X178905423Y-77705423D01*
X178721957Y-77980000D01*
X177874846Y-77980000D01*
X177799999Y-77965112D01*
X177725152Y-77980000D01*
X177725148Y-77980000D01*
X177503463Y-78024096D01*
X177252071Y-78192071D01*
X177209671Y-78255527D01*
X176790198Y-78675000D01*
X176269801Y-78675000D01*
X175850331Y-78255530D01*
X175807929Y-78192071D01*
X175556537Y-78024096D01*
X175334852Y-77980000D01*
X175334847Y-77980000D01*
X175260000Y-77965112D01*
X175185153Y-77980000D01*
X175087774Y-77980000D01*
X174952481Y-77777519D01*
X174510891Y-77482458D01*
X174121485Y-77405000D01*
X173858515Y-77405000D01*
X173469109Y-77482458D01*
X173027519Y-77777519D01*
X172732458Y-78219109D01*
X172628846Y-78740000D01*
X172732458Y-79260891D01*
X173027519Y-79702481D01*
X173469109Y-79997542D01*
X173858515Y-80075000D01*
X174121485Y-80075000D01*
X174510891Y-79997542D01*
X174952481Y-79702481D01*
X175030667Y-79585468D01*
X175195000Y-79749801D01*
X175195000Y-80270199D01*
X174775530Y-80689669D01*
X174712071Y-80732071D01*
X174544096Y-80983464D01*
X174500000Y-81205149D01*
X174500000Y-81205153D01*
X174485112Y-81280000D01*
X174500000Y-81354847D01*
X174500001Y-83705148D01*
X174485112Y-83780000D01*
X174544097Y-84076537D01*
X174660003Y-84250002D01*
X174712072Y-84327929D01*
X174775528Y-84370329D01*
X175116897Y-84711698D01*
X175095000Y-84764561D01*
X175095000Y-85335439D01*
X175204585Y-85600000D01*
X175117975Y-85600000D01*
X174746217Y-85228242D01*
X174255548Y-85025000D01*
X173724452Y-85025000D01*
X173233783Y-85228242D01*
X172858242Y-85603783D01*
X172655000Y-86094452D01*
X172655000Y-86625548D01*
X172858242Y-87116217D01*
X173233783Y-87491758D01*
X173724452Y-87695000D01*
X174255548Y-87695000D01*
X174468338Y-87606859D01*
X172235530Y-89839669D01*
X172172071Y-89882071D01*
X172004096Y-90133464D01*
X171960000Y-90355149D01*
X171960000Y-90355153D01*
X171945112Y-90430000D01*
X171960000Y-90504847D01*
X171960001Y-92773774D01*
X171960000Y-92773779D01*
X171960000Y-92852025D01*
X171588242Y-93223783D01*
X171385000Y-93714452D01*
X171385000Y-94245548D01*
X171588242Y-94736217D01*
X171960001Y-95107976D01*
X171960001Y-95175149D01*
X171945112Y-95250000D01*
X171960001Y-95324852D01*
X172004097Y-95546537D01*
X172172072Y-95797929D01*
X172235528Y-95840329D01*
X173770360Y-97375162D01*
X173725000Y-97484670D01*
X173725000Y-98095330D01*
X173958690Y-98659507D01*
X174390493Y-99091310D01*
X174954670Y-99325000D01*
X175565330Y-99325000D01*
X175674838Y-99279640D01*
X176359203Y-99964005D01*
X176242191Y-100042191D01*
X176101843Y-100252235D01*
X176052560Y-100500000D01*
X176052560Y-102700000D01*
X176101843Y-102947765D01*
X176242191Y-103157809D01*
X176452235Y-103298157D01*
X176700000Y-103347440D01*
X177557758Y-103347440D01*
X176984839Y-103920360D01*
X176875330Y-103875000D01*
X176264670Y-103875000D01*
X175700493Y-104108690D01*
X175268690Y-104540493D01*
X175035000Y-105104670D01*
X175035000Y-105715330D01*
X175268690Y-106279507D01*
X175649183Y-106660000D01*
X175268690Y-107040493D01*
X175035000Y-107604670D01*
X175035000Y-108215330D01*
X175268690Y-108779507D01*
X175700493Y-109211310D01*
X175708290Y-109214539D01*
X175669446Y-109329841D01*
X176570000Y-110230395D01*
X177470554Y-109329841D01*
X177431710Y-109214539D01*
X177439507Y-109211310D01*
X177820000Y-108830817D01*
X178200493Y-109211310D01*
X178208290Y-109214539D01*
X178169446Y-109329841D01*
X179070000Y-110230395D01*
X179970554Y-109329841D01*
X179931710Y-109214539D01*
X179939507Y-109211310D01*
X180371310Y-108779507D01*
X180416669Y-108670000D01*
X188075199Y-108670000D01*
X189323823Y-109918625D01*
X189255000Y-110084778D01*
X189255000Y-110735222D01*
X189503914Y-111336153D01*
X189963847Y-111796086D01*
X190564778Y-112045000D01*
X191215222Y-112045000D01*
X191816153Y-111796086D01*
X192276086Y-111336153D01*
X192525000Y-110735222D01*
X192525000Y-110084778D01*
X192276086Y-109483847D01*
X191952239Y-109160000D01*
X192276086Y-108836153D01*
X192525000Y-108235222D01*
X192525000Y-107584778D01*
X192276086Y-106983847D01*
X191816153Y-106523914D01*
X191608607Y-106437946D01*
X191936982Y-106109571D01*
X192125000Y-105655657D01*
X192125000Y-105164343D01*
X192117179Y-105145461D01*
X194244092Y-105145461D01*
X194268144Y-105795460D01*
X194470613Y-106284264D01*
X194737468Y-106382927D01*
X195710395Y-105410000D01*
X194737468Y-104437073D01*
X194470613Y-104535736D01*
X194244092Y-105145461D01*
X192117179Y-105145461D01*
X191936982Y-104710429D01*
X191608607Y-104382054D01*
X191816153Y-104296086D01*
X192276086Y-103836153D01*
X192525000Y-103235222D01*
X192525000Y-102584778D01*
X192276086Y-101983847D01*
X191952239Y-101660000D01*
X192276086Y-101336153D01*
X192525000Y-100735222D01*
X192525000Y-100084778D01*
X192276086Y-99483847D01*
X191816153Y-99023914D01*
X191215222Y-98775000D01*
X190564778Y-98775000D01*
X189963847Y-99023914D01*
X189503914Y-99483847D01*
X189255000Y-100084778D01*
X189255000Y-100500199D01*
X188745528Y-101009671D01*
X188682072Y-101052071D01*
X188639672Y-101115527D01*
X188639671Y-101115528D01*
X188514097Y-101303463D01*
X188455112Y-101600000D01*
X188470001Y-101674852D01*
X188470000Y-103825197D01*
X186855000Y-105440198D01*
X186855000Y-105104670D01*
X186621310Y-104540493D01*
X186189507Y-104108690D01*
X186180000Y-104104752D01*
X186180000Y-103178850D01*
X186670865Y-102850865D01*
X187054334Y-102276963D01*
X187188990Y-101600000D01*
X187054334Y-100923037D01*
X186670865Y-100349135D01*
X186096963Y-99965666D01*
X185590880Y-99865000D01*
X185249120Y-99865000D01*
X185006552Y-99913250D01*
X185904473Y-99015329D01*
X185967929Y-98972929D01*
X186135904Y-98721537D01*
X186180000Y-98499852D01*
X186180000Y-98499848D01*
X186194888Y-98425000D01*
X186180000Y-98350152D01*
X186180000Y-94915275D01*
X187204331Y-94915275D01*
X187266169Y-95151042D01*
X187767122Y-95327419D01*
X188297440Y-95298664D01*
X188653831Y-95151042D01*
X188715669Y-94915275D01*
X187960000Y-94159605D01*
X187204331Y-94915275D01*
X186180000Y-94915275D01*
X186180000Y-93787122D01*
X186612581Y-93787122D01*
X186641336Y-94317440D01*
X186788958Y-94673831D01*
X187024725Y-94735669D01*
X187780395Y-93980000D01*
X188139605Y-93980000D01*
X188895275Y-94735669D01*
X189131042Y-94673831D01*
X189307419Y-94172878D01*
X189278664Y-93642560D01*
X189131042Y-93286169D01*
X188895275Y-93224331D01*
X188139605Y-93980000D01*
X187780395Y-93980000D01*
X187024725Y-93224331D01*
X186788958Y-93286169D01*
X186612581Y-93787122D01*
X186180000Y-93787122D01*
X186180000Y-93044725D01*
X187204331Y-93044725D01*
X187960000Y-93800395D01*
X188715669Y-93044725D01*
X188653831Y-92808958D01*
X188152878Y-92632581D01*
X187622560Y-92661336D01*
X187266169Y-92808958D01*
X187204331Y-93044725D01*
X186180000Y-93044725D01*
X186180000Y-91368430D01*
X186232862Y-91346534D01*
X186441651Y-91137745D01*
X187131861Y-91137745D01*
X187205995Y-91383864D01*
X187743223Y-91576965D01*
X188313454Y-91549778D01*
X188714005Y-91383864D01*
X188776090Y-91177745D01*
X189671861Y-91177745D01*
X189745995Y-91423864D01*
X190283223Y-91616965D01*
X190853454Y-91589778D01*
X191254005Y-91423864D01*
X191328139Y-91177745D01*
X190500000Y-90349605D01*
X189671861Y-91177745D01*
X188776090Y-91177745D01*
X188788139Y-91137745D01*
X187960000Y-90309605D01*
X187131861Y-91137745D01*
X186441651Y-91137745D01*
X186636534Y-90942862D01*
X186683525Y-90829417D01*
X186706136Y-90884005D01*
X186952255Y-90958139D01*
X187780395Y-90130000D01*
X188139605Y-90130000D01*
X188967745Y-90958139D01*
X189213864Y-90884005D01*
X189221160Y-90863707D01*
X189246136Y-90924005D01*
X189492255Y-90998139D01*
X190320395Y-90170000D01*
X190679605Y-90170000D01*
X191507745Y-90998139D01*
X191753864Y-90924005D01*
X191946965Y-90386777D01*
X191919778Y-89816546D01*
X191753864Y-89415995D01*
X191507745Y-89341861D01*
X190679605Y-90170000D01*
X190320395Y-90170000D01*
X189492255Y-89341861D01*
X189246136Y-89415995D01*
X189238840Y-89436293D01*
X189213864Y-89375995D01*
X188967745Y-89301861D01*
X188139605Y-90130000D01*
X187780395Y-90130000D01*
X186952255Y-89301861D01*
X186706136Y-89375995D01*
X186685126Y-89434448D01*
X186636534Y-89317138D01*
X186232862Y-88913466D01*
X186152068Y-88880000D01*
X186232862Y-88846534D01*
X186636534Y-88442862D01*
X186690000Y-88313784D01*
X186743466Y-88442862D01*
X187147138Y-88846534D01*
X187212299Y-88873525D01*
X187205995Y-88876136D01*
X187131861Y-89122255D01*
X187960000Y-89950395D01*
X188788139Y-89122255D01*
X188714005Y-88876136D01*
X188707254Y-88873710D01*
X188772862Y-88846534D01*
X189176534Y-88442862D01*
X189198430Y-88390000D01*
X189245001Y-88390000D01*
X189283466Y-88482862D01*
X189687138Y-88886534D01*
X189752299Y-88913525D01*
X189745995Y-88916136D01*
X189671861Y-89162255D01*
X190500000Y-89990395D01*
X191328139Y-89162255D01*
X191254005Y-88916136D01*
X191247254Y-88913710D01*
X191312862Y-88886534D01*
X191716534Y-88482862D01*
X191735136Y-88437953D01*
X191770000Y-88444888D01*
X191844848Y-88430000D01*
X194346048Y-88430000D01*
X194153910Y-88509586D01*
X193609586Y-89053910D01*
X193315000Y-89765105D01*
X193315000Y-90534895D01*
X193609586Y-91246090D01*
X194153910Y-91790414D01*
X194865105Y-92085000D01*
X195634895Y-92085000D01*
X196346090Y-91790414D01*
X196890414Y-91246090D01*
X197185000Y-90534895D01*
X197185000Y-90309803D01*
X197360001Y-90484804D01*
X197360000Y-92784851D01*
X197360001Y-92784856D01*
X197360001Y-93220000D01*
X196677774Y-93220000D01*
X196542481Y-93017519D01*
X196100891Y-92722458D01*
X195711485Y-92645000D01*
X195448515Y-92645000D01*
X195059109Y-92722458D01*
X194617519Y-93017519D01*
X194322458Y-93459109D01*
X194218846Y-93980000D01*
X194266355Y-94218843D01*
X191455199Y-97030000D01*
X189057774Y-97030000D01*
X188922481Y-96827519D01*
X188480891Y-96532458D01*
X188091485Y-96455000D01*
X187828515Y-96455000D01*
X187439109Y-96532458D01*
X186997519Y-96827519D01*
X186702458Y-97269109D01*
X186598846Y-97790000D01*
X186702458Y-98310891D01*
X186997519Y-98752481D01*
X187439109Y-99047542D01*
X187828515Y-99125000D01*
X188091485Y-99125000D01*
X188480891Y-99047542D01*
X188922481Y-98752481D01*
X189057774Y-98550000D01*
X191695153Y-98550000D01*
X191770000Y-98564888D01*
X191844847Y-98550000D01*
X191844852Y-98550000D01*
X192066537Y-98505904D01*
X192317929Y-98337929D01*
X192360331Y-98274470D01*
X195341157Y-95293645D01*
X195448515Y-95315000D01*
X195711485Y-95315000D01*
X196100891Y-95237542D01*
X196542481Y-94942481D01*
X196677774Y-94740000D01*
X197360001Y-94740000D01*
X197360000Y-97475198D01*
X196730529Y-98104670D01*
X196667073Y-98147070D01*
X196624673Y-98210526D01*
X196624672Y-98210527D01*
X196499098Y-98398462D01*
X196440113Y-98694999D01*
X196455002Y-98769851D01*
X196455002Y-99307277D01*
X196135657Y-99175000D01*
X195644343Y-99175000D01*
X195190429Y-99363018D01*
X194843018Y-99710429D01*
X194655000Y-100164343D01*
X194655000Y-100655657D01*
X194843018Y-101109571D01*
X195190429Y-101456982D01*
X195644343Y-101645000D01*
X196135657Y-101645000D01*
X196455002Y-101512723D01*
X196455001Y-103875718D01*
X196154539Y-103764092D01*
X195504540Y-103788144D01*
X195015736Y-103990613D01*
X194917073Y-104257468D01*
X195890000Y-105230395D01*
X195904143Y-105216253D01*
X196083748Y-105395858D01*
X196069605Y-105410000D01*
X196083748Y-105424143D01*
X195904143Y-105603748D01*
X195890000Y-105589605D01*
X194917073Y-106562532D01*
X195015736Y-106829387D01*
X195625461Y-107055908D01*
X196275460Y-107031856D01*
X196455001Y-106957488D01*
X196455001Y-107270196D01*
X191374059Y-112351140D01*
X190924678Y-112165000D01*
X190075322Y-112165000D01*
X189290620Y-112490034D01*
X188690034Y-113090620D01*
X188365000Y-113875322D01*
X188365000Y-114724678D01*
X188690034Y-115509380D01*
X189290620Y-116109966D01*
X189338986Y-116130000D01*
X178961014Y-116130000D01*
X179009380Y-116109966D01*
X179609966Y-115509380D01*
X179796105Y-115060000D01*
X181355153Y-115060000D01*
X181430000Y-115074888D01*
X181504847Y-115060000D01*
X181504852Y-115060000D01*
X181726537Y-115015904D01*
X181977929Y-114847929D01*
X182020331Y-114784470D01*
X184905162Y-111899640D01*
X185014670Y-111945000D01*
X185625330Y-111945000D01*
X186189507Y-111711310D01*
X186621310Y-111279507D01*
X186855000Y-110715330D01*
X186855000Y-110104670D01*
X186621310Y-109540493D01*
X186189507Y-109108690D01*
X185625330Y-108875000D01*
X185014670Y-108875000D01*
X184450493Y-109108690D01*
X184018690Y-109540493D01*
X183785000Y-110104670D01*
X183785000Y-110715330D01*
X183830360Y-110824838D01*
X181115199Y-113540000D01*
X179796105Y-113540000D01*
X179609966Y-113090620D01*
X179009380Y-112490034D01*
X178224678Y-112165000D01*
X177375322Y-112165000D01*
X176590620Y-112490034D01*
X175990034Y-113090620D01*
X175665000Y-113875322D01*
X175665000Y-114724678D01*
X175990034Y-115509380D01*
X176590620Y-116109966D01*
X176638986Y-116130000D01*
X175343950Y-116130000D01*
X175378455Y-116069516D01*
X175413424Y-116026031D01*
X175422635Y-115994541D01*
X175457969Y-115936075D01*
X175459201Y-115927975D01*
X175463262Y-115920856D01*
X175477773Y-115806054D01*
X175483534Y-115786358D01*
X175482368Y-115775620D01*
X175483647Y-115767212D01*
X175495292Y-115714102D01*
X175493364Y-115703312D01*
X175495510Y-115689198D01*
X175494753Y-115672551D01*
X175469739Y-115571123D01*
X175451360Y-115468282D01*
X175442594Y-115445894D01*
X175436515Y-115436400D01*
X175434961Y-115430100D01*
X175428511Y-115421336D01*
X175423624Y-115402291D01*
X175409745Y-115373376D01*
X175406962Y-115367568D01*
X175394080Y-115350382D01*
X175387390Y-115329973D01*
X175372893Y-115304244D01*
X175372235Y-115303477D01*
X175371917Y-115302518D01*
X175329384Y-115253289D01*
X175323203Y-115239150D01*
X175287598Y-115204900D01*
X175267398Y-115181374D01*
X175257189Y-115167754D01*
X175254167Y-115165963D01*
X175246997Y-115157613D01*
X175250389Y-115140870D01*
X175276778Y-115029173D01*
X175279304Y-114958346D01*
X175261855Y-114850701D01*
X175257194Y-114808634D01*
X175266620Y-114765259D01*
X175293731Y-114647197D01*
X175293096Y-114643427D01*
X175293907Y-114639693D01*
X175272373Y-114520479D01*
X175262257Y-114460464D01*
X175271729Y-114403974D01*
X175292433Y-114281616D01*
X175292324Y-114281141D01*
X175292405Y-114280659D01*
X175264410Y-114159223D01*
X175236701Y-114038199D01*
X175219157Y-113999062D01*
X175249950Y-113942894D01*
X175250255Y-113940103D01*
X175251581Y-113937634D01*
X175257463Y-113879112D01*
X175275127Y-113824513D01*
X175271688Y-113781515D01*
X175272833Y-113777325D01*
X175270256Y-113756969D01*
X175277062Y-113694655D01*
X175277016Y-113694131D01*
X175276303Y-113691687D01*
X175276556Y-113689170D01*
X175259870Y-113633762D01*
X175257101Y-113599142D01*
X175257134Y-113599075D01*
X175260489Y-113550446D01*
X175275127Y-113505199D01*
X175271688Y-113462201D01*
X175272833Y-113458011D01*
X175270256Y-113437655D01*
X175277062Y-113375341D01*
X175277016Y-113374817D01*
X175273450Y-113362595D01*
X175274322Y-113349952D01*
X175259076Y-113304528D01*
X175255217Y-113256278D01*
X175252684Y-113247339D01*
X175264867Y-113212018D01*
X175271964Y-113160077D01*
X175268735Y-113106823D01*
X175270241Y-113097851D01*
X175272901Y-113089254D01*
X175272467Y-113084587D01*
X175277567Y-113054205D01*
X175276051Y-113003770D01*
X175270665Y-112980387D01*
X175270482Y-112976443D01*
X175279127Y-112938971D01*
X175272204Y-112897641D01*
X175276209Y-112855468D01*
X175276118Y-112854576D01*
X175268547Y-112829927D01*
X175267921Y-112786401D01*
X175274757Y-112742882D01*
X175275197Y-112740956D01*
X175275126Y-112740536D01*
X175278988Y-112715947D01*
X175266144Y-112662748D01*
X175265358Y-112608027D01*
X175261296Y-112589036D01*
X175245649Y-112552743D01*
X175245617Y-112550249D01*
X175241003Y-112539496D01*
X175233410Y-112494762D01*
X175221102Y-112462502D01*
X175207674Y-112441124D01*
X175201524Y-112416636D01*
X175198028Y-112409257D01*
X175198515Y-112408294D01*
X175211204Y-112362817D01*
X175217542Y-112351179D01*
X175219446Y-112333279D01*
X175224444Y-112315367D01*
X175258652Y-112225163D01*
X175270279Y-112155818D01*
X175266933Y-112045143D01*
X175268571Y-111934428D01*
X175255858Y-111865177D01*
X175245494Y-111839070D01*
X175246043Y-111832053D01*
X175249775Y-111824210D01*
X175257190Y-111794899D01*
X175262529Y-111691158D01*
X175274783Y-111588001D01*
X175271369Y-111544385D01*
X175267360Y-111530148D01*
X175268435Y-111515393D01*
X175267096Y-111504621D01*
X175266531Y-111499074D01*
X175267547Y-111490159D01*
X175669446Y-111490159D01*
X175755852Y-111746643D01*
X176329336Y-111956458D01*
X176939460Y-111930839D01*
X177384148Y-111746643D01*
X177470554Y-111490159D01*
X178169446Y-111490159D01*
X178255852Y-111746643D01*
X178829336Y-111956458D01*
X179439460Y-111930839D01*
X179884148Y-111746643D01*
X179970554Y-111490159D01*
X179070000Y-110589605D01*
X178169446Y-111490159D01*
X177470554Y-111490159D01*
X176570000Y-110589605D01*
X175669446Y-111490159D01*
X175267547Y-111490159D01*
X175268897Y-111478328D01*
X175270418Y-111465916D01*
X175267946Y-111432768D01*
X175275051Y-111400301D01*
X175275776Y-111362326D01*
X175274759Y-111356649D01*
X175275892Y-111350993D01*
X175253326Y-111236721D01*
X175252879Y-111230725D01*
X175489841Y-111310554D01*
X176390395Y-110410000D01*
X176749605Y-110410000D01*
X177650159Y-111310554D01*
X177820000Y-111253337D01*
X177989841Y-111310554D01*
X178890395Y-110410000D01*
X179249605Y-110410000D01*
X180150159Y-111310554D01*
X180406643Y-111224148D01*
X180616458Y-110650664D01*
X180590839Y-110040540D01*
X180406643Y-109595852D01*
X180150159Y-109509446D01*
X179249605Y-110410000D01*
X178890395Y-110410000D01*
X177989841Y-109509446D01*
X177820000Y-109566663D01*
X177650159Y-109509446D01*
X176749605Y-110410000D01*
X176390395Y-110410000D01*
X175489841Y-109509446D01*
X175233357Y-109595852D01*
X175210311Y-109658842D01*
X175205606Y-109648596D01*
X175197986Y-109623087D01*
X175194770Y-109619134D01*
X175190216Y-109598325D01*
X175177782Y-109580465D01*
X175160215Y-109536365D01*
X175140652Y-109506207D01*
X175089472Y-109453614D01*
X175047540Y-109393382D01*
X175011087Y-109358296D01*
X174998960Y-109350524D01*
X174990215Y-109339080D01*
X174984891Y-109334392D01*
X174966412Y-109323673D01*
X174952349Y-109307587D01*
X174911375Y-109276044D01*
X174837704Y-109239570D01*
X174789310Y-109206785D01*
X174782660Y-109201412D01*
X174780390Y-109200742D01*
X174769652Y-109193468D01*
X174733967Y-109178419D01*
X174700155Y-109171469D01*
X174687586Y-109165246D01*
X174661295Y-109163481D01*
X174637551Y-109158601D01*
X174543151Y-109130750D01*
X174500834Y-109126908D01*
X174471702Y-109130002D01*
X174442966Y-109124286D01*
X174380779Y-109124286D01*
X174336934Y-109133007D01*
X174335912Y-109132738D01*
X174271404Y-109128790D01*
X174240244Y-109133029D01*
X174209200Y-109128012D01*
X174160957Y-109129755D01*
X174064920Y-109152491D01*
X173967332Y-109167153D01*
X173906363Y-109189096D01*
X173812499Y-109245594D01*
X173730575Y-109289615D01*
X173728534Y-109290485D01*
X173728065Y-109290964D01*
X173715996Y-109297449D01*
X173682397Y-109325147D01*
X173621322Y-109399902D01*
X173553765Y-109468849D01*
X173516234Y-109526275D01*
X173479628Y-109617258D01*
X173435401Y-109704800D01*
X173416441Y-109772922D01*
X173409428Y-109866128D01*
X173393151Y-109958165D01*
X173394652Y-110028585D01*
X173417618Y-110132427D01*
X173431194Y-110217246D01*
X173415345Y-110256136D01*
X173402669Y-110321825D01*
X173403149Y-110405760D01*
X173392728Y-110489047D01*
X173397749Y-110558788D01*
X173421770Y-110646188D01*
X173431020Y-110703762D01*
X173412607Y-110691482D01*
X173366059Y-110645674D01*
X173309742Y-110622874D01*
X173259195Y-110589161D01*
X173195130Y-110576473D01*
X173134593Y-110551965D01*
X173073836Y-110552452D01*
X173014237Y-110540649D01*
X172950194Y-110553443D01*
X172884885Y-110553967D01*
X172828940Y-110577667D01*
X172769360Y-110589570D01*
X172715087Y-110625900D01*
X172654952Y-110651375D01*
X172582914Y-110700350D01*
X172581314Y-110692033D01*
X172580724Y-110690582D01*
X172580726Y-110689014D01*
X172565686Y-110612814D01*
X172541471Y-110554108D01*
X172529082Y-110491826D01*
X172494323Y-110439805D01*
X172470465Y-110381966D01*
X172425627Y-110336996D01*
X172390347Y-110284195D01*
X172338325Y-110249435D01*
X172294150Y-110205129D01*
X172235518Y-110180741D01*
X172182716Y-110145460D01*
X172121351Y-110133254D01*
X172063585Y-110109226D01*
X172000082Y-110109132D01*
X171937799Y-110096743D01*
X171620492Y-110096743D01*
X171620353Y-110096771D01*
X171620213Y-110096743D01*
X171581197Y-110096760D01*
X171580253Y-110096948D01*
X171579311Y-110096764D01*
X171484127Y-110097086D01*
X171480932Y-110097733D01*
X171477724Y-110097139D01*
X171406688Y-110098090D01*
X171399213Y-110099681D01*
X171391670Y-110098468D01*
X171341150Y-110100331D01*
X171324149Y-110104369D01*
X171306769Y-110102526D01*
X171273133Y-110105585D01*
X171242425Y-110114650D01*
X171223170Y-110113510D01*
X171210691Y-110117834D01*
X171191967Y-110118261D01*
X171171587Y-110122800D01*
X171142435Y-110135661D01*
X171131161Y-110136458D01*
X171077143Y-110163441D01*
X171033635Y-110176284D01*
X171027345Y-110181368D01*
X170987220Y-110195272D01*
X170976464Y-110201573D01*
X170960111Y-110216098D01*
X170943118Y-110223595D01*
X170930704Y-110236588D01*
X170907764Y-110248047D01*
X170852636Y-110311561D01*
X170789763Y-110367406D01*
X170783287Y-110380751D01*
X170776941Y-110386632D01*
X170767672Y-110406808D01*
X170763957Y-110410464D01*
X170761257Y-110416838D01*
X170744077Y-110436632D01*
X170739315Y-110444980D01*
X170711122Y-110529449D01*
X170680735Y-110592063D01*
X170680465Y-110596619D01*
X170672689Y-110613545D01*
X170670760Y-110621626D01*
X170670389Y-110631401D01*
X170666574Y-110640408D01*
X170659749Y-110673355D01*
X170659727Y-110676129D01*
X170658668Y-110678690D01*
X170653383Y-110705340D01*
X170650359Y-110702583D01*
X170602037Y-110673436D01*
X170579872Y-110665435D01*
X170561348Y-110650868D01*
X170527603Y-110633725D01*
X170474535Y-110618827D01*
X170426029Y-110592643D01*
X170403868Y-110585822D01*
X170391384Y-110584541D01*
X170380119Y-110579010D01*
X170318771Y-110575098D01*
X170287182Y-110566230D01*
X170276737Y-110567479D01*
X170260763Y-110562714D01*
X170219857Y-110566934D01*
X170155458Y-110560324D01*
X170143434Y-110563918D01*
X170130910Y-110563119D01*
X170117341Y-110564930D01*
X170113101Y-110566378D01*
X170108628Y-110566154D01*
X170060318Y-110583394D01*
X170012366Y-110588341D01*
X169961768Y-110615688D01*
X169958909Y-110616145D01*
X169949657Y-110621832D01*
X169916199Y-110631831D01*
X169912440Y-110634890D01*
X169881020Y-110645618D01*
X169877657Y-110648578D01*
X169873439Y-110650083D01*
X169872421Y-110650692D01*
X169835952Y-110683689D01*
X169792684Y-110707075D01*
X169772911Y-110723457D01*
X169761532Y-110737454D01*
X169746163Y-110746900D01*
X169710128Y-110780298D01*
X169706365Y-110785491D01*
X169700966Y-110788958D01*
X169652243Y-110835934D01*
X169650018Y-110839136D01*
X169646762Y-110841282D01*
X169620000Y-110867709D01*
X169620000Y-103015105D01*
X171115000Y-103015105D01*
X171115000Y-103784895D01*
X171409586Y-104496090D01*
X171953910Y-105040414D01*
X172665105Y-105335000D01*
X173434895Y-105335000D01*
X174146090Y-105040414D01*
X174690414Y-104496090D01*
X174985000Y-103784895D01*
X174985000Y-103015105D01*
X174690414Y-102303910D01*
X174146090Y-101759586D01*
X173434895Y-101465000D01*
X172665105Y-101465000D01*
X171953910Y-101759586D01*
X171409586Y-102303910D01*
X171115000Y-103015105D01*
X169620000Y-103015105D01*
X169620000Y-75015105D01*
X171115000Y-75015105D01*
X171115000Y-75784895D01*
X171409586Y-76496090D01*
X171953910Y-77040414D01*
X172665105Y-77335000D01*
X173434895Y-77335000D01*
X174146090Y-77040414D01*
X174690414Y-76496090D01*
X174957634Y-75850961D01*
X178548096Y-75850961D01*
X178670085Y-76073000D01*
X180213000Y-76073000D01*
X180213000Y-74765000D01*
X180467000Y-74765000D01*
X180467000Y-76073000D01*
X182009915Y-76073000D01*
X182131904Y-75850961D01*
X182114367Y-75768181D01*
X181844500Y-75275104D01*
X181406483Y-74922834D01*
X180867000Y-74765000D01*
X180467000Y-74765000D01*
X180213000Y-74765000D01*
X179813000Y-74765000D01*
X179273517Y-74922834D01*
X178835500Y-75275104D01*
X178565633Y-75768181D01*
X178548096Y-75850961D01*
X174957634Y-75850961D01*
X174985000Y-75784895D01*
X174985000Y-75015105D01*
X174690414Y-74303910D01*
X174146090Y-73759586D01*
X173434895Y-73465000D01*
X172665105Y-73465000D01*
X171953910Y-73759586D01*
X171409586Y-74303910D01*
X171115000Y-75015105D01*
X169620000Y-75015105D01*
X169620000Y-71195801D01*
X171553804Y-71195801D01*
X171553804Y-71420307D01*
X173279541Y-73146044D01*
X173512930Y-73242717D01*
X173765549Y-73242716D01*
X173998938Y-73146043D01*
X174805435Y-72339546D01*
X174805435Y-72115040D01*
X172720000Y-70029605D01*
X171553804Y-71195801D01*
X169620000Y-71195801D01*
X169620000Y-69486503D01*
X171149693Y-71016196D01*
X171374199Y-71016196D01*
X172540395Y-69850000D01*
X170454960Y-67764565D01*
X170230454Y-67764565D01*
X169620000Y-68375019D01*
X169620000Y-67360454D01*
X170634565Y-67360454D01*
X170634565Y-67584960D01*
X172720000Y-69670395D01*
X172734143Y-69656253D01*
X172913748Y-69835858D01*
X172899605Y-69850000D01*
X174985040Y-71935435D01*
X175209546Y-71935435D01*
X175271610Y-71873371D01*
X175168846Y-72390000D01*
X175272458Y-72910891D01*
X175567519Y-73352481D01*
X176009109Y-73647542D01*
X176398515Y-73725000D01*
X176661485Y-73725000D01*
X177050891Y-73647542D01*
X177492481Y-73352481D01*
X177771965Y-72934204D01*
X178223847Y-73386086D01*
X178824778Y-73635000D01*
X179475222Y-73635000D01*
X180076153Y-73386086D01*
X180400000Y-73062239D01*
X180723847Y-73386086D01*
X181324778Y-73635000D01*
X181975222Y-73635000D01*
X182576153Y-73386086D01*
X183036086Y-72926153D01*
X183122054Y-72718607D01*
X183450429Y-73046982D01*
X183904343Y-73235000D01*
X184395657Y-73235000D01*
X184849571Y-73046982D01*
X185177946Y-72718607D01*
X185263914Y-72926153D01*
X185723847Y-73386086D01*
X186324778Y-73635000D01*
X186975222Y-73635000D01*
X187576153Y-73386086D01*
X187900000Y-73062239D01*
X188223847Y-73386086D01*
X188824778Y-73635000D01*
X189475222Y-73635000D01*
X190076153Y-73386086D01*
X190528035Y-72934204D01*
X190807519Y-73352481D01*
X191249109Y-73647542D01*
X191638515Y-73725000D01*
X191901485Y-73725000D01*
X192290891Y-73647542D01*
X192732481Y-73352481D01*
X193027542Y-72910891D01*
X193131154Y-72390000D01*
X193076462Y-72115040D01*
X193494565Y-72115040D01*
X193494565Y-72339546D01*
X194301062Y-73146043D01*
X194534451Y-73242716D01*
X194787070Y-73242717D01*
X195020459Y-73146044D01*
X196746196Y-71420307D01*
X196746196Y-71195801D01*
X195580000Y-70029605D01*
X193494565Y-72115040D01*
X193076462Y-72115040D01*
X193028390Y-71873371D01*
X193090454Y-71935435D01*
X193314960Y-71935435D01*
X195400395Y-69850000D01*
X195386253Y-69835858D01*
X195565858Y-69656253D01*
X195580000Y-69670395D01*
X197665435Y-67584960D01*
X197665435Y-67360454D01*
X196858938Y-66553957D01*
X196625549Y-66457284D01*
X196524549Y-66457284D01*
X196495836Y-66312932D01*
X196214587Y-65892012D01*
X195295348Y-64972773D01*
X194874428Y-64691524D01*
X194377919Y-64592762D01*
X193881410Y-64691524D01*
X193460490Y-64972773D01*
X190702773Y-67730490D01*
X190421524Y-68151410D01*
X190322762Y-68647919D01*
X190410698Y-69090000D01*
X188874846Y-69090000D01*
X188799999Y-69075112D01*
X188725152Y-69090000D01*
X188725148Y-69090000D01*
X188503463Y-69134096D01*
X188252071Y-69302071D01*
X188209671Y-69365527D01*
X187165529Y-70409670D01*
X187165526Y-70409672D01*
X187141375Y-70433823D01*
X186975222Y-70365000D01*
X186324778Y-70365000D01*
X185723847Y-70613914D01*
X185263914Y-71073847D01*
X185177946Y-71281393D01*
X184849571Y-70953018D01*
X184395657Y-70765000D01*
X183904343Y-70765000D01*
X183450429Y-70953018D01*
X183122054Y-71281393D01*
X183036086Y-71073847D01*
X182576153Y-70613914D01*
X181975222Y-70365000D01*
X181324778Y-70365000D01*
X181158625Y-70433823D01*
X180090331Y-69365530D01*
X180047929Y-69302071D01*
X179796537Y-69134096D01*
X179574852Y-69090000D01*
X179574847Y-69090000D01*
X179500000Y-69075112D01*
X179425153Y-69090000D01*
X177889302Y-69090000D01*
X177977238Y-68647919D01*
X177878476Y-68151410D01*
X177597227Y-67730490D01*
X176621080Y-66754343D01*
X177915000Y-66754343D01*
X177915000Y-67245657D01*
X178103018Y-67699571D01*
X178450429Y-68046982D01*
X178904343Y-68235000D01*
X179395657Y-68235000D01*
X179594751Y-68152532D01*
X183177073Y-68152532D01*
X183275736Y-68419387D01*
X183885461Y-68645908D01*
X184535460Y-68621856D01*
X185024264Y-68419387D01*
X185122927Y-68152532D01*
X184150000Y-67179605D01*
X183177073Y-68152532D01*
X179594751Y-68152532D01*
X179849571Y-68046982D01*
X180196982Y-67699571D01*
X180385000Y-67245657D01*
X180385000Y-66754343D01*
X180377179Y-66735461D01*
X182504092Y-66735461D01*
X182528144Y-67385460D01*
X182730613Y-67874264D01*
X182997468Y-67972927D01*
X183970395Y-67000000D01*
X184329605Y-67000000D01*
X185302532Y-67972927D01*
X185569387Y-67874264D01*
X185795908Y-67264539D01*
X185777030Y-66754343D01*
X187915000Y-66754343D01*
X187915000Y-67245657D01*
X188103018Y-67699571D01*
X188450429Y-68046982D01*
X188904343Y-68235000D01*
X189395657Y-68235000D01*
X189849571Y-68046982D01*
X190196982Y-67699571D01*
X190385000Y-67245657D01*
X190385000Y-66754343D01*
X190196982Y-66300429D01*
X189849571Y-65953018D01*
X189395657Y-65765000D01*
X188904343Y-65765000D01*
X188450429Y-65953018D01*
X188103018Y-66300429D01*
X187915000Y-66754343D01*
X185777030Y-66754343D01*
X185771856Y-66614540D01*
X185569387Y-66125736D01*
X185302532Y-66027073D01*
X184329605Y-67000000D01*
X183970395Y-67000000D01*
X182997468Y-66027073D01*
X182730613Y-66125736D01*
X182504092Y-66735461D01*
X180377179Y-66735461D01*
X180196982Y-66300429D01*
X179849571Y-65953018D01*
X179594752Y-65847468D01*
X183177073Y-65847468D01*
X184150000Y-66820395D01*
X185122927Y-65847468D01*
X185024264Y-65580613D01*
X184414539Y-65354092D01*
X183764540Y-65378144D01*
X183275736Y-65580613D01*
X183177073Y-65847468D01*
X179594752Y-65847468D01*
X179395657Y-65765000D01*
X178904343Y-65765000D01*
X178450429Y-65953018D01*
X178103018Y-66300429D01*
X177915000Y-66754343D01*
X176621080Y-66754343D01*
X174839510Y-64972773D01*
X174418590Y-64691524D01*
X173922081Y-64592762D01*
X173425572Y-64691524D01*
X173004652Y-64972773D01*
X172085413Y-65892012D01*
X171804164Y-66312932D01*
X171775451Y-66457284D01*
X171674451Y-66457284D01*
X171441062Y-66553957D01*
X170634565Y-67360454D01*
X169620000Y-67360454D01*
X169620000Y-66084666D01*
X169682958Y-65586302D01*
X169851305Y-65161107D01*
X170120101Y-64791142D01*
X170472462Y-64499644D01*
X170886244Y-64304933D01*
X171368662Y-64212907D01*
X171461164Y-64210000D01*
X177933368Y-64210000D01*
X177915000Y-64254343D01*
G36*
X181663466Y-88442862D02*
X182067138Y-88846534D01*
X182147932Y-88880000D01*
X182067138Y-88913466D01*
X181663466Y-89317138D01*
X181616475Y-89430583D01*
X181593864Y-89375995D01*
X181347745Y-89301861D01*
X180519605Y-90130000D01*
X181347745Y-90958139D01*
X181593864Y-90884005D01*
X181614874Y-90825552D01*
X181663466Y-90942862D01*
X182067138Y-91346534D01*
X182120000Y-91368430D01*
X182120001Y-99380197D01*
X179547440Y-101952759D01*
X179547440Y-100500000D01*
X179498157Y-100252235D01*
X179357809Y-100042191D01*
X179147765Y-99901843D01*
X178900000Y-99852560D01*
X178395029Y-99852560D01*
X178390329Y-99845526D01*
X178390327Y-99845524D01*
X178347929Y-99782071D01*
X178284476Y-99739673D01*
X177882243Y-99337440D01*
X178700000Y-99337440D01*
X178947765Y-99288157D01*
X179157809Y-99147809D01*
X179298157Y-98937765D01*
X179347440Y-98690000D01*
X179347440Y-98685415D01*
X179583783Y-98921758D01*
X180074452Y-99125000D01*
X180605548Y-99125000D01*
X181096217Y-98921758D01*
X181471758Y-98546217D01*
X181675000Y-98055548D01*
X181675000Y-97524452D01*
X181471758Y-97033783D01*
X181096217Y-96658242D01*
X180605548Y-96455000D01*
X180074452Y-96455000D01*
X179583783Y-96658242D01*
X179347440Y-96894585D01*
X179347440Y-96890000D01*
X179298157Y-96642235D01*
X179157809Y-96432191D01*
X178947765Y-96291843D01*
X178700000Y-96242560D01*
X176900000Y-96242560D01*
X176652235Y-96291843D01*
X176442191Y-96432191D01*
X176301843Y-96642235D01*
X176298725Y-96657908D01*
X176129507Y-96488690D01*
X175565330Y-96255000D01*
X174954670Y-96255000D01*
X174845162Y-96300360D01*
X173566388Y-95021587D01*
X173851758Y-94736217D01*
X174026924Y-94313329D01*
X179047284Y-94313329D01*
X179190203Y-94658396D01*
X179537337Y-95046764D01*
X180006669Y-95272727D01*
X180213000Y-95150206D01*
X180213000Y-94107000D01*
X180467000Y-94107000D01*
X180467000Y-95150206D01*
X180673331Y-95272727D01*
X181142663Y-95046764D01*
X181489797Y-94658396D01*
X181632716Y-94313329D01*
X181509374Y-94107000D01*
X180467000Y-94107000D01*
X180213000Y-94107000D01*
X179170626Y-94107000D01*
X179047284Y-94313329D01*
X174026924Y-94313329D01*
X174055000Y-94245548D01*
X174055000Y-93714452D01*
X174026925Y-93646671D01*
X179047284Y-93646671D01*
X179170626Y-93853000D01*
X180213000Y-93853000D01*
X180213000Y-92809794D01*
X180467000Y-92809794D01*
X180467000Y-93853000D01*
X181509374Y-93853000D01*
X181632716Y-93646671D01*
X181489797Y-93301604D01*
X181142663Y-92913236D01*
X180673331Y-92687273D01*
X180467000Y-92809794D01*
X180213000Y-92809794D01*
X180006669Y-92687273D01*
X179537337Y-92913236D01*
X179190203Y-93301604D01*
X179047284Y-93646671D01*
X174026925Y-93646671D01*
X173851758Y-93223783D01*
X173480000Y-92852025D01*
X173480000Y-91177745D01*
X176971861Y-91177745D01*
X177045995Y-91423864D01*
X177583223Y-91616965D01*
X178153454Y-91589778D01*
X178554005Y-91423864D01*
X178628139Y-91177745D01*
X178588140Y-91137745D01*
X179511861Y-91137745D01*
X179585995Y-91383864D01*
X180123223Y-91576965D01*
X180693454Y-91549778D01*
X181094005Y-91383864D01*
X181168139Y-91137745D01*
X180340000Y-90309605D01*
X179511861Y-91137745D01*
X178588140Y-91137745D01*
X177800000Y-90349605D01*
X176971861Y-91177745D01*
X173480000Y-91177745D01*
X173480000Y-90744801D01*
X174271578Y-89953223D01*
X176353035Y-89953223D01*
X176380222Y-90523454D01*
X176546136Y-90924005D01*
X176792255Y-90998139D01*
X177620395Y-90170000D01*
X177979605Y-90170000D01*
X178807745Y-90998139D01*
X179053864Y-90924005D01*
X179076555Y-90860875D01*
X179086136Y-90884005D01*
X179332255Y-90958139D01*
X180160395Y-90130000D01*
X179332255Y-89301861D01*
X179086136Y-89375995D01*
X179063445Y-89439125D01*
X179053864Y-89415995D01*
X178807745Y-89341861D01*
X177979605Y-90170000D01*
X177620395Y-90170000D01*
X176792255Y-89341861D01*
X176546136Y-89415995D01*
X176353035Y-89953223D01*
X174271578Y-89953223D01*
X175794803Y-88430000D01*
X176455153Y-88430000D01*
X176530000Y-88444888D01*
X176564864Y-88437953D01*
X176583466Y-88482862D01*
X176987138Y-88886534D01*
X177052299Y-88913525D01*
X177045995Y-88916136D01*
X176971861Y-89162255D01*
X177800000Y-89990395D01*
X178628139Y-89162255D01*
X178554005Y-88916136D01*
X178547254Y-88913710D01*
X178612862Y-88886534D01*
X179016534Y-88482862D01*
X179054999Y-88390000D01*
X179101570Y-88390000D01*
X179123466Y-88442862D01*
X179527138Y-88846534D01*
X179592299Y-88873525D01*
X179585995Y-88876136D01*
X179511861Y-89122255D01*
X180340000Y-89950395D01*
X181168139Y-89122255D01*
X181094005Y-88876136D01*
X181087254Y-88873710D01*
X181152862Y-88846534D01*
X181556534Y-88442862D01*
X181610000Y-88313784D01*
X181663466Y-88442862D01*
X181663466Y-88442862D01*
G37*
X181663466Y-88442862D02*
X182067138Y-88846534D01*
X182147932Y-88880000D01*
X182067138Y-88913466D01*
X181663466Y-89317138D01*
X181616475Y-89430583D01*
X181593864Y-89375995D01*
X181347745Y-89301861D01*
X180519605Y-90130000D01*
X181347745Y-90958139D01*
X181593864Y-90884005D01*
X181614874Y-90825552D01*
X181663466Y-90942862D01*
X182067138Y-91346534D01*
X182120000Y-91368430D01*
X182120001Y-99380197D01*
X179547440Y-101952759D01*
X179547440Y-100500000D01*
X179498157Y-100252235D01*
X179357809Y-100042191D01*
X179147765Y-99901843D01*
X178900000Y-99852560D01*
X178395029Y-99852560D01*
X178390329Y-99845526D01*
X178390327Y-99845524D01*
X178347929Y-99782071D01*
X178284476Y-99739673D01*
X177882243Y-99337440D01*
X178700000Y-99337440D01*
X178947765Y-99288157D01*
X179157809Y-99147809D01*
X179298157Y-98937765D01*
X179347440Y-98690000D01*
X179347440Y-98685415D01*
X179583783Y-98921758D01*
X180074452Y-99125000D01*
X180605548Y-99125000D01*
X181096217Y-98921758D01*
X181471758Y-98546217D01*
X181675000Y-98055548D01*
X181675000Y-97524452D01*
X181471758Y-97033783D01*
X181096217Y-96658242D01*
X180605548Y-96455000D01*
X180074452Y-96455000D01*
X179583783Y-96658242D01*
X179347440Y-96894585D01*
X179347440Y-96890000D01*
X179298157Y-96642235D01*
X179157809Y-96432191D01*
X178947765Y-96291843D01*
X178700000Y-96242560D01*
X176900000Y-96242560D01*
X176652235Y-96291843D01*
X176442191Y-96432191D01*
X176301843Y-96642235D01*
X176298725Y-96657908D01*
X176129507Y-96488690D01*
X175565330Y-96255000D01*
X174954670Y-96255000D01*
X174845162Y-96300360D01*
X173566388Y-95021587D01*
X173851758Y-94736217D01*
X174026924Y-94313329D01*
X179047284Y-94313329D01*
X179190203Y-94658396D01*
X179537337Y-95046764D01*
X180006669Y-95272727D01*
X180213000Y-95150206D01*
X180213000Y-94107000D01*
X180467000Y-94107000D01*
X180467000Y-95150206D01*
X180673331Y-95272727D01*
X181142663Y-95046764D01*
X181489797Y-94658396D01*
X181632716Y-94313329D01*
X181509374Y-94107000D01*
X180467000Y-94107000D01*
X180213000Y-94107000D01*
X179170626Y-94107000D01*
X179047284Y-94313329D01*
X174026924Y-94313329D01*
X174055000Y-94245548D01*
X174055000Y-93714452D01*
X174026925Y-93646671D01*
X179047284Y-93646671D01*
X179170626Y-93853000D01*
X180213000Y-93853000D01*
X180213000Y-92809794D01*
X180467000Y-92809794D01*
X180467000Y-93853000D01*
X181509374Y-93853000D01*
X181632716Y-93646671D01*
X181489797Y-93301604D01*
X181142663Y-92913236D01*
X180673331Y-92687273D01*
X180467000Y-92809794D01*
X180213000Y-92809794D01*
X180006669Y-92687273D01*
X179537337Y-92913236D01*
X179190203Y-93301604D01*
X179047284Y-93646671D01*
X174026925Y-93646671D01*
X173851758Y-93223783D01*
X173480000Y-92852025D01*
X173480000Y-91177745D01*
X176971861Y-91177745D01*
X177045995Y-91423864D01*
X177583223Y-91616965D01*
X178153454Y-91589778D01*
X178554005Y-91423864D01*
X178628139Y-91177745D01*
X178588140Y-91137745D01*
X179511861Y-91137745D01*
X179585995Y-91383864D01*
X180123223Y-91576965D01*
X180693454Y-91549778D01*
X181094005Y-91383864D01*
X181168139Y-91137745D01*
X180340000Y-90309605D01*
X179511861Y-91137745D01*
X178588140Y-91137745D01*
X177800000Y-90349605D01*
X176971861Y-91177745D01*
X173480000Y-91177745D01*
X173480000Y-90744801D01*
X174271578Y-89953223D01*
X176353035Y-89953223D01*
X176380222Y-90523454D01*
X176546136Y-90924005D01*
X176792255Y-90998139D01*
X177620395Y-90170000D01*
X177979605Y-90170000D01*
X178807745Y-90998139D01*
X179053864Y-90924005D01*
X179076555Y-90860875D01*
X179086136Y-90884005D01*
X179332255Y-90958139D01*
X180160395Y-90130000D01*
X179332255Y-89301861D01*
X179086136Y-89375995D01*
X179063445Y-89439125D01*
X179053864Y-89415995D01*
X178807745Y-89341861D01*
X177979605Y-90170000D01*
X177620395Y-90170000D01*
X176792255Y-89341861D01*
X176546136Y-89415995D01*
X176353035Y-89953223D01*
X174271578Y-89953223D01*
X175794803Y-88430000D01*
X176455153Y-88430000D01*
X176530000Y-88444888D01*
X176564864Y-88437953D01*
X176583466Y-88482862D01*
X176987138Y-88886534D01*
X177052299Y-88913525D01*
X177045995Y-88916136D01*
X176971861Y-89162255D01*
X177800000Y-89990395D01*
X178628139Y-89162255D01*
X178554005Y-88916136D01*
X178547254Y-88913710D01*
X178612862Y-88886534D01*
X179016534Y-88482862D01*
X179054999Y-88390000D01*
X179101570Y-88390000D01*
X179123466Y-88442862D01*
X179527138Y-88846534D01*
X179592299Y-88873525D01*
X179585995Y-88876136D01*
X179511861Y-89122255D01*
X180340000Y-89950395D01*
X181168139Y-89122255D01*
X181094005Y-88876136D01*
X181087254Y-88873710D01*
X181152862Y-88846534D01*
X181556534Y-88442862D01*
X181610000Y-88313784D01*
X181663466Y-88442862D01*
G04 #@! TD*
M02*
